<?xml version="1.0" encoding="UTF-8" standalone="no"?>
<!-- Created with Inkscape (http://www.inkscape.org/) -->

<svg
   xmlns:dc="http://purl.org/dc/elements/1.1/"
   xmlns:cc="http://creativecommons.org/ns#"
   xmlns:rdf="http://www.w3.org/1999/02/22-rdf-syntax-ns#"
   xmlns:svg="http://www.w3.org/2000/svg"
   xmlns="http://www.w3.org/2000/svg"
   xmlns:sodipodi="http://sodipodi.sourceforge.net/DTD/sodipodi-0.dtd"
   xmlns:inkscape="http://www.inkscape.org/namespaces/inkscape"
   version="1.1"
   id="svg44"
   width="153"
   height="36"
   viewBox="0 0 153 36"
   sodipodi:docname="authentication.svg"
   inkscape:version="0.92.3 (2405546, 2018-03-11)">
  <metadata
     id="metadata50">
    <rdf:RDF>
      <cc:Work
         rdf:about="">
        <dc:format>image/svg+xml</dc:format>
        <dc:type
           rdf:resource="http://purl.org/dc/dcmitype/StillImage" />
        <dc:title></dc:title>
      </cc:Work>
    </rdf:RDF>
  </metadata>
  <defs
     id="defs48" />
  <sodipodi:namedview
     pagecolor="#ffffff"
     bordercolor="#666666"
     borderopacity="1"
     objecttolerance="10"
     gridtolerance="10"
     guidetolerance="10"
     inkscape:pageopacity="0"
     inkscape:pageshadow="2"
     inkscape:window-width="1366"
     inkscape:window-height="715"
     id="namedview46"
     showgrid="false"
     inkscape:zoom="7.9150327"
     inkscape:cx="76.5"
     inkscape:cy="18"
     inkscape:window-x="-8"
     inkscape:window-y="-8"
     inkscape:window-maximized="1"
     inkscape:current-layer="svg44" />
  <g
     id="g54">
    <path
       style="fill:#cfebf4"
       d="m 95.25923,34.85923 c -0.848204,-0.848204 -0.444142,-1.828164 1.594294,-3.8666 3.622806,-3.622811 5.156516,-8.667637 5.850046,-19.24263 0.76995,-11.74026997 2.81288,-11.98193538 3.53433,-0.418088 0.57431,9.205507 2.87347,15.59329 7.12279,19.789331 2.20492,2.17728 2.41986,2.815994 1.26903,3.771097 -1.09739,0.910754 -2.0317,0.413865 -4.49315,-2.389582 -1.70922,-1.946691 -3.38796,-4.656184 -3.73053,-6.021098 -0.84339,-3.36034 -1.77342,-3.120048 -3.20068,0.826961 -1.63121,4.511051 -6.427828,9.068911 -7.94613,7.550609 z M 51.531371,33.388514 c -1.259759,-1.259759 -1.548177,-3.278687 -1.321428,-9.25 L 50.5,16.5 61.25,16.216168 72,15.932337 V 11.966168 8 H 61 C 51.888889,8 50,7.7424242 50,6.5 50,5.2466667 52.055556,5 62.5,5 H 75 v 8.5 C 75,20.388889 74.715686,22 73.5,22 72.675,22 72,21.55 72,21 72,20.407407 68.333333,20 63,20 h -9 v 6 6 h 9.8 C 73.908188,32 76,31.279868 76,27.8 c 0,-1.706693 2.003209,-2.463457 3.24194,-1.224727 0.866976,0.866977 -1.024232,6.669119 -2.473669,7.589105 -0.697549,0.442748 -6.298628,0.811887 -12.446842,0.820309 -8.961365,0.01228 -11.498201,-0.304316 -12.790058,-1.596173 z m 70.990999,0.647685 c -0.33817,-0.547176 -0.14405,-1.874582 0.43139,-2.949791 C 123.52919,30.011199 124,26.401899 124,23.065741 124,17.262284 123.8919,17 121.5,17 c -1.55556,0 -2.5,-0.566667 -2.5,-1.5 0,-1.083333 1.11111,-1.5 4,-1.5 h 4 v 7.2 c 0,5.6 0.26667,6.933333 1.2,6 1.70388,-1.703885 2.80349,-1.486231 2.77865,0.55 -0.0258,2.112737 -7.5697,7.720712 -8.45628,6.286199 z m 6.88387,-0.187903 c -0.39148,-0.633437 0.0116,-1.680682 0.89581,-2.32721 1.19145,-0.87121 1.68401,-3.22362 1.90278,-9.087452 0.24625,-6.60064 0.58521,-7.96733 2.04517,-8.246114 1.55657,-0.297232 1.75,0.61345 1.75,8.239156 C 136,30.333333 136.15552,31 138,31 c 1.87879,0 2,-0.666667 2,-11 V 9 h -4.5 C 131.66667,9 131,8.7037037 131,7 c 0,-1.8676372 0.66667,-2 10.07332,-2 9.05332,0 10.03975,0.1772023 9.74169,1.75 -0.23178,1.2230225 -1.45838,1.8434603 -4.07333,2.0603653 C 143.10513,9.1120103 143,9.2314205 143,13.060365 143,16.896138 143.09227,17 146.5,17 c 2.44444,0 3.5,0.452381 3.5,1.5 0,1.047619 -1.05556,1.5 -3.5,1.5 H 143 v 5.442502 5.442502 l 4.24137,0.307498 c 3.09392,0.224308 4.33118,0.780942 4.57333,2.057498 0.29986,1.580836 -0.73275,1.75 -10.68236,1.75 -7.23139,0 -11.25877,-0.395558 -11.7261,-1.151704 z M 87.804667,25.5 88.250803,17 H 85.125402 C 83.013934,17 82,16.513374 82,15.5 82,14.366667 83.222222,14 87,14 h 5 v 7.122445 c 0,6.304662 0.177093,6.975471 1.542382,5.842381 1.155283,-0.9588 1.828731,-0.993713 2.683333,-0.139111 0.627523,0.627523 0.945952,1.29619 0.707618,1.485925 C 93.147534,31.325487 89.104772,34 88.334875,34 87.741335,34 87.533452,30.667329 87.804667,25.5 Z M 8.6424244,23.212357 C 4.6526217,13.586636 4.2063728,11 6.5355374,11 c 0.8887261,0 2.3653121,2.000833 3.5054316,4.75 1.083442,2.6125 2.544029,6.027347 3.245748,7.588548 l 1.275852,2.838549 9.858704,-11.088549 C 33.896279,4.4315619 37.511433,1.7590954 36.819551,5.9232439 36.420616,8.3242689 15.303664,32 13.561068,32 12.859147,32 10.645758,28.045561 8.6424244,23.212357 Z M 21.5,29 c -1.115213,-1.804452 0.367661,-2.713753 6.342493,-3.88923 3.489474,-0.686512 6.639231,-1.985588 7.726048,-3.186506 1.793009,-1.981254 1.769565,-2.079538 -1.028155,-4.310363 -1.675017,-1.335611 -2.564108,-2.766501 -2.142678,-3.44839 1.063117,-1.720159 2.110249,-1.450418 5.525567,1.423383 3.703083,3.115939 3.938066,6.25329 0.696453,9.298627 C 34.689674,28.579616 22.97882,31.392782 21.5,29 Z M 2.6549876,24.171259 C 0.66306184,21.970206 0.50673212,18.654265 2.3237936,17.146238 3.902728,15.835839 6.1217951,17.519032 5.376346,19.461641 5.1192958,20.131503 5.6044611,21.256769 6.454491,21.962231 7.304521,22.667693 8,23.864789 8,24.622445 8,26.605424 4.5979894,26.318252 2.6549876,24.171259 Z M 10.642818,14.511581 C 9.8013953,12.318869 13.103259,11 19.434259,11 23.765614,11 25,11.339635 25,12.531385 c 0,1.837029 -0.827519,2.1298 -8.144421,2.881438 -4.445151,0.456634 -5.765176,0.265147 -6.212761,-0.901242 z M 88.510787,8.0112594 c -2.512536,-2.6225227 -2.633426,-3.026968 -1.082644,-3.6220589 1.154225,-0.4429179 2.582723,0.1671199 4.216069,1.8004663 2.058697,2.0586964 2.239109,2.6622786 1.082645,3.6220589 -1.093417,0.9074553 -1.987535,0.5256233 -4.21607,-1.8004663 z M 123.75,8.4784018 C 122.2375,7.1680433 121,5.6243472 121,5.0479659 c 0,-1.8685939 2.59237,-1.1107713 5.01244,1.465278 3.24735,3.4566476 1.3557,5.0997411 -2.26244,1.9651579 z"
       id="path68"
       inkscape:connector-curvature="0" />
    <path
       style="fill:#bae2ef"
       d="M 95.637449,35.222397 C 95.248644,34.593298 96.26376,32.238112 97.893262,29.98865 101.33517,25.237237 103,18.541749 103,9.4507789 103,4.6449711 103.35053,3 104.3746,3 c 1.01877,0 1.49082,2.1355868 1.82358,8.25 0.4917,9.03491 2.95539,15.994481 7.14529,20.184379 1.96815,1.968149 2.2086,2.692482 1.17779,3.547981 -1.55681,1.292034 -5.69336,-3.176942 -8.19454,-8.853082 L 104.72749,22.5 l -1.00872,3.251104 c -1.30679,4.211778 -7.120679,11.025645 -8.081321,9.471293 z M 51.872445,33.348574 C 50.974487,32.268085 50.5,29.070141 50.5,24.098574 V 16.5 L 61.25,16.216168 72,15.932337 V 11.966168 8 H 61 C 51.888889,8 50,7.7424242 50,6.5 50,5.2466667 52.055556,5 62.5,5 H 75 v 8.5 C 75,20.388889 74.715686,22 73.5,22 72.675,22 72,21.325 72,20.5 72,19.277778 70.333333,19 63,19 h -9 v 6.533832 6.533831 L 64.75,31.783832 75.5,31.5 75.816422,28.75 C 76.246756,25.01001 79,25.09218 79,28.845012 79,34.004753 76.622027,35 64.293704,35 55.242975,35 52.996694,34.701353 51.872445,33.348574 Z M 122.52824,34.0457 c -0.3414,-0.552402 -0.14992,-1.884083 0.42552,-2.959292 C 123.52919,30.011199 124,26.401899 124,23.065741 124,17.262284 123.8919,17 121.5,17 c -1.55556,0 -2.5,-0.566667 -2.5,-1.5 0,-1.083333 1.11111,-1.5 4,-1.5 h 4 v 6.90638 c 0,6.414051 0.14257,6.869097 2,6.383369 1.1,-0.287656 2,-0.05834 2,0.50959 0,1.643155 -7.77413,7.375145 -8.47176,6.246361 z M 130,33.640821 c 0,-0.784764 0.675,-1.685865 1.5,-2.002447 1.17271,-0.450011 1.5,-2.455286 1.5,-9.190323 0,-6.445925 0.31469,-8.510483 1.25,-8.200684 0.8407,0.278463 1.34461,3.252714 1.53893,9.083334 C 136.05046,31.17774 136.26387,32 138.03893,32 139.87807,32 140,31.253922 140,20 V 8 h -4.5 C 132.11952,8 131,7.617817 131,6.463788 c 0,-1.2954293 1.51549,-1.4913517 9.66894,-1.25 6.63341,0.1963568 9.79904,0.6786448 10.08333,1.536212 C 151.03856,7.6135746 149.90434,8 147.08333,8 H 143 v 4.5 c 0,4.47619 0.0185,4.5 3.5,4.5 2.44444,0 3.5,0.452381 3.5,1.5 0,1.047619 -1.05556,1.5 -3.5,1.5 H 143 v 6 6 h 4.58333 c 3.22117,0 4.46009,0.3715 4.16865,1.25 C 151.10758,35.192437 130,35.57168 130,33.640821 Z M 87.635081,33.218566 C 87.358368,32.770834 87.545383,31.750994 88.05067,30.952254 88.555958,30.153514 88.976265,26.6875 88.984687,23.25 L 89,17 H 86 C 84,17 83,16.5 83,15.5 83,14.388889 84.166667,14 87.5,14 H 92 v 7.035184 c 0,6.65192 0.10565,6.978641 1.939312,5.997295 3.410945,-1.825482 3.278388,0.703856 -0.170578,3.25481 -4.593203,3.397264 -5.560081,3.859336 -6.133653,2.931277 z M 9.3788077,24.303503 C 4.9214593,14.522496 4.139886,11 6.4270195,11 c 0.9283361,0 2.108814,1.227702 2.644221,2.75 0.5319608,1.5125 1.9853395,4.957044 3.2297305,7.654541 l 2.26253,4.904541 9.838417,-10.904541 C 29.813048,9.4070435 34.636024,4.3500789 35.119642,4.166842 35.60326,3.9836051 36.263262,4.522475 36.586312,5.3643308 36.976088,6.3800694 33.364144,11.117631 25.849232,19.447489 19.620787,26.35137 14.156108,32 13.7055,32 13.254893,32 11.307881,28.536577 9.3788077,24.303503 Z M 21.543608,29.070559 C 20.610982,27.561539 21.797895,26 23.877516,26 c 3.552931,0 12.244267,-3.153787 12.819026,-4.651583 0.372571,-0.970907 -0.481102,-2.406346 -2.3022,-3.871119 -2.321642,-1.867378 -2.647544,-2.579693 -1.647061,-3.59994 1.007306,-1.027205 1.762021,-0.887611 3.922669,0.725546 4.118541,3.074934 4.906146,4.837288 3.520712,7.877984 -1.897473,4.164499 -16.874755,9.457312 -18.647054,6.589671 z M 2.4402598,23.549169 C 0.50329733,20.592991 0.88375306,17.646068 3.2614835,17.188159 4.5310143,16.94367 5,17.514506 5,19.304231 c 0,1.347984 0.6700453,3.006968 1.4889895,3.686631 0.8189443,0.679663 1.2423866,1.634764 0.940983,2.122445 -1.0152734,1.642747 -3.372681,0.903764 -4.9897127,-1.564138 z M 11.283667,14.29684 c -0.816,-2.12646 0.274739,-2.637278 6.609784,-3.095514 3.878115,-0.280517 6.101064,-0.01922 6.591822,0.774845 1.187631,1.921628 -0.588555,2.767286 -6.828068,3.2509 -4.371585,0.338834 -5.976435,0.104603 -6.373538,-0.930231 z M 123.61141,8.1162869 c -1.93507,-2.0197776 -2.41631,-3.1188294 -1.58942,-3.6298776 1.66298,-1.0277766 6.73397,4.1576272 5.38505,5.506547 -0.69363,0.6936387 -1.90867,0.092889 -3.79563,-1.8766694 z M 88.099109,7.6054964 C 86.706007,6.1226078 86.248179,4.964651 86.896549,4.5639362 88.277843,3.7102493 93,6.8445097 93,8.6150099 93,10.753429 90.590088,10.257022 88.099109,7.6054964 Z"
       id="path66"
       inkscape:connector-curvature="0" />
    <path
       style="fill:#aadceb"
       d="M 95.600514,35.162636 C 95.171443,34.468384 95.934498,32.678125 97.403673,30.932108 100.89968,26.777339 103,19.040988 103,10.318499 103,4.4798332 103.30331,3 104.5,3 c 1.18971,0 1.5,1.4402764 1.5,6.9624874 0,7.8858716 2.65586,16.2866376 6.64935,21.0326396 1.37169,1.630162 2.19206,3.452458 1.82304,4.049545 -1.01347,1.639836 -4.28405,-1.75847 -7.2611,-7.544672 l -2.57254,-5 -0.96435,3.251104 c -1.27303,4.291729 -7.065233,11.043566 -8.073886,9.411532 z M 52.2,33.8 C 51.471795,33.071795 51,29.533333 51,24.8 V 17 H 61.5 72 V 12.5 8 H 61 C 51.888889,8 50,7.7424242 50,6.5 50,5.2464087 52.060049,5 62.540442,5 h 12.540443 l -0.290443,8.16951 C 74.59743,18.598538 74.080684,21.477839 73.25,21.752844 72.5625,21.980446 72,21.43728 72,20.545808 72,19.147425 70.730361,18.964414 62.75,19.212474 L 53.5,19.5 v 6 6 h 11 11 l 0.322143,-2.809286 c 0.184637,-1.610149 0.824908,-2.641896 1.5,-2.417133 1.870841,0.622872 1.983948,3.61032 0.237597,6.275588 C 76.012566,34.910456 75.541876,35 64.676947,35 57.239322,35 52.991451,34.591451 52.2,33.8 Z m 70.24602,0.112664 c -0.36946,-0.597811 -0.17096,-1.587719 0.44111,-2.199796 C 123.49921,31.10079 124,27.54 124,23.8 c 0,-6.586667 -0.0784,-6.8 -2.5,-6.8 -1.55556,0 -2.5,-0.566667 -2.5,-1.5 0,-1.083333 1.11111,-1.5 4,-1.5 h 4 v 6.90638 c 0,6.414051 0.14257,6.869097 2,6.383369 3.16554,-0.827808 2.34122,1.101307 -1.94111,4.542683 -2.51191,2.018627 -4.18471,2.772999 -4.61287,2.080232 z M 87.635081,33.218566 C 87.358368,32.770834 87.545383,31.750994 88.05067,30.952254 88.555958,30.153514 88.976265,26.6875 88.984687,23.25 L 89,17 h -3 c -2.049222,0 -3,-0.493611 -3,-1.557498 0,-1.213919 0.937537,-1.489665 4.25,-1.25 L 91.5,14.5 l 0.295932,6.760602 c 0.275051,6.283592 0.429523,6.689106 2.189311,5.747296 3.324733,-1.779343 3.137886,0.662542 -0.244987,3.2017 -4.636609,3.480205 -5.53905,3.924978 -6.105175,3.008968 z M 130,33 c 0,-0.55 0.675,-1 1.5,-1 1.21569,0 1.5,-1.611111 1.5,-8.5 0,-6.888889 0.28431,-8.5 1.5,-8.5 1.21569,0 1.5,1.611111 1.5,8.5 0,7.833333 0.15686,8.5 2,8.5 1.88889,0 2,-0.666667 2,-12 V 8 h -4.5 C 133.025,8 131,7.55 131,7 c 0,-0.6 4,-1 10,-1 6,0 10,0.4 10,1 0,0.55 -1.8,1 -4,1 h -4 v 4.5 c 0,4.47619 0.0185,4.5 3.5,4.5 2.44444,0 3.5,0.452381 3.5,1.5 0,1.047619 -1.05556,1.5 -3.5,1.5 H 143 v 6 6 h 4.5 c 2.475,0 4.5,0.45 4.5,1 0,0.606061 -4.33333,1 -11,1 -6.66667,0 -11,-0.393939 -11,-1 z M 12.601214,31.163768 C 10.453629,27.688902 5.0158785,13.401005 5.4301324,12.321476 6.4460545,9.6740256 7.8325331,11.139171 10.567185,17.75 c 1.535723,3.7125 3.099016,7.11516 3.473986,7.561467 0.37497,0.446308 5.127461,-4.053692 10.56109,-10 9.73007,-10.6481272 11.354077,-11.9424529 12.116077,-9.656452 0.358611,1.0758321 -20.815146,25.48065 -22.685953,26.147771 -0.467007,0.166533 -1.111034,-0.121025 -1.431171,-0.639018 z m 9.348089,-2.724855 C 20.606162,26.820528 21.097919,26.557831 27.465445,25.492182 32.611084,24.631025 37,22.33183 37,20.497373 c 0,-0.798197 -1.132869,-2.193551 -2.517486,-3.100787 -1.952745,-1.279488 -2.265681,-1.952928 -1.394995,-3.00204 1.422666,-1.714207 4.243745,-0.3448 6.554332,3.181602 1.327248,2.025637 1.422052,2.988185 0.494763,5.023363 -2.016706,4.426187 -15.711105,8.823049 -18.187311,5.839402 z M 2.440125,23.548963 c -0.9454686,-1.442967 -1.3385173,-3.29374 -0.9556653,-4.5 C 2.3910255,16.192627 5,16.436484 5,19.377555 c 0,1.307656 0.6700453,2.933644 1.4889895,3.613307 0.8189443,0.679663 1.2423866,1.634764 0.940983,2.122445 C 6.4146707,26.7561 4.057273,26.017043 2.440125,23.548963 Z m 8.81162,-9.33531 C 10.451532,12.128332 11.592357,11.700998 18.235787,11.597546 23.180664,11.520545 24.5,11.815922 24.5,13 c 0,2.040784 -12.491727,3.185133 -13.248255,1.213653 z M 123.61141,8.1162869 c -3.4915,-3.6443409 -1.79237,-5.042427 2.06622,-1.7001385 1.9933,1.7265921 2.512,2.7608418 1.76578,3.5208802 -0.75039,0.7642824 -1.86092,0.2366244 -3.832,-1.8207417 z M 88.641608,7.5900439 C 86.693375,5.9964805 86.159718,5.0193229 86.965636,4.5212382 88.134045,3.7991215 93,7.5512413 93,9.174314 93,10.543181 91.653721,10.05381 88.641608,7.5900439 Z"
       id="path64"
       inkscape:connector-curvature="0" />
    <path
       style="fill:#8ed0e5"
       d="M 95.494509,34.991115 C 95.107283,34.364571 95.684971,32.872757 96.778258,31.675972 100.90559,27.15792 102.30836,22.744566 102.79382,12.75 103.15057,5.405104 103.60443,3 104.6337,3 105.65562,3 106,4.7243051 106,9.8410691 c 0,8.6051719 1.99419,15.3238599 6.04413,20.3634669 1.73615,2.160413 2.86489,4.219781 2.50829,4.576374 -1.29987,1.299874 -4.12032,-1.610294 -7.01759,-7.240821 -2.6579,-5.165333 -3.0308,-5.51713 -3.59839,-3.394814 -1.65977,6.206091 -7.03856,13.116542 -8.441931,10.84584 z M 52.75,33.919901 C 51.315549,33.08441 51,31.467069 51,24.95031 V 17 H 61.5 72 V 12.5 8 H 61 C 51.888889,8 50,7.7424242 50,6.5 50,5.2464087 52.060049,5 62.540442,5 h 12.540443 l -0.290443,8.16951 C 74.59743,18.598538 74.080684,21.477839 73.25,21.752844 72.5625,21.980446 72,21.454167 72,20.583333 72,19.249445 70.495814,19 62.452283,19 H 52.904565 L 53.202283,25.25 53.5,31.5 h 10.954915 c 10.61957,0 10.971601,-0.07068 11.5,-2.309017 C 76.254712,27.921024 76.95,26.890699 77.5,26.901372 c 1.901859,0.03691 1.615204,3.983424 -0.438507,6.037135 -1.818566,1.818566 -3.269356,2.05791 -12.311493,2.031084 -5.6375,-0.01672 -11.0375,-0.489085 -12,-1.04969 z M 87.614092,33.184605 C 87.348923,32.755552 87.545383,31.750994 88.05067,30.952254 88.555958,30.153514 88.976265,26.6875 88.984687,23.25 L 89,17 h -3 c -2,0 -3,-0.5 -3,-1.5 0,-1.083333 1.111111,-1.5 4,-1.5 h 4 v 7 c 0,7.114684 0.983771,8.616229 3.8,5.8 0.933333,-0.933333 1.2,-0.851753 1.2,0.367114 0,1.757633 -7.633369,7.235124 -8.385908,6.017491 z m 34.928618,-0.115507 c -0.31644,-0.511996 -0.11799,-1.213553 0.44098,-1.559017 C 123.54266,31.164618 124,27.758524 124,23.940983 124,17.203934 123.92655,17 121.5,17 c -1.59854,0 -2.5,-0.562642 -2.5,-1.560365 0,-1.191598 0.88625,-1.487016 3.75,-1.25 L 126.5,14.5 l 0.29689,6.802506 c 0.27194,6.230986 0.46098,6.750426 2.25,6.182613 3.05115,-0.968398 2.29781,1.014586 -1.48017,3.896192 -3.80414,2.901559 -4.1931,3.03223 -5.02401,1.687787 z M 130,33 c 0,-0.55 0.675,-1 1.5,-1 1.21569,0 1.5,-1.611111 1.5,-8.5 0,-5 0.41176,-8.5 1,-8.5 0.58824,0 1,3.5 1,8.5 0,8.4 0.0294,8.5 2.5,8.5 H 140 V 20 8 h -4.5 C 133.025,8 131,7.55 131,7 c 0,-0.6 4,-1 10,-1 6,0 10,0.4 10,1 0,0.55 -1.8,1 -4,1 h -4 v 5 5 h 3.5 c 1.925,0 3.5,0.45 3.5,1 0,0.55 -1.575,1 -3.5,1 H 143 v 6 6 h 4 c 2.2,0 4,0.45 4,1 0,0.603175 -4.16667,1 -10.5,1 C 134.16667,34 130,33.603175 130,33 Z M 12.164144,30.273086 C 11.65213,29.297889 9.7746337,24.978604 7.9919296,20.674675 5.6204361,14.949251 5.0479798,12.55202 5.858658,11.741342 c 1.4714582,-1.471458 1.6664982,-1.203944 4.932737,6.765663 1.546477,3.773395 3.238563,6.956708 3.760191,7.074028 0.521627,0.11732 5.37255,-4.694333 10.779828,-10.692562 C 33.986709,5.2872539 37,2.9815963 37,5.9601057 37,6.9484087 16.284287,30.137153 14.386596,31.273086 c -0.800137,0.478952 -1.645708,0.09848 -2.222452,-1 z m 10.350814,-1.091462 c -1.577782,-1.577782 0.01531,-2.982457 4.002276,-3.528932 C 32.03594,24.896269 37,22.454994 37,20.497373 37,19.699176 35.851894,18.293838 34.448653,17.3744 c -2.929995,-1.919807 -1.887017,-3.965694 1.477325,-2.897894 5.877107,1.865322 5.88937,9.01626 0.02067,12.051085 -3.300366,1.706686 -12.551131,3.53459 -13.431687,2.654033 z M 2.440125,23.548963 c -0.9454686,-1.442967 -1.3385173,-3.29374 -0.9556653,-4.5 C 2.3910255,16.192627 5,16.436484 5,19.377555 c 0,1.307656 0.6700453,2.933644 1.4889895,3.613307 0.8189443,0.679663 1.2423866,1.634764 0.940983,2.122445 C 6.4146707,26.7561 4.057273,26.017043 2.440125,23.548963 Z M 11,13.630842 C 11,11.349908 23.250625,9.9784695 24.569098,12.111803 25.692806,13.93 22.86661,14.968398 16.75,14.984687 12.542319,14.995893 11,14.632752 11,13.630842 Z M 123.61141,8.1162869 c -3.46498,-3.6166606 -2.02362,-4.8245167 1.94681,-1.6314137 2.08141,1.6739177 2.63276,2.6820728 1.88519,3.4470805 -0.75251,0.7700553 -1.85535,0.2475103 -3.832,-1.8156668 z M 89.003704,7.5039431 C 87.713996,6.1311117 86.962329,4.7043374 87.333333,4.3333333 88.063948,3.6027182 93,7.8195412 93,9.174314 c 0,1.526829 -1.634506,0.843639 -3.996296,-1.6703709 z"
       id="path62"
       inkscape:connector-curvature="0" />
    <path
       style="fill:#78c7e0"
       d="M 52.75,33.919901 C 51.315549,33.08441 51,31.467069 51,24.95031 V 17 H 61.5 72 V 12.533832 8.0676634 L 61.331354,7.7838317 C 53.895568,7.5860079 50.537048,7.1212195 50.248021,6.25 49.930952,5.294255 52.7955,5 62.416667,5 H 75 v 8 c 0,6.444444 -0.291667,8 -1.5,8 C 72.675,21 72,20.55 72,20 72,19.403509 68.166667,19 62.5,19 H 53 v 5.940983 c 0,3.267541 0.496974,6.24813 1.104387,6.623532 1.760585,1.088101 13.35549,1.759395 17.372533,1.005793 2.871956,-0.538783 3.890664,-1.326312 4.693053,-3.628047 0.563667,-1.616938 1.431015,-2.688864 1.927438,-2.382057 C 79.659061,27.525356 79.080695,30.919305 77,33 c -1.744551,1.744551 -3.309177,1.996116 -12.25,1.969591 -5.6375,-0.01672 -11.0375,-0.489085 -12,-1.04969 z M 95,34.174314 c 0,-0.454127 1.133129,-1.890206 2.518065,-3.191285 C 100.64927,28.041412 102.9957,20.39254 103.01365,13.068499 103.02911,6.7657011 103.81564,3 105.11663,3 105.60248,3 106,6.3701731 106,10.489273 c 0,8.665502 2.4484,16.281772 6.64085,20.657741 1.49234,1.557668 2.44719,3.098277 2.12189,3.423575 -1.37916,1.379167 -4.80051,-1.948441 -7.33993,-7.138837 l -2.72983,-5.579569 -1.18222,3.438837 C 101.92991,29.889429 98.203767,35 96.431906,35 95.644358,35 95,34.628441 95,34.174314 Z M 87.531798,33.051449 C 87.221366,32.54916 87.424717,31.855545 87.983688,31.510081 88.54266,31.164618 89,27.758524 89,23.940983 V 17 h -3 c -2,0 -3,-0.5 -3,-1.5 0,-1.083333 1.111111,-1.5 4,-1.5 h 4 v 7.61501 7.61501 l 2.5,-1.638063 c 2.015556,-1.320643 2.5,-1.36868 2.5,-0.247896 0,1.750339 -7.704533,6.943031 -8.468202,5.707388 z M 123.80467,25.5 124.2508,17 h -2.6254 C 119.95838,17 119,16.452439 119,15.5 c 0,-1.047619 1.05556,-1.5 3.5,-1.5 h 3.5 v 7.535184 c 0,7.328449 0.0572,7.50456 2.08565,6.418979 3.5544,-1.902261 3.46426,-0.06242 -0.14825,3.025925 -1.89057,1.616247 -3.69423,2.956919 -4.00813,2.979271 C 123.61536,33.981712 123.55929,30.175 123.80467,25.5 Z M 130,33 c 0,-0.55 0.675,-1 1.5,-1 1.21569,0 1.5,-1.611111 1.5,-8.5 0,-5 0.41176,-8.5 1,-8.5 0.58824,0 1,3.5 1,8.5 0,8.4 0.0294,8.5 2.5,8.5 H 140 V 20 8 h -4.5 C 133.025,8 131,7.55 131,7 c 0,-0.6 4,-1 10,-1 6,0 10,0.4 10,1 0,0.55 -1.8,1 -4,1 h -4 v 5 5 h 3.5 c 1.925,0 3.5,0.45 3.5,1 0,0.55 -1.575,1 -3.5,1 H 143 v 6 6 h 4 c 2.2,0 4,0.45 4,1 0,0.603175 -4.16667,1 -10.5,1 C 134.16667,34 130,33.603175 130,33 Z M 8.6525806,21.843054 C 6.4826141,16.528286 5.2854131,12.314587 5.7993275,11.800673 c 1.2165776,-1.216578 2.3780937,0.511767 5.7018535,8.484402 1.555768,3.73179 3.137178,6.43179 3.514243,6 C 27.047666,12.50652 35.444199,4.0441994 36.266996,4.8669961 37.418323,6.0183231 36.161003,7.7049632 24,21.322637 c -4.675,5.234982 -9.199464,9.553972 -10.054365,9.597756 -1.047688,0.05366 -2.77307,-2.905291 -5.2930544,-9.077339 z M 22,27.627229 c 0,-1.153576 0.946009,-1.649374 3.25,-1.703307 4.456903,-0.10433 9.896223,-2.197385 11.183079,-4.303259 C 37.279753,20.235123 37.035528,19.493288 35.25,18.027058 34.0125,17.010854 33,15.689046 33,15.089707 c 0,-2.670671 5.72716,-0.0014 6.921009,3.225665 C 41.77332,23.322344 36.020026,27.900293 26.75,28.795666 22.841417,29.173188 22,28.966211 22,27.627229 Z M 4.4145368,25.234687 C 2.5676616,23.984644 1.2380415,20.805732 1.7473935,18.857967 2.4654622,16.112068 5,16.566373 5,19.440983 5,20.783524 5.45,22.160081 6,22.5 c 1.1601948,0.71704 1.3603791,3.507358 0.25,3.484687 -0.4125,-0.0084 -1.2384584,-0.345922 -1.8354632,-0.75 z M 11.194373,13.901009 c 0.533026,-1.617401 9.830561,-3.489154 12.411684,-2.498685 3.069796,1.177992 -0.02366,2.734521 -6.624067,3.333026 -5.084335,0.461031 -6.163258,0.305494 -5.787617,-0.834341 z M 88.97475,7.4731227 C 85.842475,4.1389689 87.38856,2.9340144 90.634291,6.1797453 92.049817,7.5952719 92.776593,9.0200392 92.249348,9.3458947 91.722102,9.6717503 90.248533,8.8290029 88.97475,7.4731227 Z m 34.12436,0.1323737 C 120.04498,4.3545232 121.96084,3.4811163 125.31793,6.5939794 128.33909,9.395357 128.57988,10 126.67431,10 c -0.72912,0 -2.33797,-1.0775266 -3.5752,-2.3945036 z"
       id="path60"
       inkscape:connector-curvature="0" />
    <path
       style="fill:#69c1dd"
       d="M 53.25,33.968838 C 51.178478,33.136188 51,32.427304 51,25.032224 V 17 H 61.5 72 V 12 7 H 61 C 54.333333,7 50,6.6060606 50,6 50,5.3888889 54.666667,5 62,5 h 12 v 8 c 0,4.666667 -0.416667,8 -1,8 -0.55,0 -1,-0.45 -1,-1 0,-0.596491 -3.833333,-1 -9.5,-1 H 53 v 5.964816 C 53,32.387608 53.909556,33 64.934259,33 c 8.200887,0 10.880833,-1.116296 12.303836,-5.125 0.862823,-2.430634 1.883284,-0.206795 1.183861,2.579928 -0.38984,1.553249 -1.706286,3.082875 -3.113767,3.617998 C 72.222931,35.245939 56.239617,35.170517 53.25,33.968838 Z M 95.589837,34.14536 C 95.299329,33.675308 96.158075,32.260674 97.49816,31.001728 100.71259,27.98193 102.74899,21.36884 103.58039,11.25 103.95322,6.7125 104.59647,3 105.00985,3 c 0.41337,0 0.94552,4.1625 1.18254,9.25 0.45805,9.831826 1.892,13.958314 6.59887,18.989569 1.40961,1.506763 2.25355,3.048957 1.87541,3.427098 -1.21505,1.215048 -6.67393,-4.958855 -7.84728,-8.875141 C 105.47431,21.302043 104.46488,20.980712 103.54754,24.75 102.741,28.064019 98.340735,35 97.044829,35 96.535092,35 95.880345,34.615412 95.589837,34.14536 Z M 87.552304,33.08463 C 87.230594,32.564092 87.424717,31.855545 87.983688,31.510081 88.54266,31.164618 89,27.533524 89,23.440983 V 16 h -3 c -1.65,0 -3,-0.45 -3,-1 0,-0.55 1.8,-1 4,-1 h 4 v 7.61501 7.61501 l 2.5,-1.638063 c 1.827632,-1.197511 2.494258,-1.295679 2.478649,-0.36501 -0.0289,1.723074 -7.690141,7.048886 -8.426345,5.857683 z M 123.81434,25 l 0.4303,-9 h -2.62232 C 120.18004,16 119,15.55 119,15 c 0,-0.55 1.575,-1 3.5,-1 h 3.5 v 7.5 c 0,6.852084 0.87906,9.122741 2.51008,6.483688 0.34546,-0.558971 1.08362,-0.734796 1.64034,-0.39072 0.87986,0.54378 -4.69044,6.255829 -6.2084,6.366391 C 123.63514,33.981712 123.57768,29.95 123.81434,25 Z M 130,33 c 0,-0.55 0.675,-1 1.5,-1 1.21569,0 1.5,-1.611111 1.5,-8.5 0,-5 0.41176,-8.5 1,-8.5 0.58884,0 1,3.522141 1,8.566422 v 8.566423 L 137.75,31.816422 140.5,31.5 V 20 8.5 L 135.75,8.1952088 C 127.18254,7.6454642 130.743,6 140.5,6 c 5.66667,0 9.5,0.4035088 9.5,1 0,0.55 -1.575,1 -3.5,1 H 143 v 5 5 h 3.5 c 1.925,0 3.5,0.45 3.5,1 0,0.55 -1.575,1 -3.5,1 H 143 v 6 6 h 4 c 2.2,0 4,0.45 4,1 0,0.603175 -4.16667,1 -10.5,1 C 134.16667,34 130,33.603175 130,33 Z M 8.7367592,21.809525 C 6.2680827,15.785472 5.3121022,12.287898 5.9577666,11.642233 c 0.6456644,-0.645664 2.2842313,1.8498 4.7632404,7.254204 L 14.5,27.134889 24.351354,16.067444 C 29.769598,9.98035 34.869598,5 35.684687,5 36.499776,5 37.016667,5.4381577 36.833333,5.9736838 36.154712,7.9559713 14.845142,30.999867 13.693979,30.996284 13.037291,30.99424 10.806542,26.860199 8.7367592,21.809525 Z m 13.4909568,6.007327 c 0.216911,-0.650732 2.912681,-1.686 5.990602,-2.300595 C 36.53879,23.854834 39.439626,20.540519 35,17.767927 32.651545,16.301293 32.346166,14 34.5,14 36.777011,14 40,17.706839 40,20.325686 40,24.707496 32.709562,29 25.267443,29 23.068087,29 21.975136,28.574592 22.227716,27.816852 Z M 3.5714286,24.428571 C 1.517316,22.374459 1.4656385,17 3.5,17 4.4236623,17 5,17.937887 5,19.440983 5,20.783524 5.45,22.160081 6,22.5 7.260078,23.278771 7.3156132,26 6.071429,26 5.5607147,26 4.4357147,25.292857 3.5714286,24.428571 Z M 11.201368,13.895896 c 0.582309,-1.746927 10.736104,-3.358424 12.163994,-1.930534 1.493349,1.493349 0.728462,1.811573 -6.252784,2.601411 -5.224835,0.591123 -6.291523,0.470062 -5.91121,-0.670877 z M 88.97475,7.4731227 C 85.842475,4.1389689 87.38856,2.9340144 90.634291,6.1797453 92.049817,7.5952719 92.776593,9.0200392 92.249348,9.3458947 91.722102,9.6717503 90.248533,8.8290029 88.97475,7.4731227 Z M 123.16517,7.675813 C 121.96426,6.3975101 121.28994,5.0433943 121.66667,4.6666667 122.40544,3.9278941 127,7.8111428 127,9.174314 c 0,1.494925 -1.61583,0.863524 -3.83483,-1.498501 z"
       id="path58"
       inkscape:connector-curvature="0" />
    <path
       style="fill:#46b2d5"
       d="M 54.5,34.124481 51.5,33.485592 51.209558,25.242796 50.919115,17 H 61.459558 72 V 12 7 H 61.5 C 55.166667,7 51,6.6031746 51,6 51,5.3913043 55.5,5 62.5,5 H 74 v 8 c 0,4.666667 -0.416667,8 -1,8 -0.55,0 -1,-0.45 -1,-1 0,-0.596491 -3.833333,-1 -9.5,-1 H 53 v 6.393011 C 53,33.046076 52.93707,33.0057 64.831787,32.984687 74.281363,32.967994 75.382991,32.613344 76.432606,29.25 76.818799,28.0125 77.554451,27 78.067388,27 c 1.773956,0 0.923037,3.100484 -1.521933,5.545455 -2.235838,2.235837 -3.193699,2.444003 -10.75,2.33623 C 61.232955,34.816612 56.15,34.47587 54.5,34.124481 Z m 41.050677,-0.04248 C 95.182886,33.486899 95.339554,33 95.898829,33 99.301159,33 103.9731,18.136141 103.99245,7.25 103.9966,4.9125 104.39408,3 104.87573,3 c 0.48165,0 0.83456,3.4875 0.78425,7.75 -0.075,6.354999 0.37439,8.756596 2.4967,13.342197 1.4235,3.075708 3.57946,6.515715 4.79103,7.644459 1.21156,1.128745 1.78438,2.310887 1.27293,2.626983 -1.4106,0.871797 -4.86339,-3.301781 -7.31309,-8.839733 l -2.19014,-4.95118 -1.48254,4.645182 c -1.59486,4.997141 -6.544991,10.707356 -7.684193,8.864089 z m -6.73255,-9.161143 0.419605,-8.776406 -3.368866,-0.412187 C 82.801838,15.357005 82.880784,15.305735 86.75,15.160037 L 91,15 v 7 c 0,6.398802 0.907479,8.576752 2.5,6 0.339919,-0.55 1.041476,-1 1.559017,-1 1.883235,0 0.782349,1.557135 -2.897707,4.098631 l -3.762788,2.59863 0.419605,-8.776407 z m 35.028543,0.155402 0.34667,-8.924755 -2.84667,-0.425918 c -2.40852,-0.360363 -2.26949,-0.44898 0.90333,-0.575751 L 126,15 v 7 c 0,6.413216 0.90754,8.576659 2.51008,5.983688 0.34546,-0.558971 1.06303,-0.74752 1.59459,-0.418996 0.68538,0.423585 -5.37444,6.430796 -6.49217,6.435813 -0.0619,2.78e-4 0.0435,-4.015635 0.23417,-8.924249 z M 130,33 c 0,-0.55 0.675,-1 1.5,-1 1.21569,0 1.5,-1.611111 1.5,-8.5 0,-5 0.41176,-8.5 1,-8.5 0.58824,0 1,3.5 1,8.5 V 32 h 3 3 V 20 8 h -5 c -2.75,0 -5,-0.45 -5,-1 0,-0.5964912 3.83333,-1 9.5,-1 5.66667,0 9.5,0.4035088 9.5,1 0,0.55 -1.575,1 -3.5,1 H 143 v 5 5 h 3.5 c 1.925,0 3.5,0.45 3.5,1 0,0.55 -1.575,1 -3.5,1 H 143 v 6 6 h 4 c 2.2,0 4,0.45 4,1 0,0.603175 -4.16667,1 -10.5,1 C 134.16667,34 130,33.603175 130,33 Z M 12.580678,30.13054 C 11.981437,29.160948 5,12.721796 5,12.280359 5,12.126161 5.6074916,12 6.3499814,12 c 0.7424897,0 2.6127453,3.0375 4.1561236,6.75 1.543378,3.7125 3.119371,7.110984 3.502206,7.552187 0.382835,0.441203 5.123693,-4.171297 10.535241,-10.25 C 33.001821,6.5511531 37,3.1961526 37,5.5995815 37,6.5756078 14.81659,31 13.930116,31 13.483471,31 12.876224,30.608743 12.580678,30.13054 Z m 9.66917,-2.380083 c 0.229082,-0.687248 2.461828,-1.542112 4.961656,-1.899697 4.978658,-0.712165 7.787938,-1.940235 9.695051,-4.238165 1.023503,-1.233247 0.789073,-1.89047 -1.332245,-3.734932 C 32.741557,15.414615 32.286044,14 34.325686,14 36.30455,14 40,18.337038 40,20.659464 c 0,2.606542 -2.859295,5.171088 -7.683804,6.891724 -4.961668,1.769553 -10.62716,1.881705 -10.066348,0.199269 z M 3.5746301,24.082465 c -1.9684413,-2.175103 -1.7776432,-6.193982 0.3270118,-6.888018 1.0032367,-0.330829 1.2457617,0.133879 0.8532346,1.634905 -0.3102459,1.186382 0.058178,2.600534 0.8483581,3.256325 C 7.1316083,23.354115 7.5045656,26 6.1549876,26 5.6902307,26 4.5290698,25.137109 3.5746301,24.082465 Z M 11.195162,13.902621 C 11.759366,12.195536 24,11.287071 24,12.952283 c 0,0.576244 -1.2375,1.05267 -2.75,1.058723 -1.5125,0.0061 -4.497893,0.299732 -6.634207,0.652621 -3.076633,0.508216 -3.787824,0.349993 -3.420631,-0.761006 z M 88.971046,7.4691797 C 87.225921,5.6115789 87.027686,5 88.170698,5 90.099047,5 93.437696,8.6114548 92.210503,9.3699023 91.704622,9.6825537 90.246866,8.8272285 88.971046,7.4691797 Z m 34.670564,0.067191 c -1.57212,-1.2563964 -2.42503,-2.552191 -1.89536,-2.8795435 0.97031,-0.5996842 5.95754,3.9781454 5.17436,4.7495936 -0.23134,0.2278689 -1.70689,-0.6136537 -3.279,-1.8700501 z"
       id="path56"
       inkscape:connector-curvature="0" />
  </g>
</svg>
