<?xml version="1.0" encoding="UTF-8" standalone="no"?>
<!-- Created with Inkscape (http://www.inkscape.org/) -->

<svg
   xmlns:dc="http://purl.org/dc/elements/1.1/"
   xmlns:cc="http://creativecommons.org/ns#"
   xmlns:rdf="http://www.w3.org/1999/02/22-rdf-syntax-ns#"
   xmlns:svg="http://www.w3.org/2000/svg"
   xmlns="http://www.w3.org/2000/svg"
   xmlns:sodipodi="http://sodipodi.sourceforge.net/DTD/sodipodi-0.dtd"
   xmlns:inkscape="http://www.inkscape.org/namespaces/inkscape"
   version="1.1"
   id="svg10"
   width="360"
   height="120"
   viewBox="0 0 360 120"
   sodipodi:docname="blue-my.svg"
   inkscape:version="0.92.3 (2405546, 2018-03-11)">
  <metadata
     id="metadata16">
    <rdf:RDF>
      <cc:Work
         rdf:about="">
        <dc:format>image/svg+xml</dc:format>
        <dc:type
           rdf:resource="http://purl.org/dc/dcmitype/StillImage" />
        <dc:title></dc:title>
      </cc:Work>
    </rdf:RDF>
  </metadata>
  <defs
     id="defs14" />
  <sodipodi:namedview
     pagecolor="#ffffff"
     bordercolor="#666666"
     borderopacity="1"
     objecttolerance="10"
     gridtolerance="10"
     guidetolerance="10"
     inkscape:pageopacity="0"
     inkscape:pageshadow="2"
     inkscape:window-width="1366"
     inkscape:window-height="715"
     id="namedview12"
     showgrid="false"
     inkscape:zoom="3.3638889"
     inkscape:cx="180"
     inkscape:cy="60"
     inkscape:window-x="-8"
     inkscape:window-y="-8"
     inkscape:window-maximized="1"
     inkscape:current-layer="svg10" />
  <g
     id="g20">
    <path
       style="fill:#cae9f5"
       d="M 153.66692,118.57439 C 153.21776,117.40389 153.69606,117 155.53138,117 157.61908,117 158,116.52721 158,113.93603 c 0,-2.83678 -0.23364,-3.04069 -3.15088,-2.75 -4.40261,0.4387 -4.73863,-1.79657 -0.39264,-2.61189 C 157.37158,108.02727 158,107.47405 158,105.45469 158,103.39392 157.51857,103 155,103 c -2,0 -3,-0.5 -3,-1.5 0,-1 1,-1.5 3,-1.5 2.32068,0 3,-0.447222 3,-1.975 0,-1.679867 -0.46832,-1.881337 -3.13393,-1.348214 -2.36629,0.473259 -3.02449,0.298478 -2.68715,-0.71356 0.45462,-1.363846 10.67337,-4.172548 12.06088,-3.315023 C 165.72521,93.566236 164.96937,95 163,95 c -1.46667,0 -2,0.666667 -2,2.5 0,2.111111 0.46667,2.5 3,2.5 2.83333,0 3,-0.222222 3,-4 0,-5.151344 1.7866,-5.186735 2.60773,-0.05166 0.60399,3.777113 0.80712,3.961425 4.6841,4.25 5.8795,0.43763 6.12547,2.80166 0.2915,2.80166 -4.6977,0 -5.19846,0.58195 -3.72306,4.32668 0.64707,1.64235 0.85885,1.56666 2.09869,-0.75 1.43968,-2.69006 2.53157,-3.21003 3.48871,-1.66135 0.31114,0.50343 -0.56231,2.25589 -1.94098,3.89435 -3.00292,3.56877 -3.07854,4.36283 -0.62673,6.58168 1.79093,1.62077 1.91194,1.57391 2.55535,-0.98965 0.48029,-1.9136 0.98492,-2.38148 1.74683,-1.61957 1.4215,1.4215 0.25039,5.8379 -1.75178,6.60621 -0.98266,0.37708 -2.64451,-0.44865 -4.36446,-2.16861 l -2.77756,-2.77755 -2.64689,1.97618 c -1.88077,1.40421 -2.95673,1.66635 -3.71737,0.90571 -0.76064,-0.76064 -0.0366,-1.70945 2.50149,-3.27808 3.0367,-1.87678 3.4833,-2.60759 2.98026,-4.8768 C 167.09795,103.26945 166.90258,103 163.93261,103 161.6164,103 161,103.44317 161,105.10841 c 0,1.74962 0.42542,2.00163 2.5,1.48095 1.78171,-0.44718 2.5,-0.22216 2.5,0.78318 0,0.77585 -1.125,1.693 -2.5,2.0381 -2.01663,0.50615 -2.50296,1.25216 -2.51531,3.85841 -0.0195,4.11931 -0.87408,5.4141 -4.10917,6.22606 -1.87767,0.47126 -2.77304,0.21434 -3.2086,-0.92072 z m 28.99975,-0.24106 C 182.3,117.96667 182,112.97454 182,107.23971 c 0,-9.527421 0.16968,-10.471322 1.96688,-10.9413 1.08179,-0.282893 2.23711,-1.365764 2.56739,-2.406381 0.82378,-2.595503 3.43569,-2.493158 2.75548,0.107971 -0.39761,1.520444 -0.0307,2 1.53026,2 1.58164,0 2.12965,0.746522 2.38579,3.25 0.32621,3.18842 0.36976,3.15052 2.29808,-2 1.08106,-2.8875 2.58742,-5.25 3.34747,-5.25 0.88958,0 1.19558,0.712534 0.8589,2 -0.46651,1.783934 -0.0307,2 4.03419,2 h 4.55721 l -0.62521,9.51788 c -0.76479,11.64284 -1.68516,13.71053 -5.91587,13.29052 -4.12435,-0.40944 -4.94485,-2.8084 -0.96053,-2.8084 3.54225,0 4.16632,-1.60255 4.18631,-10.75 L 205,99 h -3.52144 c -2.80007,0 -3.75838,0.520039 -4.67812,2.53864 -0.66013,1.44883 -1.72414,2.32088 -2.47856,2.03138 C 193.31,103.18173 193,104.57974 193,109.53138 V 116 h -4 c -2.88889,0 -4,0.41667 -4,1.5 0,1.56157 -1.1827,1.98397 -2.33333,0.83333 z M 191,110.5 c 0,-3.22222 -0.2381,-3.5 -3,-3.5 -2.7619,0 -3,0.27778 -3,3.5 0,3.22222 0.2381,3.5 3,3.5 2.7619,0 3,-0.27778 3,-3.5 z m 0,-8.5 c 0,-2.666667 -0.33333,-3 -3,-3 -2.66667,0 -3,0.333333 -3,3 0,2.66667 0.33333,3 3,3 2.66667,0 3,-0.33333 3,-3 z m 7.7457,5.90514 c -2.46873,-4.33742 -1.04555,-5.70012 1.85175,-1.77305 2.69605,3.65429 2.98446,4.87085 1.15255,4.86159 -0.6875,-0.003 -2.03944,-1.39332 -3.0043,-3.08854 z M 173.17431,96.685549 C 170.67735,94.027655 170.44073,93 172.32569,93 c 1.71646,0 5.90053,4.440444 5.01679,5.324187 -1.10391,1.10391 -1.87732,0.79986 -4.16817,-1.638638 z m 1.58973,-11.629979 c -5.39274,-1.724861 -9.56298,-5.154991 -14.75341,-12.135072 -14.43285,-19.409237 -10.4348,-37.705529 9.14934,-41.870196 2.38702,-0.507611 6.36503,-1.440231 8.84003,-2.072489 8.83659,-2.257376 18.2824,0.490228 24.69932,7.184558 3.54273,3.69589 6.30068,9.473899 6.30068,13.200175 0,9.284879 -10.69008,28.613401 -18.28792,33.066032 -4.83803,2.835279 -11.74153,3.972437 -15.94804,2.626992 z m 12.53562,-4.676159 c 7.20703,-3.649497 10.7078,-9.411527 10.68669,-17.589573 -0.0225,-8.720291 -1.98238,-12.926106 -3.39699,-7.289838 -0.58128,2.316001 -1.06507,2.5 -6.57323,2.5 -4.92231,0 -6.13001,-0.344264 -7.01613,-2 -0.5887,-1.1 -1.47421,-2 -1.9678,-2 -0.49358,0 -1.18307,0.9 -1.5322,2 -0.53306,1.67952 -1.51303,2 -6.11566,2 -5.18642,0 -5.55117,-0.167153 -6.78904,-3.111169 l -1.30814,-3.111169 -0.69062,5.206105 c -0.91094,6.86699 0.13551,13.322851 2.80055,17.277507 4.61584,6.849449 14.8261,9.701523 21.90257,6.118137 z M 175.25,75.01096 C 173.4625,73.9211 172,72.59934 172,72.073715 c 0,-1.872243 2.1543,-2.244053 3.89175,-0.671676 C 176.8629,72.280917 178.71161,73 180,73 c 1.28839,0 3.1371,-0.719083 4.10825,-1.597961 C 185.8457,69.829662 188,70.201472 188,72.073715 c 0,1.218352 -6.01846,4.918809 -8,4.918809 -0.825,0 -2.9625,-0.891704 -4.75,-1.981564 z m -5.20384,-8.455336 c -2.70069,-3.254136 1.76872,-7.169311 4.76443,-4.173605 1.27355,1.273547 1.40397,2.054942 0.56528,3.386745 -1.46016,2.318661 -3.77482,2.660389 -5.32971,0.78686 z m 15,0 c -2.70069,-3.254136 1.76872,-7.169311 4.76443,-4.173605 1.27355,1.273547 1.40397,2.054942 0.56528,3.386745 -1.46016,2.318661 -3.77482,2.660389 -5.32971,0.78686 z M 0,3 C 0,1.0074074 0.66666667,1 180,1 359.33333,1 360,1.0074074 360,3 360,4.9925926 359.33333,5 180,5 0.66666667,5 0,4.9925926 0,3 Z"
       id="path34"
       inkscape:connector-curvature="0" />
    <path
       style="fill:#b8e2f1"
       d="M 154,118.06642 C 154,117.47989 154.9,117 156,117 c 1.6113,0 2,-0.66667 2,-3.43019 0,-3.33586 -0.0825,-3.40654 -3,-2.56981 -2.24046,0.64256 -3,0.52994 -3,-0.44481 0,-0.71785 1.35,-1.57519 3,-1.90519 2.38284,-0.47657 3,-1.11944 3,-3.125 0,-2.13889 -0.45875,-2.525 -3,-2.525 -1.65,0 -3,-0.45 -3,-1 0,-0.55 1.35,-1 3,-1 2.56898,0 3,-0.37594 3,-2.616577 0,-2.258389 -0.3455,-2.550531 -2.52387,-2.13411 -1.38812,0.265358 -2.72775,0.152577 -2.97694,-0.250623 -0.24919,-0.4032 2.25519,-1.394716 5.56529,-2.203369 6.09751,-1.48961 9.25515,-0.62774 4.42635,1.208164 -3.95491,1.503654 -3.11299,5.388315 1.25917,5.809875 3.23765,0.31217 3.25,0.29601 3.25,-4.250002 0,-5.75856 1.78012,-6.012979 2.1925,-0.313358 0.30601,4.22934 0.32816,4.25149 4.5575,4.5575 5.38714,0.38977 5.5927,2.1925 0.25,2.1925 -3.57421,0 -4,0.25984 -4,2.44098 0,3.38193 1.56491,4.01829 3.40858,1.38608 0.84998,-1.21352 1.8613,-1.89051 2.24738,-1.50443 0.38609,0.38608 -0.32839,2.09561 -1.58772,3.79894 -1.92859,2.60856 -2.11226,3.4864 -1.16462,5.56625 1.34581,2.95373 3.32204,2.59233 4.1115,-0.75188 0.3548,-1.50295 0.84025,-1.97897 1.28474,-1.25977 0.39295,0.6358 0.27237,2.31876 -0.26796,3.73991 -1.26503,3.32731 -4.4691,3.37249 -6.61769,0.0933 l -1.6319,-2.49059 -2.88433,2.05382 c -1.58638,1.12961 -3.37164,1.75266 -3.96724,1.38456 -0.63891,-0.39488 0.42061,-1.69095 2.5842,-3.16115 2.86318,-1.94557 3.54054,-2.96366 3.08974,-4.64396 -0.31755,-1.18365 -0.58352,-3.16459 -0.59103,-4.40209 C 168.00178,103.29394 167.47744,103 164,103 c -3.33333,0 -4,0.33333 -4,2 0,1.58333 0.66667,2 3.2,2 3.37686,0 2.8834,1.52402 -0.7,2.16188 -1.55399,0.27662 -2.1115,1.35753 -2.5,4.84706 -0.44638,4.0094 -0.79493,4.525 -3.25,4.80748 -1.5125,0.17403 -2.75,-0.16347 -2.75,-0.75 z M 199,118 c 0,-0.55 0.8449,-1 1.87756,-1 2.97169,0 3.81559,-1.96087 4.41127,-10.25 L 205.84577,99 h -3.80091 c -2.82683,0 -4.18858,0.576624 -5.31358,2.25 -2.40924,3.58362 -2.84854,1.56811 -0.8219,-3.770866 2.00756,-5.288728 4.66245,-7.605657 3.52583,-3.077006 C 198.8029,96.921449 198.92436,97 203.45214,97 h 4.66896 l -0.60664,7.25 c -0.93794,11.20944 -1.44554,13.50958 -3.12345,14.15345 C 201.97669,119.32991 199,119.10714 199,118 Z m -16,-10.5 c 0,-8.606631 0.26705,-10.5 1.48095,-10.5 0.81452,0 1.7633,-1.125 2.10841,-2.5 0.3451,-1.375 1.07746,-2.5 1.62746,-2.5 0.56732,0 0.72851,1.081693 0.37254,2.5 -0.54492,2.171099 -0.29606,2.5 1.89159,2.5 2.51529,0 2.51905,0.01417 2.51905,9.5 v 9.5 h -4 c -2.2,0 -4,0.45 -4,1 0,0.55 -0.45,1 -1,1 -0.60317,0 -1,-4.16667 -1,-10.5 z m 8,3 c 0,-3.22222 -0.2381,-3.5 -3,-3.5 -2.7619,0 -3,0.27778 -3,3.5 0,3.22222 0.2381,3.5 3,3.5 2.7619,0 3,-0.27778 3,-3.5 z m 0,-8.5 c 0,-2.666667 -0.33333,-3 -3,-3 -2.66667,0 -3,0.333333 -3,3 0,2.66667 0.33333,3 3,3 2.66667,0 3,-0.33333 3,-3 z m 8.15903,6.00123 C 196.77853,104.78142 196.53887,104 197.93191,104 c 1.39845,0 5.23664,5.7778 4.24522,6.39053 -0.47249,0.29201 -1.83064,-0.78317 -3.0181,-2.3893 z m -25.5073,-11.648243 c -2.40287,-3.236853 -1.23649,-4.382196 1.58716,-1.558543 1.38385,1.383847 1.8314,2.524791 1.22222,3.115825 -0.60179,0.583873 -1.6521,0.0017 -2.80938,-1.557282 z M 170.77892,82.946753 C 166.05295,80.451279 157.40176,70.108931 154.2058,63.13387 151.24427,56.670441 150.79749,47.130697 153.23943,42.5 c 2.9726,-5.636984 9.49029,-10.5 14.0727,-10.5 1.34399,0 4.16105,-0.717585 6.26012,-1.594634 2.74488,-1.146883 6.12465,-1.497865 12.03685,-1.25 7.23765,0.303435 8.73529,0.70661 12.5277,3.372561 2.36904,1.66536 5.63016,4.910056 7.24692,7.210436 2.48291,3.532743 2.93085,5.109875 2.88335,10.151925 -0.10583,11.235836 -10.18887,28.423587 -19.47723,33.201295 -4.89986,2.52037 -13.08821,2.454526 -18.01092,-0.14483 z M 188,80.446458 c 2.87862,-1.459926 7.24297,-5.948603 8.87781,-9.130717 1.25968,-2.451868 1.40009,-14.743774 0.20344,-17.809126 -0.70993,-1.818582 -0.92525,-1.708968 -2.45539,1.25 C 193.04601,57.81171 192.63269,58 187.50626,58 c -4.8401,0 -5.59261,-0.286713 -6.79983,-2.590779 l -1.35745,-2.59078 -1.69754,2.59078 C 176.21064,57.608149 175.21949,58 171.09827,58 c -4.52584,0 -4.9462,-0.218652 -6.18911,-3.219308 -1.33065,-3.212467 -1.33494,-3.214061 -2.02164,-0.75 -1.05941,3.801472 -0.98874,12.064726 0.13788,16.120851 1.17885,4.244185 7.59798,10.504832 11.69939,11.410548 1.52636,0.337068 3.22521,0.744796 3.77521,0.906062 1.58763,0.46551 6.77071,-0.637502 9.5,-2.021695 z m -13.25,-5.526557 c -0.9625,-0.560605 -1.75,-1.720066 -1.75,-2.57658 0,-1.123923 0.487,-1.332707 1.75,-0.750248 0.9625,0.443879 3.325,0.807052 5.25,0.807052 1.925,0 4.2875,-0.363173 5.25,-0.807052 2.50211,-1.153902 2.32827,2.027077 -0.18426,3.371743 -2.44939,1.310874 -8.02971,1.286577 -10.31574,-0.04492 z M 170,64.5 c 0,-2 0.5,-2.5 2.5,-2.5 2,0 2.5,0.5 2.5,2.5 0,2 -0.5,2.5 -2.5,2.5 -2,0 -2.5,-0.5 -2.5,-2.5 z m 15,0 c 0,-2 0.5,-2.5 2.5,-2.5 2,0 2.5,0.5 2.5,2.5 0,2 -0.5,2.5 -2.5,2.5 -2,0 -2.5,-0.5 -2.5,-2.5 z M 0,3 C 0,2.337037 60.666667,2 180,2 299.33333,2 360,2.337037 360,3 360,3.662963 299.33333,4 180,4 60.666667,4 0,3.662963 0,3 Z"
       id="path32"
       inkscape:connector-curvature="0" />
    <path
       style="fill:#a6dbef"
       d="M 154,118.06642 C 154,117.47989 154.9,117 156,117 c 1.61631,0 2,-0.66667 2,-3.475 0,-3.32778 -0.1271,-3.44958 -3,-2.875 -1.82187,0.36437 -3,0.18429 -3,-0.45858 0,-0.58222 1.2375,-1.20097 2.75,-1.375 2.15997,-0.24853 2.81789,-0.90645 3.06642,-3.06642 0.28431,-2.47092 0.005,-2.75 -2.75,-2.75 C 153.37989,103 152,102.55 152,102 c 0,-0.55 1.35,-1 3,-1 2.53333,0 3,-0.38889 3,-2.5 0,-2.135504 -0.47384,-2.513037 -3.25,-2.589417 -2.92457,-0.08046 -2.74933,-0.228733 1.75,-1.480711 6.12938,-1.705552 10.46511,-1.796047 6.25,-0.13045 -2.08877,0.825378 -2.75,1.761583 -2.75,3.89362 0,2.541288 0.33127,2.806958 3.5,2.806958 3.48148,0 3.5,-0.0238 3.5,-4.5 0,-2.475 0.45,-4.5 1,-4.5 0.55,0 1,2.025 1,4.5 v 4.5 h 4.5 c 2.475,0 4.5,0.45 4.5,1 0,0.55 -1.8,1 -4,1 -3.77778,0 -4,0.16667 -4,3 0,3.54433 1.29108,3.85021 3.4203,0.81033 0.84353,-1.20431 1.81814,-1.90522 2.16579,-1.55757 0.34765,0.34765 -0.317,1.96497 -1.477,3.59404 -2.47802,3.48005 -2.65892,5.45199 -0.65289,7.11685 1.83806,1.52546 3.5438,0.52348 3.5438,-2.08168 0,-1.1 0.41051,-1.7463 0.91224,-1.43621 0.50173,0.31009 0.58394,1.79915 0.18268,3.30902 -0.99893,3.75881 -4.44134,4.17234 -6.65162,0.79903 l -1.68309,-2.56873 -3.38011,2.08902 c -4.21473,2.60485 -4.40213,1.43067 -0.3194,-2.00127 2.81144,-2.36331 3.00462,-2.91893 2.37219,-6.82283 -0.67227,-4.14975 -0.77985,-4.25 -4.5607,-4.25 -3.45324,0 -3.87219,0.26778 -3.87219,2.475 0,2.2502 0.29519,2.41985 3.25,1.86776 2.22886,-0.41644 2.9358,-0.28198 2.25,0.42794 -0.55,0.56934 -1.9,1.19537 -3,1.39118 -1.55399,0.27662 -2.1115,1.35753 -2.5,4.84706 -0.44638,4.0094 -0.79493,4.525 -3.25,4.80748 -1.5125,0.17403 -2.75,-0.16347 -2.75,-0.75 z M 199.5,118 c -0.35006,-0.56641 0.48327,-1 1.92193,-1 3.02887,0 3.54146,-1.52843 3.85674,-11.5 l 0.22133,-7 -3.74409,-0.310013 c -3.19522,-0.264565 -3.9151,0.06529 -4.91052,2.250003 -0.64153,1.408 -1.58169,2.56001 -2.08924,2.56001 -0.50755,0 -0.77282,-0.33961 -0.58948,-0.75468 0.18333,-0.41508 1.18197,-2.890077 2.21919,-5.500002 2.01874,-5.079698 3.64485,-6.356812 2.85889,-2.245318 -0.45138,2.361258 -0.23294,2.5 3.93607,2.5 h 4.41397 l -0.33291,6.75 c -0.50385,10.21597 -1.16648,13.12858 -3.23917,14.23785 -2.39043,1.27932 -3.73732,1.28293 -4.52271,0.0122 z M 183,107.61663 c 0,-9.542363 0.16199,-10.425729 2,-10.906379 1.1966,-0.312919 2,-1.364016 2,-2.616631 C 187,92.942129 187.49878,92 188.10841,92 c 0.68296,0 0.86756,0.959597 0.48095,2.5 -0.54492,2.171099 -0.29606,2.5 1.89159,2.5 2.51529,0 2.51905,0.01417 2.51905,9.5 v 9.5 h -4 c -2.2,0 -4,0.45 -4,1 0,0.55 -0.45,1 -1,1 -0.60246,0 -1,-4.12779 -1,-10.38337 z m 8,2.88337 c 0,-3.22222 -0.2381,-3.5 -3,-3.5 -2.7619,0 -3,0.27778 -3,3.5 0,3.22222 0.2381,3.5 3,3.5 2.7619,0 3,-0.27778 3,-3.5 z m 0,-9 c 0,-3.222222 -0.2381,-3.5 -3,-3.5 -2.7619,0 -3,0.277778 -3,3.5 0,3.22222 0.2381,3.5 3,3.5 2.7619,0 3,-0.27778 3,-3.5 z m 9.50533,8.45075 c -0.47346,-0.79791 -1.5076,-2.46325 -2.29809,-3.70075 -0.79049,-1.2375 -0.98726,-2.25 -0.43726,-2.25 1.36609,0 4.44637,4.85094 3.97611,6.26172 -0.25007,0.75022 -0.67414,0.64394 -1.24076,-0.31097 z M 173.49445,95.993869 C 170.82099,93.039731 172.25223,92.57513 175.0037,95.503943 176.29341,96.876774 176.88993,98 176.3293,98 c -0.56063,0 -1.83631,-0.902759 -2.83485,-2.006131 z M 170.97227,82.75 c -5.54873,-2.804588 -14.21174,-13.292624 -16.96377,-20.537513 -2.65345,-6.985381 -2.6948,-16.574713 -0.0899,-20.846657 2.71525,-4.452911 8.25271,-8.369631 12.73844,-9.01007 2.11363,-0.301768 5.72782,-1.230845 8.03154,-2.064616 2.8041,-1.01487 6.63509,-1.392404 11.5902,-1.142182 8.41581,0.424979 13.45244,3.009964 18.33357,9.409455 6.76437,8.868541 3.09229,24.488792 -9.24924,39.344293 -5.79558,6.976134 -16.11973,9.027895 -24.39084,4.84729 z m 13.30506,-0.810128 c 4.28854,-1.190936 10.18826,-5.973678 12.13599,-9.838316 1.96953,-3.907882 2.6082,-11.074106 1.41273,-15.851556 -1.2043,-4.812739 -2.317,-5.414351 -3.23669,-1.75 -0.5866,2.33719 -1.03958,2.5 -6.9556,2.5 -5.5811,0 -6.44557,-0.263187 -7.32295,-2.229475 l -0.99482,-2.229474 -1.19318,2.229474 C 177.11128,56.660585 176.09441,57 171.44338,57 c -4.93501,0 -5.60505,-0.260716 -6.6685,-2.59474 -1.06089,-2.328389 -1.25677,-2.405377 -1.90828,-0.75 -1.25033,3.176902 -0.92945,14.262084 0.51024,17.626859 1.83828,4.296351 6.52707,8.565676 11.26042,10.253068 4.74821,1.692689 4.96867,1.701944 9.64007,0.404685 z M 175.25,74.779505 C 174.0125,74.182682 173,73.088138 173,72.347186 c 0,-1.682392 0.0236,-1.681007 3.84636,0.226056 2.86849,1.430989 3.43879,1.430989 6.30728,0 C 186.97455,70.667121 187,70.665574 187,72.339485 c 0,2.99003 -7.41627,4.530102 -11.75,2.44002 z m -4.88581,-9.272816 C 170.01783,64.604071 170.21394,63.386061 170.8,62.8 c 1.52361,-1.523609 4.41041,-0.131088 4.01242,1.935492 -0.4433,2.301882 -3.64766,2.857428 -4.44823,0.771197 z m 15,0 C 185.01783,64.604071 185.21394,63.386061 185.8,62.8 c 1.52361,-1.523609 4.41041,-0.131088 4.01242,1.935492 -0.4433,2.301882 -3.64766,2.857428 -4.44823,0.771197 z M 0,3 C 0,2.337037 60.666667,2 180,2 299.33333,2 360,2.337037 360,3 360,3.662963 299.33333,4 180,4 60.666667,4 0,3.662963 0,3 Z"
       id="path30"
       inkscape:connector-curvature="0" />
    <path
       style="fill:#8dd0ea"
       d="m 154,118.00741 c 0,-0.619 0.40939,-0.87243 0.90976,-0.56318 2.07845,1.28455 4.09024,-0.73033 4.09024,-4.09653 0,-3.42502 -0.0145,-3.43575 -3.75,-2.77172 -2.57816,0.45829 -3.43751,0.34267 -2.75,-0.37001 0.55,-0.57014 2.125,-1.18722 3.5,-1.37129 2.03674,-0.27266 2.5,-0.89059 2.5,-3.33468 0,-2.64412 -0.41519,-3.07335 -3.5,-3.61836 l -3.5,-0.61836 3.75,-0.13164 c 3.29823,-0.11578 3.75,-0.43282 3.75,-2.63164 0,-2.135504 -0.47384,-2.513037 -3.25,-2.589417 -2.92406,-0.08045 -2.74855,-0.228846 1.75,-1.479662 4.8685,-1.353682 9.23481,-1.244838 4.75,0.118409 C 160.59502,95.052393 160,95.995785 160,98.116631 160,100.81531 160.25697,101 164.01182,101 h 4.01182 l -0.63963,-4 c -0.4286,-2.680292 -0.26753,-4 0.48818,-4 C 168.5213,93 169,94.697802 169,97 v 4 l 4.75,0.15019 4.75,0.1502 -4.5,0.5998 c -4.30436,0.57373 -4.48476,0.73024 -4.14942,3.59981 0.52697,4.50941 1.02372,4.73588 3.82211,1.74252 2.3931,-2.55982 2.45665,-2.57597 0.9539,-0.24252 -3.53503,5.48915 -3.57207,5.63283 -2.02233,7.84539 1.95791,2.7953 4.14179,2.75088 4.69001,-0.0954 0.37956,-1.97066 0.45027,-1.91591 0.56955,0.44098 0.0749,1.48004 -0.31785,2.97159 -0.87277,3.31455 -1.64975,1.0196 -4.84267,-0.46266 -5.50729,-2.55668 -0.75153,-2.36789 -2.23943,-2.47994 -4.59716,-0.34623 -0.97398,0.88144 -2.34113,1.41254 -3.0381,1.18021 -0.7246,-0.24153 0.14667,-1.24893 2.03473,-2.35262 3.14323,-1.83742 3.27302,-2.1446 2.69977,-6.38981 -0.73198,-5.42069 -1.5057,-6.29202 -5.21118,-5.86858 -2.32543,0.26574 -2.93438,0.87578 -3.20061,3.20636 -0.30459,2.66633 -0.13281,2.829 2.33379,2.20992 1.73571,-0.43563 2.43881,-0.3062 2.01977,0.37182 -0.35354,0.57204 -1.49159,1.04008 -2.529,1.04008 -1.54075,0 -1.94201,0.86993 -2.19098,4.75 -0.27912,4.34991 -0.53642,4.77665 -3.05479,5.06642 -1.55844,0.17932 -2.75,-0.17122 -2.75,-0.80901 z M 183.07895,107.75 C 183.0047,97.640351 183.11914,97 185,97 c 1.31306,0 2,-0.666667 2,-1.940983 0,-1.067541 0.46804,-2.230246 1.04008,-2.583789 0.67443,-0.416821 0.8121,0.265552 0.39159,1.940983 C 187.85849,96.699965 188.08608,97 190.39159,97 H 193 v 9.5 9.5 h -4.41667 c -2.59766,0 -4.62439,0.51481 -4.92105,1.25 -0.27741,0.6875 -0.53991,-3.5875 -0.58333,-9.5 z M 191,111 c 0,-3.90476 -0.0833,-4 -3.5,-4 -3.3,0 -3.5,0.19048 -3.5,3.33333 0,4.06392 0.53817,4.66667 4.16667,4.66667 2.63889,0 2.83333,-0.27451 2.83333,-4 z m 0,-9.56336 c 0,-3.41781 -0.13275,-3.550558 -3.25,-3.249998 -2.85772,0.275536 -3.28782,0.705633 -3.56336,3.563358 -0.30056,3.11725 -0.16781,3.25 3.25,3.25 3.41781,0 3.56336,-0.14555 3.56336,-3.56336 z m 10.48419,15.72912 c 2.52342,-0.57494 3.09353,-1.29644 3.69237,-4.67284 0.3895,-2.19611 0.73411,-6.35542 0.76581,-9.24292 L 206,98 h -4.02144 c -3.31911,0 -4.22037,0.436613 -5.16051,2.5 -1.6978,3.72625 -3.00915,3.02523 -1.40298,-0.75 0.76049,-1.7875 1.84775,-4.375 2.41614,-5.75 l 1.03343,-2.5 0.0677,2.75 C 198.9946,96.780387 199.31944,97 203,97 h 4 l -0.0997,7.75 c -0.14363,11.16668 -0.73462,12.71283 -4.93962,12.92285 -3.37909,0.16877 -3.39033,0.15681 -0.47651,-0.50709 z m -2.24338,-9.70595 c -1.24256,-1.9029 -1.91756,-3.44567 -1.5,-3.42839 1.13437,0.047 4.45264,4.89438 4.08129,5.96208 -0.17715,0.50937 -1.33874,-0.6308 -2.58129,-2.53369 z M 173.49445,95.993869 C 170.82099,93.039731 172.25223,92.57513 175.0037,95.503943 176.29341,96.876774 176.88993,98 176.3293,98 c -0.56063,0 -1.83631,-0.902759 -2.83485,-2.006131 z M 171,82.758214 c -6.00527,-3.201876 -15.48562,-15.377823 -17.63077,-22.643825 -2.3004,-7.791903 -1.50915,-15.931099 1.99544,-20.525849 2.98096,-3.908238 9.1832,-7.579516 12.84549,-7.603596 1.25941,-0.0083 4.08984,-0.66353 6.28984,-1.456108 11.2442,-4.050865 24.08407,-0.285526 30.25,8.870921 5.57911,8.285013 4.1024,18.284692 -4.7003,31.828503 -6.24676,9.611246 -10.97841,13.003589 -18.89013,13.543227 C 176.6122,85.081652 174.61568,84.686011 171,82.758214 Z m 16.77414,-1.890921 c 8.51078,-4.119999 12.93305,-14.813567 10.24868,-24.782536 -1.25194,-4.649346 -2.51767,-5.233562 -3.43346,-1.584757 -0.58128,2.316001 -1.06507,2.5 -6.57323,2.5 -4.92231,0 -6.13001,-0.344264 -7.01613,-2 -0.5887,-1.1 -1.47421,-2 -1.9678,-2 -0.49358,0 -1.18307,0.9 -1.5322,2 -0.53313,1.679738 -1.51303,2 -6.11941,2 -5.27074,0 -5.52812,-0.124751 -6.59976,-3.198874 -0.98275,-2.819109 -1.20567,-2.967507 -1.8777,-1.25 -1.52635,3.900889 -0.93202,15.788542 1.0023,20.047805 4.07507,8.973045 14.76409,12.675831 23.86871,8.268362 z M 174.86078,74.08608 c -3.22809,-2.617059 -1.85065,-3.556975 2.00378,-1.367303 3.00707,1.708297 3.26381,1.708297 6.27088,0 1.7245,-0.979673 3.412,-1.503437 3.75,-1.163921 C 187.99613,72.67051 182.83882,76 180,76 c -1.52814,0 -3.84078,-0.861264 -5.13922,-1.91392 z m -4.49659,-8.579391 C 170.01783,64.604071 170.21394,63.386061 170.8,62.8 c 1.52361,-1.523609 4.41041,-0.131088 4.01242,1.935492 -0.4433,2.301882 -3.64766,2.857428 -4.44823,0.771197 z m 15,0 C 185.01783,64.604071 185.21394,63.386061 185.8,62.8 c 1.52361,-1.523609 4.41041,-0.131088 4.01242,1.935492 -0.4433,2.301882 -3.64766,2.857428 -4.44823,0.771197 z M 0,3 C 0,2.337037 60.666667,2 180,2 299.33333,2 360,2.337037 360,3 360,3.662963 299.33333,4 180,4 60.666667,4 0,3.662963 0,3 Z"
       id="path28"
       inkscape:connector-curvature="0" />
    <path
       style="fill:#83cce3"
       d="m 158.25879,69.710832 c -6.92549,-9.643578 -8.26007,-23.087165 -2.97924,-30.010693 3.92824,-5.150195 10.61561,-8.092907 16.41495,-7.223243 2.53975,0.380859 5.24302,1.317763 6.00726,2.082009 1.18605,1.18605 2.10185,0.99184 6.25365,-1.326192 2.67525,-1.493652 4.64201,-3.075088 4.37056,-3.514304 -0.64858,-1.049424 4.4417,0.193522 7.87743,1.923512 4.10485,2.066913 9.57506,8.156765 10.88086,12.113403 0.64538,1.955512 0.92349,5.88064 0.62297,8.792368 -0.64433,6.242988 -5.49455,16.820763 -7.9179,17.268058 -1.4915,0.275297 -1.63416,-0.33027 -1.11348,-4.726582 C 199.27026,60.070275 197.5151,51 195.94949,51 c -0.43482,0 -1.08709,1.35 -1.44949,3 -0.64109,2.918869 -0.81807,3 -6.54427,3 -4.86191,0 -6.0715,-0.347797 -6.95573,-2 -1.36409,-2.548825 -2.69103,-2.548825 -3.5,0 -0.52861,1.665501 -1.51303,2 -5.88596,2 -4.93646,0 -5.34506,-0.194787 -6.81747,-3.25 l -1.56629,-3.25 -0.74958,3.873377 c -0.41226,2.130357 -0.50663,7.417857 -0.2097,11.75 C 162.56793,70.45552 162.47971,74 162.07496,74 c -0.40476,0 -2.12203,-1.930126 -3.81617,-4.289168 z"
       id="path26"
       inkscape:connector-curvature="0" />
    <path
       style="fill:#79c8e1"
       d="M 157.18842,67.663674 C 153.26782,61.194704 152,57.047313 152,50.69086 c 0,-5.372297 1.00511,-7.853387 4.87219,-12.026916 2.80155,-3.023563 6.91295,-5.743347 5.68947,-3.763712 C 162.14914,35.567701 162.71453,36 164,36 c 1.16492,0 1.83992,0.45 1.5,1 -0.33992,0.55 -0.14148,1 0.44098,1 0.58246,0 1.05902,0.574992 1.05902,1.277759 0,1.276075 4.15338,5.389435 4.8882,4.8411 0.2135,-0.159324 0.72949,0.262549 1.14663,0.937495 0.41714,0.674946 2.60371,1.275881 4.85904,1.33541 2.25534,0.05953 4.10186,0.438048 4.10337,0.841152 0.004,0.97022 6.17941,-2.530248 9.39167,-5.323272 1.39858,-1.216051 2.38538,-2.480697 2.19289,-2.810323 -0.1925,-0.329627 0.88724,-1.805368 2.39941,-3.279425 l 2.7494,-2.680104 3.57516,3.680104 c 6.24817,6.431579 7.25165,12.921376 3.53977,22.892591 -4.16033,11.175908 -7.63619,13.58036 -6.99621,4.839688 C 199.20834,59.64893 197.35768,51 195.94949,51 c -0.43482,0 -1.08709,1.35 -1.44949,3 -0.64114,2.919097 -0.81771,3 -6.54752,3 -5.40722,0 -6.00633,-0.224691 -7.32873,-2.748569 l -1.44012,-2.748568 -1.25233,2.748568 C 176.79818,56.738372 176.18227,57 171.46081,57 c -4.88941,0 -5.29884,-0.194762 -6.49863,-3.091316 -2.09374,-5.054723 -3.24935,-1.020079 -2.7802,9.706651 C 162.45891,69.947094 162.2395,73 161.50751,73 c -0.59672,0 -2.5403,-2.401347 -4.31909,-5.336326 z"
       id="path24"
       inkscape:connector-curvature="0" />
    <path
       style="fill:#6dc2de"
       d="M 157.99642,68.836354 C 152.97378,61.902812 150.56449,50.16773 153,44.5 c 0.71693,-1.668397 0.87108,-1.715051 0.92971,-0.281385 0.0483,1.181378 0.59047,1.519004 1.73433,1.080061 1.11889,-0.429357 1.42717,-0.255269 0.94099,0.531385 C 156.20734,46.473528 156.31838,47 156.85178,47 c 2.34491,0 4.99893,8.603 5.32165,17.250145 0.17961,4.812579 -0.008,8.750079 -0.41716,8.75 -0.40905,-8e-5 -2.10098,-1.873786 -3.75985,-4.163791 z M 198.8181,62.25 c -0.23439,-5.343962 0.0873,-8.448527 1.036,-10 1.15956,-1.896193 1.16128,-2.260643 0.0109,-2.31768 -0.75076,-0.03722 -0.35251,-0.555991 0.88499,-1.152815 C 201.9875,48.182682 203,47.088138 203,46.347186 203,45.557946 204.09291,45 205.63889,45 c 2.61902,0 2.63479,0.04517 2.09496,5.998485 C 207.18129,57.092262 202.01704,70 200.13154,70 c -0.53544,0 -1.12649,-3.4875 -1.31344,-7.75 z"
       id="path22"
       inkscape:connector-curvature="0" />
  </g>
</svg>
