<?xml version="1.0" encoding="UTF-8" standalone="no"?>
<!-- Created with Inkscape (http://www.inkscape.org/) -->

<svg
   xmlns:dc="http://purl.org/dc/elements/1.1/"
   xmlns:cc="http://creativecommons.org/ns#"
   xmlns:rdf="http://www.w3.org/1999/02/22-rdf-syntax-ns#"
   xmlns:svg="http://www.w3.org/2000/svg"
   xmlns="http://www.w3.org/2000/svg"
   xmlns:sodipodi="http://sodipodi.sourceforge.net/DTD/sodipodi-0.dtd"
   xmlns:inkscape="http://www.inkscape.org/namespaces/inkscape"
   version="1.1"
   id="svg4214"
   width="72"
   height="72"
   viewBox="0 0 72 72"
   sodipodi:docname="blue-circle copy.svg"
   inkscape:version="0.92.3 (2405546, 2018-03-11)">
  <metadata
     id="metadata4220">
    <rdf:RDF>
      <cc:Work
         rdf:about="">
        <dc:format>image/svg+xml</dc:format>
        <dc:type
           rdf:resource="http://purl.org/dc/dcmitype/StillImage" />
        <dc:title></dc:title>
      </cc:Work>
    </rdf:RDF>
  </metadata>
  <defs
     id="defs4218" />
  <sodipodi:namedview
     pagecolor="#ffffff"
     bordercolor="#666666"
     borderopacity="1"
     objecttolerance="10"
     gridtolerance="10"
     guidetolerance="10"
     inkscape:pageopacity="0"
     inkscape:pageshadow="2"
     inkscape:window-width="1366"
     inkscape:window-height="715"
     id="namedview4216"
     showgrid="false"
     inkscape:zoom="7.4166667"
     inkscape:cx="37.41573"
     inkscape:cy="36"
     inkscape:window-x="-8"
     inkscape:window-y="-8"
     inkscape:window-maximized="1"
     inkscape:current-layer="svg4214" />
  <g
     id="g4224"
     transform="translate(0.53932555,0.8089888)">
    <path
       style="fill:#f3f3f3"
       d="M 29.3264,68.997034 C 12.225531,65.446001 -0.3668916,46.889176 3.0331603,30.25 5.3336569,18.991828 12.928011,9.7383895 24,4.7026842 c 6.223227,-2.830416 17.776773,-2.830416 24,0 C 63.251176,11.639146 71.971243,27.047051 68.96684,41.75 65.208989,60.140174 46.987943,72.664491 29.3264,68.997034 Z"
       id="path4238"
       inkscape:connector-curvature="0" />
    <path
       style="fill:#d8eef5"
       d="M 22.965592,65.295564 C 16.056239,61.852488 10.147512,55.943761 6.7044362,49.034408 2.8455384,41.290609 2.8455384,30.709391 6.7044362,22.965592 10.147512,16.056239 16.056239,10.147512 22.965592,6.7044362 27.43388,4.4777947 29.736678,4 36,4 45.043926,4 51.962176,6.9095444 58.526316,13.473684 65.090456,20.037824 68,26.956074 68,36 68,45.043926 65.090456,51.962176 58.526316,58.526316 51.962176,65.090456 45.043926,68 36,68 29.736678,68 27.43388,67.522205 22.965592,65.295564 Z"
       id="path4236"
       inkscape:connector-curvature="0" />
    <path
       style="fill:#e8e8e8"
       d="M 22.965592,65.295564 C 16.056239,61.852488 10.147512,55.943761 6.7044362,49.034408 3.2584003,42.119115 2.9289938,30.956244 5.97307,24.25 8.3528441,19.007245 9.5021645,18.576274 7.3064774,23.75 4.8630679,29.507438 5.1254379,40.415664 7.8536716,46.5 16.447771,65.666023 40.780866,70.397001 55.691891,55.800978 70.455516,41.349243 65.683174,16.455462 46.5,7.8536716 40.415664,5.1254379 29.507438,4.8630679 23.75,7.3064774 18.576274,9.5021645 19.007245,8.3528441 24.25,5.97307 30.956244,2.9289938 42.119115,3.2584003 49.034408,6.7044362 c 6.909353,3.4430758 12.81808,9.3518028 16.261156,16.2611558 3.858898,7.743799 3.858898,18.325017 0,26.068816 -3.443076,6.909353 -9.351803,12.81808 -16.261156,16.261156 C 44.56612,67.522205 42.263322,68 36,68 29.736678,68 27.43388,67.522205 22.965592,65.295564 Z M 10.95713,16.289773 c 1.167329,-1.765625 3.567018,-4.165314 5.332643,-5.332643 L 19.5,8.8347138 16.631808,11.299165 c -1.577506,1.355448 -3.977195,3.755137 -5.332643,5.332643 L 8.8347138,19.5 Z"
       id="path4234"
       inkscape:connector-curvature="0" />
    <path
       style="fill:#d6e5e9"
       d="M 23.252554,64.438563 C 13.806309,59.731301 4.8569625,47.955568 5.1004511,40.553656 5.1975221,37.602753 5.2307539,37.626707 6.0880513,41.265533 11.432132,63.948652 39.089128,72.053 55.691891,55.800978 72.160981,39.679806 63.9648,11.435936 41.265533,6.0880513 37.626707,5.2307539 37.602753,5.1975221 40.553656,5.1004511 47.955568,4.8569625 59.731301,13.806309 64.438563,23.252554 c 3.644229,7.313016 3.644229,18.181876 0,25.494892 -3.263401,6.548791 -9.142326,12.427716 -15.691117,15.691117 -7.313016,3.644229 -18.181876,3.644229 -25.494892,0 z M 5.1578947,30 c 0,-1.375 0.2269737,-1.9375 0.504386,-1.25 0.2774123,0.6875 0.2774123,1.8125 0,2.5 C 5.3848684,31.9375 5.1578947,31.375 5.1578947,30 Z M 28.75,5.3377193 c 0.6875,-0.2774123 1.8125,-0.2774123 2.5,0 0.6875,0.2774123 0.125,0.504386 -1.25,0.504386 -1.375,0 -1.9375,-0.2269737 -1.25,-0.504386 z"
       id="path4232"
       inkscape:connector-curvature="0" />
    <path
       style="fill:#d2dde1"
       d="M 24.5,65.086502 C 22.3,64.058236 18.925,62.027373 17,60.573473 13.417659,57.867828 5.9647324,47.715207 6.044196,45.649117 6.0685038,45.017102 6.9904246,46.209273 8.0929088,48.298385 10.852697,53.527944 17.607126,59.895553 23,62.35176 29.482867,65.30441 40.829748,65.178095 47.235809,62.081964 53.277682,59.16185 59.16185,53.277682 62.081964,47.235809 65.178095,40.829748 65.30441,29.482867 62.35176,23 59.895553,17.607126 53.527944,10.852697 48.298385,8.0929088 46.209273,6.9904246 45.017102,6.0685038 45.649117,6.044196 47.715207,5.9647324 57.867828,13.417659 60.573473,17 c 4.860689,6.435675 6.381029,10.958704 6.404565,19.053656 0.01782,6.129768 -0.460877,8.522586 -2.539475,12.69379 C 61.175162,55.296237 55.296237,61.175162 48.747446,64.438563 42.18676,67.707891 30.76172,68.01319 24.5,65.086502 Z M 5.0789474,42.416667 c 0.047984,-1.164943 0.2849403,-1.4019 0.6041666,-0.604167 0.2888706,0.721875 0.2533443,1.584375 -0.078947,1.916667 -0.3322917,0.332291 -0.5686404,-0.258334 -0.5252196,-1.3125 z M 41.8125,5.316886 c 0.721875,-0.2888706 1.584375,-0.2533443 1.916667,0.078947 0.332291,0.3322917 -0.258334,0.5686404 -1.3125,0.5252193 -1.164943,-0.047984 -1.4019,-0.28494 -0.604167,-0.6041663 z"
       id="path4230"
       inkscape:connector-curvature="0" />
    <path
       style="fill:#d7d7d8"
       d="m 24.5,65.086502 c -5.145827,-2.405127 -9.883625,-6.016197 -12.702257,-9.681446 -1.8345339,-2.385562 -1.45691,-2.214317 2.111707,0.957616 6.697663,5.953157 12.279806,8.095955 21.09055,8.095955 9.100209,0 14.862293,-2.32092 21,-8.458627 6.137707,-6.137707 8.458627,-11.899791 8.458627,-21 0,-8.810744 -2.142798,-14.392887 -8.095955,-21.09055 -3.171933,-3.568617 -3.343178,-3.9462409 -0.957616,-2.111707 7.602266,5.846257 11.543473,14.106668 11.572982,24.255913 0.01782,6.129768 -0.460877,8.522586 -2.539475,12.69379 C 61.175162,55.296237 55.296237,61.175162 48.747446,64.438563 42.18676,67.707891 30.76172,68.01319 24.5,65.086502 Z"
       id="path4228"
       inkscape:connector-curvature="0" />
    <path
       style="fill:#c6c7c7"
       d="m 27.787305,65.179715 c -0.941983,-0.373843 2.208017,-0.679715 7,-0.679715 7.775418,0 9.284876,-0.316962 14.031547,-2.946403 5.946837,-3.294278 10.075053,-7.551265 13.41301,-13.831401 1.826801,-3.437 2.246372,-5.842485 2.256139,-12.934891 0.0066,-4.791983 0.317871,-7.941983 0.691714,-7 0.373843,0.941982 0.711343,4.67832 0.75,8.302973 C 66.102863,52.325469 52.310429,66.071799 36,65.919946 32.425,65.886662 28.729287,65.553558 27.787305,65.179715 Z"
       id="path4226"
       inkscape:connector-curvature="0" />
  </g>
</svg>
