<?xml version="1.0" encoding="UTF-8" standalone="no"?>
<!-- Created with Inkscape (http://www.inkscape.org/) -->

<svg
   xmlns:dc="http://purl.org/dc/elements/1.1/"
   xmlns:cc="http://creativecommons.org/ns#"
   xmlns:rdf="http://www.w3.org/1999/02/22-rdf-syntax-ns#"
   xmlns:svg="http://www.w3.org/2000/svg"
   xmlns="http://www.w3.org/2000/svg"
   xmlns:sodipodi="http://sodipodi.sourceforge.net/DTD/sodipodi-0.dtd"
   xmlns:inkscape="http://www.inkscape.org/namespaces/inkscape"
   version="1.1"
   id="svg29"
   width="360"
   height="120"
   viewBox="0 0 360 120"
   sodipodi:docname="blue-home.svg"
   inkscape:version="0.92.3 (2405546, 2018-03-11)">
  <metadata
     id="metadata35">
    <rdf:RDF>
      <cc:Work
         rdf:about="">
        <dc:format>image/svg+xml</dc:format>
        <dc:type
           rdf:resource="http://purl.org/dc/dcmitype/StillImage" />
        <dc:title></dc:title>
      </cc:Work>
    </rdf:RDF>
  </metadata>
  <defs
     id="defs33" />
  <sodipodi:namedview
     pagecolor="#ffffff"
     bordercolor="#666666"
     borderopacity="1"
     objecttolerance="10"
     gridtolerance="10"
     guidetolerance="10"
     inkscape:pageopacity="0"
     inkscape:pageshadow="2"
     inkscape:window-width="1366"
     inkscape:window-height="715"
     id="namedview31"
     showgrid="false"
     inkscape:zoom="2.6055556"
     inkscape:cx="184.02985"
     inkscape:cy="60"
     inkscape:window-x="-8"
     inkscape:window-y="-8"
     inkscape:window-maximized="1"
     inkscape:current-layer="svg29" />
  <g
     id="g50"
     transform="translate(0.76759092,7.675906)">
    <path
       style="fill:#e7f5fa"
       d="M 157.30277,101.30064 V 91.300639 h 4 c 2.2,0 4,-0.45 4,-1 0,-0.555556 -2.66667,-1 -6,-1 -3.33333,0 -6,-0.444444 -6,-1 0,-0.55 1.89,-1 4.2,-1 3.26667,0 3.93333,-0.266667 3,-1.2 -1.63069,-1.630687 -1.50894,-2.8 0.29153,-2.8 0.82034,0 2.05358,0.9 2.74054,2 0.75731,1.212639 2.33203,2 4,2 1.66798,0 3.2427,-0.787361 4,-2 0.68696,-1.1 2.13078,-2 3.20848,-2 1.52402,0 1.69278,0.266667 0.75945,1.2 -2.01174,2.011735 -1.36423,2.8 2.3,2.8 1.925,0 3.5,0.45 3.5,1 0,0.554452 -2.64699,1 -5.94098,1 -3.26754,0 -6.2191,0.45 -6.55902,1 -0.3775,0.610812 1.15628,1 3.94098,1 h 4.55902 v 10.000001 c 0,8.22222 -0.26667,10 -1.5,10 -0.825,0 -1.5,-0.45 -1.5,-1 0,-0.57062 -2.98033,-1 -6.94098,-1 -3.81754,0 -7.2191,0.45 -7.55902,1 -1.73917,2.81403 -2.5,0.075 -2.5,-9 z m 17,4 c 0,-0.57143 -3,-1 -7,-1 -4,0 -7,0.42857 -7,1 0,0.57143 3,1 7,1 4,0 7,-0.42857 7,-1 z m 0,-5 c 0,-0.571431 -3,-1.000001 -7,-1.000001 -4,0 -7,0.42857 -7,1.000001 0,0.57143 3,1 7,1 4,0 7,-0.42857 7,-1 z m 0,-5.000001 c 0,-0.57143 -3,-1 -7,-1 -4,0 -7,0.42857 -7,1 0,0.57143 3,1 7,1 4,0 7,-0.42857 7,-1 z m 10.57904,15.245701 c -1.30605,-1.30605 -0.37212,-2.22741 3.40485,-3.35902 5.11372,-1.53211 7.05277,-3.74112 7.73253,-8.809061 0.36491,-2.72062 1.04752,-4.07762 2.05117,-4.07762 2.24412,0 0.81488,8.751081 -1.90146,11.642501 -2.19115,2.33237 -10.26513,5.62517 -11.28709,4.6032 z m 18.60484,-2.49296 c -6.96413,-3.95686 -5.49807,-5.95912 1.69456,-2.31434 4.82874,2.44691 6.0962,3.86445 4.37156,4.8892 -0.4125,0.2451 -3.14225,-0.91359 -6.06612,-2.57486 z m -15.5444,-3.44659 c -0.35171,-0.35172 -0.63948,-3.71448 -0.63948,-7.472821 v -6.83333 h 3.39301 c 2.09352,0 3.61346,-0.574486 3.96862,-1.5 0.4684,-1.220642 -0.44287,-1.5 -4.89301,-1.5 -4.19433,0 -5.46862,-0.349528 -5.46862,-1.5 0,-1.25641 2.11111,-1.5 13,-1.5 10.88889,0 13,0.24359 13,1.5 0,1.163641 -1.32145,1.5 -5.89301,1.5 -4.31574,0 -6.04707,0.401476 -6.46862,1.5 -0.46405,1.209302 0.38731,1.5 4.39301,1.5 h 4.96862 v 7 c 0,5.555561 -0.30952,7.000001 -1.5,7.000001 -1.15152,0 -1.5,-1.27778 -1.5,-5.500001 v -5.5 h -7 -7 v 5.44098 c 0,5.108611 -0.89451,7.331181 -2.36052,5.865171 z m -26.2004,-30.604306 c -0.27398,-0.713985 -0.37236,-7.568428 -0.21861,-15.232094 l 0.27953,-13.933939 4.5,-2.517906 c 4.08144,-2.283706 5.56966,-2.517906 16,-2.517906 10.43304,0 11.91751,0.233758 16,2.519509 l 4.5,2.519509 v 14.980491 14.980491 l -7.19626,0.292725 -7.19626,0.292725 -0.30374,-5.225326 c -0.27603,-4.748587 -0.55464,-5.292012 -3.05374,-5.956242 -1.5125,-0.402003 -3.9875,-0.402003 -5.5,0 -2.49519,0.663191 -2.77801,1.211127 -3.05226,5.913517 l -0.30226,5.182601 h -6.97912 c -4.79889,0 -7.13475,-0.405537 -7.47728,-1.298155 z M 153.82943,41.2575 c 1.48738,-2.406622 26.83984,-21.956861 28.47334,-21.956861 1.6335,0 26.98596,19.550239 28.47334,21.956861 1.14685,1.855646 -7.34611,1.148694 -11.46907,-0.954682 -5.47701,-2.794161 -15.59559,-4.050834 -23.54838,-2.924581 -3.59926,0.509718 -8.30633,1.825779 -10.46016,2.924581 -4.12296,2.103376 -12.61592,2.810328 -11.46907,0.954682 z M 2.3027709,-5.6993608 c 0,-1.9925926 0.6666667,-2 179.9999991,-2 179.33333,0 180,0.00741 180,2 0,1.9925926 -0.66667,2 -180,2 -179.3333324,0 -179.9999991,-0.00741 -179.9999991,-2 z"
       id="path64"
       inkscape:connector-curvature="0" />
    <path
       style="fill:#c9e8f5"
       d="m 157.30393,101.05064 -0.001,-8.750001 h 4 c 2.88889,0 4,-0.41667 4,-1.5 0,-1.151515 -1.27778,-1.5 -5.5,-1.5 -3.025,0 -5.5,-0.45 -5.5,-1 0,-0.55 1.665,-1 3.7,-1 2.87778,0 3.43333,-0.266667 2.5,-1.2 -1.66024,-1.660244 -1.50002,-2.8 0.39362,-2.8 0.87649,0 1.82897,0.9 2.11663,2 0.40775,1.55922 1.36402,2 4.33899,2 2.93773,0 3.96208,-0.460305 4.45076,-2 0.34913,-1.1 1.27945,-2 2.06739,-2 1.74682,0 1.84544,1.187168 0.23261,2.8 -0.93333,0.933333 -0.39089,1.2 2.44098,1.2 2.00254,0 3.9191,0.45 4.25902,1 0.38803,0.627843 -1.82295,1 -5.94098,1 -5.16357,0 -6.55902,0.319129 -6.55902,1.5 0,1.11111 1.16667,1.5 4.5,1.5 h 4.5 l 4.7e-4,8.750001 4.6e-4,8.75 h -9.99931 -9.9993 l -0.001,-8.75 z m 16.99884,4.25 c 0,-0.57778 -3.16667,-1 -7.5,-1 -4.33333,0 -7.5,0.42222 -7.5,1 0,0.57778 3.16667,1 7.5,1 4.33333,0 7.5,-0.42222 7.5,-1 z m 0,-4.5 c 0,-1.200001 -1.5,-1.500001 -7.5,-1.500001 -6.8973,0 -8.58901,0.57766 -6.83333,2.333331 0.36666,0.36667 3.74166,0.66667 7.5,0.66667 5.4074,0 6.83333,-0.31301 6.83333,-1.5 z m 0,-5.000001 c 0,-1.2 -1.5,-1.5 -7.5,-1.5 -6.8973,0 -8.58901,0.57766 -6.83333,2.33333 0.36666,0.36667 3.74166,0.66667 7.5,0.66667 5.4074,0 6.83333,-0.31301 6.83333,-1.5 z m 10,13.734721 c 0,-0.42091 2.27101,-1.57187 5.04669,-2.55771 5.36395,-1.9051 6.95331,-4.13192 6.95331,-9.742111 0,-1.61419 0.45,-2.9349 1,-2.9349 1.31514,0 1.28992,7.589771 -0.0334,10.062481 -1.82972,3.41878 -12.9666,7.86119 -12.9666,5.17224 z m 18.66336,-2.17254 c -2.76247,-1.6204 -4.36939,-3.12583 -3.74708,-3.51044 1.35745,-0.83895 11.22167,4.41604 10.49537,5.59122 -0.7719,1.24896 -1.40397,1.05407 -6.74829,-2.08078 z M 187.30277,97.361009 V 90.42137 l 3.6727,-0.310366 c 6.27352,-0.53015 5.32204,-2.810365 -1.1727,-2.810365 -4.08807,0 -5.55102,-0.34822 -5.25154,-1.25 0.29623,-0.89196 4.04372,-1.330166 13.08334,-1.529877 10.65207,-0.235335 12.6682,-0.04399 12.6682,1.202283 0,1.11725 -1.51921,1.555457 -6.17063,1.779877 -7.87165,0.379787 -9.5247,2.797717 -1.9127,2.797717 h 5.08333 v 7 c 0,8.401721 -1.7745,9.409921 -2.2001,1.25 l -0.2999,-5.75 -7.25,-0.29381 -7.25,-0.29381 v 6.04381 c 0,4.705611 -0.33213,6.043811 -1.5,6.043811 -1.18923,0 -1.5,-1.43774 -1.5,-6.939631 z M 161.96944,74.633972 c -0.36667,-0.366666 -0.66667,-6.813225 -0.66667,-14.325686 0,-13.093438 0.0986,-13.751611 2.38027,-15.895168 7.20527,-6.768997 30.03419,-6.768997 37.23946,0 2.27255,2.134956 2.38027,2.830131 2.38027,15.361835 0,8.875534 -0.38857,13.514251 -1.2,14.325686 -0.67724,0.677241 -3.92172,1.2 -7.44774,1.2 h -6.24774 l -0.30226,-5.230623 c -0.27082,-4.686616 -0.58827,-5.330718 -3.05226,-6.193041 -1.76174,-0.616559 -3.73826,-0.616559 -5.5,0 -2.46399,0.862323 -2.78144,1.506425 -3.05226,6.193041 l -0.30226,5.230623 h -6.78107 c -3.72959,0 -7.08108,-0.3 -7.44774,-0.666667 z M 154.30277,41.3912 c 0,-1.36619 26.26777,-22.083314 28,-22.083314 1.73223,0 28,20.717124 28,22.083314 0,1.708803 -5.33695,0.911943 -11.92154,-1.780002 -5.54974,-2.268875 -8.06404,-2.689441 -16.07846,-2.689441 -8.01442,0 -10.52872,0.420566 -16.07846,2.689441 -6.58459,2.691945 -11.92154,3.488805 -11.92154,1.780002 z M 2.3027709,-5.6993608 c 0,-1.9925926 0.6666667,-2 179.9999991,-2 179.33333,0 180,0.00741 180,2 0,1.9925926 -0.66667,2 -180,2 -179.3333324,0 -179.9999991,-0.00741 -179.9999991,-2 z"
       id="path62"
       inkscape:connector-curvature="0" />
    <path
       style="fill:#b9e2f1"
       d="m 157.30277,101.05064 v -8.750001 h 3.89301 c 2.53796,0 4.09336,-0.52211 4.46862,-1.5 0.47202,-1.230083 -0.49842,-1.5 -5.39301,-1.5 -3.31241,0 -5.96862,-0.445029 -5.96862,-1 0,-0.55 1.59083,-1 3.53518,-1 3.22531,0 3.44136,-0.175311 2.46482,-2 -0.71697,-1.339672 -0.73138,-2 -0.0437,-2 0.56469,0 1.58877,0.9 2.27573,2 1.7779,2.846868 7.37688,2.703621 9.77156,-0.25 1.00331,-1.2375 2.15207,-1.923375 2.55279,-1.524166 0.40072,0.399209 0.15936,1.411709 -0.53636,2.25 -1.09368,1.317848 -0.77456,1.524166 2.35754,1.524166 1.99234,0 3.62244,0.45 3.62244,1 0,0.555556 -2.66667,1 -6,1 -4.66667,0 -6,0.333333 -6,1.5 0,1.11111 1.16667,1.5 4.5,1.5 h 4.5 v 8.750001 8.75 h -10 -10 z m 17.5,4.25 c 0,-1.15953 -1.56638,-1.5679 -6.90087,-1.79913 -6.85269,-0.29704 -9.46545,0.58838 -8.12697,2.75409 0.44254,0.71604 3.31962,1.02235 7.86287,0.83713 5.57238,-0.22716 7.16497,-0.6255 7.16497,-1.79209 z m 0.25308,-4.75 c 0.30804,-0.931021 -1.64917,-1.250001 -7.66975,-1.250001 -6.61651,0 -8.08333,0.27983 -8.08333,1.542061 0,1.28077 1.29961,1.49258 7.66975,1.25 5.02727,-0.19143 7.81224,-0.72272 8.08333,-1.54206 z m 0.24692,-4.750001 c 0,-1.20833 -1.55556,-1.5 -8,-1.5 -6.44444,0 -8,0.29167 -8,1.5 0,1.20833 1.55556,1.5 8,1.5 6.44444,0 8,-0.29167 8,-1.5 z m 9,13.611291 c 0,-0.48879 1.5202,-1.1739 3.37822,-1.52247 5.26414,-0.98755 8.62178,-4.70321 8.62178,-9.541071 0,-2.22626 0.45,-4.04775 1,-4.04775 1.3394,0 1.27892,7.610331 -0.0807,10.150761 -1.76944,3.30625 -12.9193,7.58738 -12.9193,4.96053 z m 19.25,-1.78624 c -5.93075,-3.45365 -5.33323,-4.90765 0.75,-1.82505 2.75,1.39353 5,2.97611 5,3.51685 0,1.39052 -0.92353,1.11879 -5.75,-1.6918 z m -16.25,-10.264681 V 90.42137 l 3.6727,-0.310366 c 5.87802,-0.496728 5.44141,-2.810365 -0.53035,-2.810365 -2.76337,0 -5.30243,-0.45 -5.64235,-1 -0.39997,-0.647167 3.98962,-1 12.44098,-1 7.6031,0 13.05902,0.397853 13.05902,0.952283 0,0.523755 -2.77678,1.086255 -6.17063,1.25 -7.87165,0.379787 -9.5247,2.797717 -1.9127,2.797717 h 5.08333 v 7 c 0,4.000001 -0.42857,7.000001 -1,7.000001 -0.55633,0 -1,-2.68069 -1,-6.042061 v -6.04207 l -7.75,0.29207 -7.75,0.29206 -0.2999,5.75 c -0.42393,8.127801 -2.2001,7.167391 -2.2001,-1.18963 z m -24.8,-23.26037 c -0.81237,-0.812372 -1.2,-5.47276 -1.2,-14.42742 0,-13.00419 0.0433,-13.261436 2.56248,-15.243069 4.19133,-3.2969 9.4339,-4.606814 18.43752,-4.606814 9.00362,0 14.24619,1.309914 18.43752,4.606814 2.51923,1.981633 2.56248,2.238879 2.56248,15.243069 0,8.95466 -0.38763,13.615048 -1.2,14.42742 -0.67937,0.679365 -3.93333,1.2 -7.5,1.2 h -6.3 v -5.393011 c 0,-5.828045 -0.70738,-6.606989 -6,-6.606989 -5.29262,0 -6,0.778944 -6,6.606989 v 5.393011 h -6.3 c -3.56667,0 -6.82063,-0.520635 -7.5,-1.2 z m -8.2,-32.625169 c 0,-1.163805 26.53047,-22.174831 28,-22.174831 1.46953,0 28,21.011026 28,22.174831 0,1.712613 -5.97383,0.724247 -11.62916,-1.924035 -5.23539,-2.451633 -7.00735,-2.749203 -16.37084,-2.749203 -9.36349,0 -11.13545,0.29757 -16.37084,2.749203 -5.65533,2.648282 -11.62916,3.636648 -11.62916,1.924035 z M 2.3027709,-5.6993608 c 0,-0.662963 60.6666671,-1 179.9999991,-1 119.33333,0 180,0.337037 180,1 0,0.662963 -60.66667,1 -180,1 -119.333332,0 -179.9999991,-0.337037 -179.9999991,-1 z"
       id="path60"
       inkscape:connector-curvature="0" />
    <path
       style="fill:#a6dbee"
       d="m 157.30277,101.35814 v -8.942501 l 4.17228,-0.3075 c 2.29475,-0.16913 4.35725,-0.87 4.58333,-1.5575 0.29861,-0.908061 -1.25305,-1.25 -5.67228,-1.25 -3.38889,0 -6.08333,-0.442922 -6.08333,-1 0,-0.55 1.60532,-1 3.56739,-1 3.21662,0 3.5064,-0.221232 2.94714,-2.25 l -0.62024,-2.25 1.96315,2.25 c 2.60193,2.982127 8.60123,3.130001 10.14256,0.25 0.5887,-1.1 1.52037,-2 2.07037,-2 0.64321,0 0.6181,0.713578 -0.0704,2 -0.97654,1.824689 -0.76049,2 2.46482,2 1.94435,0 3.53518,0.45 3.53518,1 0,0.553538 -2.631,1 -5.89301,1 -4.31574,0 -6.04707,0.401476 -6.46862,1.5 -0.46405,1.2093 0.38731,1.5 4.39301,1.5 h 4.96862 v 9.000001 c 0,8.16023 -0.80632,10.74044 -2.5,8 -0.33992,-0.55 -3.71492,-1 -7.5,-1 -3.78508,0 -7.16008,0.45 -7.5,1 -1.69086,2.73587 -2.5,0.16522 -2.5,-7.9425 z m 18,3.9425 c 0,-1.83333 -0.66667,-2 -8,-2 -7.33333,0 -8,0.16667 -8,2 0,1.83333 0.66667,2 8,2 7.33333,0 8,-0.16667 8,-2 z m -0.19037,-4.75 c -0.28511,-1.480471 -1.48791,-1.750001 -7.80963,-1.750001 -6.32172,0 -7.52452,0.26953 -7.80963,1.750001 -0.2987,1.55104 0.5892,1.75 7.80963,1.75 7.22043,0 8.10833,-0.19896 7.80963,-1.75 z m 0.19037,-4.750001 c 0,-1.20833 -1.55556,-1.5 -8,-1.5 -6.44444,0 -8,0.29167 -8,1.5 0,1.20833 1.55556,1.5 8,1.5 6.44444,0 8,-0.29167 8,-1.5 z m 9.59291,13.650331 c -0.31648,-0.51207 0.95,-1.2172 2.81439,-1.56696 5.81357,-1.09063 8.5927,-4.05193 8.5927,-9.155951 0,-2.43508 0.45,-4.42742 1,-4.42742 0.55,0 1,2.025 1,4.5 0,6.034951 -2.18184,8.266151 -10.66584,10.907151 -1.19122,0.37081 -2.42478,0.25524 -2.74125,-0.25682 z m 18.45926,-1.93441 c -2.44631,-1.42122 -3.94243,-2.7525 -3.3247,-2.95841 1.48353,-0.49451 9.27253,3.50629 9.27253,4.76281 0,1.395 -0.92248,1.11514 -5.94783,-1.8044 z m -15.84786,-9.965921 0.29569,-6.75 3.75,-0.310365 c 2.89911,-0.239943 3.75,-0.738617 3.75,-2.197741 0,-1.563528 -0.90083,-1.950394 -5.25,-2.254652 -2.8875,-0.202003 0.6,-0.363814 7.75,-0.35958 7.15,0.0042 10.1919,0.16735 6.75978,0.362481 -4.94228,0.28099 -6.45756,0.760904 -7.28518,2.30732 -0.978,1.827407 -0.69024,1.952537 4.49022,1.952537 h 5.53518 v 7 c 0,4.000001 -0.42857,7.000001 -1,7.000001 -0.55556,0 -1,-2.66667 -1,-6.000001 v -6 h -8 -8 v 6 c 0,3.508111 -0.43429,6.000001 -1.04569,6.000001 -0.65351,0 -0.93479,-2.53153 -0.75,-6.750001 z m -25.00431,-23.45 c -1.8809,-1.880902 -1.63111,-25.739491 0.29833,-28.494146 5.44256,-7.770357 33.56078,-7.770357 39.00334,0 1.92944,2.754655 2.17923,26.613244 0.29833,28.494146 -0.67937,0.679365 -3.93333,1.2 -7.5,1.2 h -6.3 v -5.393011 c 0,-5.828045 -0.70738,-6.606989 -6,-6.606989 -5.29262,0 -6,0.778944 -6,6.606989 v 5.393011 h -6.3 c -3.56667,0 -6.82063,-0.520635 -7.5,-1.2 z m -8.03333,-32.731942 c 0.44689,-1.249443 26.70437,-22.068058 27.83333,-22.068058 1.12896,0 27.38644,20.818615 27.83333,22.068058 0.44459,1.242998 -6.54722,1.203887 -7.31656,-0.04093 -1.20423,-1.948472 -13.76886,-5.027128 -20.51677,-5.027128 -6.74791,0 -19.31254,3.078656 -20.51677,5.027131 -0.76934,1.244814 -7.76115,1.283925 -7.31656,0.04093 z M 2.3027709,-5.6993608 c 0,-0.662963 60.6666671,-1 179.9999991,-1 119.33333,0 180,0.337037 180,1 0,0.662963 -60.66667,1 -180,1 -119.333332,0 -179.9999991,-0.337037 -179.9999991,-1 z"
       id="path58"
       inkscape:connector-curvature="0" />
    <path
       style="fill:#96d4ea"
       d="m 157.30277,101.35814 v -8.942501 l 4.17228,-0.3075 c 2.29475,-0.16913 4.35725,-0.87 4.58333,-1.5575 0.29861,-0.908061 -1.25305,-1.25 -5.67228,-1.25 -3.38889,0 -6.08333,-0.442922 -6.08333,-1 0,-0.55 1.60532,-1 3.56739,-1 3.21662,0 3.5064,-0.221232 2.94714,-2.25 l -0.62024,-2.25 1.96315,2.25 c 1.32915,1.523362 3.08305,2.25 5.43088,2.25 2.4341,0 3.9661,-0.67066 5.13971,-2.25 l 1.67197,-2.25 -0.45638,2.25 c -0.40208,1.982302 -0.0511,2.25 2.95,2.25 6.00975,0 3.6329,1.893636 -2.76425,2.202283 -7.87165,0.379787 -9.5247,2.797717 -1.9127,2.797717 h 5.08333 v 9.000001 c 0,5.33333 -0.40741,9 -1,9 -0.55,0 -1,-0.45 -1,-1 0,-0.58333 -3.33333,-1 -8,-1 -4.66667,0 -8,0.41667 -8,1 0,0.55 -0.45,1 -1,1 -0.59212,0 -1,-3.6475 -1,-8.9425 z m 18,3.9425 c 0,-1.83333 -0.66667,-2 -8,-2 -7.33333,0 -8,0.16667 -8,2 0,1.83333 0.66667,2 8,2 7.33333,0 8,-0.16667 8,-2 z m 0,-5 c 0,-1.833331 -0.66667,-2.000001 -8,-2.000001 -7.33333,0 -8,0.16667 -8,2.000001 0,1.83333 0.66667,2 8,2 7.33333,0 8,-0.16667 8,-2 z m -0.19037,-4.750001 c -0.28511,-1.48047 -1.48791,-1.75 -7.80963,-1.75 -6.32172,0 -7.52452,0.26953 -7.80963,1.75 -0.2987,1.55104 0.5892,1.75 7.80963,1.75 7.22043,0 8.10833,-0.19896 7.80963,-1.75 z m 10.19037,13.942391 c 0,-0.51832 1.24944,-1.19228 2.77654,-1.4977 5.07128,-1.01425 8.22346,-4.37489 8.22346,-8.767271 0,-2.16008 0.45,-3.92742 1,-3.92742 1.57138,0 1.16826,6.314771 -0.5607,8.783211 -2.25517,3.21969 -11.4393,7.5625 -11.4393,5.40918 z m 18.5,-2.23461 c -2.75,-1.6178 -4.38627,-2.94513 -3.63615,-2.94962 1.81249,-0.0108 9.13615,4.13829 9.13615,5.17598 0,1.05968 0.27488,1.17094 -5.5,-2.22636 z m -15.30732,-9.207781 -0.19268,-6.75 h 2.96482 c 1.90777,0 3.33389,-0.689621 4,-1.934259 1.54836,-2.893135 1.48521,-2.937694 -4.71482,-3.326753 -3.1625,-0.19845 0.1,-0.359201 7.25,-0.357224 7.15,0.002 10.1919,0.163248 6.75978,0.358379 -4.77459,0.271457 -6.46912,0.78249 -7.21481,2.175838 -1.35603,2.53376 -0.4422,3.084019 5.1217,3.084019 h 4.83333 v 6.5 c 0,3.666671 -0.4359,6.500001 -1,6.500001 -0.55556,0 -1,-2.66667 -1,-6.000001 v -6 h -7.95228 -7.95229 l -0.35503,6.25 -0.35504,6.250001 z m -25.99268,-23.95 c -1.88255,-1.882554 -1.63095,-25.739718 0.30054,-28.497306 5.16005,-7.36701 33.83887,-7.36701 38.99892,0 1.14346,1.632518 1.50054,5.174566 1.50054,14.884628 0,14.732943 -0.0505,14.812678 -9.38435,14.812678 h -5.51584 l -0.29991,-5.75 -0.2999,-5.75 h -5.5 -5.5 l -0.2999,5.75 -0.29991,5.75 h -6.25009 c -3.52786,0 -6.77276,-0.522663 -7.4501,-1.2 z m -8.1455,-32.55 c 0.11431,-1.573157 25.99098,-21.25 27.9455,-21.25 1.95452,0 27.83119,19.676843 27.9455,21.25 0.11955,1.6452 -5.55346,0.599083 -10.84583,-2 -5.12311,-2.515961 -6.57838,-2.75 -17.09967,-2.75 -10.52129,0 -11.97656,0.234039 -17.09967,2.75 -5.29237,2.599083 -10.96538,3.6452 -10.84583,2 z M 2.3027709,-5.6993608 c 0,-0.662963 60.6666671,-1 179.9999991,-1 119.33333,0 180,0.337037 180,1 0,0.662963 -60.66667,1 -180,1 -119.333332,0 -179.9999991,-0.337037 -179.9999991,-1 z"
       id="path56"
       inkscape:connector-curvature="0" />
    <path
       style="fill:#8ed1eb"
       d="m 158.38172,101.55064 -0.0789,-9.250001 h 4 c 2.88889,0 4,-0.41667 4,-1.5 0,-1.171171 -1.35185,-1.5 -6.16667,-1.5 -3.39166,0 -5.89747,-0.26919 -5.56846,-0.598201 0.32901,-0.329011 3.99563,-0.584876 8.14804,-0.568589 7.00362,0.02747 7.7015,-0.163198 9.64615,-2.635422 l 2.09632,-2.665033 -0.6861,2.733623 c -0.65412,2.606224 -0.50628,2.741666 3.17231,2.906221 2.58983,0.115851 1.747,0.362438 -2.56349,0.75 -7.7374,0.69568 -9.79719,3.077401 -2.66143,3.077401 h 4.58333 l -0.0789,9.250001 c -0.0434,5.0875 -0.30592,8.6875 -0.58333,8 -0.34331,-0.85069 -3.00678,-1.25 -8.33777,-1.25 -5.33099,0 -7.99446,0.39931 -8.33772,1.25 -0.27741,0.6875 -0.53991,-2.9125 -0.58333,-8 z m 16.92105,3.75 c 0,-1.83333 -0.66667,-2 -8,-2 -7.33333,0 -8,0.16667 -8,2 0,1.83333 0.66667,2 8,2 7.33333,0 8,-0.16667 8,-2 z m 0,-5 c 0,-1.833331 -0.66667,-2.000001 -8,-2.000001 -7.33333,0 -8,0.16667 -8,2.000001 0,1.83333 0.66667,2 8,2 7.33333,0 8,-0.16667 8,-2 z m 0,-5.000001 c 0,-1.83333 -0.66667,-2 -8,-2 -7.33333,0 -8,0.16667 -8,2 0,1.83333 0.66667,2 8,2 7.33333,0 8,-0.16667 8,-2 z m 10.49217,14.012661 c 0.29192,-0.47233 1.81479,-1.14081 3.38416,-1.4855 4.59864,-1.01003 7.12367,-4.04634 7.12367,-8.566121 0,-2.17857 0.45,-3.96104 1,-3.96104 1.26795,0 1.29273,4.09985 0.0446,7.382601 -0.52545,1.38204 -2.04523,3.22691 -3.3773,4.09972 -2.87546,1.88407 -8.93485,3.75955 -8.17516,2.53034 z m 17.50783,-2.51266 c -2.475,-1.32529 -4.05,-2.40963 -3.5,-2.40963 0.55,0 3.025,1.08434 5.5,2.40963 2.475,1.32529 4.05,2.40963 3.5,2.40963 -0.55,0 -3.025,-1.08434 -5.5,-2.40963 z m -14.80732,-8.750001 -0.19268,-6.75 h 3.5 c 1.925,0 3.5,-0.413196 3.5,-0.918213 0,-0.505016 0.26408,-1.606394 0.58684,-2.447504 0.47671,-1.242276 -0.50861,-1.597498 -5.25,-1.892703 -3.21026,-0.199876 -0.21184,-0.365257 6.66316,-0.367513 6.875,-0.0023 10.025,0.155848 7,0.351343 -3.61503,0.233627 -5.9284,0.921177 -6.75,2.006148 -2.10232,2.776238 -1.4623,3.268442 4.25,3.268442 h 5.5 v 6.5 c 0,3.666671 -0.4359,6.500001 -1,6.500001 -0.55556,0 -1,-2.66667 -1,-6.000001 v -6 h -7.95228 -7.95229 l -0.35503,6.25 -0.35504,6.250001 z m -27.69268,-12.75 c -0.33992,-0.55 -0.14148,-1 0.44098,-1 0.58246,0 1.05902,0.45 1.05902,1 0,0.55 -0.19844,1 -0.44098,1 -0.24254,0 -0.7191,-0.45 -1.05902,-1 z M 162.8742,73.72921 c -1.24448,-1.24448 -1.57143,-3.939445 -1.57143,-12.952947 0,-6.329927 0.50148,-12.482144 1.12986,-13.861291 4.13231,-9.069423 35.60797,-9.069423 39.74028,0 0.62682,1.375714 1.12986,7.509914 1.12986,13.777732 0,13.647621 -0.60998,14.607935 -9.27884,14.607935 h -5.62135 l -0.29991,-5.75 -0.2999,-5.75 h -5.5 -5.5 l -0.2999,5.75 -0.29991,5.75 h -5.87867 c -4.01091,0 -6.37793,-0.499271 -7.45009,-1.571429 z m -7.57143,-32.334905 c 0,-1.482248 25.10272,-21.093666 27,-21.093666 1.89728,0 27,19.611418 27,21.093666 0,1.64829 -3.67757,0.944157 -9.62916,-1.843666 -5.33764,-2.500241 -6.91529,-2.75 -17.37084,-2.75 -10.45555,0 -12.0332,0.249759 -17.37084,2.75 -5.95159,2.787823 -9.62916,3.491956 -9.62916,1.843666 z M 2.3027709,-5.6993608 c 0,-0.662963 60.6666671,-1 179.9999991,-1 119.33333,0 180,0.337037 180,1 0,0.662963 -60.66667,1 -180,1 -119.333332,0 -179.9999991,-0.337037 -179.9999991,-1 z"
       id="path54"
       inkscape:connector-curvature="0" />
    <path
       style="fill:#8ed1e5"
       d="m 162.8742,73.72921 c -1.24448,-1.24448 -1.57143,-3.939445 -1.57143,-12.952947 0,-6.329927 0.50148,-12.482144 1.12986,-13.861291 4.13231,-9.069423 35.60797,-9.069423 39.74028,0 0.62682,1.375714 1.12986,7.509914 1.12986,13.777732 0,13.647621 -0.60998,14.607935 -9.27884,14.607935 h -5.62135 l -0.29991,-5.75 -0.2999,-5.75 h -5.5 -5.5 l -0.2999,5.75 -0.29991,5.75 h -5.87867 c -4.01091,0 -6.37793,-0.499271 -7.45009,-1.571429 z m -7.57143,-32.334905 c 0,-1.482248 25.10272,-21.093666 27,-21.093666 1.89728,0 27,19.611418 27,21.093666 0,1.64829 -3.67757,0.944157 -9.62916,-1.843666 -5.33764,-2.500241 -6.91529,-2.75 -17.37084,-2.75 -10.45555,0 -12.0332,0.249759 -17.37084,2.75 -5.95159,2.787823 -9.62916,3.491956 -9.62916,1.843666 z"
       id="path52"
       inkscape:connector-curvature="0" />
  </g>
</svg>
