<?xml version="1.0" encoding="UTF-8" standalone="no"?>
<!-- Created with Inkscape (http://www.inkscape.org/) -->

<svg
   xmlns:dc="http://purl.org/dc/elements/1.1/"
   xmlns:cc="http://creativecommons.org/ns#"
   xmlns:rdf="http://www.w3.org/1999/02/22-rdf-syntax-ns#"
   xmlns:svg="http://www.w3.org/2000/svg"
   xmlns="http://www.w3.org/2000/svg"
   xmlns:sodipodi="http://sodipodi.sourceforge.net/DTD/sodipodi-0.dtd"
   xmlns:inkscape="http://www.inkscape.org/namespaces/inkscape"
   version="1.1"
   id="svg169"
   width="360"
   height="144"
   viewBox="0 0 360 144"
   sodipodi:docname="blue-friend.svg"
   inkscape:version="0.92.3 (2405546, 2018-03-11)">
  <metadata
     id="metadata175">
    <rdf:RDF>
      <cc:Work
         rdf:about="">
        <dc:format>image/svg+xml</dc:format>
        <dc:type
           rdf:resource="http://purl.org/dc/dcmitype/StillImage" />
        <dc:title></dc:title>
      </cc:Work>
    </rdf:RDF>
  </metadata>
  <defs
     id="defs173" />
  <sodipodi:namedview
     pagecolor="#ffffff"
     bordercolor="#666666"
     borderopacity="1"
     objecttolerance="10"
     gridtolerance="10"
     guidetolerance="10"
     inkscape:pageopacity="0"
     inkscape:pageshadow="2"
     inkscape:window-width="1366"
     inkscape:window-height="715"
     id="namedview171"
     showgrid="false"
     inkscape:zoom="2.6055556"
     inkscape:cx="184.02985"
     inkscape:cy="72"
     inkscape:window-x="-8"
     inkscape:window-y="-8"
     inkscape:window-maximized="1"
     inkscape:current-layer="svg169" />
  <g
     id="g190"
     transform="translate(-9.5948827,-0.38379489)">
    <path
       style="fill:#e7f5fa"
       d="m 169.29211,114.99787 v -6 h -5 c -3.77778,0 -5,-0.36667 -5,-1.5 0,-1.13333 1.22222,-1.5 5,-1.5 4.66667,0 5,-0.16667 5,-2.5 0,-2.25 -0.4,-2.5 -4,-2.5 -2.88889,0 -4,-0.41667 -4,-1.500002 0,-1.083333 1.11111,-1.5 4,-1.5 3.6,0 4,-0.25 4,-2.5 0,-1.555556 0.56667,-2.5 1.5,-2.5 0.93333,0 1.5,0.944444 1.5,2.5 0,2.296296 0.36667,2.5 4.5,2.5 h 4.5 v 4.000002 c 0,3.64378 0.23217,4 2.60699,4 1.96639,0 2.45784,0.38868 2,1.58179 -0.33385,0.86998 -0.60699,2.86284 -0.60699,4.42857 0,3.65736 -2.36412,5.98964 -6.07143,5.98964 -3.82148,0 -3.97554,-2.74669 -0.17857,-3.18358 2.15997,-0.24853 2.81789,-0.90645 3.06642,-3.06642 0.30834,-2.67978 0.18705,-2.75 -4.75,-2.75 h -5.06642 v 6 c 0,4.66667 -0.33333,6 -1.5,6 -1.16667,0 -1.5,-1.33333 -1.5,-6 z m 9,-11.5 c 0,-2.11111 -0.46667,-2.5 -3,-2.5 -2.53333,0 -3,0.38889 -3,2.5 0,2.11111 0.46667,2.5 3,2.5 2.53333,0 3,-0.38889 3,-2.5 z m 16.63948,16.80615 c -1.36037,-1.36037 -0.49262,-2.3811 3.32167,-3.90728 l 3.96116,-1.58494 -2.17296,-2.93908 -2.17296,-2.93909 -1.68436,3.28317 c -2.12247,4.13711 -5.43375,7.18234 -6.85483,6.30406 -0.7055,-0.43602 -0.20829,-1.71939 1.41233,-3.64538 2.10238,-2.49854 5.55047,-11.2324 5.55047,-14.05911 0,-0.45018 -1.575,-0.818502 -3.5,-0.818502 -4.66971,0 -4.49706,-1.79587 0.21051,-2.189635 2.92446,-0.244616 3.82479,-0.799516 4.25,-2.619382 0.75997,-3.252662 2.47895,-3.21714 2.85591,0.05902 0.31355,2.724994 0.38402,2.75 7.75,2.75 4.28905,0 7.43358,0.423016 7.43358,1 0,0.583333 -3.33333,1 -8,1 -7.33333,0 -8,0.166669 -8,1.999999 0,1.79487 0.66667,2 6.5,2 3.575,0 6.5,0.17004 6.5,0.37788 0,1.20699 -3.13357,7.58664 -3.98485,8.11276 -1.95771,1.20993 -0.97594,2.35892 3.46467,4.0548 4.42819,1.69114 5.19137,3.45456 1.49509,3.45456 -1.04888,0 -3.46361,-0.74227 -5.36607,-1.64949 -3.45609,-1.64809 -5.37861,-1.27818 -11.71936,2.25493 -0.33579,0.1871 -0.89829,0.0524 -1.25,-0.29929 z m 12.14691,-11.11096 c 1.42266,-2.14264 1.35746,-2.19519 -2.72343,-2.19519 -3.05931,0 -3.98925,0.33535 -3.46628,1.25 2.47594,4.33027 3.80713,4.53355 6.18971,0.94519 z M 181.04959,97.520663 c -1.51012,-1.32922 -2.29744,-2.689082 -1.75206,-3.026147 1.51104,-0.933873 6.88629,2.621984 6.29456,4.164004 -0.70178,1.82881 -1.35918,1.66414 -4.5425,-1.137857 z m -8.25748,-15.949852 -12,-3.255542 -0.87116,-5.408701 c -1.56526,-9.718023 -0.38115,-23.9087 1.99499,-23.9087 0.86241,0 1.37617,-1.119976 1.37617,-3 0,-1.65 0.16832,-3 0.37405,-3 0.20572,0 2.45572,1.163473 5,2.585495 l 4.62595,2.585494 v -3.428211 c 0,-7.5946 7.24615,-15.742778 14,-15.742778 6.75385,0 14,8.148178 14,15.742778 v 3.428211 l 4.62595,-2.585494 c 2.54428,-1.422022 4.79428,-2.585495 5,-2.585495 0.20573,0 0.37405,1.35 0.37405,3 0,1.880024 0.51376,3 1.37617,3 2.37588,0 3.56056,14.193773 1.99499,23.902394 l -0.87116,5.402395 -12.5,3.332119 c -6.875,1.832666 -13.4,3.300498 -14.5,3.261849 -1.1,-0.03865 -7.4,-1.535266 -14,-3.325814 z m 11.07741,-22.328864 c -1.15373,-1.153737 -20.10801,-5.867566 -20.41658,-5.077496 -0.18654,0.477633 0.71346,1.720789 2,2.762568 3.33666,2.701863 3.39176,11.395221 0.0892,14.069495 -3.42051,2.769762 -2.77419,3.7977 3.5,5.566567 3.1625,0.891596 7.775,2.1897 10.25,2.884677 l 4.5,1.263594 0.28517,-10.488243 c 0.15684,-5.768534 0.0634,-10.710056 -0.20776,-10.981162 z m 21.67259,17.317646 c 6.27399,-1.765005 6.9208,-2.793081 3.5,-5.563079 -1.80894,-1.464792 -2.25,-2.83671 -2.25,-6.998646 0,-4.161936 0.44106,-5.533854 2.25,-6.998646 3.73817,-3.026986 2.74499,-4.034907 -2.5,-2.537114 -2.6125,0.746042 -7.3375,2.084358 -10.5,2.974035 l -5.75,1.617595 v 10.918165 10.918165 l 4.75,-1.35644 c 2.6125,-0.746042 7.3375,-2.084358 10.5,-2.974035 z M 193.05526,52.718628 c 4.36771,-2.296887 5.18565,-3.146582 4.80762,-4.99427 -0.25055,-1.22457 -0.72177,-3.886864 -1.04716,-5.916209 -0.71919,-4.485322 -5.39432,-8.810281 -9.52361,-8.810281 -4.12929,0 -8.80442,4.324959 -9.52361,8.810281 -0.32539,2.029345 -0.79193,4.672995 -1.03676,5.874777 -0.36288,1.781279 0.52553,2.729657 4.80762,5.132163 2.88901,1.620908 5.47775,2.885053 5.75275,2.809212 0.275,-0.07584 2.86842,-1.383394 5.76315,-2.905673 z m -12.71699,-3.165136 c -2.70069,-3.254136 1.76872,-7.169311 4.76443,-4.173605 1.27355,1.273547 1.40397,2.054942 0.56528,3.386745 -1.46016,2.318661 -3.77482,2.660389 -5.32971,0.78686 z m 9,0 c -2.70069,-3.254136 1.76872,-7.169311 4.76443,-4.173605 1.27355,1.273547 1.40397,2.054942 0.56528,3.386745 -1.46016,2.318661 -3.77482,2.660389 -5.32971,0.78686 z M 7.29211,3.9978678 c 0,-1.9925926 0.6666667,-2 180,-2 179.33333,0 180,0.00741 180,2 0,1.9925926 -0.66667,2 -180,2 -179.3333333,0 -180,-0.00741 -180,-2 z"
       id="path204"
       inkscape:connector-curvature="0" />
    <path
       style="fill:#d4edf7"
       d="m 169.29211,113.99787 v -6 h -5 c -2.75,0 -5,-0.45 -5,-1 0,-0.55 2.25,-1 5,-1 4.66667,0 5,-0.16667 5,-2.5 0,-2.25 -0.4,-2.5 -4,-2.5 -2.88889,0 -4,-0.41667 -4,-1.500002 0,-1.083333 1.11111,-1.5 4,-1.5 3.6,0 4,-0.25 4,-2.5 0,-1.555556 0.56667,-2.5 1.5,-2.5 0.93333,0 1.5,0.944444 1.5,2.5 0,2.296296 0.36667,2.5 4.5,2.5 h 4.5 v 4.000002 c 0,3.33333 0.33333,4 2,4 1.66667,0 2,0.66667 2,4 0,4.63781 -2.92241,8.30021 -6.23316,7.81149 -3.40615,-0.50279 -3.37632,-2.81149 0.0363,-2.81149 2.53655,0 3.03419,-0.43851 3.41097,-3.00569 0.24263,-1.65313 0.21871,-3.22813 -0.0532,-3.5 -0.27183,-0.27187 -2.66927,-0.49431 -5.32761,-0.49431 h -4.83333 v 6 c 0,4.66667 -0.33333,6 -1.5,6 -1.16667,0 -1.5,-1.33333 -1.5,-6 z m 10,-10.5 c 0,-2.19048 -0.43333,-2.5 -3.5,-2.5 -3.06667,0 -3.5,0.30952 -3.5,2.5 0,2.19048 0.43333,2.5 3.5,2.5 3.06667,0 3.5,-0.30952 3.5,-2.5 z m 15,15.69245 c 0,-0.44416 1.76726,-1.58727 3.92724,-2.54025 l 3.92724,-1.73269 -2.17724,-3.33757 -2.17724,-3.33757 -2.17553,4.19356 c -2.53372,4.88403 -4.77808,7.01779 -6.35587,6.04266 -0.76165,-0.47072 -0.49363,-1.37645 0.83922,-2.83609 2.70621,-2.96363 4.89089,-7.52158 5.71774,-11.92906 l 0.69702,-3.715442 h -3.61129 c -1.98621,0 -3.61129,-0.45 -3.61129,-1 0,-0.55 1.8,-1 4,-1 3.6,0 4,-0.25 4,-2.5 0,-1.569491 0.5654,-2.5 1.51905,-2.5 1.12098,0 1.35463,0.655135 0.89159,2.5 l -0.62746,2.5 h 8.10841 c 4.73894,0 8.10841,0.415553 8.10841,1 0,0.5821 -3.29446,1 -7.88337,1 -7.04236,0 -7.93916,0.213362 -8.40638,2.000002 -0.48573,1.85743 -0.0307,2 6.38337,2 3.79851,0 6.90638,0.24735 6.90638,0.54966 0,1.02056 -3.23012,6.93772 -4.70971,8.62756 -1.33614,1.52601 -1.01609,1.83792 3.55003,3.45966 2.76021,0.98034 4.79876,2.13809 4.5301,2.57278 -0.80653,1.30499 -3.73202,0.90022 -7.54552,-1.04401 -3.46608,-1.76711 -3.72127,-1.76865 -6.96144,-0.0419 -3.56403,1.89931 -6.86346,2.41306 -6.86346,1.0687 z m 12.61241,-9.72366 c 2.09856,-3.20281 1.58748,-3.66771 -3.60736,-3.28137 l -4.20311,0.31258 2.17161,2.75 c 2.68239,3.39683 3.53485,3.4299 5.63886,0.21879 z M 181.15289,97.083948 c -1.29843,-1.052657 -2.03732,-2.238613 -1.64199,-2.635459 0.86035,-0.863632 5.78121,2.177159 5.78121,3.572432 0,1.513107 -1.54983,1.16228 -4.13922,-0.936973 z m -4.36078,-14.694176 c -4.95,-1.353853 -10.63197,-2.898274 -12.62661,-3.432046 -3.51282,-0.940046 -3.64825,-1.150739 -4.31612,-6.715177 -0.84893,-7.07294 -0.84755,-9.07951 0.0118,-17.053904 0.49827,-4.623814 1.03206,-6.174082 1.99823,-5.803329 0.90323,0.3466 1.41506,-0.576169 1.62552,-2.930593 l 0.30719,-3.436487 11.75,6.522135 11.75,6.522134 11.75,-6.522134 11.75,-6.522135 0.30719,3.436487 c 0.21046,2.354424 0.72229,3.277193 1.62552,2.930593 2.12593,-0.815797 3.2784,12.289645 2.01002,22.857233 -0.66798,5.565318 -0.80274,5.774878 -4.31612,6.711813 -1.99464,0.531923 -7.90161,2.108181 -13.12661,3.502797 -5.225,1.394615 -9.95,2.503827 -10.5,2.464914 -0.55,-0.03891 -5.05,-1.178448 -10,-2.532301 z m 7.28275,-12.624709 -0.28275,-11.232805 -10,-2.726334 c -5.5,-1.499484 -10.1125,-2.744721 -10.25,-2.767195 -1.04647,-0.17104 0.0663,3.143289 1.20163,3.578952 0.7984,0.306374 1.9583,2.092251 2.57755,3.968615 1.30928,3.967145 -0.13324,9.853788 -2.65145,10.82012 -0.83905,0.321972 -1.37394,1.372636 -1.18864,2.334809 0.24604,1.277554 2.89575,2.46046 9.82391,4.385663 5.21785,1.449942 9.83924,2.68907 10.26975,2.753619 0.43051,0.06455 0.65551,-4.937401 0.5,-11.115444 z m 17.97194,8.055218 c 8.637,-2.166223 11.00471,-4.062737 7.90336,-6.330502 -2.77872,-2.031848 -3.99578,-6.938555 -2.69709,-10.873609 0.62468,-1.892795 1.78901,-3.692115 2.58741,-3.998489 1.13532,-0.435663 2.2481,-3.749992 1.20163,-3.578952 -0.1375,0.02247 -4.75,1.267711 -10.25,2.767195 l -10,2.726334 -0.28387,11.352792 c -0.25865,10.343796 -0.13264,11.294756 1.41782,10.69979 0.93593,-0.359151 5.49026,-1.603202 10.12074,-2.764559 z M 180.86354,49.426439 c -1.64686,-1.646855 -1.17201,-3.984127 0.97695,-4.808763 1.80547,-0.692824 4.52464,2.02634 3.83181,3.831812 -0.82463,2.148965 -3.16191,2.623807 -4.80876,0.976951 z m 9,0 c -1.64686,-1.646855 -1.17201,-3.984127 0.97695,-4.808763 1.80547,-0.692824 4.52464,2.02634 3.83181,3.831812 -0.82463,2.148965 -3.16191,2.623807 -4.80876,0.976951 z M 173.76943,46.96117 c -1.30086,-2.104836 0.78543,-9.192961 3.67423,-12.483123 5.88178,-6.698981 13.81512,-6.698981 19.6969,0 2.8888,3.290162 4.97509,10.378287 3.67423,12.483123 -1.50347,2.432669 -3.52268,0.983015 -3.52268,-2.529043 0,-6.686443 -4.12944,-11.389787 -10,-11.389787 -5.87056,0 -10,4.703344 -10,11.389787 0,3.512058 -2.01921,4.961712 -3.52268,2.529043 z M 7.29211,3.9978678 c 0,-1.9925926 0.6666667,-2 180,-2 179.33333,0 180,0.00741 180,2 0,1.9925926 -0.66667,2 -180,2 -179.3333333,0 -180,-0.00741 -180,-2 z"
       id="path202"
       inkscape:connector-curvature="0" />
    <path
       style="fill:#c7e8f5"
       d="m 170.09201,114.24787 -0.2999,-5.75 -5.25,-0.30226 c -7.00349,-0.40321 -6.74512,-2.19774 0.31642,-2.19774 5.4825,0 5.56165,-0.0415 5.25,-2.75 -0.28313,-2.46072 -0.76349,-2.78235 -4.56642,-3.0575 -5.66497,-0.409874 -5.4617,-2.192502 0.25,-2.192502 4.13333,0 4.5,-0.203704 4.5,-2.5 0,-1.375 0.45,-2.5 1,-2.5 0.55,0 1,1.125 1,2.5 0,2.296296 0.36667,2.5 4.5,2.5 h 4.5 v 4.000002 c 0,3.33333 0.33333,4 2,4 1.62607,0 2,0.66667 2,3.56574 0,5.42449 -1.49638,7.43426 -5.53518,7.43426 -1.90565,0 -3.46482,-0.45 -3.46482,-1 0,-0.55 1.35,-1 3,-1 1.72605,0 3.0058,-0.53081 3.01365,-1.25 0.008,-0.6875 0.285,-2.2625 0.61664,-3.5 0.57291,-2.13784 0.32299,-2.25 -5.01366,-2.25 h -5.61663 v 6 c 0,7.66307 -1.80277,7.86792 -2.2001,0.25 z m 9.01652,-11 c -0.26366,-2.29146 -0.85834,-2.80225 -3.56642,-3.06336 -3.02758,-0.291913 -3.25,-0.10371 -3.25,2.75 0,2.84518 0.25401,3.06336 3.56642,3.06336 3.30069,0 3.54285,-0.20491 3.25,-2.75 z m 15.79568,15.93139 c -0.30591,-0.49498 1.25338,-1.61079 3.46509,-2.47958 l 4.0213,-1.57961 -2.26996,-3.46286 -2.26996,-3.46286 -2.75846,4.82987 c -3.02734,5.30069 -4.25103,6.43103 -5.87532,5.42717 -0.69645,-0.43043 -0.36606,-1.41992 0.93794,-2.80902 2.55725,-2.72412 6.08661,-10.45456 6.11531,-13.3945 0.0186,-1.90895 -0.50857,-2.250002 -3.47804,-2.250002 -1.925,0 -3.5,-0.45 -3.5,-1 0,-0.55 1.8,-1 4,-1 3.6,0 4,-0.25 4,-2.5 0,-1.375 0.45,-2.5 1,-2.5 0.55,0 1,1.125 1,2.5 0,2.458333 0.13333,2.5 8,2.5 4.66667,0 8,0.416667 8,1 0,0.583333 -3.33333,1 -8,1 -4.4,0 -8,0.188192 -8,0.418212 0,0.23002 -0.27314,1.13002 -0.60699,2 -0.51575,1.34403 0.38613,1.58179 6,1.58179 7.67947,0 8.28816,1.06166 4.12299,7.19127 l -2.484,3.65553 4.484,1.71246 c 2.4662,0.94185 4.484,2.10132 4.484,2.5766 0,1.48148 -3.3677,0.95092 -7.28253,-1.1473 -3.31675,-1.77767 -4.01235,-1.84788 -5.98519,-0.60413 -3.19873,2.01661 -6.47362,2.84311 -7.12018,1.79696 z m 11.76973,-9.25062 c 0.99717,-1.68808 1.59103,-3.29124 1.31969,-3.56259 -0.27135,-0.27134 -2.32548,-0.35268 -4.56475,-0.18076 l -4.0714,0.31258 2.06552,3.25 c 1.13603,1.7875 2.3743,3.25 2.7517,3.25 0.37741,0 1.50206,-1.38116 2.49924,-3.06923 z M 181.30705,97.044025 c -1.36678,-1.050154 -2.19333,-2.201104 -1.83676,-2.557667 0.7776,-0.777602 5.82182,2.364535 5.82182,3.62652 0,1.362284 -1.26117,1.024019 -3.98506,-1.068853 z m -8.13529,-15.763091 -12.62035,-3.486793 -0.7013,-6.148137 c -0.85071,-7.457957 -0.85068,-7.474811 0.0231,-15.95096 0.51316,-4.978141 1.05039,-6.668848 2.00291,-6.303329 0.87807,0.336946 1.40163,-0.589411 1.60885,-2.846589 l 0.30719,-3.346085 11.75,6.508986 11.75,6.508985 11.75,-6.508985 11.75,-6.508986 0.30719,3.346085 c 0.20722,2.257178 0.73078,3.183535 1.60885,2.846589 0.95252,-0.365519 1.48975,1.325188 2.00291,6.303329 0.8737,8.47581 0.87372,8.493471 0.0234,15.946941 l -0.70094,6.144118 -13.62071,3.624407 c -7.49143,1.993424 -13.84575,3.56429 -14.12075,3.490812 -0.275,-0.07348 -6.17916,-1.702652 -13.12035,-3.620388 z m 11.12035,-11.59557 V 58.372859 l -9.25,-2.351062 c -5.0875,-1.293083 -9.8125,-2.550601 -10.5,-2.794484 -2.07694,-0.736771 -1.40199,2.826894 0.88636,4.679892 1.59075,1.288106 2.13637,2.843641 2.13637,6.090663 0,3.247022 -0.54562,4.802557 -2.13637,6.090663 -1.175,0.951457 -2.13636,2.58633 -2.13636,3.63305 0,1.562854 1.74327,2.368199 9.75,4.504244 5.3625,1.430615 10.0875,2.639576 10.5,2.68658 0.4125,0.047 0.75,-5.005164 0.75,-11.227041 z m 17.75,8.288575 c 7.60085,-1.9319 9.25,-2.6902 9.25,-4.253274 0,-1.046216 -0.96136,-2.680677 -2.13636,-3.632134 -1.59075,-1.288106 -2.13637,-2.843641 -2.13637,-6.090663 0,-3.247022 0.54562,-4.802557 2.13637,-6.090663 2.28835,-1.852998 2.9633,-5.416663 0.88636,-4.679892 -0.6875,0.243883 -5.4125,1.501401 -10.5,2.794484 l -9.25,2.351062 v 11.419493 c 0,8.70542 0.29709,11.314105 1.25,10.976071 0.6875,-0.243883 5.4125,-1.501401 10.5,-2.794484 z m -21.17857,-28.5475 c -1.64686,-1.646855 -1.17201,-3.984127 0.97695,-4.808763 1.80547,-0.692824 4.52464,2.02634 3.83181,3.831812 -0.82463,2.148965 -3.16191,2.623807 -4.80876,0.976951 z m 9,0 c -1.64686,-1.646855 -1.17201,-3.984127 0.97695,-4.808763 1.80547,-0.692824 4.52464,2.02634 3.83181,3.831812 -0.82463,2.148965 -3.16191,2.623807 -4.80876,0.976951 z m -15.8865,-2.807236 c -0.73792,-1.922993 0.79629,-8.180626 2.72878,-11.12998 5.06539,-7.730764 16.10719,-7.730764 21.17258,0 1.93249,2.949354 3.4667,9.206987 2.72878,11.12998 -1.10449,2.87825 -3.31507,1.430571 -3.31507,-2.170995 0,-4.214958 -2.26385,-8.985999 -4.94461,-10.420696 -2.47038,-1.322108 -7.6404,-1.322108 -10.11078,0 -2.68076,1.434697 -4.94461,6.205738 -4.94461,10.420696 0,3.601566 -2.21058,5.049245 -3.31507,2.170995 z M 7.29211,3.9978678 c 0,-1.9925926 0.6666667,-2 180,-2 179.33333,0 180,0.00741 180,2 0,1.9925926 -0.66667,2 -180,2 -179.3333333,0 -180,-0.00741 -180,-2 z"
       id="path200"
       inkscape:connector-curvature="0" />
    <path
       style="fill:#b8e2f2"
       d="m 170.09201,114.24787 -0.2999,-5.75 -5.25,-0.30226 c -7.00349,-0.40321 -6.74512,-2.19774 0.31642,-2.19774 5.4825,0 5.56165,-0.0415 5.25,-2.75 -0.28313,-2.46072 -0.76349,-2.78235 -4.56642,-3.0575 -5.66497,-0.409874 -5.4617,-2.192502 0.25,-2.192502 4.13333,0 4.5,-0.203704 4.5,-2.5 0,-1.375 0.45,-2.5 1,-2.5 0.55,0 1,1.125 1,2.5 0,2.296296 0.36667,2.5 4.5,2.5 h 4.5 v 4.000002 c 0,3.33333 0.33333,4 2,4 1.5457,0 2,0.66667 2,2.9349 0,1.6142 -0.43886,4.0892 -0.97525,5.5 -0.79228,2.08385 -1.63654,2.5651 -4.5,2.5651 -1.93861,0 -3.52475,-0.45 -3.52475,-1 0,-0.55 1.29752,-1 2.88337,-1 2.14483,0 3.03781,-0.57631 3.48634,-2.25 1.18725,-4.43018 0.85936,-4.75 -4.86971,-4.75 h -5.5 v 6 c 0,7.66307 -1.80277,7.86792 -2.2001,0.25 z m 9.2001,-11.25 c 0,-2.76191 -0.27778,-3.000002 -3.5,-3.000002 -3.22222,0 -3.5,0.238092 -3.5,3.000002 0,2.7619 0.27778,3 3.5,3 3.22222,0 3.5,-0.2381 3.5,-3 z m 15.6711,16.33776 c -0.36423,-0.36423 1.13577,-1.46723 3.33333,-2.45111 2.19756,-0.98387 3.99557,-1.94844 3.99557,-2.14348 0,-0.19504 -1.11041,-1.85969 -2.46759,-3.69924 l -2.46759,-3.34463 -1.05731,2.78096 c -1.36653,3.59424 -4.87901,8.51974 -6.0756,8.51974 -1.60876,0 -1.01578,-2.61413 1.00853,-4.4461 1.99995,-1.80993 5.05956,-9.50924 5.05956,-12.73204 0,-1.41546 -0.78074,-1.821862 -3.5,-1.821862 -1.925,0 -3.5,-0.45 -3.5,-1 0,-0.55 1.8,-1 4,-1 3.6,0 4,-0.25 4,-2.5 0,-1.375 0.45,-2.5 1,-2.5 0.55,0 1,1.125 1,2.5 0,2.458333 0.13333,2.5 8,2.5 10.558,0 10.35946,1.835939 -0.23894,2.209562 -6.91449,0.24375 -8.29269,0.57176 -8.57332,2.04044 -0.29148,1.52542 0.52307,1.75 6.34734,1.75 h 6.68174 l -0.6704,2.67108 c -0.36872,1.46909 -1.59004,3.83159 -2.71404,5.25 l -2.04365,2.57892 4.60564,1.93507 c 2.53309,1.06429 4.60563,2.30179 4.60563,2.75 0,1.2971 -2.17196,0.91989 -6.80168,-1.18128 -4.27146,-1.93857 -4.32755,-1.93841 -7.98519,0.022 -4.04137,2.16604 -4.56422,2.28982 -5.54203,1.312 z m 12.47837,-10.10485 2.04693,-3.23291 h -5.13338 c -5.00288,0 -5.1037,0.0572 -3.96552,2.25 2.94287,5.6697 3.99193,5.81592 7.05197,0.98291 z M 181.30705,97.044025 c -1.36678,-1.050154 -2.19333,-2.201104 -1.83676,-2.557667 0.7776,-0.777602 5.82182,2.364535 5.82182,3.62652 0,1.362284 -1.26117,1.024019 -3.98506,-1.068853 z m -7.63834,-15.808367 -13.12341,-3.603681 -0.62324,-6.705849 c -0.87635,-9.429202 0.26465,-21.905937 1.94436,-21.261373 0.87266,0.334874 1.39803,-0.61414 1.61044,-2.909074 l 0.31525,-3.406087 11.75,6.441892 11.75,6.441892 11.75,-6.441892 11.75,-6.441892 0.31525,3.406087 c 0.21241,2.294934 0.73778,3.243948 1.61044,2.909074 1.67955,-0.644501 2.82074,11.831829 1.94456,21.259206 l -0.62304,6.703681 -12.62361,3.353599 c -6.94298,1.844479 -13.0736,3.467111 -13.6236,3.605848 -0.55,0.138738 -6.90553,-1.369406 -14.1234,-3.351431 z m 10.6234,-11.573855 V 58.325738 l -9.93433,-2.663935 c -5.46388,-1.465164 -10.18888,-2.663935 -10.5,-2.663935 -1.44589,0 -0.34604,3.656066 1.43433,4.767927 1.56532,0.977561 2,2.332028 2,6.232073 0,3.900045 -0.43468,5.254512 -2,6.232073 -1.1,0.686961 -2,2.195711 -2,3.352777 0,1.802271 1.3256,2.470511 9.25,4.662973 5.0875,1.407569 9.8125,2.602633 10.5,2.655697 0.93216,0.07195 1.25,-2.785944 1.25,-11.239585 z m 17.06567,8.67213 c 8.5711,-2.29838 9.93433,-2.951491 9.93433,-4.759453 0,-1.152535 -0.9,-2.657578 -2,-3.344539 -1.56532,-0.977561 -2,-2.332028 -2,-6.232073 0,-3.900045 0.43468,-5.254512 2,-6.232073 1.78037,-1.111861 2.88022,-4.767927 1.43433,-4.767927 -0.31112,0 -5.03612,1.198771 -10.5,2.663935 l -9.93433,2.663935 v 11.336065 c 0,6.234836 0.25455,11.336065 0.56567,11.336065 0.31112,0 5.03612,-1.198771 10.5,-2.663935 z M 180.29211,47.497868 c 0,-2 0.5,-2.5 2.5,-2.5 2,0 2.5,0.5 2.5,2.5 0,2 -0.5,2.5 -2.5,2.5 -2,0 -2.5,-0.5 -2.5,-2.5 z m 9,0 c 0,-2 0.5,-2.5 2.5,-2.5 2,0 2.5,0.5 2.5,2.5 0,2 -0.5,2.5 -2.5,2.5 -2,0 -2.5,-0.5 -2.5,-2.5 z m -15,-3.466327 c 0,-8.117746 5.48018,-14.033673 13,-14.033673 7.51982,0 13,5.915927 13,14.033673 0,5.375694 -2.35062,4.874577 -2.77,-0.590522 -0.38864,-5.064409 -2.55861,-8.26468 -6.80778,-10.040097 -6.50825,-2.719318 -12.89645,1.958169 -13.72218,10.047482 -0.55606,5.447504 -2.70004,5.910546 -2.70004,0.583137 z m -167,-40.0336732 c 0,-0.662963 60.666667,-1 180,-1 119.33333,0 180,0.337037 180,1 0,0.662963 -60.66667,1 -180,1 -119.333333,0 -180,-0.337037 -180,-1 z"
       id="path198"
       inkscape:connector-curvature="0" />
    <path
       style="fill:#a5daef"
       d="m 170.29211,113.99787 v -6 h -5.5 c -3.025,0 -5.5,-0.45 -5.5,-1 0,-0.55 2.475,-1 5.5,-1 5.44444,0 5.5,-0.0303 5.5,-3 0,-2.88889 -0.16667,-3.000002 -4.5,-3.000002 -2.475,0 -4.5,-0.45 -4.5,-1 0,-0.55 2.025,-1 4.5,-1 4.13333,0 4.5,-0.203704 4.5,-2.5 0,-1.375 0.45,-2.5 1,-2.5 0.55,0 1,1.125 1,2.5 0,2.296296 0.36667,2.5 4.5,2.5 h 4.5 v 4.000002 c 0,3.41818 0.31068,4 2.13592,4 1.96191,0 2.08475,0.37339 1.50777,4.58293 -0.34549,2.52061 -0.88321,4.99561 -1.19494,5.5 -0.77651,1.25641 -6.1799,1.16109 -6.97352,-0.12301 -0.41436,-0.67045 0.24625,-0.81694 1.85882,-0.41222 2.73413,0.68623 4.66595,-1.58344 4.66595,-5.48196 0,-1.83726 -0.60832,-2.06574 -5.5,-2.06574 h -5.5 v 6 c 0,3.33333 -0.44444,6 -1,6 -0.55556,0 -1,-2.66667 -1,-6 z m 9,-11 c 0,-2.76191 -0.27778,-3.000002 -3.5,-3.000002 -3.22222,0 -3.5,0.238092 -3.5,3.000002 0,2.7619 0.27778,3 3.5,3 3.22222,0 3.5,-0.2381 3.5,-3 z m 15.6711,16.33776 c -0.36423,-0.36423 1.13577,-1.46723 3.33333,-2.45111 2.19756,-0.98387 3.97939,-2.14837 3.95961,-2.58776 -0.0198,-0.43939 -1.103,-2.10388 -2.40716,-3.69887 l -2.37119,-2.89998 -2.57383,5.07921 c -1.4156,2.79357 -3.06232,5.38112 -3.65938,5.75012 -2.27164,1.40395 -1.9226,-0.44634 0.97172,-5.15112 1.65057,-2.68304 3.42003,-6.79075 3.93212,-9.12825 l 0.93109,-4.250002 h -3.89371 c -2.14153,0 -3.8937,-0.45 -3.8937,-1 0,-0.55 1.8,-1 4,-1 3.6,0 4,-0.25 4,-2.5 0,-1.375 0.45,-2.5 1,-2.5 0.55,0 1,1.125 1,2.5 0,2.458333 0.13333,2.5 8,2.5 10.558,0 10.35946,1.835939 -0.23894,2.209562 -6.91449,0.24375 -8.29269,0.57176 -8.57332,2.04044 -0.29103,1.52309 0.51791,1.75 6.23894,1.75 7.54648,0 7.96725,0.66684 4.0568,6.42921 -1.38409,2.03957 -2.2652,4.11496 -1.95802,4.61198 0.30718,0.49703 2.35406,1.44164 4.54862,2.09915 2.44711,0.73317 3.63207,1.55351 3.06424,2.12134 -0.56784,0.56784 -2.73821,0.1242 -5.61247,-1.14722 -4.68652,-2.07307 -4.68666,-2.07307 -8.56638,-0.0938 -4.36339,2.22603 -4.37623,2.22923 -5.28837,1.31708 z m 12.66179,-10.16804 1.85121,-3.16972 h -5.09205 c -2.80063,0 -5.09205,0.38931 -5.09205,0.86514 0,1.62054 4.21465,6.22998 5.35027,5.85144 0.62227,-0.20743 1.96445,-1.80351 2.98262,-3.54686 z M 181.54211,97.054306 c -3.21135,-2.679014 -2.78004,-3.482613 0.75,-1.397367 1.65,0.974679 3,2.125121 3,2.556537 0,1.265471 -1.34013,0.85122 -3.75,-1.15917 z m -9.25,-16.388928 -11.5,-3.184407 -0.66674,-5.491551 c -1.00282,-8.259699 0.12379,-21.991552 1.80426,-21.991552 0.88561,0 1.36248,-1.202568 1.36248,-3.43592 v -3.43592 l 11.50153,6.43592 c 6.32584,3.539756 11.95015,6.43592 12.49847,6.43592 0.54832,0 6.17263,-2.896164 12.49847,-6.43592 l 11.50153,-6.43592 v 3.43592 c 0,2.233352 0.47687,3.43592 1.36248,3.43592 1.68047,0 2.80708,13.731853 1.80426,21.991552 l -0.66674,5.491551 -11.5,3.184407 c -6.325,1.751424 -13.075,3.184407 -15,3.184407 -1.925,0 -8.675,-1.432983 -15,-3.184407 z m 12,-11.128966 V 58.074956 l -4.25,-1.092624 c -2.3375,-0.600943 -6.56926,-1.743288 -9.40391,-2.538544 -2.83465,-0.795256 -5.64715,-1.44592 -6.25,-1.44592 -1.77154,0 -1.25857,2.837516 0.90391,5 1.33333,1.333333 2,3.333333 2,6 0,2.666667 -0.66667,4.666667 -2,6 -3.36428,3.364276 -2.59342,5.769618 2.25,7.020787 2.3375,0.603832 6.275,1.699324 8.75,2.434428 8.39176,2.492451 8,2.978074 8,-9.916671 z m 13.34609,10.015536 c 2.83465,-0.795256 7.06641,-1.937601 9.40391,-2.538544 4.84372,-1.245263 5.6151,-3.650435 2.25,-7.015536 -1.33333,-1.333333 -2,-3.333333 -2,-6 0,-2.666667 0.66667,-4.666667 2,-6 2.16248,-2.162484 2.67545,-5 0.90391,-5 -0.60285,0 -3.41535,0.650664 -6.25,1.44592 -2.83465,0.795256 -7.06641,1.937601 -9.40391,2.538544 l -4.25,1.092624 v 11.461456 c 0,7.644175 0.36506,11.461456 1.09609,11.461456 0.60285,0 3.41535,-0.650664 6.25,-1.44592 z M 180.6563,48.504557 c -0.34636,-0.902618 -0.15025,-2.120628 0.43581,-2.706689 1.52361,-1.523609 4.41041,-0.131088 4.01242,1.935492 -0.4433,2.301882 -3.64766,2.857428 -4.44823,0.771197 z m 9,0 c -0.34636,-0.902618 -0.15025,-2.120628 0.43581,-2.706689 1.52361,-1.523609 4.41041,-0.131088 4.01242,1.935492 -0.4433,2.301882 -3.64766,2.857428 -4.44823,0.771197 z m -15.36419,-4.10556 c 0,-7.927374 5.84019,-14.393653 13,-14.393653 7.15981,0 13,6.466279 13,14.393653 0,4.878987 -1.6065,4.569271 -2.27828,-0.439228 -0.70712,-5.271942 -3.00807,-8.653941 -7.27067,-10.686633 -3.20339,-1.52759 -3.69871,-1.52759 -6.9021,0 -4.2626,2.032692 -6.56355,5.414691 -7.27067,10.686633 -0.67178,5.008499 -2.27828,5.318215 -2.27828,0.439228 z m -167,-40.4011292 c 0,-0.662963 60.666667,-1 180,-1 119.33333,0 180,0.337037 180,1 0,0.662963 -60.66667,1 -180,1 -119.333333,0 -180,-0.337037 -180,-1 z"
       id="path196"
       inkscape:connector-curvature="0" />
    <path
       style="fill:#97d4eb"
       d="m 170.46022,114.24787 -0.16811,-6.25 -5.75,-0.163 -5.75,-0.16299 5.5,-0.58701 c 5.33319,-0.5692 5.5095,-0.68557 5.81336,-3.837 0.31263,-3.24241 0.30212,-3.250353 -4.5,-3.400196 l -4.81336,-0.150193 4.49487,-0.599807 c 4.01104,-0.535244 4.55843,-0.922721 5.08539,-3.599806 l 0.59053,-3 0.41461,3 c 0.38705,2.800678 0.73019,3.020251 5.1646,3.304791 l 4.75,0.304791 v 3.94521 c 0,3.33391 0.32352,3.94521 2.0879,3.94521 1.9,0 2.02461,0.38248 1.38464,4.25 -0.92778,5.60694 -1.0654,5.76909 -4.78156,5.634 -2.12982,-0.0774 -2.52588,-0.27949 -1.19098,-0.60761 3.23193,-0.79442 4.5,-2.32983 4.5,-5.44874 v -2.92746 l -5.75,0.29991 -5.75,0.2999 -0.58189,6 -0.58189,6 z m 8.65005,-11.06443 c 0.31431,-3.27422 0.27195,-3.310615 -3.49168,-3 -2.72954,0.22527 -3.90708,0.82722 -4.15274,2.12284 -0.64812,3.41822 0.63301,4.83663 4.06938,4.50546 2.88009,-0.27756 3.29369,-0.69732 3.57504,-3.6283 z m 16.18184,15.82785 c 0,-0.55738 0.62515,-1.01342 1.38922,-1.01342 0.76406,0 2.38762,-0.80846 3.6079,-1.79658 l 2.21869,-1.79659 -2.56351,-3.77754 -2.56351,-3.77755 -1.58253,3.78753 c -1.74093,4.16662 -4.26482,7.36073 -5.81624,7.36073 -0.55,0 -0.27244,-0.80394 0.6168,-1.78654 1.82361,-2.01506 5.12677,-9.3156 6.09161,-13.46346 0.60483,-2.60021 0.44799,-2.750002 -2.87938,-2.750002 -1.93548,0 -3.51905,-0.45 -3.51905,-1 0,-0.55 1.575,-1 3.5,-1 2.79786,0 3.5,-0.389383 3.5,-1.940983 0,-1.067541 0.45,-2.219098 1,-2.559017 0.56716,-0.350523 1,0.489616 1,1.940983 0,2.532105 0.0841,2.559017 8,2.559017 4.66667,0 8,0.416667 8,1 0,0.588235 -3.5,1 -8.5,1 -7.83333,0 -8.5,0.156862 -8.5,2.000002 0,1.79487 0.66667,2 6.5,2 7.49501,0 7.89293,0.66831 3.90067,6.55124 -2.49719,3.67981 -2.52666,3.88421 -0.75,5.20164 1.01713,0.75422 3.07953,1.62315 4.5831,1.93097 1.50357,0.30781 2.50612,0.92799 2.22789,1.37818 -0.54003,0.87378 -6.13988,-0.71009 -8.19893,-2.319 -0.68049,-0.53173 -1.80549,-0.7323 -2.5,-0.44571 -0.6945,0.28658 -2.95023,1.24296 -5.01273,2.12529 -2.14445,0.91738 -3.75,1.17034 -3.75,0.59081 z m 12.33289,-9.8437 1.85121,-3.16972 h -5.09205 c -2.80063,0 -5.09205,0.38931 -5.09205,0.86514 0,1.62054 4.21465,6.22998 5.35027,5.85144 0.62227,-0.20743 1.96445,-1.80351 2.98262,-3.54686 z M 181.43133,96.911788 c -1.60822,-1.303807 -1.88634,-1.91392 -0.87245,-1.91392 1.49762,0 4.35727,2.711662 3.62573,3.438086 -0.21587,0.214365 -1.45485,-0.471509 -2.75328,-1.524166 z M 161.57377,71.27778 c -2.95157,-1.030755 -2.7232,-13.512762 0.26822,-14.66068 2.41019,-0.924877 5.45012,2.949697 5.45012,6.946509 0,5.53229 -2.46069,8.851818 -5.71834,7.714171 z m 47.69566,-1.302593 c -4.03144,-4.031436 -1.14594,-15.130463 3.4728,-13.358087 1.87245,0.718526 2.97604,6.295621 2.13397,10.784217 -0.78517,4.185345 -2.9853,5.195343 -5.60677,2.57387 z M 172.29211,53.858588 c -2.475,-0.508803 -5.5125,-1.144185 -6.75,-1.41196 -1.87501,-0.405721 -2.25,-1.150344 -2.25,-4.467812 0,-2.189521 0.2462,-3.980948 0.5471,-3.980948 0.66708,0 15.1773,7.833075 17.92541,9.676702 1.81525,1.217801 1.69567,1.31476 -1.5,1.216206 -1.90988,-0.0589 -5.49751,-0.523386 -7.97251,-1.032188 z M 192.8196,53.67457 c 2.74811,-1.843627 17.25833,-9.676702 17.92541,-9.676702 0.3009,0 0.5471,1.791427 0.5471,3.980948 0,3.321603 -0.37266,4.059274 -2.25,4.453857 -8.53409,1.793711 -13.20226,2.565195 -15.52173,2.565195 -2.54466,0 -2.57838,-0.06367 -0.70078,-1.323298 z m -12.1633,-5.170013 c -0.34636,-0.902618 -0.15025,-2.120628 0.43581,-2.706689 1.52361,-1.523609 4.41041,-0.131088 4.01242,1.935492 -0.4433,2.301882 -3.64766,2.857428 -4.44823,0.771197 z m 9,0 c -0.34636,-0.902618 -0.15025,-2.120628 0.43581,-2.706689 1.52361,-1.523609 4.41041,-0.131088 4.01242,1.935492 -0.4433,2.301882 -3.64766,2.857428 -4.44823,0.771197 z M 174.29211,44.45803 c 0,-1.946911 0.90442,-5.312638 2.00981,-7.479393 4.75907,-9.328553 17.22131,-9.328553 21.98038,0 2.10066,4.117627 2.73312,11.019231 1.00981,11.019231 -0.55,0 -1,-1.139453 -1,-2.532119 0,-6.945359 -5.08788,-12.922426 -11,-12.922426 -5.91212,0 -11,5.977067 -11,12.922426 0,1.392666 -0.45,2.532119 -1,2.532119 -0.55,0 -1,-1.592927 -1,-3.539838 z m -167,-40.4601622 c 0,-0.662963 60.666667,-1 180,-1 119.33333,0 180,0.337037 180,1 0,0.662963 -60.66667,1 -180,1 -119.333333,0 -180,-0.337037 -180,-1 z"
       id="path194"
       inkscape:connector-curvature="0" />
    <path
       style="fill:#8ed1ea"
       d="m 170.48479,114.29777 -0.19268,-6.20009 -5.75,-0.36082 -5.75,-0.36082 5.75,-0.18909 5.75,-0.18908 v -3.44521 c 0,-3.39084 -0.075,-3.45112 -4.75,-3.819753 l -4.75,-0.374543 4.75,-0.180248 c 4.62871,-0.175645 4.75302,-0.263236 4.86831,-3.430248 l 0.11832,-3.25 0.63648,3 c 0.5698,2.685683 1.07528,3.031925 4.82458,3.304708 4.0422,0.294092 4.1988,0.433446 4.49521,4.000004 0.24709,2.97324 0.75289,3.75854 2.58859,4.01897 2.04831,0.29059 2.21384,0.69942 1.61961,4 -0.86737,4.81771 -2.0792,6.2057 -5.27354,6.04014 l -2.62756,-0.13618 2.5,-0.46464 c 3.0164,-0.5606 3.96441,-1.87223 3.98469,-5.513 0.015,-2.69371 -0.10653,-2.75 -5.93697,-2.75 h -5.95229 l -0.35503,6.25 -0.35504,6.25 z m 8.80732,-10.7999 c 0,-3.41667 -0.0952,-3.500002 -4,-3.500002 -3.72549,0 -4,0.194442 -4,2.833332 0,3.6285 0.60275,4.16667 4.66667,4.16667 3.14285,0 3.33333,-0.2 3.33333,-3.5 z m 16.01017,15.72525 c 0.006,-0.39889 1.8421,-1.49492 4.08111,-2.43563 l 4.07095,-1.71038 -2.79067,-3.78962 c -1.53486,-2.08429 -2.90877,-3.96453 -3.05313,-4.17831 -0.14436,-0.21378 -0.73627,0.8575 -1.31536,2.38061 -1.4047,3.69466 -4.88974,8.50808 -6.16006,8.50808 -0.56144,0 0.13311,-1.37134 1.54344,-3.04742 2.15204,-2.55756 5.61355,-11.27312 5.61355,-14.13408 0,-0.45018 -1.575,-0.818502 -3.5,-0.818502 -1.925,0 -3.5,-0.45 -3.5,-1 0,-0.55 1.48813,-1 3.30696,-1 2.67749,0 3.5138,-0.523452 4.39362,-2.75 l 1.08666,-2.75 0.10638,2.75 c 0.10623,2.746099 0.11702,2.75 7.60638,2.75 4.33333,0 7.5,0.422222 7.5,1 0,0.583333 -3.33333,1 -8,1 -7.26816,0 -8,0.178592 -8,1.952282 0,1.69638 0.81925,1.99131 6.25,2.25 5.60382,0.26694 6.21411,0.50264 5.90288,2.27974 -0.19091,1.09011 -1.25874,3.26228 -2.37295,4.82704 -2.34861,3.29832 -1.77721,4.23998 3.71953,6.12967 2.06242,0.70903 3.34592,1.53879 2.85222,1.84392 -0.4937,0.30513 -3.07292,-0.38684 -5.73159,-1.53771 -3.9801,-1.72288 -5.18009,-1.87631 -6.79364,-0.86863 -2.93088,1.83037 -6.82784,3.17329 -6.81628,2.34894 z m 11.91725,-8.86011 c 1.13992,-1.44917 2.07258,-3.02417 2.07258,-3.5 0,-0.47583 -2.25,-0.86514 -5,-0.86514 -2.75,0 -5,0.38931 -5,0.86514 0,1.24442 3.98578,6.13486 5,6.13486 0.47016,0 1.7875,-1.18569 2.92742,-2.63486 z M 181.16455,96.334148 c -1.24448,-1.508603 -1.16266,-1.55194 0.87756,-0.464816 2.32696,1.23991 2.89993,2.128536 1.37244,2.128536 -0.48265,0 -1.49515,-0.748674 -2.25,-1.66372 z m -20.87083,-27.83204 c -2.11215,-5.55538 -0.32843,-11.834672 3.21663,-11.32358 2.85755,0.411975 4.44682,5.503497 3.14305,10.06934 -1.23597,4.328388 -4.91503,5.053963 -6.35968,1.25424 z m 48,0 c -2.11215,-5.55538 -0.32843,-11.834672 3.21663,-11.32358 2.85755,0.411975 4.44682,5.503497 3.14305,10.06934 -1.23597,4.328388 -4.91503,5.053963 -6.35968,1.25424 z M 179.39718,53.913093 c -1.31721,-0.526901 -3.28606,-0.675167 -4.37523,-0.32948 -1.32266,0.419796 -1.75042,0.256573 -1.28809,-0.491501 0.45698,-0.739401 -0.26509,-1.053492 -2.12477,-0.924246 -7.53993,0.524021 -8.31698,0.134421 -8.31698,-4.169998 0,-2.2 0.22506,-4 0.50014,-4 0.27507,0 4.88757,2.468 10.25,5.484445 9.10371,5.120978 10.99737,6.687829 5.35493,4.43078 z m 21.14479,-4.351784 c 5.36243,-3.059892 9.97493,-5.563441 10.25,-5.563441 0.27508,0 0.50014,1.8 0.50014,4 0,4.304419 -0.77705,4.694019 -8.31698,4.169998 -1.54934,-0.107678 -2.57563,0.194741 -2.28064,0.672042 0.29498,0.477302 -0.68737,0.835062 -2.18302,0.795024 -1.49565,-0.04004 -3.84436,0.278791 -5.21936,0.70851 -1.375,0.42972 1.88744,-1.72224 7.24986,-4.782133 z M 180.6563,48.504557 c -0.34636,-0.902618 -0.15025,-2.120628 0.43581,-2.706689 1.52361,-1.523609 4.41041,-0.131088 4.01242,1.935492 -0.4433,2.301882 -3.64766,2.857428 -4.44823,0.771197 z m 9,0 c -0.34636,-0.902618 -0.15025,-2.120628 0.43581,-2.706689 1.52361,-1.523609 4.41041,-0.131088 4.01242,1.935492 -0.4433,2.301882 -3.64766,2.857428 -4.44823,0.771197 z m -15.36419,-3.538808 c 0,-4.139702 2.19864,-8.966303 5.45169,-11.967881 2.11222,-1.948945 3.77603,-2.5 7.54831,-2.5 5.50309,0 9.2579,2.653446 11.62888,8.217881 1.59801,3.750358 1.81918,9.282119 0.37112,9.282119 -0.55,0 -1,-1.394492 -1,-3.098871 0,-6.734301 -5.25807,-12.901129 -11,-12.901129 -5.74193,0 -11,6.166828 -11,12.901129 0,1.704379 -0.45,3.098871 -1,3.098871 -0.55,0 -1,-1.364453 -1,-3.032119 z m -167,-40.9678812 c 0,-0.662963 60.666667,-1 180,-1 119.33333,0 180,0.337037 180,1 0,0.662963 -60.66667,1 -180,1 -119.333333,0 -180,-0.337037 -180,-1 z"
       id="path192"
       inkscape:connector-curvature="0" />
  </g>
</svg>
