<?xml version="1.0" encoding="UTF-8" standalone="no"?>
<!-- Created with Inkscape (http://www.inkscape.org/) -->

<svg
   xmlns:dc="http://purl.org/dc/elements/1.1/"
   xmlns:cc="http://creativecommons.org/ns#"
   xmlns:rdf="http://www.w3.org/1999/02/22-rdf-syntax-ns#"
   xmlns:svg="http://www.w3.org/2000/svg"
   xmlns="http://www.w3.org/2000/svg"
   xmlns:sodipodi="http://sodipodi.sourceforge.net/DTD/sodipodi-0.dtd"
   xmlns:inkscape="http://www.inkscape.org/namespaces/inkscape"
   version="1.1"
   id="svg4290"
   width="130"
   height="130"
   viewBox="0 0 130 130"
   sodipodi:docname="friend-icon.svg"
   inkscape:version="0.92.3 (2405546, 2018-03-11)">
  <metadata
     id="metadata4296">
    <rdf:RDF>
      <cc:Work
         rdf:about="">
        <dc:format>image/svg+xml</dc:format>
        <dc:type
           rdf:resource="http://purl.org/dc/dcmitype/StillImage" />
        <dc:title></dc:title>
      </cc:Work>
    </rdf:RDF>
  </metadata>
  <defs
     id="defs4294" />
  <sodipodi:namedview
     pagecolor="#ffffff"
     bordercolor="#666666"
     borderopacity="1"
     objecttolerance="10"
     gridtolerance="10"
     guidetolerance="10"
     inkscape:pageopacity="0"
     inkscape:pageshadow="2"
     inkscape:window-width="1366"
     inkscape:window-height="715"
     id="namedview4292"
     showgrid="false"
     inkscape:zoom="4.1076923"
     inkscape:cx="67.55618"
     inkscape:cy="65"
     inkscape:window-x="-8"
     inkscape:window-y="-8"
     inkscape:window-maximized="1"
     inkscape:current-layer="svg4290" />
  <g
     id="g4300"
     transform="translate(0.97378239,0.24344565)">
    <path
       style="fill:#d0d0d0"
       d="M 55.402109,125.06144 C 36.701254,122.10499 20.23749,110.17993 11.044639,92.932373 c -4.0608952,-7.61902 -3.8868921,-8.969327 0.217284,-1.686181 7.299282,12.953078 18.236535,22.095768 32.183912,26.903228 16.209282,5.5871 30.511651,4.60707 46.290056,-3.17191 C 110.10143,104.93702 123.40851,81.603848 121.59706,59.110846 119.97387,38.955471 108.6166,21.050441 91.246192,11.261923 84.073474,7.2199748 85.099036,6.9974769 92.778517,10.929482 106.93241,18.176478 118.43265,31.973803 123.26051,47.5 c 1.65289,5.315602 2.17665,9.526598 2.17665,17.5 0,7.973402 -0.52376,12.184398 -2.17665,17.5 -6.05032,19.45759 -21.79078,35.12802 -41.018543,40.83605 -6.504575,1.93097 -20.03685,2.80089 -26.839858,1.72539 z m -0.47276,-18.37381 C 48.512076,104.88013 41.921838,100.79507 37.916357,96.141848 20.820835,76.281754 16.705057,67.86472 16.576281,52.5 c -0.05717,-6.821364 0.346406,-8.843351 2.739284,-13.724247 4.513949,-9.207374 13.640368,-15.873005 23.726916,-17.329348 2.451635,-0.353978 6.70955,-1.451581 9.462033,-2.439118 24.236203,-8.69547 51.290646,4.866172 54.950556,27.545186 1.73851,10.772904 -9.172402,37.534839 -20.173043,49.479772 -8.609249,9.348265 -21.693623,13.657615 -32.352678,10.655385 z M 74.835208,98.924484 C 81.065554,95.811143 86.131224,90.687868 89.463056,84.130292 91.635703,79.854177 91.260816,62.424892 88.879509,57 l -1.536357,-3.5 -1.502637,4.5 -1.502637,4.5 -9.681211,0.28636 -9.681212,0.28636 -2.136052,-3.620338 -2.136052,-3.620339 -2.048232,3.583979 L 56.606887,63 h -8.667585 -8.667586 l -1.842976,-4.75 -1.842976,-4.75 -0.735252,4 c -1.180631,6.422994 -0.959513,22.152838 0.354283,25.202947 7.159468,16.621429 24.569339,23.747643 39.630413,16.221537 z M 56.221784,92.880749 c -5.265287,-2.606265 -7.082649,-5.448455 -4.887499,-7.643605 1.372702,-1.372702 1.851969,-1.258209 4.674346,1.116665 4.166995,3.506295 8.815743,3.506295 12.982738,0 2.822377,-2.374874 3.301644,-2.489367 4.674346,-1.116665 2.211456,2.211456 0.343303,5.095986 -4.96449,7.665445 -5.421915,2.624704 -7.13885,2.621699 -12.479441,-0.02184 z M 47,78 c -1.1,-1.1 -2,-2.675 -2,-3.5 0,-1.938267 3.561733,-5.5 5.5,-5.5 1.938267,0 5.5,3.561733 5.5,5.5 0,1.938267 -3.561733,5.5 -5.5,5.5 -0.825,0 -2.4,-0.9 -3.5,-2 z m 24,0 c -1.1,-1.1 -2,-2.675 -2,-3.5 0,-0.825 0.9,-2.4 2,-3.5 1.1,-1.1 2.675,-2 3.5,-2 0.825,0 2.4,0.9 3.5,2 1.1,1.1 2,2.675 2,3.5 0,0.825 -0.9,2.4 -2,3.5 -1.1,1.1 -2.675,2 -3.5,2 -0.825,0 -2.4,-0.9 -3.5,-2 z"
       id="path4314"
       inkscape:connector-curvature="0" />
    <path
       style="fill:#a4d1dd"
       d="m 58,123.04066 c -3.90813,-0.64291 -3.382022,-0.76197 4,-0.90525 17.524463,-0.34013 30.760719,-5.81457 42.54078,-17.59463 C 116.33688,92.744679 121.82335,79.460147 122.10997,62 c 0.13943,-8.493116 0.14023,-8.495546 0.98451,-3 1.64709,10.721037 -1.79898,25.931427 -8.33282,36.779747 C 103.66778,114.19924 78.303864,126.38077 58,123.04066 Z m -7.1875,-1.72377 c 0.721875,-0.28887 1.584375,-0.25335 1.916667,0.0789 0.332291,0.3323 -0.258334,0.56864 -1.3125,0.52522 -1.164943,-0.048 -1.4019,-0.28494 -0.604167,-0.60416 z m 4.571006,-14.69931 C 48.709592,104.95962 42.171078,101.06624 37.916357,96.216713 30.429586,87.683293 23.577557,78.238205 21.311702,73.328249 16.105296,62.046316 15.03791,48.80082 18.632163,40.077102 22.32716,31.108869 33.191856,22.960709 43.483388,21.439512 c 2.740864,-0.405128 6.396503,-1.327034 8.123642,-2.048679 6.054766,-2.529842 16.273957,-3.563336 23.755811,-2.402487 13.510658,2.096251 26.448799,12.038821 30.255069,23.250113 3.33975,9.837145 0.88859,24.223702 -6.240959,36.630018 -1.463881,2.547338 -3.67419,6.66656 -4.911798,9.153827 -7.613102,15.300346 -24.523595,24.211846 -39.081647,20.595276 z m 20.84614,-7.906274 c 5.264087,-3.08496 9.910305,-8.105147 12.869161,-13.904984 1.850487,-3.627254 2.062035,-5.444607 1.71373,-14.722196 C 90.551869,63.140875 89.887015,58.521284 88.879788,56.654845 L 87.344396,53.80969 85.58949,58.404845 83.834584,63 h -9.335732 -9.335733 l -2.16697,-3.506231 c -2.431728,-3.934618 -3.187102,-3.861194 -4.987262,0.484775 L 56.757359,63 H 47.87868 C 42.995406,63 39,62.604956 39,62.122124 c 0,-0.482832 -0.749776,-2.620332 -1.66617,-4.75 L 35.667661,53.5 34.839988,57 c -0.45522,1.925 -0.841718,7.947133 -0.858885,13.382519 -0.02491,7.885807 0.37267,10.714434 1.967767,14 3.282888,6.762064 7.714334,11.290842 14.31553,14.629957 5.718779,2.892754 6.866898,3.120184 13.852398,2.743934 5.932342,-0.31952 8.611099,-0.99294 12.112848,-3.045104 z M 58.332914,93.902705 c -1.741898,-0.504305 -4.357684,-2.331863 -5.812858,-4.06124 -2.347678,-2.790056 -2.47736,-3.312733 -1.151008,-4.639084 1.326351,-1.326351 1.849084,-1.196622 4.639583,1.151428 4.166995,3.506295 8.815743,3.506295 12.982738,0 2.790499,-2.34805 3.313232,-2.477779 4.639583,-1.151428 1.326352,1.326351 1.19877,1.846533 -1.13237,4.616935 C 70.367053,92.352494 64.296304,95.292821 62,94.904235 61.725,94.857699 60.074811,94.40701 58.332914,93.902705 Z M 47.454545,77.545455 c -2.065678,-2.065679 -2.336517,-2.897475 -1.470391,-4.515846 0.583925,-1.091075 1.95438,-2.46153 3.045455,-3.045455 1.618371,-0.866126 2.450167,-0.595287 4.515846,1.470391 2.065678,2.065679 2.336517,2.897475 1.470391,4.515846 -0.583925,1.091075 -1.95438,2.46153 -3.045455,3.045455 -1.618371,0.866126 -2.450167,0.595287 -4.515846,-1.470391 z m 24,0 c -2.065678,-2.065679 -2.336517,-2.897475 -1.470391,-4.515846 0.583925,-1.091075 1.95438,-2.46153 3.045455,-3.045455 1.618371,-0.866126 2.450167,-0.595287 4.515846,1.470391 2.065678,2.065679 2.336517,2.897475 1.470391,4.515846 -0.583925,1.091075 -1.95438,2.46153 -3.045455,3.045455 -1.618371,0.866126 -2.450167,0.595287 -4.515846,-1.470391 z M 121.07895,51.416667 c 0.048,-1.164943 0.28494,-1.4019 0.60416,-0.604167 0.28887,0.721875 0.25335,1.584375 -0.0789,1.916667 -0.3323,0.332291 -0.56864,-0.258334 -0.52522,-1.3125 z"
       id="path4312"
       inkscape:connector-curvature="0" />
    <path
       style="fill:#b8b8b8"
       d="m 58,123.04066 c -3.90813,-0.64291 -3.382022,-0.76197 4,-0.90525 17.524463,-0.34013 30.760719,-5.81457 42.54078,-17.59463 C 116.33688,92.744679 121.82335,79.460147 122.10997,62 c 0.13943,-8.493116 0.14023,-8.495546 0.98451,-3 1.64709,10.721037 -1.79898,25.931427 -8.33282,36.779747 C 103.66778,114.19924 78.303864,126.38077 58,123.04066 Z m -7.1875,-1.72377 c 0.721875,-0.28887 1.584375,-0.25335 1.916667,0.0789 0.332291,0.3323 -0.258334,0.56864 -1.3125,0.52522 -1.164943,-0.048 -1.4019,-0.28494 -0.604167,-0.60416 z m 1.277622,-15.95624 c -2.425434,-0.84913 -6.1241,-2.6783 -8.219258,-4.06481 C 40.167673,98.845188 28.945609,85.58086 23.738786,77.5 17.018739,67.070654 14.931469,48.964151 19.358246,39.5 23.639841,30.346237 34.091998,22.771253 44,21.641398 c 2.475,-0.282235 7.2,-1.487229 10.5,-2.677763 5.016089,-1.809644 7.641908,-2.104432 16.01254,-1.79765 8.499997,0.311523 10.881957,0.792324 15.767792,3.18274 7.425186,3.632805 15.123848,11.173477 18.238918,17.864619 5.05035,10.8481 2.93831,22.66577 -7.583085,42.430275 -7.557993,14.197736 -13.923442,21.085481 -22.426864,24.267021 -6.673643,2.49693 -16.035668,2.68485 -22.419179,0.45001 z m 21.532283,-5.34743 C 78.96471,97.696278 85.4485,91.797203 88.641752,86.348331 91.022371,82.286111 91.150749,81.35976 90.801402,70.764688 90.562645,63.523622 89.878088,58.249839 88.88489,56 L 87.339804,52.5 85.589536,57.75 83.839267,63 h -9.39931 -9.399309 L 62.877201,58.759294 60.713754,54.518588 58.659864,58.759294 56.605975,63 H 48.283492 39.96101 l -2.344417,-5.25 -2.344418,-5.25 -0.886087,5 c -0.487349,2.75 -0.83404,9.061932 -0.770426,14.026515 0.09085,7.090312 0.574799,9.926495 2.25614,13.222196 7.745691,15.182809 23.370956,21.500909 37.750603,15.264509 z M 54.897883,91.715638 C 51.11716,89.173897 49.698925,85 52.615998,85 c 0.965305,0 2.808906,0.99 4.096892,2.2 1.47728,1.387833 3.61369,2.2 5.78711,2.2 2.17342,0 4.30983,-0.812167 5.78711,-2.2 3.122264,-2.933215 5.956584,-2.925203 5.532441,0.01564 C 73.34564,90.501547 67.508553,94 62.5,94 59.779619,94 57.096509,93.193752 54.897883,91.715638 Z M 47.2,77.8 C 44.395003,74.995003 46.508273,70 50.5,70 c 3.991727,0 6.104997,4.995003 3.3,7.8 -0.66,0.66 -2.145,1.2 -3.3,1.2 -1.155,0 -2.64,-0.54 -3.3,-1.2 z m 24,0 C 68.395003,74.995003 70.508273,70 74.5,70 c 1.155,0 2.64,0.54 3.3,1.2 0.66,0.66 1.2,2.145 1.2,3.3 0,1.155 -0.54,2.64 -1.2,3.3 -0.66,0.66 -2.145,1.2 -3.3,1.2 -1.155,0 -2.64,-0.54 -3.3,-1.2 z m 49.87895,-26.383333 c 0.048,-1.164943 0.28494,-1.4019 0.60416,-0.604167 0.28887,0.721875 0.25335,1.584375 -0.0789,1.916667 -0.3323,0.332291 -0.56864,-0.258334 -0.52522,-1.3125 z"
       id="path4310"
       inkscape:connector-curvature="0" />
    <path
       style="fill:#68c0dc"
       d="m 52.090122,105.36065 c -2.425434,-0.84913 -6.1241,-2.6783 -8.219258,-4.06481 C 40.167673,98.845188 28.945609,85.58086 23.738786,77.5 17.018739,67.070654 14.931469,48.964151 19.358246,39.5 23.639841,30.346237 34.091998,22.771253 44,21.641398 c 2.475,-0.282235 7.2,-1.487229 10.5,-2.677763 5.016089,-1.809644 7.641908,-2.104432 16.01254,-1.79765 8.499997,0.311523 10.881957,0.792324 15.767792,3.18274 7.425186,3.632805 15.123848,11.173477 18.238918,17.864619 5.05035,10.8481 2.93831,22.66577 -7.583085,42.430275 -7.557993,14.197736 -13.923442,21.085481 -22.426864,24.267021 -6.673643,2.49693 -16.035668,2.68485 -22.419179,0.45001 z m 21.532283,-5.34743 C 78.96471,97.696278 85.4485,91.797203 88.641752,86.348331 91.022371,82.286111 91.150749,81.35976 90.801402,70.764688 90.562645,63.523622 89.878088,58.249839 88.88489,56 L 87.339804,52.5 85.589536,57.75 83.839267,63 h -9.39931 -9.399309 L 62.877201,58.759294 60.713754,54.518588 58.659864,58.759294 56.605975,63 H 48.283492 39.96101 l -2.344417,-5.25 -2.344418,-5.25 -0.886087,5 c -0.487349,2.75 -0.83404,9.061932 -0.770426,14.026515 0.09085,7.090312 0.574799,9.926495 2.25614,13.222196 7.745691,15.182809 23.370956,21.500909 37.750603,15.264509 z M 54.897883,91.715638 C 51.11716,89.173897 49.698925,85 52.615998,85 c 0.965305,0 2.808906,0.99 4.096892,2.2 1.47728,1.387833 3.61369,2.2 5.78711,2.2 2.17342,0 4.30983,-0.812167 5.78711,-2.2 3.122264,-2.933215 5.956584,-2.925203 5.532441,0.01564 C 73.34564,90.501547 67.508553,94 62.5,94 59.779619,94 57.096509,93.193752 54.897883,91.715638 Z M 47.2,77.8 C 44.395003,74.995003 46.508273,70 50.5,70 c 3.991727,0 6.104997,4.995003 3.3,7.8 -0.66,0.66 -2.145,1.2 -3.3,1.2 -1.155,0 -2.64,-0.54 -3.3,-1.2 z m 24,0 C 68.395003,74.995003 70.508273,70 74.5,70 c 1.155,0 2.64,0.54 3.3,1.2 0.66,0.66 1.2,2.145 1.2,3.3 0,1.155 -0.54,2.64 -1.2,3.3 -0.66,0.66 -2.145,1.2 -3.3,1.2 -1.155,0 -2.64,-0.54 -3.3,-1.2 z"
       id="path4308"
       inkscape:connector-curvature="0" />
    <path
       style="fill:#5ab2cb"
       d="M 54,106.1236 C 49.797739,104.74198 43.665127,101.2079 40.38944,98.280156 36.281548,94.608604 24.801932,79.561701 22.224071,74.469904 16.420342,63.006363 15.334678,46.994469 19.777551,38.387435 24.097529,30.018482 35.9747,22 44.051021,22 c 1.482108,0 4.889446,-1.011022 7.571861,-2.246715 4.194745,-1.93237 6.556075,-2.247174 16.877118,-2.25 11.304553,-0.0031 12.336857,0.167398 17.812507,2.94186 7.231951,3.664365 14.717403,10.922423 17.783093,17.242884 5.30589,10.939035 3.24755,23.317281 -7.11909,42.811971 -7.29752,13.723146 -11.138627,18.241768 -19.125145,22.49854 -5.265618,2.80654 -7.536888,3.40658 -13.826012,3.65262 C 59.886409,106.81308 55.375,106.57568 54,106.1236 Z m 19.840618,-6.16624 c 5.482478,-2.419271 11.353612,-7.817357 14.752327,-13.563705 2.102756,-3.555218 2.455531,-5.501317 2.628457,-14.5 0.164817,-8.576712 -0.153888,-11.179041 -1.82312,-14.886384 L 87.375429,52.514542 85.49017,57.757271 83.604911,63 H 74.322779 65.040648 L 62.924751,58.8525 60.808855,54.705 58.622612,58.6025 56.43637,62.5 h -8.439712 -8.439711 l -1.545409,-4.183602 c -0.849975,-2.300981 -1.829674,-4.467867 -2.177108,-4.815301 -1.298031,-1.298031 -3.073579,14.01597 -2.429283,20.952441 0.723556,7.789791 3.103973,13.300319 7.932135,18.362431 9.144226,9.587311 21.038317,12.200591 32.503336,7.141391 z M 54.897883,91.715638 C 51.228678,89.248869 49.694029,85 52.472262,85 c 0.886251,0 2.537019,0.862378 3.668373,1.916395 3.075437,2.865205 6.48266,3.356198 10.397773,1.498355 C 68.442283,87.511302 70,86.373391 70,85.886059 70,85.398726 70.931298,85 72.069551,85 c 1.566174,0 1.991827,0.538909 1.75,2.215638 C 73.34564,90.501547 67.508553,94 62.5,94 59.779619,94 57.096509,93.193752 54.897883,91.715638 Z M 47.2,77.8 C 44.395003,74.995003 46.508273,70 50.5,70 c 3.991727,0 6.104997,4.995003 3.3,7.8 -0.66,0.66 -2.145,1.2 -3.3,1.2 -1.155,0 -2.64,-0.54 -3.3,-1.2 z m 24,0 C 68.395003,74.995003 70.508273,70 74.5,70 c 1.155,0 2.64,0.54 3.3,1.2 0.66,0.66 1.2,2.145 1.2,3.3 0,1.155 -0.54,2.64 -1.2,3.3 -0.66,0.66 -2.145,1.2 -3.3,1.2 -1.155,0 -2.64,-0.54 -3.3,-1.2 z M 30.040969,53.302653 C 32.163405,43.078934 36.074726,42.496388 40.465751,51.75 l 2.96575,6.25 5.03425,-0.0027 c 4.792854,-0.0026 5.130243,-0.182387 7.036192,-3.75 1.628017,-3.047376 2.560211,-3.7473 4.990834,-3.7473 2.361726,0 3.503887,0.795822 5.443201,3.792652 2.436438,3.765036 2.497693,3.790521 8.412543,3.5 L 80.306756,57.5 l 1.37852,-4 c 4.238618,-12.299044 10.18156,-8.554723 14.257526,8.982882 l 1.622913,6.982883 2.217142,-6.753882 C 102.49356,54.454516 102.62836,45.97753 100.13606,40.5 97.786484,35.336131 90.358757,28.048036 84.280471,24.942473 80.06811,22.790263 78.192762,22.5 68.5,22.5 59.112066,22.5 56.830886,22.829741 52.934276,24.75 50.423127,25.9875 46.696174,27 44.652157,27 42.60814,27 39.40239,27.640684 37.528268,28.423742 32.305549,30.605934 25.312129,37.615835 23.423121,42.562133 21.143722,48.530653 21.903699,60.381438 25.086486,68.5 l 2.352229,6 0.750853,-7.948017 c 0.412969,-4.37141 1.2461,-10.333608 1.851401,-13.24933 z"
       id="path4306"
       inkscape:connector-curvature="0" />
    <path
       style="fill:#4aa5bb"
       d="M 52.335923,105.21078 C 46.286591,103.04918 39.341684,97.976068 35.921867,93.220646 34.58984,91.368398 32.800228,89.098514 31.944951,88.176461 28.621392,84.593413 24.174123,78.318322 22.20969,74.44002 16.277838,62.728998 15.383326,46.111924 20.241804,37.883202 25.472458,29.024131 34.25688,23.062737 43.357789,22.195944 46.186005,21.926578 49.4,21.139713 50.5,20.447355 54.12767,18.164042 63.600479,16.719901 71.826533,17.1961 c 9.91588,0.574021 18.379781,4.378635 25.433997,11.432851 7.25024,7.250239 9.25521,12.145843 9.16194,22.371049 -0.0908,9.955925 -2.35456,16.694736 -10.685953,31.810362 -6.136481,11.133402 -11.470777,17.002969 -18.880751,20.775348 -7.083864,3.60635 -17.11466,4.27115 -24.519843,1.62507 z m 18.42599,-3.73272 c 6.025171,-1.78928 15.286053,-9.691596 18.314434,-15.627712 2.813906,-5.515711 3.14802,-21.472911 0.588504,-28.10674 -1.009332,-2.616016 -2.185104,-4.540108 -2.612826,-4.275761 -0.427723,0.264347 -1.347888,2.517223 -2.044812,5.006392 L 83.740078,63 H 74.55418 65.368282 l -2.33361,-4.152099 -2.33361,-4.152099 -2.452073,4.152099 L 55.796917,63 h -7.92321 C 40.15634,63 39.922692,62.928556 38.880199,60.25 38.291535,58.7375 37.35633,56.375 36.801967,55 l -1.007933,-2.5 -0.97576,2.5 c -0.536668,1.375 -1.22562,6.564933 -1.531005,11.533184 -0.745328,12.125589 1.078303,18.432631 7.344984,25.402689 8.770462,9.754867 18.760038,12.918607 30.12966,9.542187 z M 56.074888,92.248446 C 51.906307,90.120475 50.073599,87.526401 51.635377,85.964623 52.42261,85.17739 53.775896,85.586811 56.502448,87.437099 58.579603,88.846695 61.278502,90 62.5,90 c 1.221498,0 3.920397,-1.153305 5.997552,-2.562901 2.726552,-1.850288 4.079838,-2.259709 4.867071,-1.472476 2.52432,2.52432 -4.925853,8.032269 -10.864623,8.032269 -1.65,0 -4.5413,-0.786801 -6.425112,-1.748446 z M 47.2,77.8 C 44.395003,74.995003 46.508273,70 50.5,70 c 3.991727,0 6.104997,4.995003 3.3,7.8 -0.66,0.66 -2.145,1.2 -3.3,1.2 -1.155,0 -2.64,-0.54 -3.3,-1.2 z m 24,0 C 68.395003,74.995003 70.508273,70 74.5,70 c 1.155,0 2.64,0.54 3.3,1.2 0.66,0.66 1.2,2.145 1.2,3.3 0,1.155 -0.54,2.64 -1.2,3.3 -0.66,0.66 -2.145,1.2 -3.3,1.2 -1.155,0 -2.64,-0.54 -3.3,-1.2 z M 28.650696,69.25 c 0.09457,-9.500162 2.304848,-20.899793 4.424127,-22.817714 2.657165,-2.404701 5.283561,-0.417971 7.630287,5.771911 L 42.71287,57.5 l 5.561119,0.297444 c 4.707161,0.251769 5.652315,0.01011 6.155002,-1.573715 C 55.350223,53.321185 58.869944,50 61.024767,50 c 1.163486,0 3.011977,1.609507 4.593931,4 2.615934,3.952943 2.720116,4 8.855901,4 h 6.208826 l 1.261562,-4.25 C 83.559265,48.311757 84.673284,47 87.677474,47 c 1.99935,0 2.886325,1.024052 4.980319,5.75 1.401254,3.1625 2.838991,8.675 3.194971,12.25 L 96.5,71.5 98.869273,66 c 1.519717,-3.527862 2.551437,-8.271624 2.877307,-13.229649 0.45603,-6.938429 0.23286,-8.292085 -2.180222,-13.224247 C 96.736348,33.761772 91.183382,28.276237 84.5,24.6627 81.032925,22.788139 78.901226,22.5 68.5,22.5 58.54442,22.5 55.903711,22.827362 53,24.421496 51.075,25.478319 47.410284,26.454553 44.856187,26.590905 37.671568,26.974459 29.992583,31.517201 25.451074,38.070601 21.897056,43.19905 20.749938,51.965607 22.523621,60.442912 23.737335,66.243846 27.319378,76 28.23552,76 c 0.191389,0 0.378218,-3.0375 0.415176,-6.75 z"
       id="path4304"
       inkscape:connector-curvature="0" />
    <path
       style="fill:#2592ad"
       d="M 52.142427,105.06196 C 43.573653,101.88131 41.54017,100.04402 28.831414,84 18.496375,70.952653 14.627202,55.35308 18.495367,42.327554 21.361453,32.676398 32.312522,23.64447 42.64371,22.411133 45.314669,22.092274 49.75,20.87856 52.5,19.713991 c 4.039656,-1.710711 7.112757,-2.126674 16,-2.165694 9.898049,-0.04346 11.572821,0.220184 16.718065,2.631759 7.203972,3.3765 14.581399,10.225919 18.359905,17.045871 2.58069,4.657982 2.91148,6.208594 2.83172,13.274073 -0.1189,10.532015 -3.2111,19.224548 -12.450564,35 -8.123838,13.870627 -17.363992,20.44376 -29.747836,21.16161 -4.985188,0.28897 -8.089225,-0.12245 -12.068863,-1.59965 z m 19.902343,-3.98697 c 6.843972,-2.600508 12.947415,-7.807311 16.237313,-13.851938 3.798885,-6.979802 4.786188,-20.300349 2.077718,-28.032247 -1.02289,-2.920057 -2.272301,-5.395057 -2.776468,-5.5 C 87.079167,53.585862 86.029167,55.4125 85.25,57.75 L 83.833333,62 H 74.442347 C 65.064395,62 65.049253,61.9959 63.532792,59.063412 61.25509,54.658822 60.19045,54.532769 58.324029,58.446694 L 56.629575,62 H 48.295293 39.96101 l -2.347675,-5.25 -2.347674,-5.25 -0.88283,4 C 33.897274,57.7 33.5,64.45 33.5,70.5 c 0,8.887238 0.363144,11.672242 1.890694,14.5 7.891946,14.609354 23.034202,21.25013 36.654076,16.07499 z M 55.8718,91.994401 c -3.805515,-2.010903 -5.557342,-4.708859 -4.041682,-6.224519 0.527579,-0.527579 2.447799,0.15761 4.67233,1.667217 C 58.579603,88.846695 61.278502,90 62.5,90 c 1.221498,0 3.920397,-1.153305 5.997552,-2.562901 3.885335,-2.636659 6.119929,-2.209803 4.911896,0.93828 -0.865886,2.256463 -7.600338,5.636177 -11.11961,5.580425 C 60.755427,93.931496 57.86731,93.048865 55.8718,91.994401 Z M 47.571429,77.428571 C 46.707143,76.564286 46,75.246429 46,74.5 46,72.749099 48.749099,70 50.5,70 c 1.750901,0 4.5,2.749099 4.5,4.5 0,1.750901 -2.749099,4.5 -4.5,4.5 -0.746429,0 -2.064286,-0.707143 -2.928571,-1.571429 z m 24,0 C 70.707143,76.564286 70,75.246429 70,74.5 70,73.753571 70.707143,72.435714 71.571429,71.571429 72.435714,70.707143 73.753571,70 74.5,70 c 0.746429,0 2.064286,0.707143 2.928571,1.571429 C 78.292857,72.435714 79,73.753571 79,74.5 79,75.246429 78.292857,76.564286 77.428571,77.428571 76.564286,78.292857 75.246429,79 74.5,79 73.753571,79 72.435714,78.292857 71.571429,77.428571 Z M 30.086235,57 c 1.37204,-9.130631 2.284174,-11 5.367306,-11 1.987595,0 2.769353,0.995928 4.709725,6 l 2.326551,6 h 5.729411 c 5.274691,0 5.845266,-0.224037 7.189155,-2.822833 3.246231,-6.277518 7.01466,-6.52059 10.172858,-0.65617 C 67.431213,57.956187 67.538522,58 74.102137,58 h 6.64733 l 1.887243,-5.25 c 1.589205,-4.420906 2.280159,-5.25 4.375267,-5.25 3.558389,0 7.900907,8.942025 8.810175,18.141737 L 96.5,72.5 98.749553,67.117723 C 104.86697,52.481196 103.77993,42.297021 95.084733,32.78309 92.250377,29.681852 87.7188,26.171851 84.341343,24.461634 79.018114,21.766152 77.613022,21.505209 68.5,21.519699 60.404708,21.532571 57.642881,21.940374 54,23.660725 51.525,24.829544 47.161694,26.034967 44.303764,26.339443 31.855367,27.66566 22.398057,37.356714 21.284536,49.927608 20.730714,56.179883 22.836778,65.840988 26.31418,73 L 28.5,77.5 28.729613,71 c 0.126288,-3.575 0.736768,-9.875 1.356622,-14 z"
       id="path4302"
       inkscape:connector-curvature="0" />
  </g>
</svg>
