<?xml version="1.0" encoding="UTF-8" standalone="no"?>
<!-- Created with Inkscape (http://www.inkscape.org/) -->

<svg
   xmlns:dc="http://purl.org/dc/elements/1.1/"
   xmlns:cc="http://creativecommons.org/ns#"
   xmlns:rdf="http://www.w3.org/1999/02/22-rdf-syntax-ns#"
   xmlns:svg="http://www.w3.org/2000/svg"
   xmlns="http://www.w3.org/2000/svg"
   xmlns:sodipodi="http://sodipodi.sourceforge.net/DTD/sodipodi-0.dtd"
   xmlns:inkscape="http://www.inkscape.org/namespaces/inkscape"
   version="1.1"
   id="svg105"
   width="360"
   height="144"
   viewBox="0 0 360 144"
   sodipodi:docname="grey-my.svg"
   inkscape:version="0.92.3 (2405546, 2018-03-11)">
  <metadata
     id="metadata111">
    <rdf:RDF>
      <cc:Work
         rdf:about="">
        <dc:format>image/svg+xml</dc:format>
        <dc:type
           rdf:resource="http://purl.org/dc/dcmitype/StillImage" />
        <dc:title></dc:title>
      </cc:Work>
    </rdf:RDF>
  </metadata>
  <defs
     id="defs109" />
  <sodipodi:namedview
     pagecolor="#ffffff"
     bordercolor="#666666"
     borderopacity="1"
     objecttolerance="10"
     gridtolerance="10"
     guidetolerance="10"
     inkscape:pageopacity="0"
     inkscape:pageshadow="2"
     inkscape:window-width="1366"
     inkscape:window-height="715"
     id="namedview107"
     showgrid="false"
     inkscape:zoom="3.3638889"
     inkscape:cx="180"
     inkscape:cy="72"
     inkscape:window-x="-8"
     inkscape:window-y="-8"
     inkscape:window-maximized="1"
     inkscape:current-layer="svg105" />
  <g
     id="g115">
    <path
       style="fill:#f9f9f9"
       d="M 153.66667,119.33333 C 152.30706,117.97373 153.07213,117 155.5,117 c 2.11938,0 2.5,-0.46365 2.5,-3.04531 0,-2.93876 -0.12246,-3.02234 -3.5,-2.38871 -2.78951,0.52331 -3.5,0.33871 -3.5,-0.90938 0,-0.99795 1.26955,-1.80414 3.5,-2.22258 2.83993,-0.53277 3.5,-1.10709 3.5,-3.04531 C 158,103.31484 157.5277,103 154.41667,103 c -4.51831,0 -4.174,-2.36062 0.41034,-2.81336 C 157.07299,99.964833 158,99.358081 158,98.109834 c 0,-1.390566 -0.63435,-1.670345 -3,-1.323142 -2.17843,0.319725 -3,0.03566 -3,-1.037269 0,-0.974029 1.44837,-1.689676 4.25,-2.099952 2.3375,-0.342308 5.2625,-0.905958 6.5,-1.252556 1.61341,-0.451883 2.25,-0.205786 2.25,0.869822 0,0.825 -0.9,1.735356 -2,2.023012 -1.1966,0.312919 -2,1.364016 -2,2.616631 0,1.679139 0.61999,2.09362 3.13167,2.09362 3.07637,0 3.12219,-0.07064 2.59516,-4 -0.46335,-3.454498 -0.27674,-4 1.36833,-4 C 169.65081,92 170,92.733273 170,96 v 4 h 4.5 c 3.33333,0 4.5,0.38889 4.5,1.5 0,1.11627 -1.17855,1.5 -4.60699,1.5 -3.79013,0 -4.49936,0.28047 -4,1.58179 0.33385,0.86998 0.62196,2.10748 0.64026,2.75 0.0183,0.64251 0.87793,0.15571 1.91029,-1.08179 1.83507,-2.1997 4.05644,-3.01135 4.05644,-1.48213 0,0.42232 -1.1154,2.40932 -2.47867,4.41555 -2.46916,3.6337 -2.47121,3.65665 -0.53327,5.98214 l 1.9454,2.33444 0.0333,-2.75 c 0.0213,-1.76299 0.57164,-2.75 1.53327,-2.75 1.73681,0 1.98409,3.22695 0.46482,6.06574 -1.40775,2.63041 -3.60144,2.4294 -6.39609,-0.58608 -2.30076,-2.48256 -2.38151,-2.49409 -5.38769,-0.76878 -4.30724,2.47202 -5.31447,0.66632 -1.41563,-2.53782 3.21813,-2.64472 3.77527,-4.55362 2.6043,-8.92306 C 166.52486,102.09744 161,101.97462 161,105.10841 c 0,1.74962 0.42542,2.00163 2.5,1.48095 1.78171,-0.44718 2.5,-0.22216 2.5,0.78318 0,0.77585 -1.125,1.693 -2.5,2.0381 -2.13826,0.53667 -2.5,1.1984 -2.5,4.57323 0,2.8776 -0.52362,4.226 -1.93426,4.98095 -2.21637,1.18616 -4.43031,1.33728 -5.39907,0.36851 z M 182,107.5 c 0,-10.595947 0.14806,-11.5 1.88337,-11.5 1.04236,0 2.11691,-0.893085 2.40638,-2 0.28766,-1.1 1.27046,-2 2.18402,-2 1.20593,0 1.48709,0.54795 1.02623,2 -0.49719,1.566515 -0.1797,2 1.46484,2 1.25157,0 2.42916,0.890852 2.91552,2.205607 0.72968,1.972523 0.97286,1.734742 2.3011,-2.25 1.6141,-4.842294 3.13285,-5.763044 3.63809,-2.205607 0.2717,1.913046 0.92994,2.25 4.39541,2.25 h 4.07587 l -0.55303,10.03622 c -0.30763,5.58278 -1.09209,10.68575 -1.76786,11.5 C 204.31743,119.52737 198,119.49867 198,117.5 c 0,-0.98551 0.98611,-1.5 2.875,-1.5 2.42,0 2.97391,-0.49457 3.5,-3.125 0.34375,-1.71875 0.625,-5.54375 0.625,-8.5 V 99 h -3.33948 c -2.5917,0 -3.59456,0.559808 -4.47857,2.5 -0.62649,1.375 -1.57725,2.5 -2.11279,2.5 -0.53555,0 -1.1077,2.8125 -1.27144,6.25 l -0.29772,6.25 -4.25,0.3075 c -2.3375,0.16912 -4.25,0.73162 -4.25,1.25 0,0.51837 -0.675,0.9425 -1.5,0.9425 -1.24638,0 -1.5,-1.94444 -1.5,-11.5 z m 9,3 c 0,-3.22222 -0.2381,-3.5 -3,-3.5 -2.7619,0 -3,0.27778 -3,3.5 0,3.22222 0.2381,3.5 3,3.5 2.7619,0 3,-0.27778 3,-3.5 z m 0,-8.5 c 0,-2.666667 -0.33333,-3 -3,-3 -2.66667,0 -3,0.333333 -3,3 0,2.66667 0.33333,3 3,3 2.66667,0 3,-0.33333 3,-3 z m 7.63968,6.03171 c -1.71884,-2.59734 -2.23269,-4.16521 -1.51125,-4.61109 1.15656,-0.71479 5.77452,4.24721 5.83561,6.27036 0.0836,2.7673 -1.89821,2.00689 -4.32436,-1.65927 z M 173.06955,96.574028 c -3.37273,-3.590103 -1.55147,-5.409919 2.00459,-2.003001 1.57011,1.504263 2.61919,3.116162 2.33129,3.581998 -0.85267,1.379649 -1.92233,0.990113 -4.33588,-1.578997 z M 173.5,84.793448 c -4.91803,-1.719107 -8.99137,-5.327121 -14.12139,-12.508207 -8.14803,-11.405737 -10.30353,-21.448665 -6.43316,-29.973541 2.24612,-4.947317 8.72877,-10.006917 13.92261,-10.866362 1.99757,-0.330545 5.6246,-1.240969 8.06008,-2.023165 16.65666,-5.349574 34.1742,5.499447 34.03364,21.077827 -0.0666,7.385524 -9.16414,25.048344 -15.65898,30.401935 -5.66844,4.672411 -13.28621,6.169403 -19.8028,3.891513 z M 187.79769,79.85589 C 194.3642,76.6771 198.02117,70.43236 197.92971,62.554219 197.89106,59.224399 197.49062,55.6 197.03985,54.5 c -0.76492,-1.866608 -0.89197,-1.816586 -1.90497,0.75 -1.02567,2.598721 -1.4359,2.75 -7.45731,2.75 -5.62642,0 -6.48834,-0.260852 -7.36676,-2.229475 l -0.99482,-2.229474 -1.19318,2.229474 C 177.11347,57.656499 176.09257,58 171.49675,58 c -4.85695,0 -5.57962,-0.280067 -6.81715,-2.641979 -1.37767,-2.629378 -1.38708,-2.618647 -1.97244,2.25 -1.31001,10.895752 1.95698,18.531758 9.53308,22.281861 5.41768,2.681702 9.96812,2.671759 15.55745,-0.03399 z m -13.49193,-5.286326 c -2.04017,-1.767258 -2.50742,-2.734117 -1.71238,-3.543378 0.8013,-0.815635 1.93662,-0.633866 4.25,0.680436 3.03539,1.724504 3.27785,1.724504 6.31324,0 2.31338,-1.314302 3.4487,-1.496071 4.25,-0.680436 C 189.00898,72.657216 183.62459,77 180,77 c -1.62271,0 -4.118,-1.065049 -5.69424,-2.430436 z M 161.06243,47.424771 c 2.02779,-2.443336 3.89207,-1.578963 5.55425,2.575229 1.36884,3.421077 2.03431,4 4.59798,4 2.00627,0 3.6478,-0.826717 4.964,-2.5 1.08158,-1.375 2.59847,-2.5 3.37087,-2.5 0.7724,0 2.14149,1.125 3.04243,2.5 1.264,1.929109 2.49219,2.5 5.37839,2.5 3.36283,0 3.83399,-0.328015 4.66836,-3.25 1.51396,-5.301924 4.63113,-4.885928 7.1144,0.949437 1.12359,2.64031 2.23402,5.700563 2.46761,6.800563 0.31437,1.480397 0.72913,0.960794 1.59642,-2 2.3819,-8.131404 1.12641,-13.373601 -4.47786,-18.696952 C 193.44521,32.20443 182.95092,30.322362 175.34576,33.5 c -1.97451,0.825 -4.6824,1.5 -6.01754,1.5 -3.24813,0 -7.20202,2.162719 -10.72052,5.863972 -3.85159,4.051638 -4.55699,10.746381 -1.9812,18.802845 l 1.86497,5.833183 0.69425,-8.325229 c 0.38184,-4.578875 1.22636,-8.966375 1.87671,-9.75 z"
       id="path129"
       inkscape:connector-curvature="0" />
    <path
       style="fill:#f2f2f2"
       d="M 153.66692,118.57439 C 153.21776,117.40389 153.69606,117 155.53138,117 157.61908,117 158,116.52721 158,113.93603 c 0,-2.83678 -0.23364,-3.04069 -3.15088,-2.75 -4.40261,0.4387 -4.73863,-1.79657 -0.39264,-2.61189 C 157.37158,108.02727 158,107.47405 158,105.45469 158,103.39392 157.51857,103 155,103 c -2,0 -3,-0.5 -3,-1.5 0,-1 1,-1.5 3,-1.5 2.32068,0 3,-0.447222 3,-1.975 0,-1.679867 -0.46832,-1.881337 -3.13393,-1.348214 -2.36629,0.473259 -3.02449,0.298478 -2.68715,-0.71356 0.45462,-1.363846 10.67337,-4.172548 12.06088,-3.315023 C 165.72521,93.566236 164.96937,95 163,95 c -1.46667,0 -2,0.666667 -2,2.5 0,2.111111 0.46667,2.5 3,2.5 2.83333,0 3,-0.222222 3,-4 0,-5.151344 1.7866,-5.186735 2.60773,-0.05166 0.60399,3.777113 0.80712,3.961425 4.6841,4.25 5.8795,0.43763 6.12547,2.80166 0.2915,2.80166 -4.6977,0 -5.19846,0.58195 -3.72306,4.32668 0.64707,1.64235 0.85885,1.56666 2.09869,-0.75 1.43968,-2.69006 2.53157,-3.21003 3.48871,-1.66135 0.31114,0.50343 -0.56231,2.25589 -1.94098,3.89435 -3.00292,3.56877 -3.07854,4.36283 -0.62673,6.58168 1.79093,1.62077 1.91194,1.57391 2.55535,-0.98965 0.48029,-1.9136 0.98492,-2.38148 1.74683,-1.61957 1.4215,1.4215 0.25039,5.8379 -1.75178,6.60621 -0.98266,0.37708 -2.64451,-0.44865 -4.36446,-2.16861 l -2.77756,-2.77755 -2.64689,1.97618 c -1.88077,1.40421 -2.95673,1.66635 -3.71737,0.90571 -0.76064,-0.76064 -0.0366,-1.70945 2.50149,-3.27808 3.0367,-1.87678 3.4833,-2.60759 2.98026,-4.8768 C 167.09795,103.26945 166.90258,103 163.93261,103 161.6164,103 161,103.44317 161,105.10841 c 0,1.74962 0.42542,2.00163 2.5,1.48095 1.78171,-0.44718 2.5,-0.22216 2.5,0.78318 0,0.77585 -1.125,1.693 -2.5,2.0381 -2.01663,0.50615 -2.50296,1.25216 -2.51531,3.85841 -0.0195,4.11931 -0.87408,5.4141 -4.10917,6.22606 -1.87767,0.47126 -2.77304,0.21434 -3.2086,-0.92072 z m 28.99975,-0.24106 C 182.3,117.96667 182,112.97454 182,107.23971 c 0,-9.527421 0.16968,-10.471322 1.96688,-10.9413 1.08179,-0.282893 2.23711,-1.365764 2.56739,-2.406381 C 186.86455,92.851413 187.80978,92 188.63478,92 c 1.04492,0 1.30742,0.606767 0.86522,2 -0.49063,1.54584 -0.1797,2 1.36925,2 1.52608,0 2.08334,0.775104 2.33655,3.25 0.32621,3.18842 0.36976,3.15052 2.29808,-2 1.08106,-2.8875 2.58742,-5.25 3.34747,-5.25 0.88958,0 1.19558,0.712534 0.8589,2 -0.46651,1.783934 -0.0307,2 4.03419,2 h 4.55721 l -0.62521,9.51788 c -0.76479,11.64284 -1.68516,13.71053 -5.91587,13.29052 -4.12435,-0.40944 -4.94485,-2.8084 -0.96053,-2.8084 3.54225,0 4.16632,-1.60255 4.18631,-10.75 L 205,99 h -3.52144 c -2.80007,0 -3.75838,0.520039 -4.67812,2.53864 -0.66013,1.44883 -1.72414,2.32088 -2.47856,2.03138 C 193.31,103.18173 193,104.57974 193,109.53138 V 116 h -4 c -2.88889,0 -4,0.41667 -4,1.5 0,1.56157 -1.1827,1.98397 -2.33333,0.83333 z M 191,110.5 c 0,-3.22222 -0.2381,-3.5 -3,-3.5 -2.7619,0 -3,0.27778 -3,3.5 0,3.22222 0.2381,3.5 3,3.5 2.7619,0 3,-0.27778 3,-3.5 z m 0,-8.5 c 0,-2.666667 -0.33333,-3 -3,-3 -2.66667,0 -3,0.333333 -3,3 0,2.66667 0.33333,3 3,3 2.66667,0 3,-0.33333 3,-3 z m 7.7457,5.90514 c -2.46873,-4.33742 -1.04555,-5.70012 1.85175,-1.77305 2.69605,3.65429 2.98446,4.87085 1.15255,4.86159 -0.6875,-0.003 -2.03944,-1.39332 -3.0043,-3.08854 z M 173.17431,96.685549 C 170.67735,94.027655 170.44073,93 172.32569,93 c 1.71646,0 5.90053,4.440444 5.01679,5.324187 -1.10391,1.10391 -1.87732,0.79986 -4.16817,-1.638638 z m 1.58973,-11.629979 c -5.45758,-1.7456 -9.63642,-5.217215 -14.82473,-12.315809 -11.73426,-16.054676 -11.56442,-30.348669 0.45318,-38.141025 2.18579,-1.417292 5.57916,-2.840851 7.54084,-3.163464 1.96167,-0.322614 4.91667,-1.115028 6.56667,-1.760921 5.07512,-1.986658 16.40065,-1.43139 21.06821,1.032932 7.65451,4.04133 13.47283,12.635133 13.4004,19.792717 -0.0409,4.038345 -4.66984,15.1929 -9.20284,22.176331 -3.21818,4.957848 -6.01371,7.970703 -9.04296,9.745961 -4.84761,2.840892 -11.74923,3.979693 -15.95877,2.633278 z m 12.53562,-4.676159 c 7.20703,-3.649497 10.7078,-9.411527 10.68669,-17.589573 -0.0225,-8.720291 -1.98238,-12.926106 -3.39699,-7.289838 -0.58128,2.316001 -1.06507,2.5 -6.57323,2.5 -4.92231,0 -6.13001,-0.344264 -7.01613,-2 -0.5887,-1.1 -1.47421,-2 -1.9678,-2 -0.49358,0 -1.18307,0.9 -1.5322,2 -0.5321,1.676501 -1.51303,2 -6.06452,2 -5.18556,0 -5.48974,-0.14616 -6.76375,-3.25 l -1.33401,-3.25 -0.7159,5.344936 c -1.47949,11.04598 1.49053,18.672408 8.90775,22.873386 4.74252,2.686072 11.23378,2.958189 15.77009,0.661089 z M 175.25,75.01096 C 173.4625,73.9211 172,72.59934 172,72.073715 c 0,-1.872243 2.1543,-2.244053 3.89175,-0.671676 C 176.8629,72.280917 178.71161,73 180,73 c 1.28839,0 3.1371,-0.719083 4.10825,-1.597961 C 185.8457,69.829662 188,70.201472 188,72.073715 c 0,1.218352 -6.01846,4.918809 -8,4.918809 -0.825,0 -2.9625,-0.891704 -4.75,-1.981564 z M 161.018,47.966375 c 1.48692,-2.778336 3.06239,-2.103423 5.482,2.348419 2.56815,4.725148 6.74498,5.107901 10.20554,0.935206 l 2.28066,-2.75 2.45893,2.75 c 1.91541,2.142131 3.35371,2.75 6.5069,2.75 C 190.74009,54 192,53.567613 192,52.610784 c 0,-0.764069 0.84842,-2.436974 1.88538,-3.717567 1.61728,-1.997248 2.11525,-2.137586 3.50177,-0.986872 0.88901,0.737813 2.43634,4.012489 3.43851,7.277056 l 1.82212,5.935577 1.17611,-3.925508 C 206.5707,48.025433 204.00902,40.287896 196.57573,35.300477 191.38778,31.81959 180.06535,30.823186 174.912,33.394015 173.1414,34.277307 170.59237,35 169.24749,35 c -3.98599,0 -9.19935,3.035269 -11.80855,6.875053 -2.98433,4.391832 -3.25341,11.442304 -0.71357,18.696808 l 1.72537,4.928139 0.72492,-7.72286 c 0.39871,-4.247573 1.22776,-8.662418 1.84234,-9.810765 z"
       id="path127"
       inkscape:connector-curvature="0" />
    <path
       style="fill:#ebebeb"
       d="m 153.5,118 c -0.35052,-0.56716 0.48962,-1 1.94098,-1 2.19742,0 2.55902,-0.43995 2.55902,-3.1135 0,-2.89062 -0.21475,-3.08198 -3,-2.67319 -1.91342,0.28083 -3,0.005 -3,-0.7615 0,-0.661 1.35,-1.47181 3,-1.80181 2.38284,-0.47657 3,-1.11944 3,-3.125 0,-2.13889 -0.45875,-2.525 -3,-2.525 -1.65,0 -3,-0.45 -3,-1 0,-0.55 1.35,-1 3,-1 2.56658,0 3,-0.37684 3,-2.608408 0,-2.265478 -0.32062,-2.527937 -2.43871,-1.99633 -1.3413,0.336643 -2.7097,0.17362 -3.0409,-0.362275 -0.3312,-0.535894 0.65372,-1.256219 2.18871,-1.600721 1.535,-0.344502 4.24986,-0.995445 6.03304,-1.44654 4.00269,-1.012568 5.41942,0.622152 1.74869,2.017759 -3.95491,1.503654 -3.11299,5.388315 1.25917,5.809875 3.23765,0.31217 3.25,0.29601 3.25,-4.250002 C 167,94.053511 167.45,92 168,92 c 0.55,0 1,1.313196 1,2.918213 0,5.027734 0.88511,6.081787 5.10699,6.081787 2.14115,0 3.89301,0.45 3.89301,1 0,0.55 -1.8,1 -4,1 -4.11416,0 -5.16645,1.61245 -3.13879,4.80967 0.62531,0.986 1.25022,0.66921 2.52862,-1.28187 0.93392,-1.42534 2.1508,-2.31171 2.70417,-1.9697 0.5926,0.36624 -0.0911,2.06038 -1.66345,4.12184 -2.29756,3.01226 -2.51158,3.84681 -1.53572,5.98859 1.35224,2.96783 3.3023,2.62219 4.18994,-0.74267 0.53237,-2.01812 0.76005,-2.14485 1.35459,-0.754 0.98639,2.30757 -1.09854,5.82814 -3.45149,5.82814 -1.06797,0 -2.67612,-1.12077 -3.57366,-2.49059 l -1.6319,-2.49059 -2.9682,2.11354 c -1.95196,1.38992 -3.30599,1.77576 -3.95482,1.12693 -0.64882,-0.64882 0.24942,-1.71589 2.62354,-3.11666 3.39901,-2.00546 3.57051,-2.34974 2.93232,-5.88634 C 167.49213,103.14122 167.35849,103 163.44098,103 160.66667,103 160,103.38749 160,105 c 0,1.55556 0.66667,2 3,2 1.65,0 3,0.39375 3,0.875 0,0.48125 -1.35,1.145 -3,1.475 -2.80295,0.56059 -3,0.89722 -3,5.125 0,4.34093 -0.11963,4.525 -2.94098,4.525 -1.61754,0 -3.2191,-0.45 -3.55902,-1 z m 29.5318,-9.75 C 183.0056,98.966674 183.25889,97 184.48095,97 c 0.81452,0 1.7633,-1.125 2.10841,-2.5 0.3451,-1.375 1.19127,-2.5 1.88038,-2.5 0.79722,0 1.0791,0.90927 0.77501,2.5 -0.38801,2.02976 -0.0798,2.5 1.63867,2.5 1.63283,0 2.11658,0.617096 2.11658,2.7 0,3.48243 1.50094,2.04389 3.3053,-3.167875 1.56593,-4.523063 4.17641,-6.299574 3.12991,-2.129997 C 198.80205,96.924842 198.91993,97 203.50987,97 h 4.72668 l -0.68174,8.75 c -0.86919,11.15567 -1.17727,12.11714 -4.11922,12.85552 -2.88375,0.72378 -5.80921,-0.19197 -4.96695,-1.55478 0.32748,-0.52987 1.32107,-0.68493 2.20799,-0.34459 C 203.4961,117.78809 205,114.17135 205,106.30887 V 99 h -3.52144 c -2.80007,0 -3.75838,0.520039 -4.67812,2.53864 -0.66013,1.44883 -1.72414,2.32088 -2.47856,2.03138 C 193.31,103.18173 193,104.57974 193,109.53138 V 116 h -3.63976 c -2.29369,0 -4.13104,0.64719 -4.96819,1.75 -1.13007,1.48868 -1.33319,0.0701 -1.36025,-9.5 z M 191,110.5 c 0,-3.22222 -0.2381,-3.5 -3,-3.5 -2.7619,0 -3,0.27778 -3,3.5 0,3.22222 0.2381,3.5 3,3.5 2.7619,0 3,-0.27778 3,-3.5 z m 0,-8.5 c 0,-2.666667 -0.33333,-3 -3,-3 -2.66667,0 -3,0.333333 -3,3 0,2.66667 0.33333,3 3,3 2.66667,0 3,-0.33333 3,-3 z m 7.959,5.94242 c -1.19745,-1.68166 -1.86276,-3.36916 -1.47846,-3.75 0.69003,-0.6838 5.50487,4.60523 5.51449,6.05758 0.0113,1.70311 -1.99831,0.55414 -4.03603,-2.30758 z M 173.17394,95.944671 C 171.49912,93.824432 171.24575,93 172.26895,93 173.93091,93 177,96.13247 177,97.828741 c 0,1.913924 -1.35175,1.248282 -3.82606,-1.88407 z m 1.73001,-11.342475 c -5.65798,-1.495531 -9.0032,-4.05985 -14.15672,-10.851989 -8.64485,-11.393562 -11.54492,-23.562886 -7.47146,-31.351763 2.11972,-4.05312 8.04325,-9.205073 11.49257,-9.995587 C 166.27075,32.058535 170.875,30.90979 175,29.85009 c 11.53535,-2.963394 18.75393,-1.517082 26.53759,5.317054 5.01544,4.403622 6.78454,8.347241 6.79058,15.137374 0.01,10.980926 -12.32038,31.024048 -20.63802,33.547869 -6.0452,1.834298 -8.20428,1.960911 -12.7862,0.749809 z m 13.06901,-4.35375 c 1.91013,-0.961645 4.94763,-3.695929 6.75,-6.076185 3.01985,-3.988086 3.27152,-4.890639 3.20675,-11.5 -0.0386,-3.944744 -0.41672,-8.058616 -0.84014,-9.14194 -0.70437,-1.802128 -0.89053,-1.717064 -2.18848,1 -1.2955,2.711973 -1.91187,2.995556 -7.10266,3.267876 -5.26575,0.276253 -5.7858,0.103991 -7.06675,-2.340779 l -1.3827,-2.638977 -1.69754,2.59078 C 176.20146,57.62217 175.22849,58 170.97981,58 c -4.66456,0 -5.05918,-0.202233 -6.34176,-3.25 l -1.36769,-3.25 -0.76311,4.84593 c -0.41971,2.665262 -0.49189,7.135971 -0.16039,9.934908 1.42934,12.068573 14.8588,19.388355 25.6261,13.967608 z M 176.25,75.509132 C 174.4625,74.732211 173,73.399825 173,72.548274 173,70.829572 175.53154,70.433006 176.5,72 c 0.33992,0.55 1.91492,1 3.5,1 1.58508,0 3.16008,-0.45 3.5,-1 0.96923,-1.56824 3.5,-1.169804 3.5,0.551027 0,0.853064 -1.56055,2.203064 -3.46788,3 -4.07424,1.702326 -3.25831,1.70702 -7.28212,-0.0419 z M 159.52047,55.740855 c 0.94568,-9.976924 4.11096,-12.260561 7.09498,-5.118778 1.17598,2.8145 1.93211,3.377923 4.5333,3.377923 2.10591,0 3.9349,-0.877234 5.62003,-2.695516 l 2.49812,-2.695516 2.31858,2.695516 C 183.38982,53.402152 184.79765,54 187.93298,54 c 3.4456,0 4.11827,-0.356018 4.64608,-2.458982 0.33944,-1.35244 1.2706,-3.001284 2.06924,-3.664097 2.14364,-1.779061 4.11184,0.648657 6.25407,7.714213 L 202.6939,61.5 l 1.14747,-4 c 2.92132,-10.183495 0.44699,-17.45863 -7.69367,-22.621285 -3.89958,-2.473038 -5.53336,-2.877847 -11.59348,-2.872554 -4.30125,0.0038 -8.17204,0.589144 -9.91853,1.5 C 173.06032,34.327772 170.31534,35 168.53573,35 c -4.13945,0 -10.76502,4.725133 -12.50049,8.914931 -1.54935,3.740447 -0.93335,14.147197 1.0966,18.526265 0.74988,1.617657 1.44994,2.292657 1.55569,1.5 0.10575,-0.792658 0.48057,-4.482811 0.83294,-8.200341 z"
       id="path125"
       inkscape:connector-curvature="0" />
    <path
       style="fill:#e3e3e3"
       d="M 154,118.06642 C 154,117.47989 154.9,117 156,117 c 1.59922,0 2,-0.66667 2,-3.32681 0,-3.12763 -0.17961,-3.30044 -3,-2.8865 -1.70359,0.25004 -3,-0.0122 -3,-0.60677 0,-0.57589 1.2375,-1.18947 2.75,-1.3635 2.15997,-0.24853 2.81789,-0.90645 3.06642,-3.06642 0.28431,-2.47092 0.005,-2.75 -2.75,-2.75 C 153.37989,103 152,102.55 152,102 c 0,-0.55 1.35,-1 3,-1 2.56898,0 3,-0.37594 3,-2.616577 0,-2.258389 -0.3455,-2.550531 -2.52387,-2.13411 -1.38812,0.265358 -2.72775,0.152577 -2.97694,-0.250623 -0.24919,-0.4032 2.25519,-1.394716 5.56529,-2.203369 6.05253,-1.478622 9.26914,-0.633059 4.49569,1.181801 C 160.74632,95.666749 160,96.68649 160,98.475249 160,100.69401 160.42418,101 163.5,101 c 3.48148,0 3.5,-0.0238 3.5,-4.5 0,-5.711702 1.78263,-5.914966 2.1925,-0.25 0.30601,4.22934 0.32816,4.25149 4.5575,4.5575 5.38714,0.38977 5.5927,2.1925 0.25,2.1925 -3.57421,0 -4,0.25984 -4,2.44098 0,3.38193 1.56491,4.01829 3.40858,1.38608 0.84998,-1.21352 1.8613,-1.89051 2.24738,-1.50443 0.38609,0.38608 -0.32839,2.09561 -1.58772,3.79894 -1.92859,2.60856 -2.11226,3.4864 -1.16462,5.56625 1.34581,2.95373 3.32204,2.59233 4.1115,-0.75188 0.3548,-1.50295 0.84025,-1.97897 1.28474,-1.25977 0.39295,0.6358 0.27237,2.31876 -0.26796,3.73991 -1.25764,3.30785 -4.46535,3.37822 -6.5842,0.14444 l -1.59841,-2.43947 -3.10399,1.88765 c -4.49792,2.73534 -5.57328,1.23845 -1.23036,-1.71265 2.86318,-1.94557 3.54054,-2.96366 3.08974,-4.64396 -0.31755,-1.18365 -0.58352,-3.16459 -0.59103,-4.40209 C 168.00178,103.29394 167.47744,103 164,103 c -3.33333,0 -4,0.33333 -4,2 0,1.58333 0.66667,2 3.2,2 3.37686,0 2.8834,1.52402 -0.7,2.16188 -1.55399,0.27662 -2.1115,1.35753 -2.5,4.84706 -0.44638,4.0094 -0.79493,4.525 -3.25,4.80748 -1.5125,0.17403 -2.75,-0.16347 -2.75,-0.75 z M 199,118 c 0,-0.55 0.8449,-1 1.87756,-1 2.95646,0 3.8036,-1.94134 4.47276,-10.25 L 205.97449,99 h -3.95206 c -2.92861,0 -4.22925,0.517935 -5.02243,2 -1.3296,2.48439 -3.51301,2.70521 -2.47193,0.25 0.40813,-0.9625 1.30902,-3.309249 2.00198,-5.214998 1.52349,-4.189798 3.87923,-5.513866 2.90516,-1.632874 C 198.80371,96.918224 198.92847,97 203.39857,97 h 4.61539 l -0.5597,7.25 c -0.8576,11.10872 -1.37649,13.50618 -3.06325,14.15345 C 201.97669,119.32991 199,119.10714 199,118 Z m -16,-10.5 c 0,-8.606631 0.26705,-10.5 1.48095,-10.5 0.81452,0 1.7633,-1.125 2.10841,-2.5 0.3451,-1.375 1.07746,-2.5 1.62746,-2.5 0.56732,0 0.72851,1.081693 0.37254,2.5 -0.54492,2.171099 -0.29606,2.5 1.89159,2.5 2.51529,0 2.51905,0.01417 2.51905,9.5 v 9.5 h -4 c -2.2,0 -4,0.45 -4,1 0,0.55 -0.45,1 -1,1 -0.60317,0 -1,-4.16667 -1,-10.5 z m 8,3 c 0,-3.22222 -0.2381,-3.5 -3,-3.5 -2.7619,0 -3,0.27778 -3,3.5 0,3.22222 0.2381,3.5 3,3.5 2.7619,0 3,-0.27778 3,-3.5 z m 0,-8.5 c 0,-2.666667 -0.33333,-3 -3,-3 -2.66667,0 -3,0.333333 -3,3 0,2.66667 0.33333,3 3,3 2.66667,0 3,-0.33333 3,-3 z m 8.15903,6.00123 C 196.77853,104.78142 196.53887,104 197.93191,104 c 1.39845,0 5.23664,5.7778 4.24522,6.39053 -0.47249,0.29201 -1.83064,-0.78317 -3.0181,-2.3893 z M 173.49445,95.993869 c -0.99854,-1.103372 -1.52104,-2.300613 -1.16112,-2.660536 0.72923,-0.729228 4.66667,2.495242 4.66667,3.821655 0,1.459866 -1.61884,0.923669 -3.50555,-1.161119 z m -2.95514,-13.270083 c -5.20996,-2.950894 -14.00626,-13.865285 -16.53081,-20.511299 -2.65345,-6.985381 -2.6948,-16.574713 -0.0899,-20.846657 2.71564,-4.453543 8.25319,-8.369872 12.73844,-9.009029 2.11363,-0.301196 5.26097,-1.179692 6.99409,-1.952215 4.01279,-1.788665 16.41605,-1.822407 20.63099,-0.05612 C 202.60075,33.834405 208,41.5492 208,49.949435 c 0,10.963636 -10.14298,28.532049 -19.11548,33.109479 -5.29794,2.702807 -13.23765,2.557766 -18.34521,-0.335128 z M 188,80.446458 c 2.84686,-1.443821 7.2805,-5.981823 8.74071,-8.946458 1.78067,-3.615258 2.30475,-10.433816 1.15339,-15.006268 -1.26931,-5.040888 -2.37286,-5.706655 -3.30474,-1.993732 -0.5866,2.33719 -1.03958,2.5 -6.9556,2.5 -5.5811,0 -6.44557,-0.263187 -7.32295,-2.229475 l -0.99482,-2.229474 -1.19318,2.229474 C 177.11128,56.660585 176.09441,57 171.44338,57 c -4.93501,0 -5.60505,-0.260716 -6.6685,-2.59474 -1.06089,-2.328389 -1.25677,-2.405377 -1.90828,-0.75 -1.23956,3.14954 -0.93488,14.24557 0.48444,17.642482 1.66787,3.991774 7.75244,9.467729 11.4173,10.27528 1.50241,0.331056 3.18166,0.733865 3.73166,0.895131 1.58763,0.46551 6.77071,-0.637502 9.5,-2.021695 z M 174.75,74.919901 C 173.7875,74.359296 173,73.24798 173,72.45031 c 0,-1.818048 0.40269,-1.810553 4.04966,0.07537 2.6446,1.367574 3.25608,1.367574 5.90068,0 C 186.60188,70.637396 187,70.631413 187,72.464816 c 0,3.106778 -8.28151,4.766518 -12.25,2.455085 z M 160.96978,49.25 c 1.50694,-3.43408 3.86504,-2.703292 5.6469,1.75 1.40484,3.51106 1.99541,4 4.83138,4 2.47588,0 3.4971,-0.584222 4.36999,-2.5 0.66187,-1.452661 1.97627,-2.5 3.13746,-2.5 1.09911,0 2.73551,1.125 3.63645,2.5 1.2212,1.863787 2.51248,2.5 5.07408,2.5 2.96861,0 3.63106,-0.466802 4.86984,-3.431619 1.63651,-3.916735 2.57038,-4.738774 4.22308,-3.717353 1.86783,1.154386 4.24104,7.76687 4.24104,11.816853 0,5.088915 1.52001,3.279718 3.43956,-4.093945 2.52521,-9.700202 -0.82533,-17.141119 -9.81535,-21.798 -4.78146,-2.476823 -15.63381,-2.966237 -19.47204,-0.87814 -1.2913,0.702505 -3.91909,1.472167 -5.83953,1.710361 -7.28495,0.903561 -13.3893,6.401734 -14.66729,13.210778 -0.64559,3.439715 0.42823,9.802974 2.4975,14.799637 1.13598,2.743049 1.23282,2.545258 2.01644,-4.118572 0.45273,-3.85 1.26746,-8.0125 1.81049,-9.25 z"
       id="path123"
       inkscape:connector-curvature="0" />
    <path
       style="fill:#dddddd"
       d="M 154,118.06642 C 154,117.47989 154.9,117 156,117 c 1.61631,0 2,-0.66667 2,-3.475 0,-3.32778 -0.1271,-3.44958 -3,-2.875 -1.91111,0.38222 -3,0.19167 -3,-0.525 0,-0.61875 1.35,-1.125 3,-1.125 2.66667,0 3,-0.33333 3,-3 0,-2.66667 -0.33333,-3 -3,-3 -1.65,0 -3,-0.45 -3,-1 0,-0.55 1.35,-1 3,-1 2.53333,0 3,-0.38889 3,-2.5 0,-2.129478 -0.48168,-2.517606 -3.25,-2.618794 -2.90097,-0.106037 -2.71303,-0.256819 1.75,-1.404004 6.36445,-1.635928 10.21748,-1.745527 6.25,-0.17778 -2.08877,0.825378 -2.75,1.761583 -2.75,3.89362 0,2.541288 0.33127,2.806958 3.5,2.806958 3.48148,0 3.5,-0.0238 3.5,-4.5 0,-2.475 0.45,-4.5 1,-4.5 0.55,0 1,2.025 1,4.5 v 4.5 h 4.5 c 2.475,0 4.5,0.45 4.5,1 0,0.55 -1.8,1 -4,1 -3.77778,0 -4,0.16667 -4,3 0,3.54433 1.29108,3.85021 3.4203,0.81033 0.84353,-1.20431 1.81814,-1.90522 2.16579,-1.55757 0.34765,0.34765 -0.317,1.96497 -1.477,3.59404 -2.39625,3.36522 -2.63916,5.22313 -0.90909,6.9532 2.00343,2.00343 3.8,1.36092 3.8,-1.35902 0,-1.40746 0.41051,-2.30531 0.91224,-1.99522 0.50173,0.31009 0.58394,1.79915 0.18268,3.30902 -0.99413,3.74076 -4.29179,4.1199 -6.50148,0.74748 l -1.70233,-2.59808 -3.44556,2.12947 c -4.26976,2.63886 -4.49451,1.49376 -0.38485,-1.96082 2.81144,-2.36331 3.00462,-2.91893 2.37219,-6.82283 -0.67227,-4.14975 -0.77985,-4.25 -4.5607,-4.25 -3.45324,0 -3.87219,0.26778 -3.87219,2.475 0,2.2502 0.29519,2.41985 3.25,1.86776 2.22886,-0.41644 2.9358,-0.28198 2.25,0.42794 -0.55,0.56934 -1.9,1.19537 -3,1.39118 -1.55399,0.27662 -2.1115,1.35753 -2.5,4.84706 -0.44638,4.0094 -0.79493,4.525 -3.25,4.80748 -1.5125,0.17403 -2.75,-0.16347 -2.75,-0.75 z m 29,-10.24979 c 0,-9.742363 0.15893,-10.624928 2,-11.106379 1.1966,-0.312919 2,-1.364016 2,-2.616631 C 187,92.942129 187.49878,92 188.10841,92 c 0.68296,0 0.86756,0.959597 0.48095,2.5 -0.54492,2.171099 -0.29606,2.5 1.89159,2.5 2.51529,0 2.51905,0.01417 2.51905,9.5 v 9.5 h -3.8 c -2.09,0 -4.34,0.54 -5,1.2 -0.93333,0.93333 -1.2,-1.15186 -1.2,-9.38337 z m 8,2.68337 c 0,-3.33333 -0.16667,-3.5 -3.5,-3.5 -3.33333,0 -3.5,0.16667 -3.5,3.5 0,3.33333 0.16667,3.5 3.5,3.5 3.33333,0 3.5,-0.16667 3.5,-3.5 z m 0,-9.06336 c 0,-3.41781 -0.13275,-3.550558 -3.25,-3.249998 -2.85772,0.275536 -3.28782,0.705633 -3.56336,3.563358 -0.30056,3.11725 -0.16781,3.25 3.25,3.25 3.41781,0 3.56336,-0.14555 3.56336,-3.56336 z m 10.24756,15.84734 c 3.25801,-0.4937 3.86816,-2.27715 4.09371,-11.9657 L 205.5,98.5 201.75591,98.189987 c -3.19522,-0.264565 -3.9151,0.06529 -4.91052,2.250003 -0.64153,1.408 -1.58169,2.56001 -2.08924,2.56001 -0.50755,0 -0.77282,-0.33961 -0.58948,-0.75468 0.18333,-0.41508 1.18197,-2.890077 2.21919,-5.500002 2.01874,-5.079698 3.64485,-6.356812 2.85889,-2.245318 -0.44716,2.339195 -0.21312,2.5 3.63867,2.5 L 207,97 v 7.9349 c 0,10.66547 -0.98865,13.10911 -5.22525,12.91527 -3.02163,-0.13825 -3.06238,-0.18202 -0.52719,-0.56619 z m -0.74223,-7.33323 c -0.47346,-0.79791 -1.5076,-2.46325 -2.29809,-3.70075 -0.79049,-1.2375 -0.98726,-2.25 -0.43726,-2.25 1.36609,0 4.44637,4.85094 3.97611,6.26172 -0.25007,0.75022 -0.67414,0.64394 -1.24076,-0.31097 z M 173.49445,95.993869 C 170.82099,93.039731 172.25223,92.57513 175.0037,95.503943 176.29341,96.876774 176.88993,98 176.3293,98 c -0.56063,0 -1.83631,-0.902759 -2.83485,-2.006131 z M 171.5,83.104137 C 167.17749,81.10288 164.33978,78.292576 158.77293,70.5 151.28783,60.022207 149.83429,46.839244 155.36467,39.58854 158.39428,35.616519 164.57708,32 168.33804,32 c 1.32974,0 4.03321,-0.675 6.00772,-1.5 6.04474,-2.525655 15.54251,-1.961465 21.77297,1.293367 15.7163,8.210289 15.47024,26.739403 -0.61015,45.947353 -5.7526,6.871445 -15.86975,9.131574 -24.00858,5.363417 z m 16.05366,-2.587068 c 9.16114,-4.598645 13.70541,-15.738247 10.34851,-25.367846 -1.3232,-3.795756 -2.46683,-4.019877 -3.31281,-0.649223 -0.58128,2.316001 -1.06507,2.5 -6.57323,2.5 -4.92231,0 -6.13001,-0.344264 -7.01613,-2 -0.5887,-1.1 -1.47421,-2 -1.9678,-2 -0.49358,0 -1.18307,0.9 -1.5322,2 -0.53313,1.679738 -1.51303,2 -6.11941,2 -5.27074,0 -5.52812,-0.124751 -6.59976,-3.198874 -0.98275,-2.819109 -1.20567,-2.967507 -1.8777,-1.25 -0.41941,1.071881 -0.79419,5.140596 -0.83284,9.04159 -0.0968,9.763854 2.59097,14.842141 9.8671,18.643237 6.51955,3.405855 9.29193,3.455762 15.61627,0.281116 z M 174.86078,74.08608 c -3.22809,-2.617059 -1.85065,-3.556975 2.00378,-1.367303 3.00707,1.708297 3.26381,1.708297 6.27088,0 1.7245,-0.979673 3.412,-1.503437 3.75,-1.163921 C 187.99613,72.67051 182.83882,76 180,76 c -1.52814,0 -3.84078,-0.861264 -5.13922,-1.91392 z M 161.02027,49.446679 c 1.37274,-3.610585 3.54908,-2.980245 5.36305,1.553321 1.44397,3.608835 1.94564,4 5.13002,4 2.79442,0 3.76678,-0.52069 4.66861,-2.5 0.6265,-1.375 1.91509,-2.5 2.86356,-2.5 0.94846,0 2.4616,1.125 3.36253,2.5 1.28372,1.959196 2.48159,2.5 5.53746,2.5 3.56977,0 3.99704,-0.295868 5.0545,-3.5 2.29725,-6.960727 6.4723,-3.288508 7.9585,7 l 0.72227,5 1.68153,-3.770339 c 2.92135,-6.550245 3.06005,-11.665942 0.45203,-16.671695 -4.78732,-9.188607 -14.25572,-13.497066 -24.5623,-11.176717 -3.16362,0.712235 -7.73367,1.704648 -10.15567,2.205362 -4.83174,0.99889 -10.19477,4.607756 -12.83454,8.636549 -2.35596,3.595652 -2.25631,12.522676 0.20959,18.77684 l 1.97141,5 0.82362,-7.303321 c 0.45298,-4.016827 1.24221,-8.404327 1.75383,-9.75 z"
       id="path121"
       inkscape:connector-curvature="0" />
    <path
       style="fill:#d8d8d8"
       d="m 156.25,117.88478 c 2.26796,-0.86714 2.75,-1.65828 2.75,-4.51343 0,-3.45235 -0.0104,-3.46012 -3.75,-2.79537 -2.57816,0.45829 -3.43751,0.34267 -2.75,-0.37001 0.55,-0.57014 2.125,-1.18722 3.5,-1.37129 2.03674,-0.27266 2.5,-0.89059 2.5,-3.33468 0,-2.64412 -0.41519,-3.07335 -3.5,-3.61836 l -3.5,-0.61836 3.75,-0.13164 c 3.29823,-0.11578 3.75,-0.43282 3.75,-2.63164 0,-2.135504 -0.47384,-2.513037 -3.25,-2.589417 -2.92406,-0.08045 -2.74855,-0.228846 1.75,-1.479662 4.8685,-1.353682 9.23481,-1.244838 4.75,0.118409 C 160.59502,95.052393 160,95.995785 160,98.116631 160,100.82423 160.2492,101 164.0879,101 h 4.0879 L 167.5,97 c -0.44427,-2.629585 -0.30308,-4 0.4121,-4 0.60255,0 1.0879,1.784544 1.0879,4 v 4 l 4.75,0.15019 4.75,0.1502 -4.5,0.5998 c -4.44816,0.5929 -4.49602,0.64013 -4.15454,4.09981 0.19,1.925 0.50443,3.66442 0.69872,3.86538 0.19429,0.20096 1.55456,-0.92404 3.02283,-2.5 2.32876,-2.49956 2.46403,-2.54621 1.05958,-0.36538 -3.53503,5.48915 -3.57207,5.63283 -2.02233,7.84539 1.95791,2.7953 4.14179,2.75088 4.69001,-0.0954 0.36742,-1.90764 0.45409,-1.82678 0.56955,0.53138 0.20098,4.10485 -2.60782,4.71756 -5.61257,1.22433 -2.4172,-2.81017 -2.45364,-2.81737 -5.41165,-1.07003 -1.63794,0.96755 -3.20307,1.53419 -3.47807,1.25919 -0.275,-0.275 0.92283,-1.33135 2.66183,-2.34744 2.96686,-1.73351 3.12577,-2.11462 2.577,-6.18036 C 167.82539,102.42546 167.46945,102 163.44098,102 160.25767,102 160,102.23276 160,105.10841 c 0,2.84317 0.22047,3.05307 2.58379,2.45992 1.67543,-0.42051 2.3578,-0.28284 1.94098,0.39159 -0.35354,0.57204 -1.49159,1.04008 -2.529,1.04008 -1.54075,0 -1.94201,0.86993 -2.19098,4.75 -0.28787,4.48629 -0.47134,4.76211 -3.30479,4.96811 l -3,0.21812 z M 183.07895,107.75 C 183.0047,97.640351 183.11914,97 185,97 c 1.31306,0 2,-0.666667 2,-1.940983 0,-1.067541 0.46804,-2.230246 1.04008,-2.583789 0.67443,-0.416821 0.8121,0.265552 0.39159,1.940983 C 187.85849,96.699965 188.08608,97 190.39159,97 H 193 v 9.5 9.5 h -4.41667 c -2.59766,0 -4.62439,0.51481 -4.92105,1.25 -0.27741,0.6875 -0.53991,-3.5875 -0.58333,-9.5 z M 191,111 c 0,-3.90476 -0.0833,-4 -3.5,-4 -3.3,0 -3.5,0.19048 -3.5,3.33333 0,4.06392 0.53817,4.66667 4.16667,4.66667 2.63889,0 2.83333,-0.27451 2.83333,-4 z m 0,-9.56336 c 0,-3.41781 -0.13275,-3.550558 -3.25,-3.249998 -2.85772,0.275536 -3.28782,0.705633 -3.56336,3.563358 -0.30056,3.11725 -0.16781,3.25 3.25,3.25 3.41781,0 3.56336,-0.14555 3.56336,-3.56336 z m 10.48419,15.72912 c 2.52342,-0.57494 3.09353,-1.29644 3.69237,-4.67284 0.3895,-2.19611 0.73411,-6.35542 0.76581,-9.24292 L 206,98 h -4.02144 c -3.31911,0 -4.22037,0.436613 -5.16051,2.5 -2.18799,4.80211 -2.54111,2.45431 -0.43852,-2.915631 1.70296,-4.349317 2.18277,-4.940004 2.43689,-3 C 199.09034,96.675513 199.66124,97 203.06642,97 H 207 l -0.0997,7.75 c -0.14363,11.16668 -0.73462,12.71283 -4.93962,12.92285 -3.37909,0.16877 -3.39033,0.15681 -0.47651,-0.50709 z m -2.24338,-9.70595 c -1.24256,-1.9029 -1.91756,-3.44567 -1.5,-3.42839 1.13437,0.047 4.45264,4.89438 4.08129,5.96208 -0.17715,0.50937 -1.33874,-0.6308 -2.58129,-2.53369 z M 173.49445,95.993869 C 170.82099,93.039731 172.25223,92.57513 175.0037,95.503943 176.29341,96.876774 176.88993,98 176.3293,98 c -0.56063,0 -1.83631,-0.902759 -2.83485,-2.006131 z m 0.29691,-11.982277 c -4.58343,-1.381647 -8.42631,-4.746369 -13.44601,-11.772958 -8.25002,-11.548408 -10.32091,-21.526218 -6.2242,-29.988893 2.26266,-4.67404 7.40056,-8.719669 12.37885,-9.747229 1.65,-0.340573 5.41247,-1.325563 8.36104,-2.188866 6.27612,-1.837566 16.18797,-1.378003 20.68415,0.959022 4.47458,2.325803 10.2474,8.568829 11.53718,12.476926 1.90424,5.769905 0.6076,12.613063 -4.18578,22.090775 -8.04771,15.912355 -17.3443,21.716481 -29.10523,18.171223 z m 16.45218,-4.621556 C 197.83962,74.039462 200.76109,64.61004 197.84171,54.86602 196.45154,50.226036 195.38936,49.950767 194.5,54 c -0.64114,2.919097 -0.81771,3 -6.54752,3 -5.40722,0 -6.00633,-0.224691 -7.32873,-2.748569 l -1.44012,-2.748568 -1.25233,2.748568 C 176.79818,56.738372 176.18227,57 171.46081,57 c -4.88941,0 -5.29884,-0.194762 -6.49863,-3.091316 -2.03951,-4.923795 -3.21137,-1.166634 -2.80856,9.004613 0.30385,7.67262 0.67832,9.181368 3.0501,12.289162 6.196,8.118755 16.91412,9.911218 25.03982,4.187577 z M 174.86078,74.08608 c -3.22809,-2.617059 -1.85065,-3.556975 2.00378,-1.367303 3.00707,1.708297 3.26381,1.708297 6.27088,0 1.7245,-0.979673 3.412,-1.503437 3.75,-1.163921 C 187.99613,72.67051 182.83882,76 180,76 c -1.52814,0 -3.84078,-0.861264 -5.13922,-1.91392 z M 159.74501,59.740662 C 160.224,47.540399 162.87437,44.080988 166.25,51.25 c 1.52771,3.244489 2.22099,3.75 5.14286,3.75 2.49878,0 3.80316,-0.650215 5.01518,-2.5 0.90094,-1.375 2.31234,-2.5 3.13645,-2.5 0.82411,0 2.01097,1.125 2.63746,2.5 0.95566,2.097429 1.82537,2.5 5.40101,2.5 3.99663,0 4.33497,-0.22129 5.43516,-3.5549 2.21692,-6.717325 6.56301,-2.338798 7.89886,7.9578 l 0.66128,5.0971 2.21087,-5.787513 c 3.73503,-9.777387 2.54626,-15.478699 -4.56548,-21.89594 -6.28835,-5.674257 -14.71383,-7.263236 -23.4387,-4.420357 -2.35672,0.767904 -5.98207,1.6901 -8.05633,2.049324 C 160.48212,35.700475 154,43.720065 154,51.430369 c 0,3.620969 3.62816,14.57673 4.82185,14.560293 0.37298,-0.0051 0.7884,-2.817637 0.92316,-6.25 z"
       id="path119"
       inkscape:connector-curvature="0" />
    <path
       style="fill:#d7d7d7"
       d="m 156,118.11083 c 2.02697,-0.5593 2.56012,-1.41535 2.81776,-4.52433 l 0.31776,-3.8345 -3.81776,0.60453 c -3.67871,0.58251 -2.73337,-0.26957 1.93224,-1.74162 1.15009,-0.36286 1.75,-1.57062 1.75,-3.52316 0,-2.69678 -0.34615,-3.00723 -3.75,-3.36328 l -3.75,-0.39226 3.75,-0.16811 c 3.4093,-0.15283 3.75,-0.42493 3.75,-2.994907 0,-2.587575 -0.27505,-2.799981 -3.25,-2.509821 -1.7875,0.174343 -0.775,-0.315045 2.25,-1.087529 5.32977,-1.361043 8.27659,-1.433179 4.07536,-0.09976 C 160.59641,94.945483 160,95.977537 160,98.067388 160,100.83724 160.2291,101 164.12781,101 h 4.12781 l -0.63963,-4 c -0.39218,-2.452582 -0.2482,-4 0.37219,-4 0.5565,0 1.01182,1.775344 1.01182,3.945209 v 3.945211 l 4.75,0.37454 4.75,0.37454 -4.79531,0.18025 -4.79532,0.18025 0.67798,3.75 c 0.91886,5.0824 1.20898,5.20587 4.11203,1.75 1.38606,-1.65 2.17878,-2.325 1.7616,-1.5 -0.41718,0.825 -1.61069,2.44936 -2.65224,3.60968 -1.61374,1.79778 -1.71587,2.50005 -0.69072,4.75 0.66166,1.45218 1.58078,2.64032 2.0425,2.64032 0.46171,0 1.17698,0.0266 1.58948,0.059 0.4125,0.0325 1.04264,-0.98004 1.40032,-2.25 0.61685,-2.19018 0.65545,-2.19952 0.75,-0.18146 0.0548,1.17015 -0.63276,2.73542 -1.52797,3.47838 -1.4129,1.17261 -1.97364,0.93648 -4.25,-1.78965 L 169.5,113.1758 l -2.36078,1.9121 c -1.29844,1.05166 -2.8654,1.9121 -3.48214,1.9121 -0.61674,0 0.48676,-1.09274 2.45223,-2.42831 l 3.57358,-2.42831 -1.03893,-5.07169 C 167.61476,102.04743 167.56948,102 163.80252,102 160.26533,102 160,102.20422 160,104.92668 c 0,1.94642 0.58614,3.07985 1.75,3.38399 1.66667,0.43555 1.66667,0.46285 0,0.57333 -1.38349,0.0917 -1.75,1.03605 -1.75,4.50901 0,4.47527 -1.10103,5.73023 -4.83179,5.50731 -0.93632,-0.0559 -0.57139,-0.40232 0.83179,-0.78949 z M 183.07895,107.75 C 183.0047,97.640351 183.11914,97 185,97 c 1.33333,0 2,-0.666667 2,-2 0,-1.1 0.40787,-2 0.90638,-2 0.49851,0 0.67103,0.9 0.38337,2 -0.42461,1.623692 -0.0307,2 2.09362,2 H 193 v 9.5 9.5 h -4.41667 c -2.59766,0 -4.62439,0.51481 -4.92105,1.25 -0.27741,0.6875 -0.53991,-3.5875 -0.58333,-9.5 z m 8.72855,3 c -0.29848,-4.12537 -0.41747,-4.2591 -4.0575,-4.56037 L 184,105.87927 V 110.43963 115 h 4.0575 4.0575 z M 192,101.5 c 0,-3.416667 -0.0952,-3.5 -4,-3.5 -3.90476,0 -4,0.08333 -4,3.5 0,3.41667 0.0952,3.5 4,3.5 3.90476,0 4,-0.0833 4,-3.5 z m 9.48419,15.66576 c 2.52342,-0.57494 3.09353,-1.29644 3.69237,-4.67284 0.3895,-2.19611 0.73411,-6.35542 0.76581,-9.24292 L 206,98 h -4.5 c -2.475,0 -4.5,0.363992 -4.5,0.80887 0,0.444879 -0.67286,1.68238 -1.49525,2.75 -1.04248,1.35334 -0.92654,0.5785 0.38288,-2.55887 1.03298,-2.475 2.15791,-5.175 2.49985,-6 0.34194,-0.825 0.45705,-0.2625 0.25579,1.25 -0.3507,2.635574 -0.18445,2.75 3.9954,2.75 H 207 l -0.11831,7.25 c -0.18999,11.64184 -0.7641,13.21903 -4.88606,13.42285 -3.38539,0.16739 -3.40152,0.1514 -0.51144,-0.50709 z M 200.27814,108.75 c -1.95452,-2.5272 -2.62139,-4.08017 -1.43803,-3.34881 1.18414,0.73183 3.55329,4.59881 2.81752,4.59881 -0.22701,0 -0.84778,-0.5625 -1.37949,-1.25 z m -26.38847,-13 c -1.17436,-2.237937 -1.16919,-2.239787 0.96482,-0.345012 C 177.23803,97.521322 177.45582,98 176.03518,98 c -0.53065,0 -1.49612,-1.0125 -2.14551,-2.25 z m -0.57368,-12.076078 c -4.35553,-1.605854 -7.11401,-4.093015 -12.71585,-11.465163 -7.69905,-10.132106 -10.4335,-20.885144 -7.2491,-28.506501 1.86817,-4.47114 7.78423,-9.395518 12.88238,-10.722958 2.34662,-0.611004 6.29158,-1.758529 8.76658,-2.550055 17.00291,-5.437672 34.7772,6.588005 32.65218,22.091718 -0.5902,4.306008 -5.03296,15.455063 -6.55315,16.445052 -0.45098,0.293692 -1.56186,1.982084 -2.46863,3.751983 -4.86023,9.486593 -16.10264,14.35224 -25.31441,10.955924 z m 13.45248,-2.22165 C 196.84628,77.241494 201.26347,66.690516 197.94742,54.75 196.69085,50.225295 195.39117,49.942545 194.5,54 c -0.63897,2.909227 -0.83294,3 -6.41048,3 -5.11154,0 -5.90045,-0.278193 -7.08952,-2.5 -1.64868,-3.080579 -2.25219,-3.123528 -3.51287,-0.25 -0.81024,1.846799 -1.91114,2.303583 -6.1434,2.549009 -5.14582,0.298403 -5.15875,0.291513 -6.37678,-3.399154 -1.027,-3.111831 -1.37268,-3.42624 -2.18032,-1.983071 -1.53003,2.734013 -1.13097,18.019124 0.55507,21.260489 4.43265,8.521684 14.76782,12.392941 23.42677,8.774999 z M 174.86078,74.08608 c -1.29843,-1.052657 -2.02604,-2.249898 -1.61691,-2.660536 0.40913,-0.410639 1.56956,6.25e-4 2.57874,0.91392 2.34674,2.123769 6.00804,2.123769 8.35478,0 1.00918,-0.913295 2.16961,-1.324559 2.57874,-0.91392 C 187.96829,72.642173 183.00903,76 180,76 c -1.52814,0 -3.84078,-0.861264 -5.13922,-1.91392 z M 159.81291,60.491575 C 159.85264,53.604553 161.48714,47 163.15181,47 c 0.54819,0 1.7508,1.795423 2.67245,3.989829 1.49442,3.55811 2.05039,3.99093 5.13818,4 2.56345,0.0075 4.05637,-0.703832 5.75,-2.739829 L 179,49.5 l 2.28756,2.75 c 1.80184,2.166081 3.14269,2.75 6.31479,2.75 3.61797,0 4.19684,-0.355682 5.69626,-3.5 0.91797,-1.925 2.11476,-3.5 2.65953,-3.5 1.58691,0 3.97476,5.468306 4.89212,11.20323 l 0.84727,5.29677 1.74279,-3.936998 c 4.73162,-10.688835 2.16003,-20.530998 -6.79614,-26.010719 -6.0489,-3.700942 -15.12813,-4.630396 -21.05223,-2.155148 C 173.48204,33.278711 170.66778,34 169.33804,34 c -3.65953,0 -9.89513,3.569246 -12.41289,7.105123 -3.04423,4.27522 -3.62137,11.464756 -1.45429,18.116225 C 156.96337,63.802342 158.62383,67 159.51013,67 c 0.14588,0 0.28213,-2.928791 0.30278,-6.508425 z"
       id="path117"
       inkscape:connector-curvature="0" />
  </g>
</svg>
