<?xml version="1.0" encoding="UTF-8" standalone="no"?>
<!-- Created with Inkscape (http://www.inkscape.org/) -->

<svg
   xmlns:dc="http://purl.org/dc/elements/1.1/"
   xmlns:cc="http://creativecommons.org/ns#"
   xmlns:rdf="http://www.w3.org/1999/02/22-rdf-syntax-ns#"
   xmlns:svg="http://www.w3.org/2000/svg"
   xmlns="http://www.w3.org/2000/svg"
   xmlns:sodipodi="http://sodipodi.sourceforge.net/DTD/sodipodi-0.dtd"
   xmlns:inkscape="http://www.inkscape.org/namespaces/inkscape"
   version="1.1"
   id="svg26"
   width="360"
   height="144"
   viewBox="0 0 360 144"
   sodipodi:docname="grey-friend.svg"
   inkscape:version="0.92.3 (2405546, 2018-03-11)">
  <metadata
     id="metadata32">
    <rdf:RDF>
      <cc:Work
         rdf:about="">
        <dc:format>image/svg+xml</dc:format>
        <dc:type
           rdf:resource="http://purl.org/dc/dcmitype/StillImage" />
        <dc:title></dc:title>
      </cc:Work>
    </rdf:RDF>
  </metadata>
  <defs
     id="defs30" />
  <sodipodi:namedview
     pagecolor="#ffffff"
     bordercolor="#666666"
     borderopacity="1"
     objecttolerance="10"
     gridtolerance="10"
     guidetolerance="10"
     inkscape:pageopacity="0"
     inkscape:pageshadow="2"
     inkscape:window-width="1366"
     inkscape:window-height="715"
     id="namedview28"
     showgrid="false"
     inkscape:zoom="3.3638889"
     inkscape:cx="180"
     inkscape:cy="72"
     inkscape:window-x="-8"
     inkscape:window-y="-8"
     inkscape:window-maximized="1"
     inkscape:current-layer="svg26" />
  <g
     id="g47"
     transform="translate(-4.8109003,-8.703551)">
    <path
       style="fill:#f9f9f9"
       d="m 166.90504,122.73269 v -5.94774 l -5.25,-0.30226 c -6.61072,-0.3806 -6.4451,-2.20164 0.23688,-2.60452 4.53497,-0.27343 5.01312,-0.53024 5.01312,-2.6925 0,-2.08927 -0.52537,-2.42896 -4.17228,-2.69774 -5.9664,-0.43973 -6.31307,-2.8075 -0.41105,-2.8075 4.22222,0 4.58333,-0.19697 4.58333,-2.5 0,-1.55556 0.56667,-2.5 1.5,-2.5 0.93333,0 1.5,0.94444 1.5,2.5 0,2.29629 0.36667,2.5 4.5,2.5 h 4.5 v 4 c 0,3.64378 0.23217,4 2.60699,4 1.96639,0 2.45784,0.38868 2,1.58179 -0.33385,0.86998 -0.60699,2.86284 -0.60699,4.42857 0,3.65736 -2.36412,5.98964 -6.07143,5.98964 -3.82148,0 -3.97554,-2.74669 -0.17857,-3.18358 2.15997,-0.24853 2.81789,-0.90645 3.06642,-3.06642 0.30834,-2.67978 0.18705,-2.75 -4.75,-2.75 h -5.06642 v 6 c 0,4.66667 -0.33333,6 -1.5,6 -1.1652,0 -1.5,-1.32753 -1.5,-5.94774 z m 9,-11.55226 c 0,-2.11111 -0.46667,-2.5 -3,-2.5 -2.53333,0 -3,0.38889 -3,2.5 0,2.11111 0.46667,2.5 3,2.5 2.53333,0 3,-0.38889 3,-2.5 z m 16.63948,16.80615 c -1.36219,-1.3622 -0.49033,-2.38202 3.35011,-3.91866 l 3.98958,-1.59632 -2.23958,-2.75472 -2.23959,-2.75472 -1.71766,3.10914 c -3.03392,5.49169 -5.16452,7.63042 -6.66593,6.69135 -1.11482,-0.69727 -0.85562,-1.55758 1.3343,-4.42871 2.32069,-3.04258 5.54929,-11.07872 5.54929,-13.81244 0,-0.46259 -1.575,-0.84107 -3.5,-0.84107 -2.44444,0 -3.5,-0.45238 -3.5,-1.5 0,-1.08334 1.11111,-1.5 4,-1.5 3.63441,0 4,-0.23611 4,-2.58334 0,-3.132712 2.34847,-2.78983 2.81955,0.41167 0.29508,2.00538 0.88852,2.17167 7.75,2.17167 5.93818,0 7.43045,0.30125 7.43045,1.5 0,1.20833 -1.55556,1.5 -8,1.5 -7.33333,0 -8,0.16666 -8,2 0,1.79698 0.66667,2 6.56739,2 6.33707,0 6.54453,0.0789 5.91561,2.25 -0.35847,1.2375 -1.51379,3.46928 -2.56738,4.95951 -1.05359,1.49023 -1.91562,2.91551 -1.91562,3.16729 0,0.25178 1.99222,1.21862 4.42716,2.14853 2.81119,1.0736 4.24486,2.16579 3.92775,2.99218 -0.53019,1.38166 -3.38284,0.86917 -8.55484,-1.53688 -2.56484,-1.19319 -5.19349,-0.5608 -10.91059,2.62481 -0.33579,0.1871 -0.89829,0.0524 -1.25,-0.29929 z m 12.14691,-11.11096 c 1.42266,-2.14264 1.35746,-2.19519 -2.72343,-2.19519 -3.05931,0 -3.98925,0.33535 -3.46628,1.25 2.47594,4.33027 3.80713,4.53355 6.18971,0.94519 z M 178.44861,105.1923 c -2.50568,-2.04782 -2.70074,-2.51433 -1.2794,-3.05975 2.0096,-0.77116 6.57874,2.51914 5.98244,4.30803 -0.57398,1.72196 -1.30665,1.52749 -4.70304,-1.24828 z m -8.04357,-15.90901 -12,-3.245322 -0.87116,-5.42877 c -1.56427,-9.747933 -0.38198,-23.92877 1.99499,-23.92877 0.86241,0 1.37617,-1.119976 1.37617,-3 0,-1.65 0.25737,-3 0.57193,-3 0.31456,0 2.56456,1.16776 5,2.595022 l 4.42807,2.595022 v -3.437738 c 0,-7.603601 7.24223,-15.752306 14,-15.752306 6.75777,0 14,8.148705 14,15.752306 v 3.437738 l 4.42807,-2.595022 c 2.43544,-1.427262 4.68544,-2.595022 5,-2.595022 0.31456,0 0.57193,1.35 0.57193,3 0,1.880024 0.51376,3 1.37617,3 2.37676,0 3.55951,14.183357 1.99499,23.923626 l -0.87116,5.423625 -12.5,3.319554 c -6.875,1.825755 -13.4,3.288465 -14.5,3.250467 -1.1,-0.038 -7.4,-1.529483 -14,-3.31441 z m 11.06975,-22.366441 c -1.14824,-1.148248 -20.56975,-5.874083 -20.56975,-5.005238 0,0.521528 1.0125,1.768105 2.25,2.770171 1.80894,1.464792 2.25,2.83671 2.25,6.998646 0,4.161936 -0.44106,5.533854 -2.25,6.998646 -4.2251,3.421281 -3.99936,3.561353 13.25,8.221417 l 5,1.350793 0.28517,-10.416929 c 0.15684,-5.729311 0.0599,-10.642189 -0.21542,-10.917506 z m 21.68025,17.306542 c 6.27291,-1.744232 6.92238,-2.773046 3.5,-5.544317 -1.80894,-1.464792 -2.25,-2.83671 -2.25,-6.998646 0,-4.161936 0.44106,-5.533854 2.25,-6.998646 3.66001,-2.963694 2.70163,-3.907792 -2.5,-2.462738 -2.6125,0.725774 -7.3375,2.039063 -10.5,2.918421 l -5.75,1.598833 V 77.598849 88.4614 l 4.75,-1.319588 c 2.6125,-0.725774 7.3375,-2.039063 10.5,-2.918421 z m -41.25,-12.542963 c 0,-1.65 -0.45,-3 -1,-3 -0.55,0 -1,1.35 -1,3 0,1.65 0.45,3 1,3 0.55,0 1,-1.35 1,-3 z m 48,0 c 0,-1.65 -0.45,-3 -1,-3 -0.55,0 -1,1.35 -1,3 0,1.65 0.45,3 1,3 0.55,0 1,-1.35 1,-3 z m -19.23685,-11.27924 c 4.36771,-2.296887 5.18565,-3.146582 4.80762,-4.99427 -0.25055,-1.22457 -0.72177,-3.886864 -1.04716,-5.916209 -0.71919,-4.485322 -5.39432,-8.810281 -9.52361,-8.810281 -4.12929,0 -8.80442,4.324959 -9.52361,8.810281 -0.32539,2.029345 -0.79193,4.672995 -1.03676,5.874777 -0.36288,1.781279 0.52553,2.729657 4.80762,5.132163 2.88901,1.620908 5.47775,2.885053 5.75275,2.809212 0.275,-0.07584 2.86842,-1.383394 5.76315,-2.905673 z m -24.26315,-2.72076 c -0.33992,-0.55 -1.06803,-1 -1.61803,-1 -0.55,0 -0.72189,0.45 -0.38197,1 0.33992,0.55 1.06803,1 1.61803,1 0.55,0 0.72189,-0.45 0.38197,-1 z m 39,0 c 0.33992,-0.55 0.16803,-1 -0.38197,-1 -0.55,0 -1.27811,0.45 -1.61803,1 -0.33992,0.55 -0.16803,1 0.38197,1 0.55,0 1.27811,-0.45 1.61803,-1 z"
       id="path61"
       inkscape:connector-curvature="0" />
    <path
       style="fill:#f3f3f3"
       d="m 167.57171,128.01376 c -0.36667,-0.36666 -0.66667,-3.06666 -0.66667,-6 v -5.33333 h -5 c -3.77778,0 -5,-0.36667 -5,-1.5 0,-1.13333 1.22222,-1.5 5,-1.5 4.66667,0 5,-0.16667 5,-2.5 0,-2.25 -0.4,-2.5 -4,-2.5 -2.88889,0 -4,-0.41667 -4,-1.5 0,-1.08334 1.11111,-1.5 4,-1.5 3.6,0 4,-0.25 4,-2.5 0,-1.55556 0.56667,-2.5 1.5,-2.5 0.93333,0 1.5,0.94444 1.5,2.5 0,2.29629 0.36667,2.5 4.5,2.5 h 4.5 v 4 c 0,3.33333 0.33333,4 2,4 1.69892,0 2,0.66667 2,4.42857 0,5.18735 -2.07057,7.82108 -5.7986,7.37572 -3.80139,-0.45412 -4.04001,-2.80429 -0.28473,-2.80429 2.75926,0 3.08333,-0.31532 3.08333,-3 0,-2.93333 -0.11111,-3 -5,-3 h -5 v 6 c 0,5.54466 -0.64583,7.02084 -2.33333,5.33333 z m 8.33333,-16.83333 c 0,-2.11111 -0.46667,-2.5 -3,-2.5 -2.53333,0 -3,0.38889 -3,2.5 0,2.11111 0.46667,2.5 3,2.5 2.53333,0 3,-0.38889 3,-2.5 z m 16,15.65187 c 0,-0.46646 1.74913,-1.63687 3.88696,-2.6009 l 3.88697,-1.75277 -2.13697,-3.27692 -2.13696,-3.27691 -2.17553,4.19356 c -2.53372,4.88403 -4.77808,7.01779 -6.35587,6.04266 -0.75396,-0.46597 -0.42801,-1.42712 0.99913,-2.94624 2.15087,-2.2895 6.03227,-11.32665 6.03227,-14.04508 0,-1.03536 -1.06676,-1.48927 -3.5,-1.48927 -4.69195,0 -4.4867,-1.79761 0.25,-2.18964 3.01222,-0.2493 3.81287,-0.75303 4.06955,-2.56036 0.17575,-1.2375 1.01204,-2.25 1.85841,-2.25 1.1421,0 1.37708,0.64456 0.9114,2.5 l -0.62746,2.5 h 8.01905 c 4.67937,0 8.01905,0.41647 8.01905,1 0,0.5821 -3.29446,1 -7.88337,1 -7.04236,0 -7.93916,0.21336 -8.40638,2 -0.48573,1.85743 -0.0307,2 6.38337,2 3.79851,0 6.90638,0.24735 6.90638,0.54966 0,1.00121 -3.21714,6.92285 -4.65346,8.5654 -1.24725,1.42633 -1.08708,1.73986 1.37059,2.68296 1.53058,0.58733 3.84067,1.36776 5.13353,1.73427 1.71724,0.48682 2.05265,0.9644 1.24471,1.77234 -0.80793,0.80793 -2.54359,0.61728 -6.44111,-0.70753 -4.94982,-1.6825 -5.55976,-1.69733 -8.44505,-0.20529 -3.39076,1.75343 -6.20921,2.09844 -6.20921,0.76006 z m 12.4433,-9.37438 c 2.29475,-3.27622 1.97053,-3.77749 -2.4433,-3.77749 -4.34826,0 -5.02713,1.20756 -2.34501,4.17126 2.14214,2.36704 2.8981,2.30487 4.78831,-0.39377 z m -26.2148,-12.73846 c -1.40887,-1.17501 -1.86687,-2.1445 -1.20602,-2.55293 1.21851,-0.75308 5.97752,2.06287 5.97752,3.53695 0,1.55143 -2.30017,1.07706 -4.7715,-0.98402 z m -3.7285,-14.531119 c -4.4,-1.237033 -9.86946,-2.763128 -12.15435,-3.39132 -4.06857,-1.118585 -4.16744,-1.250309 -4.78851,-6.379381 -1.27122,-10.498462 -0.17137,-23.737212 1.97205,-23.737212 0.75394,0 1.48168,-1.305887 1.65745,-2.974187 l 0.31336,-2.974187 11.75,6.448963 11.75,6.448962 11.75,-6.448962 11.75,-6.448963 0.31336,2.974187 c 0.17577,1.6683 0.90351,2.974187 1.65745,2.974187 3.58628,0 3.2831,28.33911 -0.31479,29.424423 -8.36223,2.522486 -24.54206,6.550862 -25.9227,6.45411 -0.95332,-0.06681 -5.33332,-1.133586 -9.73332,-2.37062 z m 6.7855,-23.515888 c -0.43202,-0.373437 -5.173,-1.837341 -10.5355,-3.25312 -9.9374,-2.623619 -12.109,-2.203224 -7.7774,1.50561 3.89542,3.335362 3.85018,9.979399 -0.093,13.653003 -1.15289,1.07408 -1.90761,2.51854 -1.67715,3.20991 0.23045,0.69137 4.89167,2.451196 10.35826,3.910723 l 9.93926,2.653686 0.2855,-10.500418 c 0.15703,-5.77523 -0.068,-10.805957 -0.5,-11.179394 z m 27.51442,15.108218 c 0.22914,-0.687419 -0.52666,-2.128645 -1.67955,-3.202725 -3.94315,-3.673604 -3.98839,-10.317641 -0.093,-13.653003 4.37824,-3.748768 2.11059,-4.110413 -8.2774,-1.320083 l -10.25,2.753263 -0.28203,11.084178 -0.28203,11.084178 10.22368,-2.747978 c 5.62302,-1.511388 10.41116,-3.310412 10.6403,-3.99783 z M 161.90504,71.680428 c 0,-1.65 -0.45,-3 -1,-3 -0.55,0 -1,1.35 -1,3 0,1.65 0.45,3 1,3 0.55,0 1,-1.35 1,-3 z m 48,0 c 0,-1.65 -0.45,-3 -1,-3 -0.55,0 -1,1.35 -1,3 0,1.65 0.45,3 1,3 0.55,0 1,-1.35 1,-3 z M 167.56663,58.062132 c -1.56112,-0.846022 -3.08895,-1.287672 -3.39518,-0.981446 -0.30623,0.306227 0.52106,0.98792 1.83841,1.514873 3.74144,1.496615 4.69795,1.168872 1.55677,-0.533427 z m 37.78841,-0.494099 c 1.52746,-1.42714 -0.66379,-0.989178 -3.45,0.689546 l -2.5,1.506279 2.5,-0.654109 c 1.375,-0.359761 2.9275,-1.053533 3.45,-1.541716 z m -33.43043,-2.36403 c -0.80479,-0.969709 -0.96596,-2.881393 -0.48363,-5.73632 0.82735,-4.897024 6.35594,-11.220047 10.78156,-12.330805 4.0955,-1.027908 7.67746,0.303218 11.73532,4.361077 4.12622,4.126216 6.11585,11.06938 3.92761,13.706048 -1.83675,2.213159 -2.98043,0.800046 -2.98043,-3.682592 0,-5.306705 -5.10496,-10.840983 -10,-10.840983 -4.89504,0 -10,5.534278 -10,10.840983 0,4.482638 -1.14368,5.895751 -2.98043,3.682592 z"
       id="path59"
       inkscape:connector-curvature="0" />
    <path
       style="fill:#ebebeb"
       d="m 166.90504,121.68043 v -6 h -5 c -2.75,0 -5,-0.45 -5,-1 0,-0.55 2.25,-1 5,-1 4.88889,0 5,-0.0667 5,-3 0,-2.83334 -0.22222,-3 -4,-3 -2.2,0 -4,-0.45 -4,-1 0,-0.55 1.8,-1 4,-1 3.6,0 4,-0.25 4,-2.5 0,-1.55556 0.56667,-2.5 1.5,-2.5 0.93333,0 1.5,0.94444 1.5,2.5 0,2.29629 0.36667,2.5 4.5,2.5 h 4.5 v 4 c 0,3.33333 0.33333,4 2,4 1.62607,0 2,0.66667 2,3.56574 0,5.42449 -1.49638,7.43426 -5.53518,7.43426 -1.90565,0 -3.46482,-0.45 -3.46482,-1 0,-0.55 1.35,-1 3,-1 1.72605,0 3.0058,-0.53081 3.01365,-1.25 0.008,-0.6875 0.285,-2.2625 0.61664,-3.5 0.57291,-2.13784 0.32299,-2.25 -5.01366,-2.25 h -5.61663 v 6 c 0,4.66667 -0.33333,6 -1.5,6 -1.16667,0 -1.5,-1.33333 -1.5,-6 z m 9.81642,-10.75 c -0.26366,-2.29146 -0.85834,-2.80225 -3.56642,-3.06336 -3.02758,-0.29191 -3.25,-0.10371 -3.25,2.75 0,2.84518 0.25401,3.06336 3.56642,3.06336 3.30069,0 3.54285,-0.20491 3.25,-2.75 z m 15.18358,15.94245 c 0,-0.44416 1.78666,-1.59582 3.97034,-2.55927 l 3.97035,-1.75171 -2.22035,-3.39469 -2.22034,-3.3947 -2.17553,4.26971 c -2.51706,4.94001 -4.76368,7.10283 -6.35587,6.1188 -0.75816,-0.46856 -0.46982,-1.38313 0.89413,-2.83609 2.55725,-2.72412 6.08661,-10.45456 6.11531,-13.3945 0.0186,-1.90895 -0.50857,-2.25 -3.47804,-2.25 -1.925,0 -3.5,-0.45 -3.5,-1 0,-0.55 1.8,-1 4,-1 3.6,0 4,-0.25 4,-2.5 0,-1.44237 0.57591,-2.5 1.36133,-2.5 0.91286,0 1.20389,0.82359 0.88342,2.5 l -0.4779,2.5 h 8.11657 c 4.74439,0 8.11658,0.41547 8.11658,1 0,0.5822 -3.29767,1 -7.89301,1 -7.55102,0 -9.10699,0.61196 -9.10699,3.58179 0,0.23001 2.925,0.41821 6.5,0.41821 7.56272,0 8.16714,1.08231 4.016,7.19127 l -2.484,3.65553 4.484,1.71246 c 2.4662,0.94185 4.484,2.10132 4.484,2.5766 0,1.47737 -3.36357,0.95313 -7.25026,-1.13001 -3.7151,-1.99117 -3.72552,-1.99117 -6.9852,-0.004 -3.33728,2.03503 -6.76454,2.63811 -6.76454,1.1906 z m 12.38183,-9.26168 c 0.99717,-1.68808 1.59103,-3.29124 1.31969,-3.56259 -0.27135,-0.27134 -2.34836,-0.35268 -4.61559,-0.18076 l -4.12224,0.31258 2.26815,3.23272 c 1.24749,1.778 2.50864,3.2405 2.80255,3.25 0.29392,0.01 1.35026,-1.36388 2.34744,-3.05195 z m -25.52105,-12.84469 c -1.29843,-1.05266 -2.06232,-2.21362 -1.69754,-2.57991 0.78747,-0.79073 5.83676,2.33121 5.83676,3.60884 0,1.42515 -1.60396,1.02644 -4.13922,-1.02893 z m 0.13922,-13.575937 c -2.475,-0.742803 -8.15301,-2.319706 -12.61781,-3.504229 l -8.11781,-2.153679 -0.70384,-6.176119 c -0.85348,-7.489202 -0.85347,-7.500436 0.0205,-15.978942 0.51316,-4.978141 1.05039,-6.668848 2.00291,-6.303329 0.88108,0.338098 1.40093,-0.59959 1.60885,-2.901987 l 0.30719,-3.401482 11.75,6.53589 11.75,6.535891 11.75,-6.535891 11.75,-6.53589 0.30719,3.401482 c 0.20792,2.302397 0.72777,3.240085 1.60885,2.901987 0.95252,-0.365519 1.48975,1.325188 2.00291,6.303329 0.38568,3.741553 0.70644,7.477824 0.7128,8.302824 0.0202,2.623576 -1.39589,14 -1.74267,14 -0.18323,0 -6.14623,1.575 -13.25111,3.5 -14.59345,3.953958 -13.16215,3.803621 -19.13796,2.010145 z m 3,-13.775511 V 66.149695 l -9.25,-2.365844 c -5.0875,-1.301215 -9.8125,-2.579945 -10.5,-2.841623 -1.98705,-0.756314 -1.45081,1.895543 0.88636,4.383352 1.46131,1.555485 2.13637,3.563531 2.13637,6.354848 0,2.791317 -0.67506,4.799363 -2.13637,6.354848 -3.78869,4.032884 -2.85693,4.990689 7.61364,7.826391 5.3625,1.452304 10.0875,2.68065 10.5,2.729657 0.4125,0.04901 0.75,-4.980311 0.75,-11.176262 z m 17.75,8.193402 c 9.96003,-2.568907 10.88741,-3.556196 7.11364,-7.573188 -1.46131,-1.555485 -2.13637,-3.563531 -2.13637,-6.354848 0,-2.791317 0.67506,-4.799363 2.13637,-6.354848 2.33717,-2.487809 2.87341,-5.139666 0.88636,-4.383352 -0.6875,0.261678 -5.4125,1.540408 -10.5,2.841623 l -9.25,2.365844 V 77.52205 c 0,8.671262 0.29689,11.265455 1.25,10.922273 0.6875,-0.247546 5.4125,-1.523682 10.5,-2.835859 z m -37.75,-13.928036 c 0,-2.2 -0.45,-4 -1,-4 -0.55,0 -1,1.8 -1,4 0,2.2 0.45,4 1,4 0.55,0 1,-1.8 1,-4 z m 48,0 c 0,-2.2 -0.45,-4 -1,-4 -0.55,0 -1,1.8 -1,4 0,2.2 0.45,4 1,4 0.55,0 1,-1.8 1,-4 z m -40.08333,-12.30266 c -3.95008,-2.869271 -5.91667,-3.63166 -5.91667,-2.293717 0,1.365583 1.68528,2.215779 4.91667,2.480376 0.77916,0.0638 1.22916,-0.0202 1,-0.186659 z m 35.93545,-1.216124 c 0.19592,-0.195919 0.19684,-0.765869 0.002,-1.266557 -0.1948,-0.500687 -1.70417,-0.03795 -3.35417,1.028297 l -3,1.938638 2.99795,-0.67208 c 1.64887,-0.369645 3.15825,-0.832379 3.35417,-1.028298 z m -34.25484,-4.088303 c -0.94383,-2.459573 1.16091,-8.952087 3.9933,-12.318188 4.93456,-5.864397 13.88428,-5.864397 18.81884,0 4.38208,5.207807 5.62384,13.925275 1.98359,13.925275 -0.92906,0 -1.39301,-1.182241 -1.39301,-3.54966 0,-4.214958 -2.26385,-8.985999 -4.94461,-10.420696 -2.47038,-1.322108 -7.6404,-1.322108 -10.11078,0 -2.68076,1.434697 -4.94461,6.205738 -4.94461,10.420696 0,3.738195 -2.22602,5.009003 -3.40272,1.942573 z"
       id="path57"
       inkscape:connector-curvature="0" />
    <path
       style="fill:#e3e3e3"
       d="m 167.90504,121.68043 v -6 h -5.5 c -3.025,0 -5.5,-0.45 -5.5,-1 0,-0.55 2.475,-1 5.5,-1 5.44444,0 5.5,-0.0303 5.5,-3 0,-2.88889 -0.16667,-3 -4.5,-3 -2.475,0 -4.5,-0.45 -4.5,-1 0,-0.55 2.025,-1 4.5,-1 4.13333,0 4.5,-0.20371 4.5,-2.5 0,-1.375 0.45,-2.5 1,-2.5 0.55,0 1,1.125 1,2.5 0,2.29629 0.36667,2.5 4.5,2.5 h 4.5 v 4 c 0,3.33333 0.33333,4 2,4 1.5457,0 2,0.66667 2,2.9349 0,1.6142 -0.43886,4.0892 -0.97525,5.5 -0.79228,2.08385 -1.63654,2.5651 -4.5,2.5651 -1.93861,0 -3.52475,-0.45 -3.52475,-1 0,-0.55 1.29752,-1 2.88337,-1 2.14483,0 3.03781,-0.57631 3.48634,-2.25 1.18725,-4.43018 0.85936,-4.75 -4.86971,-4.75 h -5.5 v 6 c 0,3.33333 -0.44444,6 -1,6 -0.55556,0 -1,-2.66667 -1,-6 z m 9,-11 c 0,-2.76191 -0.27778,-3 -3.5,-3 -3.22222,0 -3.5,0.23809 -3.5,3 0,2.7619 0.27778,3 3.5,3 3.22222,0 3.5,-0.2381 3.5,-3 z m 15.6711,16.33776 c -0.36423,-0.36423 1.13577,-1.46723 3.33333,-2.45111 2.19756,-0.98387 3.99557,-1.94844 3.99557,-2.14348 0,-0.19504 -1.07521,-1.81197 -2.38935,-3.59319 l -2.38935,-3.23858 -2.16068,4.46338 c -2.32192,4.79644 -4.68663,7.33254 -5.79942,6.21976 -0.37975,-0.37976 -0.25638,-1.28076 0.27417,-2.00224 3.44387,-4.6832 4.4605,-6.66258 5.82549,-11.3423 l 1.53134,-5.25 h -3.9461 c -2.17036,0 -3.9461,-0.45 -3.9461,-1 0,-0.55 1.8,-1 4,-1 3.6,0 4,-0.25 4,-2.5 0,-1.375 0.45,-2.5 1,-2.5 0.55,0 1,1.125 1,2.5 0,2.45833 0.13333,2.5 8,2.5 10.558,0 10.35946,1.83594 -0.23894,2.20956 -6.91449,0.24375 -8.29269,0.57176 -8.57332,2.04044 -0.29148,1.52542 0.52307,1.75 6.34734,1.75 h 6.68174 l -0.6704,2.67108 c -0.36872,1.46909 -1.54729,3.78587 -2.61906,5.14839 -1.88711,2.39908 -1.89048,2.51806 -0.10656,3.76757 1.01315,0.70963 3.04294,1.59164 4.51064,1.96001 1.46771,0.36837 2.66856,1.07098 2.66856,1.56136 0,1.37292 -2.09084,1.03336 -6.80168,-1.10462 -4.27146,-1.93857 -4.32755,-1.93841 -7.98519,0.022 -4.04137,2.16604 -4.56422,2.28982 -5.54203,1.312 z m 12.47837,-10.10485 2.04693,-3.23291 h -5.0982 c -2.80401,0 -5.0982,0.26803 -5.0982,0.59563 0,1.3456 4.27682,6.47876 5.15426,6.18628 0.52155,-0.17385 1.86939,-1.7709 2.99521,-3.549 z m -26.13453,-12.18676 c -1.36678,-1.05015 -2.19333,-2.2011 -1.83676,-2.55766 0.7776,-0.7776 5.82182,2.36453 5.82182,3.62652 0,1.36228 -1.26117,1.02402 -3.98506,-1.06886 z m -7.63497,-15.825703 -13.12003,-3.579902 -0.56183,-6.701549 c -0.82206,-9.805487 0.24361,-21.898592 1.8746,-21.272723 0.87461,0.335619 1.39942,-0.611253 1.61204,-2.908462 l 0.31525,-3.406087 11.75,6.441892 11.75,6.441892 11.75,-6.441892 11.75,-6.441892 0.31525,3.406087 c 0.21262,2.297209 0.73743,3.244081 1.61204,2.908462 1.6312,-0.625952 2.69662,11.46769 1.87435,21.275814 l -0.5621,6.70464 -12.61977,3.32014 c -6.94087,1.826077 -13.06977,3.435642 -13.61977,3.576811 -0.55,0.141169 -6.90401,-1.354285 -14.12003,-3.323231 z M 181.90504,77.344363 V 66.008298 l -9.93433,-2.663935 c -5.46388,-1.465164 -10.18888,-2.663935 -10.5,-2.663935 -1.31665,0 -0.41195,3.153719 1.43433,5 1.33333,1.333333 2,3.333333 2,6 0,2.666667 -0.66667,4.666667 -2,6 -4.03571,4.035706 -2.77005,5.475553 7.25,8.247823 5.0875,1.407569 9.8125,2.602633 10.5,2.655697 0.93216,0.07195 1.25,-2.785944 1.25,-11.239585 z m 17.06567,8.67213 c 10.74316,-2.880827 12.03369,-4.236703 7.93433,-8.336065 -1.33333,-1.333333 -2,-3.333333 -2,-6 0,-2.666667 0.66667,-4.666667 2,-6 1.84628,-1.846281 2.75098,-5 1.43433,-5 -0.31112,0 -5.03612,1.198771 -10.5,2.663935 l -9.93433,2.663935 v 11.336065 c 0,6.234836 0.25455,11.336065 0.56567,11.336065 0.31112,0 5.03612,-1.198771 10.5,-2.663935 z M 162.19479,73.680428 c 0.60984,-2.33205 -0.17861,-6 -1.28975,-6 -0.42171,0 -1.00209,0.9 -1.28975,2 -0.60984,2.33205 0.17861,6 1.28975,6 0.42171,0 1.00209,-0.9 1.28975,-2 z m 48,0 c 0.60984,-2.33205 -0.17861,-6 -1.28975,-6 -0.42171,0 -1.00209,0.9 -1.28975,2 -0.60984,2.33205 0.17861,6 1.28975,6 0.42171,0 1.00209,-0.9 1.28975,-2 z M 170.90504,59.628524 c -0.825,-0.561703 -2.7375,-1.691368 -4.25,-2.510367 -2.43851,-1.320419 -2.75,-1.319513 -2.75,0.008 0,0.829863 1.44847,1.915318 3.25,2.435492 4.39404,1.268734 5.54538,1.289267 3.75,0.06688 z m 32.75,-0.436137 c 1.2375,-0.355704 2.25,-1.302966 2.25,-2.105027 0,-1.270257 -0.35459,-1.266286 -2.75,0.0308 -1.5125,0.818999 -3.425,1.985033 -4.25,2.591187 -1.57905,1.160177 -0.78359,1.073604 4.75,-0.516957 z m -31.75,-7.478286 c 0,-10.944008 10.74997,-17.532195 19.70145,-12.074157 4.04889,2.468749 6.29855,6.781299 6.29855,12.074157 0,5.327409 -2.14398,4.864367 -2.70004,-0.583137 -0.52753,-5.167934 -2.66192,-8.285998 -6.87774,-10.047482 -6.50825,-2.719318 -12.89645,1.958169 -13.72218,10.047482 -0.55606,5.447504 -2.70004,5.910546 -2.70004,0.583137 z"
       id="path55"
       inkscape:connector-curvature="0" />
    <path
       style="fill:#dedede"
       d="m 167.90504,121.68043 v -6 h -5.5 c -3.025,0 -5.5,-0.45 -5.5,-1 0,-0.55 2.475,-1 5.5,-1 5.44444,0 5.5,-0.0303 5.5,-3 0,-2.88889 -0.16667,-3 -4.5,-3 -2.475,0 -4.5,-0.45 -4.5,-1 0,-0.55 2.025,-1 4.5,-1 4.13333,0 4.5,-0.20371 4.5,-2.5 0,-1.375 0.45,-2.5 1,-2.5 0.55,0 1,1.125 1,2.5 0,2.29629 0.36667,2.5 4.5,2.5 h 4.5 v 4 c 0,3.40496 0.31441,4 2.11354,4 1.95454,0 2.06006,0.35737 1.40263,4.75 -0.391,2.6125 -0.91865,5.0875 -1.17256,5.5 -0.65286,1.06066 -6.1115,0.93457 -6.78597,-0.15674 -0.30822,-0.49871 0.40751,-0.65363 1.59052,-0.34426 2.53071,0.66179 4.85184,-1.94077 4.85184,-5.44013 0,-2.13196 -0.42141,-2.30887 -5.5,-2.30887 h -5.5 v 6 c 0,3.33333 -0.44444,6 -1,6 -0.55556,0 -1,-2.66667 -1,-6 z m 9,-11 c 0,-2.76191 -0.27778,-3 -3.5,-3 -3.22222,0 -3.5,0.23809 -3.5,3 0,2.7619 0.27778,3 3.5,3 3.22222,0 3.5,-0.2381 3.5,-3 z m 16,16.18521 c 0,-0.44813 1.575,-1.56585 3.5,-2.48382 4.10351,-1.95683 4.16631,-2.29903 1.10798,-6.03729 l -2.3201,-2.83591 -3.17497,5.62575 c -1.75279,3.10576 -3.63819,5.33945 -4.20909,4.98662 -0.66444,-0.41065 -0.48827,-1.24226 0.49284,-2.32637 1.74729,-1.93073 5.05598,-9.29823 6.00177,-13.36419 0.6164,-2.64995 0.49345,-2.75 -3.37938,-2.75 -2.21048,0 -4.01905,-0.45 -4.01905,-1 0,-0.55 1.8,-1 4,-1 3.6,0 4,-0.25 4,-2.5 0,-1.375 0.45,-2.5 1,-2.5 0.55,0 1,1.125 1,2.5 0,2.45833 0.13333,2.5 8,2.5 4.66667,0 8,0.41666 8,1 0,0.58823 -3.5,1 -8.5,1 -7.83333,0 -8.5,0.15686 -8.5,2 0,1.79487 0.66667,2 6.5,2 7.4671,0 7.88678,0.67736 3.98348,6.42921 -1.38409,2.03957 -2.2652,4.11496 -1.95802,4.61198 0.30718,0.49703 2.32488,1.4329 4.48378,2.07972 2.15889,0.64683 3.70893,1.52608 3.44453,1.95389 -0.52883,0.85566 -4.97061,-0.21067 -8.30017,-1.99259 -1.71195,-0.91621 -2.89795,-0.74312 -6.09955,0.89021 -4.40553,2.24754 -5.05405,2.40316 -5.05405,1.21279 z m 12.33289,-10.01549 1.85121,-3.16972 h -5.09205 c -2.80063,0 -5.09205,0.38931 -5.09205,0.86514 0,1.62054 4.21465,6.22998 5.35027,5.85144 0.62227,-0.20743 1.96445,-1.80351 2.98262,-3.54686 z m -26.19367,-12.20299 c -1.37195,-1.14295 -1.79081,-1.95341 -1,-1.93493 1.51123,0.0353 4.86078,2.32894 4.86078,3.32844 0,1.13967 -1.44695,0.61741 -3.86078,-1.39351 z m -9.13922,-16.38334 -11.5,-3.189148 -0.66674,-5.447122 c -1.00436,-8.205458 0.12533,-21.947122 1.80426,-21.947122 0.8472,0 1.36248,-1.134577 1.36248,-3 0,-1.65 0.26823,-3 0.59607,-3 0.87127,0 17.4316,9.008792 20.65393,11.235701 2.702,1.867316 2.798,1.867316 5.5,0 3.22233,-2.226909 19.78266,-11.235701 20.65393,-11.235701 0.32784,0 0.59607,1.35 0.59607,3 0,1.865423 0.51528,3 1.36248,3 1.67859,0 2.80896,13.743829 1.80426,21.937372 l -0.66674,5.437373 -12,3.2735 c -6.6,1.800425 -13.35,3.239929 -15,3.198898 -1.65,-0.04103 -8.175,-1.509719 -14.5,-3.263751 z m 12,-11.044848 V 65.757516 l -4.25,-1.109481 c -2.3375,-0.610215 -6.46918,-1.75256 -9.1815,-2.538544 -2.71233,-0.785985 -5.52483,-1.429063 -6.25,-1.429063 -1.96489,0 -1.59347,2.725029 0.6815,5 1.33333,1.333333 2,3.333333 2,6 0,2.666667 -0.66667,4.666667 -2,6 -3.36191,3.361905 -2.59255,5.767738 2.25,7.035889 2.3375,0.612137 6.275,1.723138 8.75,2.468892 8.3434,2.513988 8,2.94179 8,-9.966237 z m 13.5685,10.032393 c 2.71232,-0.785984 6.844,-1.928329 9.1815,-2.538544 4.84275,-1.264221 5.61245,-3.669939 2.25,-7.032393 -1.33333,-1.333333 -2,-3.333333 -2,-6 0,-2.666667 0.66667,-4.666667 2,-6 2.27497,-2.274971 2.64639,-5 0.6815,-5 -0.72517,0 -3.53767,0.643078 -6.25,1.429063 -2.71232,0.785984 -6.844,1.928329 -9.1815,2.538544 l -4.25,1.109481 v 11.461456 c 0,12.80869 -0.36097,12.330213 7.5685,10.032393 z m -33.0685,-13.570937 c 0.72375,-2.28032 -0.20617,-6 -1.5,-6 -1.29383,0 -2.22375,3.71968 -1.5,6 0.34913,1.1 1.02413,2 1.5,2 0.47587,0 1.15087,-0.9 1.5,-2 z m 48,0 c 0.72375,-2.28032 -0.20617,-6 -1.5,-6 -1.29383,0 -2.22375,3.71968 -1.5,6 0.34913,1.1 1.02413,2 1.5,2 0.47587,0 1.15087,-0.9 1.5,-2 z m -38.5,-13.479676 c 0,-0.263822 -1.83854,-1.417631 -4.08565,-2.564021 -3.75236,-1.914311 -4.05785,-1.93994 -3.74475,-0.314169 0.37105,1.926704 7.8304,4.668509 7.8304,2.87819 z m 33.25,-1.196938 c 0.4125,-0.242781 0.75,-1.099008 0.75,-1.902727 0,-1.185186 -0.75582,-1.075716 -4,0.579341 -2.2,1.122356 -4,2.292257 -4,2.599779 0,0.567348 5.87463,-0.466905 7.25,-1.276393 z m -33.25,-6.922257 c 0,-1.979379 0.75148,-5.182506 1.66996,-7.11806 4.54463,-9.577081 18.11545,-9.577081 22.66008,0 1.83023,3.856943 2.25908,10.716931 0.66996,10.716931 -0.55,0 -1,-1.139453 -1,-2.532119 0,-6.945359 -5.08788,-12.922426 -11,-12.922426 -5.91212,0 -11,5.977067 -11,12.922426 0,1.392666 -0.45,2.532119 -1,2.532119 -0.55,0 -1,-1.619492 -1,-3.598871 z"
       id="path53"
       inkscape:connector-curvature="0" />
    <path
       style="fill:#d9d9d9"
       d="m 168.09772,121.93043 -0.19268,-6.25 -5.75,-0.163 -5.75,-0.16299 5.5,-0.58701 c 5.33319,-0.5692 5.5095,-0.68557 5.81336,-3.837 0.31263,-3.24241 0.30212,-3.25035 -4.5,-3.4002 l -4.81336,-0.15019 4.49487,-0.59981 c 4.01104,-0.53524 4.55843,-0.92272 5.08539,-3.5998 l 0.59053,-3 0.41461,3 c 0.38705,2.80068 0.73019,3.02025 5.1646,3.30479 l 4.75,0.30479 v 3.94521 c 0,3.30768 0.33052,3.94521 2.04531,3.94521 1.80761,0 1.97288,0.43583 1.42209,3.75 -0.99166,5.96689 -1.21311,6.25677 -4.68602,6.134 -2.13561,-0.0755 -2.58304,-0.28766 -1.28138,-0.60761 3.22016,-0.79153 4.5,-2.327 4.5,-5.39883 0,-2.84779 -0.0616,-2.87756 -5.95228,-2.87756 h -5.95229 l -0.35503,6.25 -0.35504,6.25 z m 8.80732,-10.75 c 0,-3.41667 -0.0952,-3.5 -4,-3.5 -3.72549,0 -4,0.19444 -4,2.83333 0,3.6285 0.60275,4.16667 4.66667,4.16667 3.14285,0 3.33333,-0.2 3.33333,-3.5 z m 16,15.51342 c 0,-0.55738 0.62515,-1.01342 1.38922,-1.01342 0.76406,0 2.38762,-0.80846 3.6079,-1.79658 l 2.21869,-1.79659 -2.56351,-3.77754 -2.56351,-3.77755 -1.58253,3.78753 c -1.74093,4.16662 -4.26482,7.36073 -5.81624,7.36073 -0.55,0 -0.27244,-0.80394 0.6168,-1.78654 1.82361,-2.01506 5.12677,-9.3156 6.09161,-13.46346 0.60483,-2.60021 0.44799,-2.75 -2.87938,-2.75 -1.93548,0 -3.51905,-0.45 -3.51905,-1 0,-0.55 1.575,-1 3.5,-1 2.79786,0 3.5,-0.38939 3.5,-1.94099 0,-1.06754 0.45,-2.21909 1,-2.55901 0.56716,-0.35053 1,0.48961 1,1.94098 0,2.53211 0.0841,2.55902 8,2.55902 4.66667,0 8,0.41666 8,1 0,0.58823 -3.5,1 -8.5,1 -7.83333,0 -8.5,0.15686 -8.5,2 0,1.79698 0.66667,2 6.56739,2 6.33707,0 6.54453,0.0789 5.91561,2.25 -0.35847,1.2375 -1.5598,3.5315 -2.66961,5.09777 -2.33415,3.29419 -1.77852,4.21233 3.68607,6.09096 2.06242,0.70903 3.33635,1.54471 2.83095,1.85707 -0.50541,0.31235 -2.89587,-0.31719 -5.31215,-1.39899 -2.41627,-1.08179 -4.87136,-1.76699 -5.45574,-1.52266 -0.58439,0.24433 -2.75002,1.16613 -4.81252,2.04846 -2.14445,0.91738 -3.75,1.17034 -3.75,0.59081 z m 11.93191,-8.91779 c 1.13745,-1.5974 2.06809,-3.1724 2.06809,-3.5 0,-0.3276 -2.25,-0.59563 -5,-0.59563 -2.75,0 -5,0.38931 -5,0.86514 0,1.2474 3.98693,6.13486 5.00449,6.13486 0.47263,0 1.78996,-1.30697 2.92742,-2.90437 z m -25.79269,-13.18171 c -1.60822,-1.30381 -1.88634,-1.91392 -0.87245,-1.91392 1.49762,0 4.35727,2.71166 3.62573,3.43808 -0.21587,0.21437 -1.45485,-0.47151 -2.75328,-1.52416 z M 158.43241,77.416036 c -2.09048,-2.984575 -1.93084,-9.015776 0.31195,-11.785504 l 1.83932,-2.271464 2.16068,2.16068 c 1.4063,1.4063 2.16068,3.405624 2.16068,5.726421 0,6.597762 -3.70154,10.126157 -6.47263,6.169867 z m 4.06199,-3.235608 c 0.74191,-2.956023 -0.22102,-7.5 -1.58936,-7.5 -1.36834,0 -2.33127,4.543977 -1.58936,7.5 0.34511,1.375 1.06032,2.5 1.58936,2.5 0.52904,0 1.24425,-1.125 1.58936,-2.5 z m 44.57132,3.66068 c -1.49401,-1.494013 -2.16068,-3.394859 -2.16068,-6.16068 0,-2.765821 0.66667,-4.666667 2.16068,-6.16068 l 2.16068,-2.16068 1.83932,2.271464 c 1.06045,1.309604 1.83932,3.871455 1.83932,6.049896 0,2.178441 -0.77887,4.740292 -1.83932,6.049896 l -1.83932,2.271464 z m 3.42868,-3.66068 c 0.74191,-2.956023 -0.22102,-7.5 -1.58936,-7.5 -1.36834,0 -2.33127,4.543977 -1.58936,7.5 0.34511,1.375 1.06032,2.5 1.58936,2.5 0.52904,0 1.24425,-1.125 1.58936,-2.5 z M 170.15504,59.021009 c -5.88322,-3.313602 -6.25,-3.397544 -6.25,-1.430383 0,1.190935 -0.64518,2.089802 -1.5,2.089802 -1.08333,0 -1.5,-1.111111 -1.5,-4 0,-2.2 0.27585,-4 0.613,-4 0.57585,0 18.40373,9.811733 19.30367,10.623948 0.22916,0.206829 -0.67084,0.344724 -2,0.306434 -1.32917,-0.03829 -5.22917,-1.6537 -8.66667,-3.589801 z m 18.83333,3.283367 c 0.89994,-0.812215 18.72782,-10.623948 19.30367,-10.623948 0.33715,0 0.613,1.8 0.613,4 0,2.888889 -0.41667,4 -1.5,4 -0.85527,0 -1.5,-0.899085 -1.5,-2.091769 0,-1.969324 -0.38251,-1.881519 -6.53442,1.5 -3.59394,1.975473 -7.49394,3.591769 -8.66667,3.591769 -1.17273,0 -1.94474,-0.169223 -1.71558,-0.376052 z M 171.90504,52.066583 c 0,-1.987616 0.94242,-5.290647 2.09426,-7.340071 5.27774,-9.390476 16.53374,-9.390476 21.81148,0 2.15726,3.838324 2.86808,10.953916 1.09426,10.953916 -0.55,0 -1,-1.508453 -1,-3.352117 0,-3.902527 -3.48381,-9.556485 -7.03002,-11.409168 -6.47654,-3.383619 -14.96998,3.26114 -14.96998,11.711625 0,1.677313 -0.45,3.04966 -1,3.04966 -0.55,0 -1,-1.62623 -1,-3.613845 z"
       id="path51"
       inkscape:connector-curvature="0" />
    <path
       style="fill:#d7d7d7"
       d="m 168.09772,121.98033 -0.19268,-6.20009 -5.75,-0.36082 -5.75,-0.36082 5.75,-0.18909 5.75,-0.18908 v -3.44521 c 0,-3.39084 -0.075,-3.45112 -4.75,-3.81975 l -4.75,-0.37455 4.75,-0.18024 c 4.62871,-0.17565 4.75302,-0.26324 4.86831,-3.43025 l 0.11832,-3.25 0.63648,3 c 0.5698,2.68568 1.07528,3.03192 4.82458,3.30471 4.0422,0.29409 4.1988,0.43344 4.49521,4 0.24235,2.91622 0.76615,3.76065 2.48449,4.00533 1.91107,0.27211 2.10814,0.76135 1.61124,4 -0.73692,4.80296 -1.94537,6.22044 -5.16107,6.05378 l -2.62756,-0.13618 2.5,-0.46464 c 3.0164,-0.5606 3.96441,-1.87223 3.98469,-5.513 0.015,-2.69371 -0.10653,-2.75 -5.93697,-2.75 h -5.95229 l -0.35503,6.25 -0.35504,6.25 z m 8.80732,-10.7999 c 0,-3.41667 -0.0952,-3.5 -4,-3.5 -3.72549,0 -4,0.19444 -4,2.83333 0,3.6285 0.60275,4.16667 4.66667,4.16667 3.14285,0 3.33333,-0.2 3.33333,-3.5 z m 16.01017,15.72525 c 0.006,-0.39889 1.8421,-1.49492 4.08111,-2.43563 l 4.07095,-1.71038 -2.58112,-3.38401 c -3.55797,-4.66474 -3.25508,-5.90081 0.40615,-1.65746 l 2.98727,3.46223 2.51273,-2.80576 c 3.70412,-4.13608 3.20465,-4.83016 -3.23407,-4.49414 -5.62921,0.29376 -5.78481,0.38175 -7.60376,4.2999 -2.03971,4.39369 -4.46484,7.5 -5.85531,7.5 -0.49275,0 0.28993,-1.55471 1.73929,-3.45491 2.25453,-2.95585 5.46659,-11.00805 5.46659,-13.70402 0,-0.46259 -1.575,-0.84107 -3.5,-0.84107 -1.925,0 -3.5,-0.45 -3.5,-1 0,-0.55 1.48813,-1 3.30696,-1 2.67749,0 3.5138,-0.52345 4.39362,-2.75 l 1.08666,-2.75 0.10638,2.75 c 0.10623,2.7461 0.11702,2.75 7.60638,2.75 4.33333,0 7.5,0.42222 7.5,1 0,0.58333 -3.33333,1 -8,1 -7.26816,0 -8,0.17859 -8,1.95228 0,1.69638 0.81925,1.99131 6.25,2.25 5.61923,0.26767 6.21573,0.49957 5.91044,2.29772 -0.18676,1.1 -1.41235,3.41687 -2.72355,5.14861 l -2.384,3.1486 3.22355,1.50274 c 1.77296,0.8265 4.12356,1.67018 5.22356,1.87485 1.1,0.20467 1.53966,0.66249 0.97702,1.01737 -0.56264,0.35489 -3.19826,-0.29636 -5.85693,-1.44723 -3.9801,-1.72288 -5.18009,-1.87631 -6.79364,-0.86863 -2.93088,1.83037 -6.82784,3.17329 -6.81628,2.34894 z m -14.13773,-22.88897 c -1.24448,-1.50861 -1.16266,-1.55194 0.87756,-0.46482 2.32696,1.23991 2.89993,2.12854 1.37244,2.12854 -0.48265,0 -1.49515,-0.74868 -2.25,-1.66372 z M 157.88029,76.115328 c -1.79733,-4.727322 -0.36412,-11.4349 2.4433,-11.4349 2.02224,0 4.58145,3.910213 4.58145,7 0,3.089787 -2.55921,7 -4.58145,7 -0.80743,0 -1.90691,-1.154295 -2.4433,-2.5651 z m 4.61411,-1.9349 c 0.74191,-2.956023 -0.22102,-7.5 -1.58936,-7.5 -1.36834,0 -2.33127,4.543977 -1.58936,7.5 0.34511,1.375 1.06032,2.5 1.58936,2.5 0.52904,0 1.24425,-1.125 1.58936,-2.5 z m 44.00586,2.332481 c -2.12052,-3.027467 -2.01825,-7.088491 0.24902,-9.888456 2.44993,-3.02553 4.86968,-1.985897 5.70181,2.44975 1.3399,7.142292 -2.65804,12.139828 -5.95083,7.438706 z m 3.99414,-2.332481 c 0.74191,-2.956023 -0.22102,-7.5 -1.58936,-7.5 -1.36834,0 -2.33127,4.543977 -1.58936,7.5 0.34511,1.375 1.06032,2.5 1.58936,2.5 0.52904,0 1.24425,-1.125 1.58936,-2.5 z M 171.13782,59.168982 c -3.44697,-1.918705 -6.48447,-3.488554 -6.75,-3.488554 -0.26553,0 -0.48278,0.9 -0.48278,2 0,1.111111 -0.66667,2 -1.5,2 -1.08333,0 -1.5,-1.111111 -1.5,-4 0,-2.2 0.21622,-4 0.4805,-4 0.26427,0 4.87375,2.475 10.24329,5.5 5.36955,3.025 8.86582,5.494849 7.76951,5.488554 -1.09632,-0.0063 -4.81355,-1.581295 -8.26052,-3.5 z m 27.04343,-1.988554 c 5.36954,-3.025 9.97902,-5.5 10.24329,-5.5 0.26428,0 0.4805,1.8 0.4805,4 0,2.888889 -0.41667,4 -1.5,4 -0.83333,0 -1.5,-0.888889 -1.5,-2 0,-1.1 -0.20951,-2 -0.46558,-2 -0.25606,0 -3.33094,1.575 -6.83304,3.5 -3.50211,1.925 -7.22709,3.5 -8.27772,3.5 -1.05064,0 2.483,-2.475 7.85255,-5.5 z m -26.27621,-4.532119 c 0,-4.139702 2.19864,-8.966303 5.45169,-11.967881 2.11222,-1.948945 3.77603,-2.5 7.54831,-2.5 5.50309,0 9.2579,2.653446 11.62888,8.217881 1.59801,3.750358 1.81918,9.282119 0.37112,9.282119 -0.55,0 -1,-1.394492 -1,-3.098871 0,-6.565443 -5.40205,-12.901129 -11,-12.901129 -5.59795,0 -11,6.335686 -11,12.901129 0,1.704379 -0.45,3.098871 -1,3.098871 -0.55,0 -1,-1.364453 -1,-3.032119 z"
       id="path49"
       inkscape:connector-curvature="0" />
  </g>
</svg>
