<?xml version="1.0" encoding="UTF-8" standalone="no"?>
<!-- Created with Inkscape (http://www.inkscape.org/) -->

<svg
   xmlns:dc="http://purl.org/dc/elements/1.1/"
   xmlns:cc="http://creativecommons.org/ns#"
   xmlns:rdf="http://www.w3.org/1999/02/22-rdf-syntax-ns#"
   xmlns:svg="http://www.w3.org/2000/svg"
   xmlns="http://www.w3.org/2000/svg"
   xmlns:sodipodi="http://sodipodi.sourceforge.net/DTD/sodipodi-0.dtd"
   xmlns:inkscape="http://www.inkscape.org/namespaces/inkscape"
   version="1.1"
   id="svg71"
   width="360"
   height="144"
   viewBox="0 0 360 144"
   sodipodi:docname="grey-home.svg"
   inkscape:version="0.92.3 (2405546, 2018-03-11)">
  <metadata
     id="metadata77">
    <rdf:RDF>
      <cc:Work
         rdf:about="">
        <dc:format>image/svg+xml</dc:format>
        <dc:type
           rdf:resource="http://purl.org/dc/dcmitype/StillImage" />
        <dc:title></dc:title>
      </cc:Work>
    </rdf:RDF>
  </metadata>
  <defs
     id="defs75" />
  <sodipodi:namedview
     pagecolor="#ffffff"
     bordercolor="#666666"
     borderopacity="1"
     objecttolerance="10"
     gridtolerance="10"
     guidetolerance="10"
     inkscape:pageopacity="0"
     inkscape:pageshadow="2"
     inkscape:window-width="1366"
     inkscape:window-height="715"
     id="namedview73"
     showgrid="false"
     inkscape:zoom="3.3638889"
     inkscape:cx="180"
     inkscape:cy="72"
     inkscape:window-x="-8"
     inkscape:window-y="-8"
     inkscape:window-maximized="1"
     inkscape:current-layer="svg71" />
  <g
     id="g81">
    <path
       style="fill:#fafafa"
       d="m 155,110 v -10 l 4.25,-0.168108 c 3.68813,-0.145883 3.46706,-0.245037 -1.67215,-0.75 C 150.49745,98.386194 148.5318,96 155.03911,96 c 3.67645,0 4.04467,-0.19412 2.92572,-1.542382 -0.87738,-1.057173 -0.95638,-1.866069 -0.25113,-2.571319 0.70525,-0.705251 1.66522,-0.220043 3.05154,1.542381 2.47425,3.1455 6.70019,3.438691 8.23476,0.57132 0.5887,-1.1 1.97037,-2 3.07037,-2 1.69012,0 1.83416,0.309877 0.92963,2 -0.9787,1.828727 -0.76049,2 2.54815,2 6.33045,0 3.45436,2.440774 -3.62625,3.077401 -5.87009,0.527787 -6.01375,0.592232 -1.6719,0.75 L 175,100 v 10 c 0,8.22222 -0.26667,10 -1.5,10 -0.825,0 -1.5,-0.45 -1.5,-1 0,-0.57143 -3,-1 -7,-1 -4,0 -7,0.42857 -7,1 0,0.55 -0.675,1 -1.5,1 -1.23333,0 -1.5,-1.77778 -1.5,-10 z m 17,4 c 0,-0.57143 -3,-1 -7,-1 -4,0 -7,0.42857 -7,1 0,0.57143 3,1 7,1 4,0 7,-0.42857 7,-1 z m 0,-5 c 0,-0.57143 -3,-1 -7,-1 -4,0 -7,0.42857 -7,1 0,0.57143 3,1 7,1 4,0 7,-0.42857 7,-1 z m 0,-5 c 0,-0.57143 -3,-1 -7,-1 -4,0 -7,0.42857 -7,1 0,0.57143 3,1 7,1 4,0 7,-0.42857 7,-1 z m 10.00432,14.5052 c -0.8586,-1.03455 -0.47726,-1.46205 1.73827,-1.94866 1.56099,-0.34285 4.25107,-1.4826 5.97794,-2.53278 2.53004,-1.5386 3.27249,-2.79441 3.82317,-6.46659 0.43333,-2.88968 1.1907,-4.55717 2.06984,-4.55717 1.66126,0 1.84295,4.39206 0.35792,8.65203 -1.6358,4.69246 -11.67306,9.61738 -13.96714,6.85317 z m 19.17956,-1.73756 c -3.16461,-1.80693 -4.95055,-3.40097 -4.41284,-3.93868 0.53771,-0.53771 1.87979,-0.53103 3.31612,0.0165 2.40174,0.91556 2.41128,0.89274 2.07402,-4.96284 L 201.82236,102 H 194.91118 188 v 6 c 0,4.66667 -0.33333,6 -1.5,6 -1.2,0 -1.5,-1.5 -1.5,-7.5 V 99 h 3.39301 c 2.09352,0 3.61346,-0.574486 3.96862,-1.5 0.4684,-1.220642 -0.44287,-1.5 -4.89301,-1.5 C 183.27429,96 182,95.650472 182,94.5 c 0,-1.25641 2.11111,-1.5 13,-1.5 10.88889,0 13,0.24359 13,1.5 0,1.163641 -1.32145,1.5 -5.89301,1.5 -4.31574,0 -6.04707,0.401476 -6.46862,1.5 -0.4684,1.220642 0.44287,1.5 4.89301,1.5 H 206 v 6.94098 c 0,4.10273 -0.46454,7.22809 -1.13603,7.64309 -0.75093,0.4641 -0.32719,1.31328 1.25,2.50503 1.56666,1.18379 2.04263,2.13104 1.38603,2.75842 -0.64358,0.61495 -2.89477,-0.12636 -6.31612,-2.07988 z M 159.66667,83.333333 C 159.3,82.966667 159,76.286411 159,68.488321 c 0,-12.673804 0.2022,-14.361331 1.90544,-15.902742 6.81069,-6.163594 32.80331,-5.984844 38.45887,0.264481 1.45474,1.607473 1.65324,3.890089 1.414,16.259963 L 200.5,83.5 l -7.19626,0.292725 -7.19626,0.292725 -0.30374,-5.225326 c -0.27603,-4.748587 -0.55464,-5.292012 -3.05374,-5.956242 -1.5125,-0.402003 -3.9875,-0.402003 -5.5,0 -2.49519,0.663191 -2.77801,1.211127 -3.05226,5.913517 L 173.89548,84 h -6.78107 c -3.72959,0 -7.08108,-0.3 -7.44774,-0.666667 z M 171,76.556704 C 171,71.045348 173.436,69 180,69 c 6.58803,0 9,2.040579 9,7.614202 v 4.500794 L 193.25,80.807498 197.5,80.5 V 68.607921 c 0,-11.525131 -0.0771,-11.949136 -2.5,-13.741159 -5.41397,-4.004346 -24.58043,-4.00581 -30,-0.0023 -2.39664,1.770432 -2.51161,2.348895 -2.78078,13.991158 L 161.93844,81 H 166.46922 171 Z M 151.13184,50.202136 C 151.90143,48.097485 178.03304,28 180,28 c 1.96696,0 28.09857,20.097485 28.86816,22.202136 0.58297,1.594277 -8.64607,0.287064 -15.31648,-2.169445 -4.18305,-1.54049 -8.20476,-2.190586 -13.55168,-2.190586 -5.34692,0 -9.36863,0.650096 -13.55168,2.190586 -6.67041,2.456509 -15.89945,3.763722 -15.31648,2.169445 z M 180,42.047713 c 4.125,0 9.24252,0.404284 11.37226,0.898408 2.12975,0.494124 3.47975,0.517749 3,0.0525 C 191.95155,40.651055 180.64693,32 180,32 c -0.64693,0 -11.95155,8.651055 -14.37226,10.99862 -0.47975,0.46525 0.87025,0.441625 3,-0.0525 C 170.75748,42.451997 175.875,42.047713 180,42.047713 Z"
       id="path95"
       inkscape:connector-curvature="0" />
    <path
       style="fill:#f5f5f5"
       d="M 155,110.5 V 101 h 4 c 2.88889,0 4,-0.41667 4,-1.5 0,-1.166667 -1.33333,-1.5 -6,-1.5 -3.33333,0 -6,-0.444444 -6,-1 0,-0.55 1.89,-1 4.2,-1 3.26667,0 3.93333,-0.266667 3,-1.2 -1.62267,-1.622667 -1.51132,-2.8 0.26482,-2.8 0.80565,0 1.94648,0.9 2.53518,2 0.69982,1.30762 2.09382,2 4.02671,2 1.87334,0 3.4139,-0.732667 4.20536,-2 0.68696,-1.1 1.8461,-2 2.57586,-2 0.87177,0 1.10913,0.685952 0.69207,2 -0.5538,1.744869 -0.1797,2 2.93261,2 6.12637,0 3.89365,1.888824 -2.60324,2.202283 C 165.30238,98.565441 163.20286,101 170.41667,101 H 175 v 9.5 c 0,8.61725 -0.78274,11.27858 -2.5,8.5 -0.33992,-0.55 -3.71492,-1 -7.5,-1 -3.78508,0 -7.16008,0.45 -7.5,1 -1.71726,2.77858 -2.5,0.11725 -2.5,-8.5 z m 17,3.5 c 0,-0.57143 -3,-1 -7,-1 -4,0 -7,0.42857 -7,1 0,0.57143 3,1 7,1 4,0 7,-0.42857 7,-1 z m 0,-5 c 0,-0.57143 -3,-1 -7,-1 -4,0 -7,0.42857 -7,1 0,0.57143 3,1 7,1 4,0 7,-0.42857 7,-1 z m 0,-5 c 0,-0.57143 -3,-1 -7,-1 -4,0 -7,0.42857 -7,1 0,0.57143 3,1 7,1 4,0 7,-0.42857 7,-1 z m 10.57904,15.2457 c -1.30808,-1.30807 -0.37593,-2.2233 3.26216,-3.20294 4.95843,-1.33517 7.19446,-3.88974 7.88028,-9.0029 0.73011,-5.44338 2.84191,-4.66208 2.57577,0.95296 -0.13305,2.80704 -0.95008,5.07318 -2.3765,6.59154 -2.23336,2.37731 -10.30739,5.69566 -11.34171,4.66134 z m 18.05106,-2.87236 c -3.24121,-1.68622 -4.53601,-2.86743 -3.87156,-3.53188 1.13078,-1.13078 11.24146,3.52401 11.24146,5.17539 0,1.55824 -2.12757,1.08378 -7.3699,-1.64351 z M 185,106.06037 v -6.939639 l 3.6727,-0.310366 C 194.89561,98.284492 194.01008,96 187.58333,96 183.28704,96 182,95.654229 182,94.5 c 0,-1.25641 2.11111,-1.5 13,-1.5 10.69905,0 13,0.257048 13,1.452283 0,1.080642 -1.57907,1.528468 -6.17063,1.75 C 193.95772,96.58207 192.30467,99 199.91667,99 H 205 v 7 c 0,5.55556 -0.30952,7 -1.5,7 -1.15152,0 -1.5,-1.27778 -1.5,-5.5 V 102 h -7 -7 v 5.5 c 0,4.22222 -0.34848,5.5 -1.5,5.5 -1.18923,0 -1.5,-1.43774 -1.5,-6.93963 z M 159.66667,83.333333 c -0.84314,-0.843132 -0.88191,-26.60885 -0.0433,-28.794142 0.34284,-0.893412 2.48034,-2.617716 4.75,-3.831788 C 167.94279,48.798058 170.05281,48.5 180,48.5 c 9.94719,0 12.05721,0.298058 15.62667,2.207403 2.26966,1.214072 4.40716,2.938376 4.75,3.831788 C 200.7195,55.432602 201,62.153626 201,69.474799 201,84.659204 201.40979,84 191.97047,84 h -5.86595 l -0.30226,-5.217121 c -0.2803,-4.838112 -0.5202,-5.279201 -3.30226,-6.071667 -1.8355,-0.52284 -4.06746,-0.448168 -5.75,0.19237 -2.49624,0.95031 -2.75,1.510585 -2.75,6.071667 L 174,84 h -6.83333 c -3.75834,0 -7.13334,-0.3 -7.5,-0.666667 z M 171,76.556704 C 171,71.045348 173.436,69 180,69 c 6.58803,0 9,2.040579 9,7.614202 v 4.500794 L 193.25,80.807498 197.5,80.5 197.79158,70 c 0.16037,-5.775 0.0487,-11.474957 -0.24811,-12.666572 -1.66071,-6.6668 -27.77765,-7.956388 -34.05261,-1.681431 C 162.33636,56.806501 162,59.83409 162,69.071429 V 81 h 4.5 4.5 z M 151.52666,49.956861 C 153.01404,47.550239 178.3665,28 180,28 c 1.6335,0 26.98596,19.550239 28.47334,21.956861 1.12513,1.820498 -6.84432,1.165549 -11.154,-0.916663 -2.23098,-1.077891 -7.0405,-2.436526 -10.68783,-3.01919 -7.81658,-1.248704 -17.69459,-0.0035 -23.95085,3.01919 -4.30968,2.082212 -12.27913,2.737161 -11.154,0.916663 z m 25.99737,-7.710968 c 4.99158,-0.257037 10.7756,0.01894 12.94377,0.617606 2.15586,0.595261 4.07099,0.931041 4.25585,0.74618 C 195.26199,43.071348 181.22105,32 180,32 c -1.13671,0 -15,10.831504 -15,11.719628 0,0.271892 0.7875,0.156085 1.75,-0.25735 0.9625,-0.413434 5.81082,-0.960807 10.77403,-1.216385 z"
       id="path93"
       inkscape:connector-curvature="0" />
    <path
       style="fill:#f1f1f1"
       d="M 155.68333,119.35 C 155.3075,118.97417 155,114.69167 155,109.83333 V 101 h 4 c 2.88889,0 4,-0.41667 4,-1.5 0,-1.166667 -1.33333,-1.5 -6,-1.5 -3.33333,0 -6,-0.444444 -6,-1 0,-0.55 1.89,-1 4.2,-1 3.26667,0 3.93333,-0.266667 3,-1.2 -1.62267,-1.622667 -1.51132,-2.8 0.26482,-2.8 0.80565,0 1.94648,0.9 2.53518,2 0.69982,1.30762 2.09382,2 4.02671,2 1.87334,0 3.4139,-0.732667 4.20536,-2 0.68696,-1.1 1.81578,-2 2.50848,-2 1.58967,0 1.61607,1.243381 0.0594,2.8 -0.93333,0.933333 -0.26667,1.2 3,1.2 2.31,0 4.2,0.45 4.2,1 0,0.564103 -2.83333,1 -6.5,1 -5.11111,0 -6.5,0.320513 -6.5,1.5 0,1.11111 1.16667,1.5 4.5,1.5 h 4.5 v 8.94098 c 0,8.22971 -0.92619,11.6055 -2.48992,9.07533 -0.81807,-1.32367 -13.80302,-1.32337 -15.12675,3.6e-4 -0.55916,0.55916 -1.32416,0.70916 -1.7,0.33333 z M 172,114 c 0,-0.57143 -3,-1 -7,-1 -4,0 -7,0.42857 -7,1 0,0.57143 3,1 7,1 4,0 7,-0.42857 7,-1 z m 0,-5 c 0,-0.57143 -3,-1 -7,-1 -4,0 -7,0.42857 -7,1 0,0.57143 3,1 7,1 4,0 7,-0.42857 7,-1 z m 0,-4.5 c 0,-1.19048 -1.44444,-1.5 -7,-1.5 -5.55556,0 -7,0.30952 -7,1.5 0,1.19048 1.44444,1.5 7,1.5 5.55556,0 7,-0.30952 7,-1.5 z m 10,13.65829 c 0,-0.46294 1.77586,-1.37377 3.94635,-2.02407 C 190.82359,114.67296 194,110.81997 194,106.36514 194,104.51431 194.45,103 195,103 c 0.55,0 1,2.27656 1,5.05902 0,3.12785 0.38284,4.82241 1.00292,4.43917 1.50581,-0.93064 11.24448,4.65441 10.10421,5.79468 -0.59475,0.59475 -2.97218,-0.21316 -6.40228,-2.17566 -5.01175,-2.86744 -5.56816,-2.98674 -6.83053,-1.46457 C 191.33239,117.71772 182,120.47292 182,118.15829 Z m 3,-12.09792 v -6.939639 l 3.6727,-0.310366 C 194.89561,98.284492 194.01008,96 187.58333,96 183.28704,96 182,95.654229 182,94.5 c 0,-1.25641 2.11111,-1.5 13,-1.5 10.69905,0 13,0.257048 13,1.452283 0,1.080642 -1.57907,1.528468 -6.17063,1.75 C 193.95772,96.58207 192.30467,99 199.91667,99 H 205 v 7 c 0,8.40172 -1.7745,9.40992 -2.2001,1.25 L 202.5,101.5 195.25,101.20619 188,100.91238 v 6.04381 C 188,111.6618 187.66787,113 186.5,113 c -1.18923,0 -1.5,-1.43774 -1.5,-6.93963 z M 159.66667,83.333333 C 159.3,82.966667 159,76.459196 159,68.872288 c 0,-12.954342 0.13493,-13.920086 2.21575,-15.858663 7.05205,-6.569985 30.51645,-6.569985 37.5685,0 2.0725,1.930826 2.21575,2.921631 2.21575,15.32533 0,8.980813 -0.38732,13.648366 -1.2,14.461045 -0.67724,0.677241 -3.92172,1.2 -7.44774,1.2 h -6.24774 l -0.30226,-5.230623 c -0.27082,-4.686616 -0.58827,-5.330718 -3.05226,-6.193041 -1.76174,-0.616559 -3.73826,-0.616559 -5.5,0 -2.46399,0.862323 -2.78144,1.506425 -3.05226,6.193041 L 173.89548,84 h -6.78107 c -3.72959,0 -7.08108,-0.3 -7.44774,-0.666667 z M 171,76.556704 C 171,71.045348 173.436,69 180,69 c 6.564,0 9,2.045348 9,7.556704 V 81 h 4.5 4.5 V 68.44377 55.887539 l -4.75,-2.15807 c -6.70836,-3.047812 -19.79164,-3.047812 -26.5,0 L 162,55.887539 V 68.44377 81 h 4.5 4.5 z M 152,50.090561 c 0,-1.36619 26.26777,-22.083314 28,-22.083314 1.73223,0 28,20.717124 28,22.083314 0,1.701348 -5.32524,0.916668 -11.92154,-1.756652 -5.52557,-2.239381 -8.09894,-2.666091 -16.07846,-2.666091 -7.97952,0 -10.55289,0.42671 -16.07846,2.666091 C 157.32524,51.007229 152,51.791909 152,50.090561 Z M 180,42 c 3.61028,0 8.94473,0.617515 11.85433,1.372256 2.9096,0.754741 4.92017,1.050309 4.46793,0.656818 C 190.80464,39.228245 180.99663,32 180,32 c -0.99663,0 -10.80464,7.228245 -16.32226,12.029074 -0.45224,0.393491 1.55833,0.09792 4.46793,-0.656818 C 171.05527,42.617515 176.38972,42 180,42 Z"
       id="path91"
       inkscape:connector-curvature="0" />
    <path
       style="fill:#ececec"
       d="M 155,109.75 V 101 h 4 c 2.88889,0 4,-0.41667 4,-1.5 0,-1.151515 -1.27778,-1.5 -5.5,-1.5 -3.025,0 -5.5,-0.45 -5.5,-1 0,-0.55 1.59083,-1 3.53518,-1 3.22531,0 3.44136,-0.175311 2.46482,-2 -0.84439,-1.577765 -0.76049,-2 0.39743,-2 0.80729,0 1.75344,0.9 2.10257,2 0.92854,2.925585 7.05975,2.764299 9.50363,-0.25 1.00331,-1.2375 2.15207,-1.923375 2.55279,-1.524166 0.40072,0.399209 0.15936,1.411709 -0.53636,2.25 C 170.92634,95.793682 171.24546,96 174.37756,96 176.3699,96 178,96.45 178,97 c 0,0.555556 -2.66667,1 -6,1 -4.66667,0 -6,0.333333 -6,1.5 0,1.11111 1.16667,1.5 4.5,1.5 h 4.5 v 8.75 8.75 h -10 -10 z m 17.75334,4.5 c 0.30784,-0.931 -1.64957,-1.25 -7.67001,-1.25 -7.47373,0 -9.19599,0.554 -7.37702,2.37298 1.23777,1.23777 14.59608,0.24082 15.04703,-1.12298 z m 0,-5 c 0.30784,-0.931 -1.64957,-1.25 -7.67001,-1.25 -7.47373,0 -9.19599,0.554 -7.37702,2.37298 1.23777,1.23777 14.59608,0.24082 15.04703,-1.12298 z m 0,-5 c 0.30784,-0.931 -1.64957,-1.25 -7.67001,-1.25 -7.47373,0 -9.19599,0.554 -7.37702,2.37298 1.23777,1.23777 14.59608,0.24082 15.04703,-1.12298 z M 182,118.15829 c 0,-0.46294 1.82579,-1.38873 4.05731,-2.05732 C 191.7683,114.38992 194,111.83277 194,107 c 0,-2.2 0.45,-4 1,-4 1.3394,0 1.27892,7.61033 -0.0807,10.15076 C 193.17208,116.4155 182,120.7458 182,118.15829 Z m 19.25,-1.79885 C 197.52868,114.11568 195.76441,112 197.61467,112 c 1.65142,0 10.2582,5.39668 9.79698,6.14296 -0.773,1.25074 -1.45819,1.05241 -6.16165,-1.78352 z M 185,106.06037 v -6.939639 l 3.6727,-0.310366 C 194.94622,98.280215 193.99474,96 187.5,96 c -4.08807,0 -5.55102,-0.34822 -5.25154,-1.25 0.29623,-0.89196 4.04372,-1.330166 13.08334,-1.529877 C 205.98387,92.984788 208,93.17613 208,94.422406 c 0,1.11725 -1.51921,1.555457 -6.17063,1.779877 C 193.95772,96.58207 192.30467,99 199.91667,99 H 205 v 7 c 0,8.40172 -1.7745,9.40992 -2.2001,1.25 L 202.5,101.5 195.25,101.20619 188,100.91238 v 6.04381 C 188,111.6618 187.66787,113 186.5,113 c -1.18923,0 -1.5,-1.43774 -1.5,-6.93963 z M 159.66667,83.333333 C 159.3,82.966667 159,76.481669 159,68.922227 v -13.74444 l 2.97081,-2.499768 c 7.32569,-6.164169 28.73269,-6.164169 36.05838,0 L 201,55.177787 v 13.211107 c 0,8.941971 -0.38778,13.598883 -1.2,14.411106 -0.67724,0.677241 -3.92172,1.2 -7.44774,1.2 h -6.24774 l -0.30226,-5.230623 c -0.27082,-4.686616 -0.58827,-5.330718 -3.05226,-6.193041 -1.76174,-0.616559 -3.73826,-0.616559 -5.5,0 -2.46399,0.862323 -2.78144,1.506425 -3.05226,6.193041 L 173.89548,84 h -6.78107 c -3.72959,0 -7.08108,-0.3 -7.44774,-0.666667 z M 171,76.622445 C 171,70.895042 172.76279,69.5 180,69.5 c 7.23721,0 9,1.395042 9,7.122445 V 81 h 4.52988 4.52987 L 197.77988,68.25 197.5,55.5 l -4,-1.996341 c -5.72175,-2.855639 -21.27825,-2.855639 -27,0 L 162.5,55.5 162.22012,68.25 161.94025,81 H 166.47012 171 Z M 152,50.174831 C 152,49.011026 178.53047,28 180,28 c 1.46953,0 28,21.011026 28,22.174831 0,1.637624 -5.47515,0.770704 -11.92154,-1.887622 -5.5735,-2.29837 -8.02973,-2.712791 -16.07846,-2.712791 -8.04873,0 -10.50496,0.414421 -16.07846,2.712791 C 157.47515,50.945535 152,51.812455 152,50.174831 Z m 19,-7.305363 c 5.3618,-1.258881 13.97191,-1.023091 20.03073,0.548545 3.00662,0.779907 5.55088,1.333713 5.65391,1.230679 0.10303,-0.103033 -3.62101,-3.235119 -8.27565,-6.960191 l -8.46298,-6.772857 -7.723,6.211336 c -10.08072,8.107558 -10.22187,8.250815 -7.22301,7.331026 1.375,-0.42173 4.075,-1.136572 6,-1.588538 z"
       id="path89"
       inkscape:connector-curvature="0" />
    <path
       style="fill:#e3e3e3"
       d="M 155,109.75 V 101 h 3.89301 c 2.53796,0 4.09336,-0.52211 4.46862,-1.5 C 163.83365,98.269917 162.86321,98 157.96862,98 154.65621,98 152,97.554971 152,97 c 0,-0.55 1.59083,-1 3.53518,-1 3.22531,0 3.44136,-0.175311 2.46482,-2 -0.71697,-1.339672 -0.73138,-2 -0.0437,-2 0.56469,0 1.58877,0.9 2.27573,2 1.7779,2.846868 7.37688,2.703621 9.77156,-0.25 1.00331,-1.2375 2.15207,-1.923375 2.55279,-1.524166 0.40072,0.399209 0.15936,1.411709 -0.53636,2.25 C 170.92634,95.793682 171.24546,96 174.37756,96 176.3699,96 178,96.45 178,97 c 0,0.553538 -2.631,1 -5.89301,1 -4.31574,0 -6.04707,0.401476 -6.46862,1.5 -0.46405,1.2093 0.38731,1.5 4.39301,1.5 H 175 v 8.75 8.75 h -10 -10 z m 17.5,4.25 c 0,-1.19976 -1.49848,-1.5 -7.4863,-1.5 -6.40399,0 -7.53625,0.2593 -7.83171,1.79354 -0.31215,1.62086 0.40857,1.76527 7.4863,1.5 C 170.83268,115.56249 172.5,115.18066 172.5,114 Z m 0.5,-4.5 c 0,-1.20833 -1.55556,-1.5 -8,-1.5 -6.44444,0 -8,0.29167 -8,1.5 0,1.20833 1.55556,1.5 8,1.5 6.44444,0 8,-0.29167 8,-1.5 z m 0,-5 c 0,-1.20833 -1.55556,-1.5 -8,-1.5 -6.44444,0 -8,0.29167 -8,1.5 0,1.20833 1.55556,1.5 8,1.5 6.44444,0 8,-0.29167 8,-1.5 z m 9.56777,13.60965 c -0.30265,-0.48969 1.07107,-1.19452 3.05271,-1.56627 5.24608,-0.98417 8.37952,-4.53583 8.37952,-9.49793 0,-2.225 0.45,-4.04545 1,-4.04545 1.3394,0 1.27892,7.61033 -0.0807,10.15076 -0.59438,1.1106 -2.95688,2.87113 -5.25,3.91229 -4.65865,2.1152 -6.29232,2.35596 -7.10155,1.0466 z m 18.68223,-1.7846 c -5.93075,-3.45365 -5.33323,-4.90765 0.75,-1.82505 2.75,1.39353 5,2.97611 5,3.51685 0,1.39052 -0.92353,1.11879 -5.75,-1.6918 z M 185,106 v -7 h 4 c 2.88889,0 4,-0.416667 4,-1.5 0,-1.130944 -1.21566,-1.5 -4.94098,-1.5 -2.71754,0 -5.2191,-0.45 -5.55902,-1 -0.39997,-0.647167 3.98962,-1 12.44098,-1 7.6031,0 13.05902,0.397853 13.05902,0.952283 0,0.523755 -2.77678,1.086255 -6.17063,1.25 C 193.95772,96.58207 192.30467,99 199.91667,99 H 205 v 7 c 0,4 -0.42857,7 -1,7 -0.55633,0 -1,-2.68069 -1,-6.04206 v -6.04207 l -7.75,0.29207 -7.75,0.29206 -0.2999,5.75 C 186.7745,115.40992 185,114.40172 185,106 Z M 160.2,82.8 c -0.81237,-0.812372 -1.2,-5.47276 -1.2,-14.42742 0,-13.00419 0.0433,-13.261436 2.56248,-15.243069 4.19133,-3.2969 9.4339,-4.606814 18.43752,-4.606814 9.00362,0 14.24619,1.309914 18.43752,4.606814 C 200.95675,55.111144 201,55.36839 201,68.37258 c 0,8.95466 -0.38763,13.615048 -1.2,14.42742 -0.67937,0.679365 -3.93333,1.2 -7.5,1.2 H 186 V 78.606989 C 186,72.778944 185.29262,72 180,72 c -5.29262,0 -6,0.778944 -6,6.606989 V 84 h -6.3 c -3.56667,0 -6.82063,-0.520635 -7.5,-1.2 z M 171,77.071429 c 0,-2.160715 0.67037,-4.598943 1.48971,-5.418286 3.19805,-3.198042 11.82253,-3.198042 15.02058,0 C 188.32963,72.472486 189,74.910714 189,77.071429 V 81 h 4.52988 4.52987 L 197.77988,68.25 197.5,55.5 l -4,-2 c -3.15789,-1.578947 -6,-2 -13.5,-2 -7.5,0 -10.34211,0.421053 -13.5,2 l -4,2 -0.27988,12.75 L 161.94025,81 H 166.47012 171 Z M 152,50.188202 c 0,-0.821241 20.17805,-17.297697 25.25,-20.617975 2.64829,-1.733662 2.85171,-1.733662 5.5,0 5.07195,3.320278 25.25,19.796734 25.25,20.617975 0,1.700508 -5.9924,0.70218 -11.62916,-1.937406 -5.23539,-2.451633 -7.00735,-2.749203 -16.37084,-2.749203 -9.36349,0 -11.13545,0.29757 -16.37084,2.749203 C 157.9924,50.890382 152,51.88871 152,50.188202 Z m 19,-7.126597 c 6.22453,-1.400814 12.4386,-1.28001 19.49175,0.378931 3.29547,0.775111 6.10928,1.291765 6.25293,1.148118 0.14365,-0.143647 -3.56514,-3.293467 -8.24175,-6.999601 L 180,30.850628 l -8.5,6.736105 c -4.675,3.704858 -8.5,6.918791 -8.5,7.142074 0,0.223283 0.7875,0.167366 1.75,-0.12426 0.9625,-0.291626 3.775,-0.985949 6.25,-1.542942 z"
       id="path87"
       inkscape:connector-curvature="0" />
    <path
       style="fill:#dbdbdb"
       d="m 155,110.0575 v -8.9425 l 4.17228,-0.3075 c 2.29475,-0.16913 4.35725,-0.87 4.58333,-1.5575 C 164.05422,98.341939 162.50256,98 158.08333,98 154.69444,98 152,97.557078 152,97 c 0,-0.55 1.60532,-1 3.56739,-1 3.21662,0 3.5064,-0.221232 2.94714,-2.25 l -0.62024,-2.25 1.96315,2.25 c 1.32915,1.523362 3.08305,2.25 5.43088,2.25 2.4341,0 3.9661,-0.67066 5.13971,-2.25 L 172.1,91.5 l -0.45638,2.25 c -0.40208,1.982302 -0.0511,2.25 2.95,2.25 1.87351,0 3.40638,0.45 3.40638,1 0,0.553538 -2.631,1 -5.89301,1 -4.31574,0 -6.04707,0.401476 -6.46862,1.5 -0.46405,1.2093 0.38731,1.5 4.39301,1.5 H 175 v 9 c 0,5.33333 -0.40741,9 -1,9 -0.55,0 -1,-0.45 -1,-1 0,-0.58333 -3.33333,-1 -8,-1 -4.66667,0 -8,0.41667 -8,1 0,0.55 -0.45,1 -1,1 -0.59212,0 -1,-3.6475 -1,-8.9425 z M 173,114 c 0,-1.83333 -0.66667,-2 -8,-2 -7.33333,0 -8,0.16667 -8,2 0,1.83333 0.66667,2 8,2 7.33333,0 8,-0.16667 8,-2 z m 0,-5 c 0,-1.83333 -0.66667,-2 -8,-2 -7.33333,0 -8,0.16667 -8,2 0,1.83333 0.66667,2 8,2 7.33333,0 8,-0.16667 8,-2 z m 0,-4.5 c 0,-1.20833 -1.55556,-1.5 -8,-1.5 -6.44444,0 -8,0.29167 -8,1.5 0,1.20833 1.55556,1.5 8,1.5 6.44444,0 8,-0.29167 8,-1.5 z m 10,13.64684 c 0,-0.54336 1.32887,-1.2798 2.95304,-1.63653 C 191.39979,115.31401 194,112.37906 194,107.42742 194,104.99234 194.45,103 195,103 c 1.35965,0 1.26652,6.32094 -0.13856,9.40476 C 193.41579,115.57762 183,120.61987 183,118.14684 Z M 201.5,116 c -2.75,-1.63124 -4.41957,-2.97357 -3.71016,-2.98295 1.98445,-0.0262 9.21016,3.89902 9.21016,5.00327 0,1.29283 0.22433,1.37523 -5.5,-2.02032 z M 186.19268,106.81336 186,100.12672 l 3.25,-0.313362 c 2.46418,-0.237591 3.32554,-0.84423 3.56242,-2.508934 0.28279,-1.987386 -0.19132,-2.230607 -5,-2.565017 -2.92183,-0.203193 0.53758,-0.365979 7.68758,-0.361745 7.15,0.0042 10.1919,0.16735 6.75978,0.362481 -4.77459,0.271457 -6.46912,0.78249 -7.21481,2.175838 C 193.68894,99.449741 194.60277,100 200.16667,100 H 205 v 6.5 c 0,3.66667 -0.4359,6.5 -1,6.5 -0.55556,0 -1,-2.66667 -1,-6 v -6 h -7.95228 -7.95229 l -0.35503,6.25 -0.35504,6.25 z M 160.2,82.8 c -0.80878,-0.808776 -1.2,-5.387879 -1.2,-14.045455 0,-12.203388 0.11921,-12.964668 2.38505,-15.230502 3.20854,-3.208545 9.56259,-4.87133 18.61495,-4.87133 9.05236,0 15.40641,1.662785 18.61495,4.87133 C 200.88392,55.793013 201,56.542288 201,68.919362 201,83.964693 200.97791,84 191.56574,84 H 186 V 78.606989 C 186,72.778944 185.29262,72 180,72 c -5.29262,0 -6,0.778944 -6,6.606989 V 84 h -6.3 c -3.56667,0 -6.82063,-0.520635 -7.5,-1.2 z M 171,77.154988 c 0,-5.376134 2.7554,-7.676696 9.08157,-7.582472 C 186.37804,69.666297 189,71.895491 189,77.154988 V 81 h 4.52988 4.52987 L 197.77988,68.304198 197.5,55.608395 194,53.554198 C 191.07007,51.834582 188.78979,51.5 180,51.5 c -8.78979,0 -11.07007,0.334582 -14,2.054198 l -3.5,2.054197 -0.27988,12.695803 L 161.94025,81 H 166.47012 171 Z M 152.0545,50.25 c 0.095,-1.306818 26.35586,-21.678571 27.9455,-21.678571 1.58964,0 27.85055,20.371753 27.9455,21.678571 0.11932,1.642106 -5.55643,0.601227 -10.84901,-1.989606 -5.11292,-2.502888 -6.59015,-2.739605 -17.09649,-2.739605 -10.50634,0 -11.98357,0.236717 -17.09649,2.739605 -5.29258,2.590833 -10.96833,3.631712 -10.84901,1.989606 z M 180,42.799892 c 4.83075,0 10.65838,0.665721 13.5,1.542174 l 5,1.542173 -3.99117,-3.506569 c -2.19514,-1.928612 -6.35764,-5.332291 -9.25,-7.563729 L 180,30.756781 l -5.25883,4.05716 c -2.89236,2.231438 -7.05486,5.635117 -9.25,7.563729 l -3.99117,3.506569 5,-1.542173 c 2.84162,-0.876453 8.66925,-1.542174 13.5,-1.542174 z"
       id="path85"
       inkscape:connector-curvature="0" />
    <path
       style="fill:#d7d7d7"
       d="M 156.07895,110.25 156,101 h 4 c 2.88889,0 4,-0.41667 4,-1.5 0,-1.166667 -1.33333,-1.5 -6,-1.5 -3.33333,0 -6,-0.444444 -6,-1 0,-0.587709 3.4811,-1 8.4433,-1 7.60066,0 8.60789,-0.224547 10.09258,-2.25 l 1.64929,-2.25 -0.65997,2.25 c -0.59726,2.036192 -0.32098,2.25 2.90741,2.25 6.12637,0 3.89365,1.888824 -2.60324,2.202283 C 164.30238,98.565441 162.20286,101 169.41667,101 H 174 l -0.0789,9.25 c -0.0434,5.0875 -0.30592,8.6875 -0.58333,8 C 172.99446,117.39931 170.33099,117 165,117 c -5.33099,0 -7.99446,0.39931 -8.33772,1.25 -0.27741,0.6875 -0.53991,-2.9125 -0.58333,-8 z M 173,114 c 0,-1.83333 -0.66667,-2 -8,-2 -7.33333,0 -8,0.16667 -8,2 0,1.83333 0.66667,2 8,2 7.33333,0 8,-0.16667 8,-2 z m 0,-5 c 0,-1.83333 -0.66667,-2 -8,-2 -7.33333,0 -8,0.16667 -8,2 0,1.83333 0.66667,2 8,2 7.33333,0 8,-0.16667 8,-2 z m 0,-5 c 0,-1.83333 -0.66667,-2 -8,-2 -7.33333,0 -8,0.16667 -8,2 0,1.83333 0.66667,2 8,2 7.33333,0 8,-0.16667 8,-2 z m 10,14.19239 c 0,-0.51832 1.24944,-1.19228 2.77654,-1.4977 C 190.84782,115.68044 194,112.3198 194,107.92742 194,105.67117 194.48154,104 195.13167,104 c 1.47264,0 0.51953,7.51043 -1.21894,9.60516 C 191.63593,116.34853 183,119.9787 183,118.19239 Z m 18.5,-2.23461 c -2.75,-1.6178 -4.67454,-2.94513 -4.27675,-2.94962 1.43962,-0.0162 9.77675,4.41048 9.77675,5.19111 0,1.04243 0.26737,1.1514 -5.5,-2.24149 z M 186.19268,106.75 186,100 h 2.96482 c 1.90777,0 3.33389,-0.689621 4,-1.934259 1.54836,-2.893135 1.48521,-2.937694 -4.71482,-3.326753 -3.1625,-0.19845 0.1,-0.360819 7.25,-0.360819 7.15,0 10.3,0.156917 7,0.348704 -4.0979,0.238159 -6.39627,0.872841 -7.25,2.002045 C 193.14846,99.508563 193.78697,100 199.5,100 h 5.5 v 6.5 c 0,3.66667 -0.4359,6.5 -1,6.5 -0.55556,0 -1,-2.66667 -1,-6 v -6 h -7.95228 -7.95229 l -0.35503,6.25 -0.35504,6.25 z m -27.7338,-12.816531 c -1.07627,-1.741443 0.14952,-2.110241 1.52106,-0.457635 C 160.76869,94.426218 160.84456,95 160.18146,95 c -0.58488,0 -1.36004,-0.479939 -1.72258,-1.066531 z m 2.11255,-11.504898 C 159.32695,81.184091 159,78.489126 159,69.475624 c 0,-6.381225 0.50021,-12.479354 1.13856,-13.880379 4.1656,-9.14251 35.55728,-9.14251 39.72288,0 C 200.49822,56.992812 201,63.073325 201,69.392065 201,83.039686 200.39002,84 191.72116,84 h -5.62135 L 185.7999,78.25 185.5,72.5 h -5.5 -5.5 l -0.2999,5.75 -0.29991,5.75 h -5.87867 c -4.01091,0 -6.37793,-0.499271 -7.45009,-1.571429 z M 171,77.934259 c 0,-1.686158 0.4553,-3.916469 1.01177,-4.956245 1.40655,-2.628167 7.13467,-4.052478 11.47646,-2.853652 C 187.42081,71.210198 189,73.447835 189,77.934259 189,80.901063 189.14522,81 193.5,81 H 198 V 67.948973 54.897947 l -3.75,-1.698974 c -5.27492,-2.389853 -23.22508,-2.389853 -28.5,0 L 162,54.897947 V 67.948973 81 h 4.5 c 4.35478,0 4.5,-0.09894 4.5,-3.065741 z M 152,50.525658 C 152,49.316486 178.42714,29 180,29 c 0.98078,0 7.79451,4.8375 15.14162,10.75 11.23569,9.04179 12.98248,10.803184 10.9928,11.084696 -1.30106,0.184083 -5.12606,-0.940917 -8.5,-2.5 C 192.02309,45.741717 190.51939,45.5 180,45.5 c -10.45555,0 -12.0332,0.249759 -17.37084,2.75 C 157.42188,50.689175 152,51.849977 152,50.525658 Z m 14.5,-6.086854 c 6.42793,-1.979222 20.51702,-1.992733 26.95334,-0.02585 2.72433,0.832535 5.08225,1.384786 5.23981,1.227224 C 199.19721,45.136127 181.09744,31 179.948,31 c -0.9342,0 -13.1792,9.339914 -17.91229,13.662662 -1.82718,1.668778 -1.65428,1.660108 4.46429,-0.223858 z"
       id="path83"
       inkscape:connector-curvature="0" />
  </g>
</svg>
