<?xml version="1.0" encoding="UTF-8" standalone="no"?>
<!-- Created with Inkscape (http://www.inkscape.org/) -->

<svg
   xmlns:dc="http://purl.org/dc/elements/1.1/"
   xmlns:cc="http://creativecommons.org/ns#"
   xmlns:rdf="http://www.w3.org/1999/02/22-rdf-syntax-ns#"
   xmlns:svg="http://www.w3.org/2000/svg"
   xmlns="http://www.w3.org/2000/svg"
   xmlns:sodipodi="http://sodipodi.sourceforge.net/DTD/sodipodi-0.dtd"
   xmlns:inkscape="http://www.inkscape.org/namespaces/inkscape"
   version="1.1"
   id="svg10"
   width="48"
   height="48"
   viewBox="0 0 48 48"
   sodipodi:docname="heart.svg"
   inkscape:version="0.92.3 (2405546, 2018-03-11)">
  <metadata
     id="metadata16">
    <rdf:RDF>
      <cc:Work
         rdf:about="">
        <dc:format>image/svg+xml</dc:format>
        <dc:type
           rdf:resource="http://purl.org/dc/dcmitype/StillImage" />
        <dc:title></dc:title>
      </cc:Work>
    </rdf:RDF>
  </metadata>
  <defs
     id="defs14" />
  <sodipodi:namedview
     pagecolor="#ffffff"
     bordercolor="#666666"
     borderopacity="1"
     objecttolerance="10"
     gridtolerance="10"
     guidetolerance="10"
     inkscape:pageopacity="0"
     inkscape:pageshadow="2"
     inkscape:window-width="1366"
     inkscape:window-height="715"
     id="namedview12"
     showgrid="false"
     inkscape:zoom="11.125"
     inkscape:cx="24"
     inkscape:cy="24"
     inkscape:window-x="-8"
     inkscape:window-y="-8"
     inkscape:window-maximized="1"
     inkscape:current-layer="svg10" />
  <g
     id="g20">
    <path
       style="fill:#e7e6e6"
       d="M 17,43.326683 C 10.820974,40.660577 7.9467509,37 12.032395,37 13.830456,37 13.607881,36.394679 10.10198,31.75 5.3326867,25.431556 4,22.174063 4,16.8349 4,13.579523 4.6568638,12.143136 7.4,9.4 11.263928,5.5360719 15.956196,4.8917474 21.04966,7.5256801 c 2.644596,1.3675736 3.256084,1.3675736 5.90068,0 C 32.043804,4.8917474 36.736072,5.5360719 40.6,9.4 43.408534,12.208534 44,13.545295 44,17.084276 44,22.072962 41.3193,28.120945 37.028989,32.811718 33.450449,36.724283 33.38271,37 36,37 c 4.206853,0 1.067599,3.740146 -5.372124,6.400414 C 25.908298,45.350086 21.635909,45.326971 17,43.326683 Z M 30.857057,35.018755 C 42.039486,26.179554 44.953155,13.612736 36.797915,9.3954978 33.234439,7.5527527 27.859778,8.9344068 25.503101,12.299035 L 24,14.445012 22.496899,12.299035 C 20.140222,8.9344068 14.765561,7.5527527 11.202085,9.3954978 4.9950206,12.605296 4.9138827,20.439662 11.000682,28.842244 14.405452,33.542393 21.422153,39 24.060241,39 c 0.96809,0 4.026657,-1.79156 6.796816,-3.981245 z"
       id="path34"
       inkscape:connector-curvature="0" />
    <path
       style="fill:#fbd1cc"
       d="M 18.502309,42.396133 C 16.30358,41.591515 13.844651,40.273222 13.038024,39.466595 11.74923,38.177802 11.856466,38 13.922556,38 16.087238,38 15.910469,37.611694 11.693447,33.103356 6.3768436,27.419477 4,22.37582 4,16.777876 4,8.1631466 14.676213,2.8110684 21.365141,8.0725801 L 24,10.14516 26.634859,8.0725801 C 33.27048,2.8529996 44.026397,8.1725557 43.978038,16.65 c -0.03015,5.284915 -3.277673,12.024761 -8.239459,17.1 -3.841312,3.929144 -3.979041,4.25 -1.824342,4.25 3.586016,0 0.933306,2.523209 -4.654324,4.427106 -5.450314,1.857108 -5.599338,1.856679 -10.757604,-0.03097 z m 9.952404,-5.364975 C 40.09582,29.021866 45.171912,16.085503 38.900568,10.410015 35.878555,7.6751308 29.755619,7.941505 26.556372,10.947041 L 24,13.348628 21.443628,10.947041 C 18.244381,7.941505 12.121445,7.6751308 9.0994319,10.410015 2.6077396,16.284916 7.8011929,28.762862 20.5,37.801361 c 1.65,1.174403 3.143921,2.149535 3.319825,2.166959 0.175903,0.01742 2.261603,-1.304299 4.634888,-2.937162 z"
       id="path32"
       inkscape:connector-curvature="0" />
    <path
       style="fill:#d9d9d9"
       d="M 18.502309,42.396133 C 16.30358,41.591515 13.844651,40.273222 13.038024,39.466595 11.74923,38.177802 11.855316,38 13.913074,38 16.095363,38 15.967776,37.688702 12.03825,33.42567 3.6620486,24.338565 1.8437769,14.701678 7.4480363,9.0974183 10.767513,5.7779415 18.578482,5.4035687 21.895012,8.4049876 c 2.069992,1.8733164 2.139984,1.8733164 4.209976,0 C 29.421518,5.4035687 37.232487,5.7779415 40.551964,9.0974183 46.156223,14.701678 44.337951,24.338565 35.96175,33.42567 32.126398,37.586536 31.948635,38 33.995085,38 c 3.510131,0 0.787764,2.545252 -4.735172,4.427106 -5.450314,1.857108 -5.599338,1.856679 -10.757604,-0.03097 z M 28.599962,37.171604 C 36.624898,31.351739 42,23.180545 42,16.800953 42,12.787529 37.187775,8 33.153648,8 31.384921,8 28.890568,9.0626455 27.076725,10.588894 L 24,13.177787 20.923275,10.588894 C 16.755853,7.0822398 12.649561,7.1965924 8.9230769,10.923077 4.1787588,15.667395 5.3382865,22.755039 12.124904,30.494332 15.418156,34.249876 22.601583,40 24,40 c 0.384958,0 2.45494,-1.272778 4.599962,-2.828396 z"
       id="path30"
       inkscape:connector-curvature="0" />
    <path
       style="fill:#fec3bb"
       d="M 18.400038,39.171604 C 5.4604176,29.7875 0.46776725,16.077687 7.4480363,9.0974183 10.767513,5.7779415 18.578482,5.4035687 21.895012,8.4049876 c 2.069992,1.8733164 2.139984,1.8733164 4.209976,0 C 27.568697,7.080349 29.694303,6.5 33.08226,6.5 45.491136,6.5 47.524054,20.350635 36.894344,32.47241 32.707745,37.24667 26.274737,42 24,42 23.065042,42 20.54506,40.727222 18.400038,39.171604 Z m 10.199924,-2 C 36.624898,31.351739 42,23.180545 42,16.800953 42,12.787529 37.187775,8 33.153648,8 31.384921,8 28.890568,9.0626455 27.076725,10.588894 L 24,13.177787 20.923275,10.588894 C 16.755853,7.0822398 12.649561,7.1965924 8.9230769,10.923077 4.1787588,15.667395 5.3382865,22.755039 12.124904,30.494332 15.418156,34.249876 22.601583,40 24,40 c 0.384958,0 2.45494,-1.272778 4.599962,-2.828396 z"
       id="path28"
       inkscape:connector-curvature="0" />
    <path
       style="fill:#fcb3aa"
       d="M 18.945781,39.175331 C 4.2866408,29.861508 -0.51334687,12.936663 9.967267,7.5169269 c 3.840358,-1.9859261 5.831969,-1.9135128 10.321291,0.3752739 3.640961,1.8562677 3.781923,1.8562677 7.422884,0 4.489322,-2.2887867 6.480933,-2.3612 10.321291,-0.3752739 C 41.108593,9.1075158 44,13.592109 44,16.772201 44,20.621517 40.771239,27.907259 37.234038,32.039682 34.04899,35.760695 25.758973,42 24,42 23.665359,42 21.39096,40.728899 18.945781,39.175331 Z m 7.851263,-0.521127 C 30.938827,36.355395 38.260698,28.580686 40.126836,24.5 c 1.006082,-2.2 1.839123,-5.602647 1.851202,-7.561439 0.05017,-8.1356297 -10.049311,-11.8672878 -16.003474,-5.913125 -1.966085,1.966085 -1.983043,1.966085 -3.949128,0 C 16.071273,5.0712732 5.9717927,8.8029313 6.021962,16.938561 c 0.043545,7.061366 6.250296,16.207582 14.350611,21.14694 3.654511,2.228425 3.464449,2.2116 6.424471,0.568703 z"
       id="path26"
       inkscape:connector-curvature="0" />
    <path
       style="fill:#fda297"
       d="M 18.299627,38.515843 C 10.216323,33.072228 4.963508,25.003329 4.6765746,17.589342 4.4619459,12.043615 6.9349865,8.3993689 11.92825,6.9033507 15.353416,5.877146 16.392813,5.9853429 19.932292,7.7365377 L 24,9.7490793 28.067708,7.7365377 C 31.607187,5.9853429 32.646584,5.877146 36.07175,6.9033507 45.228085,9.6466553 45.876393,20.055143 37.595069,31.359978 35.676982,33.978359 25.483179,42 24.07386,42 23.743554,42 21.145149,40.432129 18.299627,38.515843 Z M 30.5,36.210297 c 10.186486,-7.700224 14.582865,-20.218341 9.045455,-25.755752 -3.410988,-3.4109868 -9.679922,-3.4109868 -13.09091,0 L 24,12.909091 21.545455,10.454545 C 19.739394,8.6484848 18.010101,8 15,8 5.8196242,8 3.1482355,16.831644 9.25,27.009572 12.471959,32.383897 21.114938,39.989925 24,39.989925 c 0.825,0 3.75,-1.700833 6.5,-3.779628 z"
       id="path24"
       inkscape:connector-curvature="0" />
    <path
       style="fill:#fe9c90"
       d="M 18.400038,38.171604 C 5.9828185,29.166356 1.3015842,16.54457 7.9230769,9.9230769 11.493651,6.352503 17.352331,5.9161029 21.190045,8.9348497 c 2.429796,1.9112773 2.4954,1.9113573 5.384859,0.00659 C 33.853805,4.1430945 43,8.6054964 43,16.955196 43,22.200017 41.12743,26.645074 36.875096,31.494332 32.705426,36.249322 26.270798,41 24,41 23.065042,41 20.54506,39.727222 18.400038,38.171604 Z m 11.235777,-1.02275 C 40.846096,29.028169 45.522341,16.431432 39.545455,10.454545 36.381377,7.2904675 30.396831,7.1134122 26.634859,10.07258 L 24,12.14516 21.365141,10.07258 C 19.719752,8.7783167 17.261735,8 14.819687,8 4.5613967,8 2.7850967,20.488258 11.562608,30.898854 15.164229,35.170568 21.764006,40 24,40 c 0.934958,0 3.471074,-1.283016 5.635815,-2.851146 z"
       id="path22"
       inkscape:connector-curvature="0" />
  </g>
</svg>
