<?xml version="1.0" encoding="UTF-8" standalone="no"?>
<!-- Created with Inkscape (http://www.inkscape.org/) -->

<svg
   xmlns:dc="http://purl.org/dc/elements/1.1/"
   xmlns:cc="http://creativecommons.org/ns#"
   xmlns:rdf="http://www.w3.org/1999/02/22-rdf-syntax-ns#"
   xmlns:svg="http://www.w3.org/2000/svg"
   xmlns="http://www.w3.org/2000/svg"
   xmlns:sodipodi="http://sodipodi.sourceforge.net/DTD/sodipodi-0.dtd"
   xmlns:inkscape="http://www.inkscape.org/namespaces/inkscape"
   version="1.1"
   id="svg10"
   width="111"
   height="13"
   viewBox="0 0 111 13"
   sodipodi:docname="no-authentication.svg"
   inkscape:version="0.92.3 (2405546, 2018-03-11)">
  <metadata
     id="metadata16">
    <rdf:RDF>
      <cc:Work
         rdf:about="">
        <dc:format>image/svg+xml</dc:format>
        <dc:type
           rdf:resource="http://purl.org/dc/dcmitype/StillImage" />
        <dc:title></dc:title>
      </cc:Work>
    </rdf:RDF>
  </metadata>
  <defs
     id="defs14" />
  <sodipodi:namedview
     pagecolor="#ffffff"
     bordercolor="#666666"
     borderopacity="1"
     objecttolerance="10"
     gridtolerance="10"
     guidetolerance="10"
     inkscape:pageopacity="0"
     inkscape:pageshadow="2"
     inkscape:window-width="1366"
     inkscape:window-height="715"
     id="namedview12"
     showgrid="false"
     inkscape:zoom="10.90991"
     inkscape:cx="55.5"
     inkscape:cy="6.5"
     inkscape:window-x="-8"
     inkscape:window-y="-8"
     inkscape:window-maximized="1"
     inkscape:current-layer="svg10" />
  <g
     id="g20">
    <path
       style="fill:#fee9e6"
       d="M 20,10.3 C 20,8.9777778 19.733333,8.8666667 18.8,9.8 18.14,10.46 16.9025,10.989994 16.05,10.977764 14.963473,10.962177 15.247537,10.370796 17,9 L 19.5,7.0444717 17.190983,7.0222358 C 14.292543,6.9943239 15.324323,5.0361104 18.309017,4.90032 20.348609,4.8075276 20.327257,4.745318 18,4 15.703044,3.264386 15.675971,3.1912643 17.666667,3.09968 18.858333,3.044856 20.061574,2.4375 20.340536,1.75 20.712101,0.83427779 21.068664,0.80334179 21.673869,1.6343178 22.128241,2.2581926 23.4,2.993492 24.5,3.2683164 26.202418,3.6936492 26.128022,3.8000888 24,3.9836787 L 21.5,4.1993601 24,4.9194824 C 27.021945,5.7899505 30.017187,4.2083642 29.230282,2.1577216 28.860633,1.1944315 29.07156,0.92619231 29.830061,1.3949721 30.473528,1.7926561 31,3.6664763 31,5.559017 31,9.1316603 32.336918,10.170348 33.393011,7.4182125 33.726855,6.5482294 34,4.7482294 34,3.4182125 34,2.0881956 34.45,1 35,1 c 0.55,0 1,1.4748722 1,3.2774938 0,1.8026215 0.700517,4.2776215 1.556704,5.5 C 38.412891,10.999872 38.660252,12 38.106394,12 37.552536,12 36.62702,11.2125 36.04969,10.25 35.049985,8.5833333 34.950015,8.5833333 33.95031,10.25 33.37298,11.2125 32.446423,12 31.891293,12 31.336163,12 31.219905,11.4375 31.632941,10.75 32.143218,9.9006436 31.841619,9.939889 30.691958,10.872445 29.168639,12.108096 29,11.923009 29,9.0154559 29,6.4814776 28.659364,5.9167368 27.418213,6.3930112 26.548229,6.726855 25.085729,7.0100061 24.168213,7.0222358 22.885696,7.0393307 23.078008,7.4965962 25,9 c 1.752463,1.370796 2.036527,1.962177 0.95,1.977764 C 25.0975,10.989994 23.86,10.46 23.2,9.8 22.266667,8.8666667 22,8.9777778 22,10.3 22,11.235 21.55,12 21,12 20.45,12 20,11.235 20,10.3 Z M 41,8.8212886 C 41,7.2695799 40.46,6 39.8,6 38.913105,6 38.892715,5.707285 39.721855,4.878145 40.338875,4.2611247 40.575751,3.0580008 40.248246,2.2045362 39.802605,1.0432144 40.094452,0.82226711 41.408179,1.3263913 c 0.965468,0.3704848 3.631092,0.7258093 5.923608,0.7896101 2.292517,0.063801 3.380713,0.3217966 2.418213,0.5733241 -2.041375,0.5334671 -2.2904,1.891821 -0.5,2.7273412 1,0.4666666 1,0.7 0,1.1666666 C 47.496805,7.401491 47.68694,10 49.5,10 c 0.825,0 1.5,0.472246 1.5,1.049435 0,0.623075 -2.03138,0.956744 -5,0.821288 -4.764596,-0.217405 -5,-0.360974 -5,-3.0494344 z M 45.336722,4.804373 C 46.831174,3.8638794 45.446587,2.614651 43.666733,3.2976449 42.695602,3.6703027 42.429382,4.73592 42.823932,6.6711835 43.292217,8.9681186 43.47875,9.1239548 43.816009,7.5 44.044455,6.4 44.728775,5.1869678 45.336722,4.804373 Z M 52.710251,10 C 52.997907,8.9 53.630779,8 54.116631,8 54.602484,8 55,8.9 55,10 c 0,1.1 -0.632871,2 -1.40638,2 -0.914051,0 -1.223291,-0.700137 -0.883369,-2 z M 63.8,10.8 C 64.46,10.14 65,8.34 65,6.8 65,4.9777778 65.52381,4 66.5,4 67.325,4 68,3.276855 68,2.3930112 c 0,-1.054521 0.543804,-1.39831168 1.581787,-1 0.869984,0.3338438 2.332484,0.6518448 3.25,0.7066688 C 73.840584,2.1599583 73.511793,2.5158393 72,3 70.333333,3.53376 70.083333,3.8338666 71.25,3.90032 72.273818,3.9586367 73,4.7959835 73,5.9182125 73,8.5308728 74.023739,11 75.106989,11 75.598145,11 76,9.3928571 76,7.4285714 c 0,-1.9642857 0.642857,-4.2142857 1.428571,-5 C 79.257501,0.59964217 80,0.62026715 80,2.5 80,4.5774138 81.751993,4.3878595 82.310674,2.25 82.637383,0.99981129 82.801128,1.1775855 82.883999,2.8724447 82.981371,4.8638972 83.240886,5.0449719 84.5,4 85.580708,3.1030923 86,3.0776385 86,3.9089401 86,4.5435463 85.325,5.3217914 84.5,5.6383736 83.675,5.9549558 83,7.0961571 83,8.1743765 83,9.7161981 83.452294,9.9912227 85.118313,9.4624489 86.64997,8.97632 87.111666,9.165366 86.785416,10.145061 86.071054,12.290219 73.861326,12.392445 72.25,10.26676 71.108674,8.7611049 71,8.7813826 71,10.5 71,12.31689 70.947821,12.314846 69.497546,10.44113 68.245104,8.8230076 68.096505,8.7912033 68.604535,10.25 68.945748,11.229784 68.726766,12 68.106989,12 c -0.608844,0 -1.120673,-0.7875 -1.137398,-1.75 -0.02896,-1.6666667 -0.07895,-1.6666667 -1.04969,0 C 65.359296,11.2125 64.38298,12 63.75031,12 62.910836,12 62.924263,11.675737 63.8,10.8 Z M 82,8 c 0,-1.1 -0.45,-2 -1,-2 -0.55,0 -1,0.9 -1,2 0,1.1 0.45,2 1,2 0.55,0 1,-0.9 1,-2 z M 70.75,6.3106745 c -0.9625,-0.2515276 -2.5375,-0.2515276 -3.5,0 -0.9625,0.2515275 -0.175,0.4573228 1.75,0.4573228 1.925,0 2.7125,-0.2057953 1.75,-0.4573228 z M 89,9.1224447 C 89,7.3081174 88.476325,5.9866763 87.75,5.9681966 86.924362,5.9471902 87.039032,5.5228278 88.087771,4.7181966 88.961045,4.0481885 89.465166,2.8748619 89.208039,2.1108043 88.924004,1.2667884 89.183891,0.9956171 89.870268,1.4198213 90.491621,1.8038383 91,3.6664763 91,5.559017 91,9.1316603 92.336918,10.170348 93.393011,7.4182125 93.726855,6.5482294 94,4.7482294 94,3.4182125 94,2.0881956 94.45,1 95,1 c 0.55,0 1,1.4748722 1,3.2774938 0,1.8026215 0.700517,4.2776215 1.556704,5.5 C 98.412891,10.999872 98.660252,12 98.106394,12 97.552536,12 96.62702,11.2125 96.04969,10.25 95.049985,8.5833333 94.950015,8.5833333 93.95031,10.25 93.37298,11.2125 92.446423,12 91.891293,12 91.336163,12 91.219905,11.4375 91.632941,10.75 92.143218,9.9006436 91.841619,9.939889 90.691958,10.872445 89.170899,12.106263 89,11.929501 89,9.1224447 Z M 101,8.8212886 C 101,7.2695799 100.46,6 99.8,6 98.913105,6 98.892715,5.707285 99.721855,4.878145 c 0.617025,-0.6170203 0.853895,-1.8201442 0.526395,-2.6736088 -0.445645,-1.1613218 -0.1538,-1.38226909 1.15993,-0.8781449 0.96547,0.3704848 3.63109,0.7258093 5.92361,0.7896101 2.29251,0.063801 3.38071,0.3217966 2.41821,0.5733241 -2.04138,0.5334671 -2.2904,1.891821 -0.5,2.7273412 1,0.4666666 1,0.7 0,1.1666666 C 107.4968,7.401491 107.68694,10 109.5,10 c 0.825,0 1.5,0.472246 1.5,1.049435 0,0.623075 -2.03138,0.956744 -5,0.821288 -4.7646,-0.217405 -5,-0.360974 -5,-3.0494344 z m 4.33672,-4.0169156 c 1.49445,-0.9404936 0.10987,-2.189722 -1.66999,-1.5067281 -0.97113,0.3726578 -1.23735,1.4382751 -0.8428,3.3735386 0.46829,2.2969351 0.65482,2.4527713 0.99208,0.8288165 0.22844,-1.1 0.91277,-2.3130322 1.52071,-2.695627 z M 1.6904568,8.846647 C -0.5007685,7.6203756 -0.47154359,5.3172329 1.75,4.1541969 c 2.0376929,-1.0667853 9.179174,-0.9456646 11,0.1865619 1.605391,0.9982644 1.607815,3.3200651 0.0045,4.3109674 C 10.895163,9.8008607 3.62443,9.9289528 1.6904568,8.846647 Z M 4.4472136,5.9145898 C 4.125238,5.3936223 3.4355573,5.2308108 2.9145898,5.5527864 2.3936223,5.874762 2.2308108,6.5644427 2.5527864,7.0854102 2.874762,7.6063777 3.5644427,7.7691892 4.0854102,7.4472136 4.6063777,7.125238 4.7691892,6.4355573 4.4472136,5.9145898 Z m 7.0000004,0 C 11.125238,5.3936223 10.435557,5.2308108 9.9145898,5.5527864 9.3936223,5.874762 9.2308108,6.5644427 9.5527864,7.0854102 9.874762,7.6063777 10.564443,7.7691892 11.08541,7.4472136 11.606378,7.125238 11.769189,6.4355573 11.447214,5.9145898 Z"
       id="path34"
       inkscape:connector-curvature="0" />
    <path
       style="fill:#fee1de"
       d="M 20,10.3 C 20,8.9777778 19.733333,8.8666667 18.8,9.8 16.808455,11.791545 15.557913,11.145982 17.420488,9.0878595 19.063778,7.2720448 19.058992,7.1519487 17.325476,6.7038608 15.85901,6.3248015 15.9425,6.2091891 17.75,6.1160014 18.9875,6.0522006 20,5.55 20,5 20,4.45 18.9875,3.9477994 17.75,3.8839986 15.707412,3.7786907 15.684366,3.7219351 17.5,3.2683164 18.6,2.993492 19.8375,2.2581926 20.25,1.6343178 c 0.559206,-0.84575706 0.940794,-0.84575706 1.5,0 0.4125,0.6238748 1.65,1.3591742 2.75,1.6339986 1.815634,0.4536187 1.792588,0.5103743 -0.25,0.6156822 -2.93059,0.15109 -2.93059,2.0809128 0,2.2320028 1.8075,0.093188 1.89099,0.2088001 0.424524,0.5878594 -1.733516,0.4480879 -1.738302,0.568184 -0.09501,2.3839987 C 26.442087,11.145982 25.191545,11.791545 23.2,9.8 22.266667,8.8666667 22,8.9777778 22,10.3 22,11.235 21.55,12 21,12 20.45,12 20,11.235 20,10.3 Z m 12.580205,0.2 C 32.989117,9.4 33.523119,6.8125 33.766876,4.75 34.312333,0.1347296 36,-0.22236346 36,4.2774938 c 0,1.8026215 0.700517,4.2776215 1.556704,5.5 C 38.412891,10.999872 38.660252,12 38.106394,12 37.552536,12 36.65301,11.2125 36.107445,10.25 35.177503,8.6093686 35.013055,8.6249927 33.47612,10.5 l -1.63939,2 z m 8.163739,-2.4322998 c -0.237767,-1.9622351 -0.03364,-3.7239609 0.453614,-3.9149461 0.487255,-0.1909853 0.304636,-1.0909853 -0.40582,-2 -1.123538,-1.43754476 -1.086055,-1.49245991 0.287855,-0.4217347 1.038738,0.8095165 1.427877,2.2647228 1.136501,4.25 -0.511063,3.48209 1.418112,4.1959376 2.078173,0.7689806 0.37157,-1.9291455 0.452789,-1.8578445 0.569551,0.5 C 45.061628,11.244486 47,10.63047 47,6.5733242 47,4.1507082 46.487228,3.0126469 45.25,2.6893255 44.2875,2.437798 45.075,2.2153284 47,2.1949487 48.925,2.174569 49.9375,2.3848684 49.25,2.6622807 48.5625,2.939693 48,3.7666667 48,4.5 c 0,0.7333333 0.5625,1.560307 1.25,1.8377193 1,0.4035088 1,0.5201754 0,0.5833333 C 47.77655,7.0141126 47.534106,10 49,10 c 0.55,0 1,0.470735 1,1.046077 0,0.604542 -1.862193,0.949682 -4.411876,0.8177 -4.257778,-0.2204 -4.426976,-0.35299 -4.84418,-3.7960768 z M 53.269735,9.9307219 C 53.189744,8.8688249 53.546331,8 54.062149,8 c 1.138376,0 1.254253,2.686419 0.145437,3.371705 -0.435828,0.269356 -0.857861,-0.379086 -0.937851,-1.4409831 z m 11.14863,0.7374911 C 64.738264,9.6607294 65,7.7482294 65,6.4182125 65,4.9353569 65.580195,4 66.5,4 67.325,4 68,3.276855 68,2.3930112 c 0,-1.054521 0.543804,-1.39831168 1.581787,-1 0.869984,0.3338438 2.332484,0.6518448 3.25,0.7066688 C 73.840584,2.1599583 73.511793,2.5158393 72,3 70.333333,3.53376 70.083333,3.8338666 71.25,3.90032 72.406736,3.9662077 73,4.819793 73,6.4182125 c 0,1.3300169 0.258977,3.2425169 0.575505,4.2500005 0.503415,1.602329 0.420142,1.586813 -0.664776,-0.123861 -1.230906,-1.9408647 -1.246065,-1.9408647 -2.00522,0 C 70.24519,12.23253 70.130958,12.260656 70.070285,10.75 70.031628,9.7875 69.582996,9 69.073324,9 c -0.509672,0 -1.132471,0.7875 -1.383998,1.75 -0.396082,1.515655 -0.472857,1.49006 -0.573325,-0.19113 -0.114828,-1.9215058 -0.13199,-1.9215058 -1.697636,0 -1.447314,1.776278 -1.532239,1.785564 -1,0.109343 z M 70.75,6.3106745 c -0.9625,-0.2515276 -2.5375,-0.2515276 -3.5,0 -0.9625,0.2515275 -0.175,0.4573228 1.75,0.4573228 1.925,0 2.7125,-0.2057953 1.75,-0.4573228 z M 76,7.05 c 0,-4.8880868 1.557113,-4.5798453 2.273221,0.45 0.299887,2.1063655 0.492683,1.5106092 0.647232,-2 0.162801,-3.6980488 0.433385,-4.4792195 1.039148,-3 0.450466,1.1 0.587588,3.2375 0.304714,4.75 -0.313292,1.6751498 -0.0746,2.75 0.610685,2.75 0.656325,0 1.181733,-1.9788486 1.261182,-4.75 0.0749,-2.6125 0.327937,-3.7623821 0.562305,-2.5552935 0.294648,1.5175538 0.946843,2.0323096 2.113818,1.6683649 1.522785,-0.474911 1.516697,-0.385451 -0.0623,0.9155361 -2.578869,2.1248076 -2.322427,5.0378495 0.368313,4.1838414 1.531749,-0.4861583 1.993251,-0.297142 1.666667,0.6826121 C 86.482709,11.051872 84.624526,11.5 81.166667,11.5 H 76 Z M 92.580205,10.5 C 92.989117,9.4 93.523119,6.8125 93.766876,4.75 94.312333,0.1347296 96,-0.22236346 96,4.2774938 c 0,1.8026215 0.700517,4.2776215 1.556704,5.5 C 98.412891,10.999872 98.660252,12 98.106394,12 97.552536,12 96.65301,11.2125 96.107445,10.25 95.177503,8.6093686 95.013055,8.6249927 93.47612,10.5 l -1.63939,2 z m 8.163735,-2.4322998 c -0.23776,-1.9622351 -0.0336,-3.7239609 0.45362,-3.9149461 0.48725,-0.1909853 0.30463,-1.0909853 -0.40582,-2 -1.12354,-1.43754476 -1.086057,-1.49245991 0.28785,-0.4217347 1.03874,0.8095165 1.42788,2.2647228 1.1365,4.25 -0.51106,3.48209 1.41812,4.1959376 2.07818,0.7689806 0.37157,-1.9291455 0.45279,-1.8578445 0.56955,0.5 C 105.06163,11.244486 107,10.63047 107,6.5733242 107,4.1507082 106.48723,3.0126469 105.25,2.6893255 104.2875,2.437798 105.075,2.2153284 107,2.1949487 c 1.925,-0.02038 2.9375,0.1899197 2.25,0.467332 C 108.5625,2.939693 108,3.7666667 108,4.5 c 0,0.7333333 0.5625,1.560307 1.25,1.8377193 1,0.4035088 1,0.5201754 0,0.5833333 C 107.77655,7.0141126 107.53411,10 109,10 c 0.55,0 1,0.470735 1,1.046077 0,0.604542 -1.86219,0.949682 -4.41188,0.8177 -4.25777,-0.2204 -4.42697,-0.35299 -4.84418,-3.7960768 z M 28.743715,7.793378 C 28.470906,5.9820201 28.616686,4.3584266 29.067672,4.1853924 29.518658,4.0123582 29.611453,3.1510379 29.273884,2.2713474 28.908741,1.3198 29.071979,0.9264515 29.676867,1.300293 c 0.55921,0.3456106 1.052778,1.8957188 1.096819,3.4446849 0.04404,1.5489661 0.225478,3.421264 0.403194,4.160662 0.177716,0.7393981 -0.18544,1.5326301 -0.807014,1.7627381 -0.643813,0.238341 -1.343581,-0.9988332 -1.626151,-2.875 z m 60,0 C 88.470906,5.9820201 88.616686,4.3584266 89.067672,4.1853924 89.518658,4.0123582 89.611453,3.1510379 89.273884,2.2713474 88.908741,1.3198 89.071979,0.9264515 89.676867,1.300293 c 0.55921,0.3456106 1.052778,1.8957188 1.096819,3.4446849 0.04404,1.5489661 0.225478,3.421264 0.403194,4.160662 0.177716,0.7393981 -0.18544,1.5326301 -0.807014,1.7627381 -0.643813,0.238341 -1.343581,-0.9988332 -1.626151,-2.875 z M 1.7254584,7.9951067 C 0.06872248,6.3991114 0.06221543,6.1931609 1.6274409,4.8928124 4.0075889,2.9154476 10.147965,2.9475552 12.218915,4.9481945 13.843976,6.5180842 13.84277,6.6901428 12.196819,8.0994501 9.8038643,10.148362 3.8995892,10.089528 1.7254584,7.9951067 Z M 4.4472136,5.9145898 C 4.125238,5.3936223 3.4355573,5.2308108 2.9145898,5.5527864 2.3936223,5.874762 2.2308108,6.5644427 2.5527864,7.0854102 2.874762,7.6063777 3.5644427,7.7691892 4.0854102,7.4472136 4.6063777,7.125238 4.7691892,6.4355573 4.4472136,5.9145898 Z m 7.0000004,0 C 11.125238,5.3936223 10.435557,5.2308108 9.9145898,5.5527864 9.3936223,5.874762 9.2308108,6.5644427 9.5527864,7.0854102 9.874762,7.6063777 10.564443,7.7691892 11.08541,7.4472136 11.606378,7.125238 11.769189,6.4355573 11.447214,5.9145898 Z"
       id="path32"
       inkscape:connector-curvature="0" />
    <path
       style="fill:#fed8d4"
       d="m 20,10.464816 c 0,-1.2752105 -0.381022,-1.3352411 -2.25,-0.354491 -2.211028,1.160243 -2.218381,1.145053 -0.424524,-0.8769563 1.767301,-1.992076 1.767301,-2.072687 0,-2.5295079 C 15.85901,6.3248015 15.9425,6.2091891 17.75,6.1160014 20.383242,5.9802415 20.825845,4.0372562 18.25,3.9210526 16.856067,3.8581684 16.8052,3.7259265 18,3.2711085 c 0.825,-0.3140481 1.8375,-1.0660218 2.25,-1.6710526 0.542225,-0.7953032 0.957775,-0.7858115 1.5,0.034262 0.4125,0.6238748 1.65,1.3591742 2.75,1.6339986 1.815634,0.4536187 1.792588,0.5103743 -0.25,0.6156822 -2.93059,0.15109 -2.93059,2.0809128 0,2.2320028 1.8075,0.093188 1.89099,0.2088001 0.424524,0.5878594 -1.767301,0.4568209 -1.767301,0.5374319 0,2.5295079 C 26.468381,11.255378 26.461028,11.270568 24.25,10.110325 22.381022,9.1295749 22,9.1896055 22,10.464816 22,11.309167 21.55,12 21,12 20.45,12 20,11.309167 20,10.464816 Z M 32.580205,10.5 c 0.408912,-1.1 0.947724,-3.7379356 1.197359,-5.862079 l 0.453884,-3.86207908 1.85163,5.36207908 c 2.25986,6.544259 2.281192,6.736002 0.478751,4.303209 C 35.140608,8.5228773 35.104289,8.5235711 33.480194,10.5 l -1.643464,2 z m 10.912716,0.511454 c 0.339095,-0.548668 -0.02519,-0.744433 -0.81867,-0.439947 -1.000708,0.384008 -1.56437,-0.36948 -1.878745,-2.5114542 C 40.54849,6.3770238 40.718449,5 41.173193,5 41.627937,5 42,5.9 42,7 c 0,2.7283768 1.757493,2.5368676 2.294267,-0.25 0.37157,-1.9291455 0.452789,-1.8578445 0.569551,0.5 C 45.061628,11.244486 47,10.63047 47,6.5733242 47,4.1507082 46.487228,3.0126469 45.25,2.6893255 44.2875,2.437798 45.075,2.2153284 47,2.1949487 48.925,2.174569 49.9375,2.3848684 49.25,2.6622807 48.5625,2.939693 48,3.7666667 48,4.5 c 0,0.7333333 0.5625,1.560307 1.25,1.8377193 1,0.4035088 1,0.5201754 0,0.5833333 C 47.77655,7.0141126 47.534106,10 49,10 c 0.55,0 1,0.45 1,1 0,0.55 -1.601558,1 -3.559017,1 -2.090541,0 -3.306933,-0.407881 -2.948062,-0.988546 z M 53.269735,9.9307219 C 53.189744,8.8688249 53.546331,8 54.062149,8 c 1.138376,0 1.254253,2.686419 0.145437,3.371705 -0.435828,0.269356 -0.857861,-0.379086 -0.937851,-1.4409831 z m 11.14863,0.7374911 C 64.738264,9.6607294 65,7.7482294 65,6.4182125 65,4.9353569 65.580195,4 66.5,4 67.325,4 68,3.276855 68,2.3930112 c 0,-1.054521 0.543804,-1.39831168 1.581787,-1 0.869984,0.3338438 2.332484,0.6518448 3.25,0.7066688 C 73.840584,2.1599583 73.511793,2.5158393 72,3 70.333333,3.53376 70.083333,3.8338666 71.25,3.90032 72.406736,3.9662077 73,4.819793 73,6.4182125 c 0,1.3300169 0.258977,3.2425169 0.575505,4.2500005 0.503415,1.602329 0.420142,1.586813 -0.664776,-0.123861 -1.230906,-1.9408647 -1.246065,-1.9408647 -2.00522,0 C 70.24519,12.23253 70.130958,12.260656 70.070285,10.75 70.031628,9.7875 69.582996,9 69.073324,9 c -0.509672,0 -1.132471,0.7875 -1.383998,1.75 -0.396082,1.515655 -0.472857,1.49006 -0.573325,-0.19113 -0.114828,-1.9215058 -0.13199,-1.9215058 -1.697636,0 -1.447314,1.776278 -1.532239,1.785564 -1,0.109343 z M 70.75,6.3106745 c -0.9625,-0.2515276 -2.5375,-0.2515276 -3.5,0 -0.9625,0.2515275 -0.175,0.4573228 1.75,0.4573228 1.925,0 2.7125,-0.2057953 1.75,-0.4573228 z M 76,8.1069888 C 76,3.2332119 77.698768,2.5937399 78.276604,7.25 78.574821,9.6530519 78.721631,9.2187195 78.839963,5.5833333 78.927983,2.8791667 79.27637,0.94303679 79.614156,1.2808225 80.473036,2.1397026 80.687295,11 79.849185,11 79.472099,11 78.451771,11.273145 77.581787,11.606989 76.297638,12.099763 76,11.441183 76,8.1069888 Z m 6.701236,3.2609142 c -0.38568,-0.38568 -0.639954,-2.9887363 -0.565054,-5.7845697 0.0749,-2.7958333 0.327937,-4.0957154 0.562305,-2.8886268 0.294648,1.5175538 0.946843,2.0323096 2.113818,1.6683649 1.522785,-0.474911 1.516697,-0.385451 -0.0623,0.9155361 -1.774879,1.4623764 -2.290955,3.8471041 -1.092009,5.0460495 0.361895,0.361895 1.335074,0.09939 2.162621,-0.5833329 C 87.05223,8.7252363 87.235337,8.7721727 86.829755,10 c -0.545208,1.650519 -3.024453,2.471968 -4.128519,1.367903 z M 92.580205,10.5 c 0.408912,-1.1 0.947724,-3.7379356 1.197359,-5.862079 l 0.453884,-3.86207908 1.85163,5.36207908 c 2.25986,6.544259 2.281192,6.736002 0.478751,4.303209 C 95.140608,8.5228773 95.104289,8.5235711 93.480194,10.5 l -1.643464,2 z m 10.912715,0.511454 c 0.3391,-0.548668 -0.0252,-0.744433 -0.81867,-0.439947 -1.00071,0.384008 -1.56437,-0.36948 -1.87874,-2.5114542 C 100.54849,6.3770238 100.71845,5 101.17319,5 101.62794,5 102,5.9 102,7 c 0,2.7283768 1.75749,2.5368676 2.29427,-0.25 0.37157,-1.9291455 0.45279,-1.8578445 0.56955,0.5 C 105.06163,11.244486 107,10.63047 107,6.5733242 107,4.1507082 106.48723,3.0126469 105.25,2.6893255 104.2875,2.437798 105.075,2.2153284 107,2.1949487 c 1.925,-0.02038 2.9375,0.1899197 2.25,0.467332 C 108.5625,2.939693 108,3.7666667 108,4.5 c 0,0.7333333 0.5625,1.560307 1.25,1.8377193 1,0.4035088 1,0.5201754 0,0.5833333 C 107.77655,7.0141126 107.53411,10 109,10 c 0.55,0 1,0.45 1,1 0,0.55 -1.60156,1 -3.55902,1 -2.09054,0 -3.30693,-0.407881 -2.94806,-0.988546 z M 28.793059,8.043378 C 28.486836,5.956946 28.763581,5 29.673193,5 30.402937,5 31,5.9 31,7 c 0,1.1 0.03375,2.32625 0.075,2.725 0.04125,0.39875 -0.35481,0.86827 -0.880134,1.043378 -0.525324,0.175108 -1.156137,-1.051142 -1.401807,-2.725 z m 60,0 C 88.486836,5.956946 88.763581,5 89.673193,5 90.402937,5 91,5.9 91,7 c 0,1.1 0.03375,2.32625 0.075,2.725 0.04125,0.39875 -0.35481,0.86827 -0.880134,1.043378 -0.525324,0.175108 -1.156137,-1.051142 -1.401807,-2.725 z M 4.1300226,9.1015201 C 3.0126193,8.3936666 3.0788904,8.0552309 4.4894809,7.2658248 6.0267805,6.4055087 6.0430479,6.2304966 4.6359052,5.6905253 3.7185495,5.3385029 2.679463,5.7503505 2.1648294,6.6699496 1.581828,7.7117155 1.04624,7.8838349 0.60568641,7.1710042 -0.43632059,5.4850015 5.7675231,2.724836 8.8564958,3.5001188 11.299232,4.1132066 11.364038,4.2606403 9.7194017,5.463228 8.015266,6.7093224 8.0153163,6.7936815 9.7206099,7.4890686 11.373287,8.1629998 11.357577,8.2732337 9.5,9.0370502 6.8469014,10.127977 5.7707614,10.140897 4.1300226,9.1015201 Z M 12,6.440983 c 0,-0.8574593 0.45734,-1.2763651 1.016312,-0.9309017 0.558971,0.3454634 0.757414,1.0470211 0.440983,1.559017 C 12.600055,8.4561416 12,8.1975091 12,6.440983 Z m 17,-4.5 C 29,1.3585237 29.45,1.1600813 30,1.5 30.55,1.8399187 31,2.3164763 31,2.559017 31,2.8015576 30.55,3 30,3 29.45,3 29,2.5234424 29,1.940983 Z m 60,0 C 89,1.3585237 89.45,1.1600813 90,1.5 90.55,1.8399187 91,2.3164763 91,2.559017 91,2.8015576 90.55,3 90,3 89.45,3 89,2.5234424 89,1.940983 Z"
       id="path30"
       inkscape:connector-curvature="0" />
    <path
       style="fill:#fed1cc"
       d="M 20.031803,10.714816 C 20.004493,9.1818487 19.682113,9.0964444 17.75,10.110325 c -2.211028,1.160243 -2.218381,1.145053 -0.424524,-0.8769563 1.767301,-1.992076 1.767301,-2.072687 0,-2.5295079 C 15.85901,6.3248015 15.9425,6.2091891 17.75,6.1160014 20.383242,5.9802415 20.825845,4.0372562 18.25,3.9210526 16.856067,3.8581684 16.8052,3.7259265 18,3.2711085 c 0.825,-0.3140481 1.8375,-1.0660218 2.25,-1.6710526 0.545478,-0.80007454 0.954522,-0.80007454 1.5,0 0.4125,0.6050308 1.425,1.3570045 2.25,1.6710526 1.1948,0.454818 1.143933,0.5870599 -0.25,0.6499441 -2.575845,0.1162036 -2.133242,2.0591889 0.5,2.1949488 1.8075,0.093188 1.89099,0.2088001 0.424524,0.5878594 -1.767301,0.4568209 -1.767301,0.537835 0,2.5421577 1.777568,2.0159665 1.774083,2.0423635 -0.132793,1.0058355 -1.526086,-0.8295411 -2.23633,-0.6989241 -3.218196,0.591841 -1.161526,1.526945 -1.262412,1.516879 -1.291732,-0.128879 z M 32,11.222514 C 32,10.584655 31.357833,10.309192 30.572963,10.610375 29.516245,11.015876 29.293955,10.591916 29.716362,8.9766324 30.059743,7.6635389 29.732175,6.4440857 28.893399,5.9129549 27.779815,5.2078103 27.851426,5.0275505 29.25,5.0153128 30.320856,5.0059426 31,5.753261 31,6.940983 c 0,1.0675407 0.402847,2.1899561 0.895215,2.4942564 1.146081,0.7083166 2.077128,-1.7265116 2.205236,-5.7670269 0.09705,-3.06090703 0.132027,-3.03331993 1.032727,0.814514 0.512751,2.1904995 1.367548,4.4179995 1.899548,4.95 C 37.564727,9.9647269 38,10.846008 38,11.39113 c 0,0.545121 -0.675,0.117621 -1.5,-0.95 -1.484836,-1.9215065 -1.515164,-1.9215065 -3,0 -0.825,1.067621 -1.5,1.419244 -1.5,0.781384 z M 44,11.031385 C 44,10.498646 43.380041,10.30067 42.622313,10.591438 41.684254,10.951405 41.10131,10.143625 40.795506,8.0600528 40.54849,6.3770238 40.718449,5 41.173193,5 41.627937,5 42,5.9 42,7 c 0,2.7283768 1.757493,2.5368676 2.294267,-0.25 0.37157,-1.9291455 0.452789,-1.8578445 0.569551,0.5 C 45.061628,11.244486 47,10.63047 47,6.5733242 47,4.1507082 46.487228,3.0126469 45.25,2.6893255 44.2875,2.437798 45.075,2.2153284 47,2.1949487 48.925,2.174569 49.9375,2.3848684 49.25,2.6622807 48.5625,2.939693 48,3.7666667 48,4.5 c 0,0.7333333 0.5625,1.560307 1.25,1.8377193 1,0.4035088 1,0.5201754 0,0.5833333 C 48.5625,6.9644737 48,7.8625 48,8.9166667 c 0,1.0541666 0.5625,2.1436403 1.25,2.4210523 0.6875,0.277413 -0.2125,0.539913 -2,0.583334 C 45.4625,11.964474 44,11.564123 44,11.031385 Z M 53.269735,9.9307219 C 53.189744,8.8688249 53.546331,8 54.062149,8 c 1.138376,0 1.254253,2.686419 0.145437,3.371705 -0.435828,0.269356 -0.857861,-0.379086 -0.937851,-1.4409831 z M 64,11.059017 c 0,-0.517541 0.444846,-1.2159127 0.988546,-1.5519378 0.56686,-0.3503388 0.734507,0.051058 0.393011,0.9409828 C 64.716766,12.180479 64,12.497449 64,11.059017 Z m 3.078947,-0.64235 c 0.04798,-1.1649433 0.284941,-1.4018997 0.604167,-0.604167 0.288871,0.721875 0.253344,1.584375 -0.07895,1.916667 -0.332292,0.332291 -0.568641,-0.258334 -0.52522,-1.3125 z m 5.485346,-0.123539 c -0.542685,-1.4251984 -0.427821,-1.5400619 0.559795,-0.5597947 0.683418,0.6783337 0.990671,1.4852407 0.682784,1.7931277 -0.307887,0.307888 -0.867048,-0.247112 -1.242579,-1.233333 z M 76.160037,7.8569888 C 76.295167,4.1780895 76.382844,4.005806 76.723396,6.75 77.334451,11.673937 79,10.637513 79,5.3333333 79,2.7666667 79.229316,0.89598316 79.509592,1.1762589 80.316558,1.9832245 80.641799,11 79.863942,11 c -0.385202,0 -1.412171,0.273145 -2.282155,0.606989 -1.306402,0.501313 -1.553925,-0.151551 -1.42175,-3.7500002 z m 6.50663,3.4763442 C 82.3,10.966667 82.061282,8.3791667 82.136182,5.5833333 82.211082,2.7875 82.464119,1.4876179 82.698487,2.6947065 82.992509,4.2090384 83.647808,4.7281436 84.812305,4.3692012 86.303133,3.9096712 86.295865,3.9802416 84.75,4.9741848 83.7875,5.5930423 83,7.2020197 83,8.5496901 83,11.270029 83.895587,11.628145 86.001772,9.75 c 1.192527,-1.0634103 1.204104,-0.9887744 0.07756,0.5 -1.4111,1.864819 -2.337191,2.158803 -3.41266,1.083333 z M 92,11.222514 C 92,10.584655 91.357833,10.309192 90.572963,10.610375 89.516245,11.015876 89.293955,10.591916 89.716362,8.9766324 90.059743,7.6635389 89.732175,6.4440857 88.893399,5.9129549 87.779815,5.2078103 87.851426,5.0275505 89.25,5.0153128 90.320856,5.0059426 91,5.753261 91,6.940983 c 0,1.0675407 0.402847,2.1899561 0.895215,2.4942564 1.146081,0.7083166 2.077128,-1.7265116 2.205236,-5.7670269 0.09705,-3.06090703 0.132027,-3.03331993 1.032727,0.814514 0.512751,2.1904995 1.367548,4.4179995 1.899548,4.95 C 97.564727,9.9647269 98,10.846008 98,11.39113 c 0,0.545121 -0.675,0.117621 -1.5,-0.95 -1.484836,-1.9215065 -1.515164,-1.9215065 -3,0 -0.825,1.067621 -1.5,1.419244 -1.5,0.781384 z m 12,-0.191129 c 0,-0.532739 -0.61996,-0.730715 -1.37769,-0.439947 -0.93806,0.359967 -1.521,-0.447813 -1.8268,-2.5313852 C 100.54849,6.3770238 100.71845,5 101.17319,5 101.62794,5 102,5.9 102,7 c 0,2.7283768 1.75749,2.5368676 2.29427,-0.25 0.37157,-1.9291455 0.45279,-1.8578445 0.56955,0.5 C 105.06163,11.244486 107,10.63047 107,6.5733242 107,4.1507082 106.48723,3.0126469 105.25,2.6893255 104.2875,2.437798 105.075,2.2153284 107,2.1949487 c 1.925,-0.02038 2.9375,0.1899197 2.25,0.467332 C 108.5625,2.939693 108,3.7666667 108,4.5 c 0,0.7333333 0.5625,1.560307 1.25,1.8377193 1,0.4035088 1,0.5201754 0,0.5833333 C 108.5625,6.9644737 108,7.8625 108,8.9166667 c 0,1.0541666 0.5625,2.1436403 1.25,2.4210523 0.6875,0.277413 -0.2125,0.539913 -2,0.583334 -1.7875,0.04342 -3.25,-0.35693 -3.25,-0.889668 z M 4.1432373,9.1096872 C 2.3317414,7.9618669 3.8138997,7.2631245 7.5,7.5271894 11.574356,7.8190682 11.822659,8.0019194 9.5,9 6.8765831,10.127321 5.7845616,10.149682 4.1432373,9.1096872 Z M 0.5427051,7.0690983 C 0.22627421,6.5571024 0.42471656,5.8555447 0.9836881,5.5100813 1.5426596,5.1646179 2,5.5835237 2,6.440983 2,8.1975091 1.399945,8.4561416 0.5427051,7.0690983 Z M 12,6.440983 c 0,-0.8574593 0.45734,-1.2763651 1.016312,-0.9309017 0.558971,0.3454634 0.757414,1.0470211 0.440983,1.559017 C 12.600055,8.4561416 12,8.1975091 12,6.440983 Z M 65,6.5 C 65,5.675 65.675,5 66.5,5 67.325,5 68,4.1779368 68,3.1731929 68,1.671809 68.578948,1.4393392 71.25,1.8681927 l 3.25,0.5218071 -3,0.6965771 C 68.660536,3.7458786 68.620402,3.8219532 70.75,4.5082083 74.603383,5.7499471 73.475712,8 69,8 66.111111,8 65,7.5833333 65,6.5 Z m 5.75,-0.1893255 c -0.9625,-0.2515276 -2.5375,-0.2515276 -3.5,0 -0.9625,0.2515275 -0.175,0.4573228 1.75,0.4573228 1.925,0 2.7125,-0.2057953 1.75,-0.4573228 z M 4.5432693,5.6552977 C 2.7905993,4.3737141 2.8096613,4.2830374 4.949372,3.7234905 6.184173,3.4005828 8.1465382,3.4885805 9.3101836,3.919041 L 11.425903,4.7016963 9.2786927,5.8508482 C 6.6192771,7.2741242 6.7653987,7.2801584 4.5432693,5.6552977 Z M 29,1.940983 C 29,1.3585237 29.45,1.1600813 30,1.5 30.55,1.8399187 31,2.3164763 31,2.559017 31,2.8015576 30.55,3 30,3 29.45,3 29,2.5234424 29,1.940983 Z m 60,0 C 89,1.3585237 89.45,1.1600813 90,1.5 90.55,1.8399187 91,2.3164763 91,2.559017 91,2.8015576 90.55,3 90,3 89.45,3 89,2.5234424 89,1.940983 Z"
       id="path28"
       inkscape:connector-curvature="0" />
    <path
       style="fill:#fec2bb"
       d="m 53.262826,9.8390116 c -0.12125,-1.6096328 0.122652,-1.853534 0.988093,-0.9880926 0.756822,0.7568224 0.811779,1.486383 0.160988,2.137174 -0.65079,0.65079 -1.043048,0.258531 -1.149081,-1.1490814 z M 64,11.059017 c 0,-0.517541 0.444846,-1.2159127 0.988546,-1.5519378 0.56686,-0.3503388 0.734507,0.051058 0.393011,0.9409828 C 64.716766,12.180479 64,12.497449 64,11.059017 Z M 76,10.861328 C 76,10.387598 76.650344,10 77.445209,10 78.458086,10 78.985406,8.5790446 79.207946,5.25 L 79.525474,0.5 80.012737,5.6821789 C 80.460601,10.445336 80.318069,10.899058 78.25,11.293507 77.0125,11.529539 76,11.335059 76,10.861328 Z m 8,0.761117 C 84,11.414789 84.7875,10.627289 85.75,9.8724447 87.336056,8.6285741 87.371426,8.6639444 86.127555,10.25 84.821186,11.915748 84,12.445479 84,11.622445 Z M 16,10.59106 C 16,10.400666 16.675,9.6846892 17.5,9 18.364593,8.2824515 19,8.1852624 19,8.7705665 19,9.3290672 18.325,10.045044 17.5,10.361626 16.675,10.678209 16,10.781454 16,10.59106 Z m 8.02896,-0.552 c -0.809071,-0.5116726 -1.210697,-1.1906566 -0.8925,-1.508853 0.318196,-0.3181964 1.147764,0.1073357 1.843484,0.945627 1.442593,1.738218 1.165987,1.90204 -0.950984,0.563226 z m 5.429849,0.02759 c 0.319314,-0.5166618 1.452403,-0.8737117 2.517976,-0.7934446 2.348402,0.1768998 1.736766,0.9949076 -1.063436,1.4222486 -1.119311,0.170819 -1.773855,-0.112143 -1.45454,-0.628804 z M 40.785195,7.9897961 C 40.54385,6.3454082 40.665989,5 41.056616,5 c 1.005429,0 1.832597,4.9504364 0.921276,5.513663 -0.414639,0.256261 -0.951353,-0.879479 -1.192697,-2.5238669 z M 44.232003,8 c 0,-1.925 0.205795,-2.7125 0.457323,-1.75 0.251527,0.9625 0.251527,2.5375 0,3.5 C 44.437798,10.7125 44.232003,9.925 44.232003,8 Z M 46.819849,7.091865 C 47.119915,3.9453732 46.832735,3.0909905 45.346275,2.7078663 44.330824,2.4461413 45.075,2.2153284 47,2.1949487 48.925,2.174569 49.9375,2.3848684 49.25,2.6622807 48.5625,2.939693 48,3.7666667 48,4.5 c 0,0.7333333 0.5625,1.560307 1.25,1.8377193 1,0.4035088 1,0.5201754 0,0.5833333 C 48.5625,6.9644737 48,7.9 48,9 c 0,1.1 -0.349392,2 -0.776426,2 -0.427034,0 -0.60871,-1.7586608 -0.403725,-3.908135 z M 82.272364,6 c 0,-3.025 0.191755,-4.5123821 0.426123,-3.3052935 0.300012,1.545181 0.925598,2.0232801 2.113818,1.6154674 1.579023,-0.5419414 1.579566,-0.490088 0.0084,0.8052935 C 83.897148,5.8769603 82.94593,7.625 82.706923,9 82.467916,10.375 82.272364,9.025 82.272364,6 Z m 7.186445,4.066649 c 0.319314,-0.5166618 1.452403,-0.8737117 2.517976,-0.7934446 2.348402,0.1768998 1.736766,0.9949076 -1.063436,1.4222486 -1.119311,0.170819 -1.773855,-0.112143 -1.45454,-0.628804 z M 100.78519,7.9897961 C 100.54385,6.3454082 100.66599,5 101.05662,5 c 1.00543,0 1.83259,4.9504364 0.92127,5.513663 -0.41464,0.256261 -0.95135,-0.879479 -1.1927,-2.5238669 z M 104.232,8 c 0,-1.925 0.2058,-2.7125 0.45733,-1.75 0.25152,0.9625 0.25152,2.5375 0,3.5 C 104.4378,10.7125 104.232,9.925 104.232,8 Z m 2.58785,-0.908135 c 0.30007,-3.1464918 0.0129,-4.0008745 -1.47358,-4.3839987 C 104.33082,2.4461413 105.075,2.2153284 107,2.1949487 c 1.925,-0.02038 2.9375,0.1899197 2.25,0.467332 C 108.5625,2.939693 108,3.7666667 108,4.5 c 0,0.7333333 0.5625,1.560307 1.25,1.8377193 1,0.4035088 1,0.5201754 0,0.5833333 C 108.5625,6.9644737 108,7.9 108,9 c 0,1.1 -0.34939,2 -0.77643,2 -0.42703,0 -0.60871,-1.7586608 -0.40372,-3.908135 z M 4.5,9 C 2.4550719,8.1212642 3.7264894,7.573647 7,7.9232152 8.3333333,8.0655978 8.3333333,7.9693528 7,7.0570106 6.175,6.4924988 5.95,6.0380463 6.5,6.0471161 7.05,6.056186 8.4,6.7848349 9.5,7.666336 11.124359,8.9680398 11.171314,9.1557816 9.75,8.6659174 8.7875,8.3341861 8,8.4986464 8,9.0313848 8,10.174017 7.215718,10.166984 4.5,9 Z M 1.0789474,6.4166667 C 1.1269313,5.2517237 1.3638877,5.0147673 1.683114,5.8125 1.9719846,6.534375 1.9364583,7.396875 1.6041667,7.7291667 1.271875,8.0614583 1.0355263,7.4708333 1.0789474,6.4166667 Z m 10.9999996,0 c 0.04798,-1.164943 0.284941,-1.4018994 0.604167,-0.6041667 0.288871,0.721875 0.253344,1.584375 -0.07895,1.9166667 -0.332292,0.3322916 -0.568641,-0.2583334 -0.52522,-1.3125 z m 5.449006,0.6720722 c -1.818888,-0.7108344 -1.780055,-0.8052997 0.5,-1.2163088 C 19.387579,5.62734 21.85,5.6855476 23.5,6.0017803 26.495881,6.5759594 26.496568,6.577707 24,7.2747197 20.986221,8.1161317 20.091028,8.0904074 17.527953,7.0887389 Z M 34,4.3333333 C 34,0.04753573 34.463876,0.19271184 35.33136,4.75 35.68683,6.6174464 35.535234,8 34.975,8 34.43875,8 34,6.35 34,4.3333333 Z m 31.078947,2.0833334 c 0.04798,-1.164943 0.284941,-1.4018994 0.604167,-0.6041667 0.288871,0.721875 0.253344,1.584375 -0.07895,1.9166667 -0.332292,0.3322916 -0.568641,-0.2583334 -0.52522,-1.3125 z m 7,0 c 0.04798,-1.164943 0.284941,-1.4018994 0.604167,-0.6041667 0.288871,0.721875 0.253344,1.584375 -0.07895,1.9166667 -0.332292,0.3322916 -0.568641,-0.2583334 -0.52522,-1.3125 z M 94,4.3333333 C 94,0.04753573 94.463876,0.19271184 95.33136,4.75 95.68683,6.6174464 95.535234,8 94.975,8 94.43875,8 94,6.35 94,4.3333333 Z M 3.9499656,4.969077 C 2.1710807,3.8696657 6.9123738,3.0225908 9.3472323,4.0048065 10.531255,4.482438 11.05,4.9392512 10.5,5.019947 6.6468313,5.5852825 4.9253748,5.5719131 3.9499656,4.969077 Z M 68,3.1731929 c 0,-1.5077593 0.567605,-1.7302467 3.25,-1.2739203 3.203005,0.544892 3.209989,0.5578319 0.483045,0.8948655 C 70.21122,2.9822264 69.225278,3.5554905 69.542062,4.0680584 69.858847,4.5806263 69.641476,5 69.059017,5 68.476558,5 68,4.1779368 68,3.1731929 Z M 18.75,3.294267 c 1.2375,-0.2383529 3.2625,-0.2383529 4.5,0 1.2375,0.2383529 0.225,0.4333689 -2.25,0.4333689 -2.475,0 -3.4875,-0.195016 -2.25,-0.4333689 z"
       id="path26"
       inkscape:connector-curvature="0" />
    <path
       style="fill:#feb6ad"
       d="M 29.56607,9.8930962 C 29.826391,9.4718886 30.911212,9.1929373 31.976785,9.2732044 34.348733,9.4518778 33.68436,10.320656 31.026009,10.516502 29.962722,10.594836 29.30575,10.314304 29.56607,9.8930962 Z M 41,8.059017 C 41,6.3765576 41.17254,5 41.383423,5 c 0.848592,0 1.288034,5.085017 0.482468,5.582884 C 41.389651,10.877217 41,9.7414763 41,8.059017 Z M 44.232003,8 c 0,-1.925 0.205795,-2.7125 0.457323,-1.75 0.251527,0.9625 0.251527,2.5375 0,3.5 C 44.437798,10.7125 44.232003,9.925 44.232003,8 Z M 77.75,10.337719 c 0.6875,-0.277412 1.8125,-0.277412 2.5,0 0.6875,0.277413 0.125,0.504386 -1.25,0.504386 -1.375,0 -1.9375,-0.226973 -1.25,-0.504386 z M 82.272364,6 c 0,-3.025 0.191755,-4.5123821 0.426123,-3.3052935 0.300012,1.545181 0.925598,2.0232801 2.113818,1.6154674 1.579023,-0.5419414 1.579566,-0.490088 0.0084,0.8052935 C 83.897148,5.8769603 82.94593,7.625 82.706923,9 82.467916,10.375 82.272364,9.025 82.272364,6 Z M 89.56607,9.8930962 C 89.826391,9.4718886 90.911212,9.1929373 91.976785,9.2732044 94.348733,9.4518778 93.68436,10.320656 91.026009,10.516502 89.962722,10.594836 89.30575,10.314304 89.56607,9.8930962 Z M 101,8.059017 C 101,6.3765576 101.17254,5 101.38342,5 c 0.84859,0 1.28804,5.085017 0.48247,5.582884 C 101.38965,10.877217 101,9.7414763 101,8.059017 Z M 104.232,8 c 0,-1.925 0.2058,-2.7125 0.45733,-1.75 0.25152,0.9625 0.25152,2.5375 0,3.5 C 104.4378,10.7125 104.232,9.925 104.232,8 Z M 1.0789474,6.4166667 C 1.1269313,5.2517237 1.3638877,5.0147673 1.683114,5.8125 1.9719846,6.534375 1.9364583,7.396875 1.6041667,7.7291667 1.271875,8.0614583 1.0355263,7.4708333 1.0789474,6.4166667 Z M 5.3333333,6.5 c 0,-0.5892857 0.75,-1.0714286 1.6666667,-1.0714286 0.9166667,0 1.6666667,0.4821429 1.6666667,1.0714286 0,0.5892857 -0.75,1.0714286 -1.6666667,1.0714286 C 6.0833333,7.5714286 5.3333333,7.0892857 5.3333333,6.5 Z M 12.078947,6.416667 c 0.04798,-1.164943 0.284941,-1.4018994 0.604167,-0.6041667 0.288871,0.721875 0.253344,1.584375 -0.07895,1.9166667 -0.332292,0.3322916 -0.568641,-0.2583334 -0.52522,-1.3125 z M 17.5,7 C 16.070114,6.3855567 17.067812,6.1489497 21,6.1699653 25.196536,6.1923937 25.907517,6.3891064 24,7 20.761001,8.0373089 19.913948,8.0373089 17.5,7 Z M 34,6.5 C 34,5.675 34.176855,5 34.393011,5 34.609167,5 35.045044,5.675 35.361626,6.5 35.678209,7.325 35.501354,8 34.968615,8 34.435877,8 34,7.325 34,6.5 Z M 65.078947,6.416667 c 0.04798,-1.164943 0.284941,-1.4018994 0.604167,-0.6041667 0.288871,0.721875 0.253344,1.584375 -0.07895,1.9166667 -0.332292,0.3322916 -0.568641,-0.2583334 -0.52522,-1.3125 z m 7,0 c 0.04798,-1.164943 0.284941,-1.4018994 0.604167,-0.6041667 0.288871,0.721875 0.253344,1.584375 -0.07895,1.9166667 -0.332292,0.3322916 -0.568641,-0.2583334 -0.52522,-1.3125 z M 94,6.5 C 94,5.675 94.176855,5 94.393011,5 94.609167,5 95.045044,5.675 95.361626,6.5 95.678209,7.325 95.501354,8 94.968615,8 94.435877,8 94,7.325 94,6.5 Z M 47,6.0313848 C 47,5.4986464 47.675,5.3217914 48.5,5.6383736 49.325,5.9549558 50,6.3908326 50,6.6069888 50,6.823145 49.325,7 48.5,7 47.675,7 47,6.5641232 47,6.0313848 Z m 60,0 c 0,-0.5327384 0.675,-0.7095934 1.5,-0.3930112 0.825,0.3165822 1.5,0.752459 1.5,0.9686152 C 110,6.823145 109.325,7 108.5,7 107.675,7 107,6.5641232 107,6.0313848 Z M 18.75,3.294267 c 1.2375,-0.2383529 3.2625,-0.2383529 4.5,0 1.2375,0.2383529 0.225,0.4333689 -2.25,0.4333689 -2.475,0 -3.4875,-0.195016 -2.25,-0.4333689 z m 26.5,-0.9835925 c 0.9625,-0.2515276 2.5375,-0.2515276 3.5,0 0.9625,0.2515275 0.175,0.4573228 -1.75,0.4573228 -1.925,0 -2.7125,-0.2057953 -1.75,-0.4573228 z m 25.019032,-0.00367 c 0.972967,-0.2535434 2.322967,-0.2368691 3,0.037054 C 73.946064,2.6179864 73.15,2.825431 71.5,2.8050513 69.85,2.7846716 69.296064,2.5605527 70.269032,2.3070093 Z M 105.25,2.3106745 c 0.9625,-0.2515276 2.5375,-0.2515276 3.5,0 0.9625,0.2515275 0.175,0.4573228 -1.75,0.4573228 -1.925,0 -2.7125,-0.2057953 -1.75,-0.4573228 z"
       id="path24"
       inkscape:connector-curvature="0" />
    <path
       style="fill:#fea59b"
       d="m 82.299664,6 c 0,-3.025 0.187466,-4.2625 0.41659,-2.75 0.229125,1.5125 0.229125,3.9875 0,5.5 C 82.48713,10.2625 82.299664,9.025 82.299664,6 Z M 5.3333333,6.5 c 0,-0.5892857 0.75,-1.0714286 1.6666667,-1.0714286 0.9166667,0 1.6666667,0.4821429 1.6666667,1.0714286 0,0.5892857 -0.75,1.0714286 -1.6666667,1.0714286 C 6.0833333,7.5714286 5.3333333,7.0892857 5.3333333,6.5 Z M 20,7 c 0,-0.55 0.45,-1 1,-1 0.55,0 1,0.45 1,1 0,0.55 -0.45,1 -1,1 C 20.45,8 20,7.55 20,7 Z M 65.078947,6.4166667 c 0.04798,-1.164943 0.284941,-1.4018994 0.604167,-0.6041667 0.288871,0.721875 0.253344,1.584375 -0.07895,1.9166667 -0.332292,0.3322916 -0.568641,-0.2583334 -0.52522,-1.3125 z m 7,0 c 0.04798,-1.164943 0.284941,-1.4018994 0.604167,-0.6041667 0.288871,0.721875 0.253344,1.584375 -0.07895,1.9166667 -0.332292,0.3322916 -0.568641,-0.2583334 -0.52522,-1.3125 z"
       id="path22"
       inkscape:connector-curvature="0" />
  </g>
</svg>
