<?xml version="1.0" encoding="UTF-8" standalone="no"?>
<!-- Created with Inkscape (http://www.inkscape.org/) -->

<svg
   xmlns:dc="http://purl.org/dc/elements/1.1/"
   xmlns:cc="http://creativecommons.org/ns#"
   xmlns:rdf="http://www.w3.org/1999/02/22-rdf-syntax-ns#"
   xmlns:svg="http://www.w3.org/2000/svg"
   xmlns="http://www.w3.org/2000/svg"
   xmlns:sodipodi="http://sodipodi.sourceforge.net/DTD/sodipodi-0.dtd"
   xmlns:inkscape="http://www.inkscape.org/namespaces/inkscape"
   version="1.1"
   id="svg4154"
   width="160"
   height="96"
   viewBox="0 0 160 96"
   sodipodi:docname="red-recommend.svg"
   inkscape:version="0.92.3 (2405546, 2018-03-11)">
  <metadata
     id="metadata4160">
    <rdf:RDF>
      <cc:Work
         rdf:about="">
        <dc:format>image/svg+xml</dc:format>
        <dc:type
           rdf:resource="http://purl.org/dc/dcmitype/StillImage" />
        <dc:title></dc:title>
      </cc:Work>
    </rdf:RDF>
  </metadata>
  <defs
     id="defs4158" />
  <sodipodi:namedview
     pagecolor="#ffffff"
     bordercolor="#666666"
     borderopacity="1"
     objecttolerance="10"
     gridtolerance="10"
     guidetolerance="10"
     inkscape:pageopacity="0"
     inkscape:pageshadow="2"
     inkscape:window-width="1366"
     inkscape:window-height="715"
     id="namedview4156"
     showgrid="false"
     inkscape:zoom="5.5625"
     inkscape:cx="81.88764"
     inkscape:cy="48"
     inkscape:window-x="-8"
     inkscape:window-y="-8"
     inkscape:window-maximized="1"
     inkscape:current-layer="svg4154" />
  <g
     id="g4164"
     transform="translate(5.5730342,-9.5280903)">
    <path
       style="fill:#fef9f9"
       d="M 0.46035611,94.756028 C 0.19553076,94.065213 0.09611299,72.575 0.23942773,47 L 0.5,0.5 H 80 159.5 V 48 95.5 l -79.279072,0.256028 c -62.892842,0.20311 -79.37859284,-0.0036 -79.76057189,-1 z M 91.815984,79.769326 C 96.909397,77.395354 100.469,72.457187 101.97104,65.681426 103.31518,59.617931 101.70593,45.38431 98.97938,39.22048 96.777182,34.242046 93.228111,29 92.059714,29 91.61746,29 90.964642,30.819654 90.609007,33.043675 89.703455,38.706684 88.024793,41 84.785133,41 c -4.48364,0 -6.24928,-4.575601 -6.244813,-16.183241 0.0043,-11.178363 -0.140668,-11.19786 -6.95812,-0.935787 -5.480982,8.250331 -8.247879,16.34022 -9.564843,27.965812 -1.408045,12.429612 -0.131604,18.090327 5.399173,23.944049 6.694779,7.085692 14.872112,8.41906 24.399454,3.978493 z M 76.174314,67.685549 C 71.208159,62.399319 74.869602,54 82.140137,54 86.755791,54 90,57.359894 90,62.140137 90,69.24043 81.019124,72.842613 76.174314,67.685549 Z"
       id="path4178"
       inkscape:connector-curvature="0" />
    <path
       style="fill:#fef3f3"
       d="m 1.2,94.8 c -1.72737014,-1.72737 -1.72737014,-91.8726299 0,-93.6 1.7374843,-1.73748434 155.86252,-1.73748434 157.6,0 1.72737,1.7273701 1.72737,91.87263 0,93.6 -1.73748,1.737484 -155.8625157,1.737484 -157.6,0 z M 91.5,80.261163 C 99.641307,76.184156 102.45356,70.579496 102.41912,58.5 102.38675,47.146901 99.502978,37.071909 94.693089,31.507689 l -3.3742,-3.903374 -0.709986,4.447842 C 89.317546,40.142104 85.376005,43.282938 81.66333,39.180477 79.358205,36.633344 77.849307,27.615506 78.537727,20.500511 L 79.118314,14.5 75.057693,18.880258 C 66.743481,27.848935 61.780488,42.281777 61.605663,58 c -0.09629,8.657031 0.137569,9.913762 2.635489,14.162972 5.614759,9.551263 17.37848,13.046086 27.258848,8.098191 z M 76.454545,67.545455 C 74.907308,65.998217 74,63.948373 74,62 74,60.051627 74.907308,58.001783 76.454545,56.454545 81.414738,51.494353 90,55.009125 90,62 90,63.948373 89.092692,65.998217 87.545455,67.545455 85.998217,69.092692 83.948373,70 82,70 80.051627,70 78.001783,69.092692 76.454545,67.545455 Z"
       id="path4176"
       inkscape:connector-curvature="0" />
    <path
       style="fill:#fef0ee"
       d="m 1.2,94.8 c -1.72737014,-1.72737 -1.72737014,-91.8726299 0,-93.6 1.7374843,-1.73748434 155.86252,-1.73748434 157.6,0 1.72737,1.7273701 1.72737,91.87263 0,93.6 -1.73748,1.737484 -155.8625157,1.737484 -157.6,0 z M 89.276443,81.421473 C 94.828933,79.52955 100.4243,73.735492 101.92788,68.320779 105.19052,56.57129 100.63816,36.412441 93.202596,29.683347 91.230929,27.899012 91.186457,27.940214 90.502856,32.184564 89.174652,40.431128 85.35034,43.252642 81.404988,38.89682 79.764206,37.085333 79.5,35.199903 79.5,25.302422 V 13.811205 l -4.406237,4.844397 c -8.358733,9.189934 -13.964641,25.317252 -14.058875,40.445175 -0.06526,10.475868 4.044552,17.630728 12.348082,21.497065 6.00621,2.796645 9.562173,2.980922 15.893473,0.823631 z M 76.454545,67.545455 C 74.907308,65.998217 74,63.948373 74,62 74,60.051627 74.907308,58.001783 76.454545,56.454545 81.414738,51.494353 90,55.009125 90,62 90,63.948373 89.092692,65.998217 87.545455,67.545455 85.998217,69.092692 83.948373,70 82,70 80.051627,70 78.001783,69.092692 76.454545,67.545455 Z"
       id="path4174"
       inkscape:connector-curvature="0" />
    <path
       style="fill:#feecea"
       d="m 1.2,94.8 c -1.72737014,-1.72737 -1.72737014,-91.8726299 0,-93.6 1.7374843,-1.73748434 155.86252,-1.73748434 157.6,0 1.72737,1.7273701 1.72737,91.87263 0,93.6 -1.73748,1.737484 -155.8625157,1.737484 -157.6,0 z M 89.782119,81.446952 C 98.520496,77.796723 102.95206,70.418055 102.96326,59.5 102.97579,47.286042 99.16679,35.273824 93.648137,30.123428 l -2.546498,-2.376571 -0.601012,2.876571 C 88.579163,39.819972 87.073593,42.00969 83.59077,40.673205 80.358191,39.432748 78.794783,33.308307 79.159738,23.31523 c 0.187144,-5.124323 0.0527,-9.204064 -0.298761,-9.066091 -1.632879,0.641019 -8.31321,9.703889 -10.832842,14.696375 -4.209537,8.340923 -6.041181,15.504957 -6.716549,26.270155 -0.752305,11.991561 0.825349,17.03377 6.977319,22.299628 6.388323,5.468167 14.334994,6.921815 21.493214,3.931655 z M 76.454545,67.545455 C 74.907308,65.998217 74,63.948373 74,62 74,60.051627 74.907308,58.001783 76.454545,56.454545 81.414738,51.494353 90,55.009125 90,62 90,63.948373 89.092692,65.998217 87.545455,67.545455 85.998217,69.092692 83.948373,70 82,70 80.051627,70 78.001783,69.092692 76.454545,67.545455 Z"
       id="path4172"
       inkscape:connector-curvature="0" />
    <path
       style="fill:#fee8e6"
       d="M 1.5714286,94.428571 C 0.18956627,93.046709 0,87.445887 0,48 0,8.5541126 0.18956627,2.9532909 1.5714286,1.5714286 2.9727385,0.17011861 11.463203,0 80,0 148.5368,0 157.02726,0.17011861 158.42857,1.5714286 159.81043,2.9532909 160,8.5541126 160,48 160,87.445887 159.81043,93.046709 158.42857,94.428571 157.02726,95.829881 148.5368,96 80,96 11.463203,96 2.9727385,95.829881 1.5714286,94.428571 Z M 89.782119,81.446952 C 98.365831,77.86133 102.94303,70.39912 102.97804,59.933659 103.02074,47.167251 99.91808,36.848691 94.20289,30.75 90.807277,27.126534 90,27.28013 90,31.54966 90,40.480166 84.237938,43.851689 80.685159,37 79.183926,34.104808 78.939232,31.73631 79.269123,23.293599 79.488466,17.680078 79.3266,13.29815 78.90942,13.555982 76.956188,14.763145 68.469087,27.048301 66.421858,31.631839 c -5.018533,11.235991 -6.990146,30.678034 -3.86881,38.15028 4.46081,10.678848 16.86665,15.993464 27.229071,11.664833 z M 78.321178,68.811266 c -5.523496,-2.67039 -5.03909,-11.442829 0.764608,-13.8468 8.905362,-3.688722 15.066434,9.911365 6.299572,13.905814 -2.95765,1.347596 -4.175764,1.33742 -7.06418,-0.05901 z"
       id="path4170"
       inkscape:connector-curvature="0" />
    <path
       style="fill:#fee4e2"
       d="M 1.5714286,94.428571 C 0.18956627,93.046709 0,87.445887 0,48 0,8.5541126 0.18956627,2.9532909 1.5714286,1.5714286 2.9727385,0.17011861 11.463203,0 80,0 148.5368,0 157.02726,0.17011861 158.42857,1.5714286 159.81043,2.9532909 160,8.5541126 160,48 160,87.445887 159.81043,93.046709 158.42857,94.428571 157.02726,95.829881 148.5368,96 80,96 11.463203,96 2.9727385,95.829881 1.5714286,94.428571 Z M 91.693704,80.465344 C 99.475717,76.587403 102.36307,71.608243 102.83151,61.258481 103.32315,50.396302 100.95034,39.624687 96.789601,33.830644 92.017534,27.185294 90,26.299824 90,30.850777 c 0,7.800896 -4.661806,12.520046 -8.133116,8.23316 -2.336956,-2.88602 -3.258535,-9.671635 -2.576444,-18.970445 L 79.84891,12.5 l -4.441262,5 c -9.214483,10.373723 -14.356431,25.127443 -14.390284,41.289838 -0.01303,6.220241 0.459081,9.216098 1.891053,12 5.717895,11.116184 17.766927,15.166186 28.785287,9.675506 z M 76.923077,67.076923 C 75.315385,65.469231 74,63.184615 74,62 c 0,-2.783672 5.216328,-8 8,-8 2.783672,0 8,5.216328 8,8 0,2.783672 -5.216328,8 -8,8 -1.184615,0 -3.469231,-1.315385 -5.076923,-2.923077 z"
       id="path4168"
       inkscape:connector-curvature="0" />
    <path
       style="fill:#fee0dd"
       d="M 2,94 C 0.06060606,92.060606 0,90.666667 0,48 0,5.3333333 0.06060606,3.9393939 2,2 3.9649123,0.03508772 5.3333333,0 80,0 c 74.66667,0 76.03509,0.03508772 78,2 1.93939,1.9393939 2,3.3333333 2,46 0,42.666667 -0.0606,44.060606 -2,46 -1.96491,1.964912 -3.33333,2 -78,2 C 5.3333333,96 3.9649123,95.964912 2,94 Z M 94.130131,79.469746 C 96.449108,77.836386 99.432538,74.475 100.75997,72 102.99369,67.835238 103.1403,66.680529 102.72785,56.5 102.20001,43.471071 99.769356,35.964595 94.225242,30.241745 L 90.600359,26.5 89.893736,31.878666 c -0.765551,5.827212 -3.459792,9.60882 -6.118902,8.588424 -2.964803,-1.137701 -4.276999,-6.536332 -4.222544,-17.372371 l 0.05229,-10.405282 -4.088913,4.516346 C 66.397205,27.277441 61,42.516939 61,58.192081 c 0,9.972188 1.221635,13.875708 5.764102,18.418175 5.058769,5.058769 8.896458,6.492089 16.442802,6.141144 5.528311,-0.257096 7.447831,-0.833775 10.923227,-3.281654 z M 79.465282,69.039156 C 71.847767,65.986369 73.844098,54.666667 82,54.666667 c 4.051965,0 7.333333,3.281368 7.333333,7.333333 0,5.011228 -5.369991,8.841793 -9.868051,7.039156 z"
       id="path4166"
       inkscape:connector-curvature="0" />
  </g>
</svg>
