<?xml version="1.0" encoding="UTF-8" standalone="no"?>
<!-- Created with Inkscape (http://www.inkscape.org/) -->

<svg
   xmlns:dc="http://purl.org/dc/elements/1.1/"
   xmlns:cc="http://creativecommons.org/ns#"
   xmlns:rdf="http://www.w3.org/1999/02/22-rdf-syntax-ns#"
   xmlns:svg="http://www.w3.org/2000/svg"
   xmlns="http://www.w3.org/2000/svg"
   xmlns:sodipodi="http://sodipodi.sourceforge.net/DTD/sodipodi-0.dtd"
   xmlns:inkscape="http://www.inkscape.org/namespaces/inkscape"
   version="1.1"
   id="svg4256"
   width="72"
   height="72"
   viewBox="0 0 72 72"
   sodipodi:docname="red-circle copy.svg"
   inkscape:version="0.92.3 (2405546, 2018-03-11)">
  <metadata
     id="metadata4262">
    <rdf:RDF>
      <cc:Work
         rdf:about="">
        <dc:format>image/svg+xml</dc:format>
        <dc:type
           rdf:resource="http://purl.org/dc/dcmitype/StillImage" />
        <dc:title></dc:title>
      </cc:Work>
    </rdf:RDF>
  </metadata>
  <defs
     id="defs4260" />
  <sodipodi:namedview
     pagecolor="#ffffff"
     bordercolor="#666666"
     borderopacity="1"
     objecttolerance="10"
     gridtolerance="10"
     guidetolerance="10"
     inkscape:pageopacity="0"
     inkscape:pageshadow="2"
     inkscape:window-width="1366"
     inkscape:window-height="715"
     id="namedview4258"
     showgrid="false"
     inkscape:zoom="7.4166667"
     inkscape:cx="37.41573"
     inkscape:cy="36"
     inkscape:window-x="-8"
     inkscape:window-y="-8"
     inkscape:window-maximized="1"
     inkscape:current-layer="svg4256" />
  <g
     id="g4266"
     transform="translate(0.26966338,1.6179775)">
    <path
       style="fill:#f3f3f3"
       d="M 29.3264,68.997034 C 12.225531,65.446001 -0.3668916,46.889176 3.0331603,30.25 5.3336569,18.991828 12.928011,9.7383895 24,4.7026842 c 6.223227,-2.830416 17.776773,-2.830416 24,0 C 63.251176,11.639146 71.971243,27.047051 68.96684,41.75 65.208989,60.140174 46.987943,72.664491 29.3264,68.997034 Z"
       id="path4280"
       inkscape:connector-curvature="0" />
    <path
       style="fill:#fde0dd"
       d="M 22.965592,65.295564 C 16.056239,61.852488 10.147512,55.943761 6.7044362,49.034408 2.8455384,41.290609 2.8455384,30.709391 6.7044362,22.965592 10.147512,16.056239 16.056239,10.147512 22.965592,6.7044362 27.43388,4.4777947 29.736678,4 36,4 45.043926,4 51.962176,6.9095444 58.526316,13.473684 65.090456,20.037824 68,26.956074 68,36 68,45.043926 65.090456,51.962176 58.526316,58.526316 51.962176,65.090456 45.043926,68 36,68 29.736678,68 27.43388,67.522205 22.965592,65.295564 Z"
       id="path4278"
       inkscape:connector-curvature="0" />
    <path
       style="fill:#e8e8e8"
       d="M 22.965592,65.295564 C 16.056239,61.852488 10.147512,55.943761 6.7044362,49.034408 2.8455384,41.290609 2.8455384,30.709391 6.7044362,22.965592 10.147512,16.056239 16.056239,10.147512 22.965592,6.7044362 27.43388,4.4777947 29.736678,4 36,4 45.043926,4 51.962176,6.9095444 58.526316,13.473684 65.090456,20.037824 68,26.956074 68,36 68,45.043926 65.090456,51.962176 58.526316,58.526316 51.962176,65.090456 45.043926,68 36,68 29.736678,68 27.43388,67.522205 22.965592,65.295564 Z m 23.006242,-3.034332 c 2.459509,-0.877847 6.573608,-3.56205 9.142444,-5.964895 C 67.144113,45.043835 67.452121,26.2107 55.800978,14.308109 37.56083,-4.325688 5.6324141,8.8431023 5.6324141,35 c 0,20.964317 20.0392429,34.506764 40.3394199,27.261232 z"
       id="path4276"
       inkscape:connector-curvature="0" />
    <path
       style="fill:#f6ddda"
       d="M 23.252554,64.438563 C 13.806309,59.731301 4.8569625,47.955568 5.1004511,40.553656 5.1975221,37.602753 5.2307539,37.626707 6.0880513,41.265533 11.416229,63.881149 39.138537,72.004636 55.691891,55.800978 66.973118,44.758073 67.204278,26.067585 56.20065,14.665266 52.066575,10.381402 46.90375,7.4163999 41.265533,6.0880513 37.626707,5.2307539 37.602753,5.1975221 40.553656,5.1004511 47.955568,4.8569625 59.731301,13.806309 64.438563,23.252554 c 3.644229,7.313016 3.644229,18.181876 0,25.494892 -3.263401,6.548791 -9.142326,12.427716 -15.691117,15.691117 -7.313016,3.644229 -18.181876,3.644229 -25.494892,0 z M 5.0789474,30.416667 c 0.047984,-1.164943 0.2849403,-1.4019 0.6041666,-0.604167 0.2888706,0.721875 0.2533443,1.584375 -0.078947,1.916667 -0.3322917,0.332291 -0.5686404,-0.258334 -0.5252196,-1.3125 z M 11,16.687091 c 0,-0.1721 1.4625,-1.6346 3.25,-3.25 L 17.5,10.5 14.562909,13.75 C 11.825128,16.779455 11,17.459652 11,16.687091 Z M 29.8125,5.316886 c 0.721875,-0.2888706 1.584375,-0.2533443 1.916667,0.078947 0.332291,0.3322917 -0.258334,0.5686404 -1.3125,0.5252193 -1.164943,-0.047984 -1.4019,-0.28494 -0.604167,-0.6041663 z"
       id="path4274"
       inkscape:connector-curvature="0" />
    <path
       style="fill:#e9d8d6"
       d="M 23.252554,64.438563 C 20.425481,63.029773 16.314772,60.079478 14.117647,57.882353 9.5396569,53.304363 4.9683691,44.804085 5.0674936,41.053656 5.1140173,39.293406 5.5208747,39.931868 6.377005,43.108612 8.9878893,52.796517 17.522636,60.894336 27.933402,63.56145 49.270259,69.027699 69.027699,49.270259 63.56145,27.933402 60.894336,17.522636 52.796517,8.9878893 43.108612,6.377005 39.931868,5.5208747 39.293406,5.1140173 41.053656,5.0674936 44.804085,4.9683691 53.304363,9.5396569 57.882353,14.117647 64.313515,20.548809 67,26.996374 67,36 c 0,6.15863 -0.487781,8.586161 -2.561437,12.747446 -3.263401,6.548791 -9.142326,12.427716 -15.691117,15.691117 -7.313016,3.644229 -18.181876,3.644229 -25.494892,0 z"
       id="path4272"
       inkscape:connector-curvature="0" />
    <path
       style="fill:#d7d7d7"
       d="m 24.5,65.086502 c -5.145827,-2.405127 -9.883625,-6.016197 -12.702257,-9.681446 -1.8345339,-2.385562 -1.45691,-2.214317 2.111707,0.957616 6.697663,5.953157 12.279806,8.095955 21.09055,8.095955 9.100209,0 14.862293,-2.32092 21,-8.458627 11.279551,-11.279551 11.798,-27.803793 1.277594,-40.720014 -3.413269,-4.190573 -3.903003,-5.130493 -1.819096,-3.491291 7.610103,5.986107 11.490158,14.159123 11.51954,24.264961 0.01782,6.129768 -0.460877,8.522586 -2.539475,12.69379 C 61.175162,55.296237 55.296237,61.175162 48.747446,64.438563 42.18676,67.707891 30.76172,68.01319 24.5,65.086502 Z M 6.6235386,47.461341 C 5.6585601,44.946647 5.9432282,44.297786 7.1220725,46.325003 7.7057628,47.328754 7.9726713,48.360662 7.7152024,48.618131 7.4577335,48.8756 6.9664848,48.355044 6.6235386,47.461341 Z M 48,8 C 46.075,6.9461071 44.859847,6.0649691 45.29966,6.0419155 46.359362,5.9863694 52,8.919154 52,9.5256801 52,10.180189 51.941473,10.157865 48,8 Z"
       id="path4270"
       inkscape:connector-curvature="0" />
    <path
       style="fill:#c7c6c6"
       d="m 27.5,65.06121 c -1.13892,-0.454554 1.013781,-0.596874 5,-0.330561 C 51.342433,65.98948 65.98948,51.342433 64.730649,32.5 c -0.266313,-3.986219 -0.123993,-6.13892 0.330561,-5 0.439021,1.1 0.829848,4.965625 0.868505,8.590278 C 66.102863,52.325469 52.310429,66.071799 36,65.919946 32.425,65.886662 28.6,65.500231 27.5,65.06121 Z"
       id="path4268"
       inkscape:connector-curvature="0" />
  </g>
</svg>
